<svg width="64" height="64" viewBox="0 0 64 64" fill="none" xmlns="http://www.w3.org/2000/svg">
<path d="M-6.10352e-05 10.6667C-6.10352e-05 4.77563 4.77557 0 10.6666 0H53.3333C59.2243 0 63.9999 4.77563 63.9999 10.6667V53.3333C63.9999 59.2244 59.2243 64 53.3333 64H10.6666C4.77557 64 -6.10352e-05 59.2244 -6.10352e-05 53.3333V10.6667Z" fill="#1F2D47"/>
<path d="M29.5329 27.7361L28.9439 28.5442L28.9439 28.5442L29.5329 27.7361ZM31.9999 20.1414L31.3232 20.8776C31.7058 21.2293 32.2941 21.2293 32.6767 20.8776L31.9999 20.1414ZM34.467 27.7361L35.056 28.5442L35.056 28.5442L34.467 27.7361ZM31.9999 28.9011L31.9999 29.9011L31.9999 29.9011L31.9999 28.9011ZM30.122 26.928C29.2017 26.2571 28.2201 25.4413 27.4784 24.5815C26.7126 23.6939 26.3333 22.9096 26.3333 22.2862H24.3333C24.3333 23.6429 25.1045 24.8916 25.964 25.8879C26.8475 26.9121 27.9657 27.8312 28.9439 28.5442L30.122 26.928ZM26.3333 22.2862C26.3333 20.8747 27.0266 20.0696 27.8606 19.7889C28.73 19.4963 30.0264 19.6856 31.3232 20.8776L32.6767 19.4051C30.9736 17.8397 28.9367 17.3166 27.2227 17.8934C25.4733 18.4821 24.3333 20.1281 24.3333 22.2862H26.3333ZM35.056 28.5442C36.0341 27.8312 37.1524 26.9121 38.0359 25.888C38.8953 24.8916 39.6666 23.6429 39.6666 22.2862H37.6666C37.6666 22.9096 37.2872 23.6939 36.5215 24.5816C35.7798 25.4413 34.7982 26.2572 33.8779 26.928L35.056 28.5442ZM39.6666 22.2862C39.6666 20.1281 38.5266 18.4821 36.7772 17.8934C35.0632 17.3166 33.0263 17.8397 31.3232 19.4051L32.6767 20.8776C33.9735 19.6856 35.2699 19.4963 36.1393 19.7889C36.9733 20.0696 37.6666 20.8747 37.6666 22.2862H39.6666ZM28.9439 28.5442C29.9507 29.2781 30.749 29.9011 31.9999 29.9011L31.9999 27.9011C31.5133 27.9011 31.2462 27.7475 30.122 26.928L28.9439 28.5442ZM33.8779 26.928C32.7537 27.7475 32.4866 27.9011 31.9999 27.9011L31.9999 29.9011C33.2509 29.9011 34.0492 29.2781 35.056 28.5442L33.8779 26.928Z" fill="#C6D1E7"/>
<path d="M21.3333 44.5178H24.3465C25.6943 44.5178 27.0567 44.6583 28.3684 44.9285C30.6887 45.4065 33.1317 45.4645 35.4759 45.085C36.6317 44.8979 37.768 44.6118 38.7966 44.1154C39.7251 43.6672 40.8625 43.0355 41.6265 42.3279C42.3894 41.6213 43.1839 40.4649 43.7478 39.561C44.2314 38.7859 43.9975 37.8349 43.2326 37.2574C42.383 36.6159 41.1222 36.616 40.2728 37.2577L37.8632 39.0779C36.9293 39.7833 35.9092 40.4327 34.694 40.6265C34.5479 40.6499 34.3948 40.6711 34.2351 40.6896M34.2351 40.6896C34.187 40.6952 34.1383 40.7005 34.089 40.7055M34.2351 40.6896C34.4295 40.6479 34.6225 40.5281 34.8036 40.37C35.6612 39.6215 35.7155 38.36 34.9713 37.5242C34.7987 37.3302 34.5967 37.1685 34.372 37.0345C30.6422 34.8099 24.8392 36.5043 21.3333 38.9906M34.2351 40.6896C34.1864 40.7 34.1377 40.7055 34.089 40.7055M34.089 40.7055C33.3912 40.7772 32.5748 40.7957 31.669 40.7102" stroke="#C6D1E7" stroke-width="2" stroke-linecap="round"/>
</svg>
