<svg width="64" height="65" viewBox="0 0 64 65" fill="none" xmlns="http://www.w3.org/2000/svg">
<path d="M-6.10352e-05 11.3332C-6.10352e-05 5.44213 4.77557 0.666504 10.6666 0.666504H53.3333C59.2243 0.666504 63.9999 5.44213 63.9999 11.3332V53.9998C63.9999 59.8909 59.2243 64.6665 53.3333 64.6665H10.6666C4.77557 64.6665 -6.10352e-05 59.8909 -6.10352e-05 53.9998V11.3332Z" fill="#1F2D47"/>
<path d="M43.9999 44.6665L38.1999 38.8665M30.6666 24.6665C34.3485 24.6665 37.3333 27.6513 37.3333 31.3332M41.3333 31.3332C41.3333 37.2242 36.5576 41.9998 30.6666 41.9998C24.7756 41.9998 19.9999 37.2242 19.9999 31.3332C19.9999 25.4421 24.7756 20.6665 30.6666 20.6665C36.5576 20.6665 41.3333 25.4421 41.3333 31.3332Z" stroke="#C6D1E7" stroke-width="2" stroke-linecap="round" stroke-linejoin="round"/>
</svg>
