<svg width="64" height="65" viewBox="0 0 64 65" fill="none" xmlns="http://www.w3.org/2000/svg">
<path d="M-6.10352e-05 11.3332C-6.10352e-05 5.44213 4.77557 0.666504 10.6666 0.666504H53.3333C59.2243 0.666504 63.9999 5.44213 63.9999 11.3332V53.9998C63.9999 59.8909 59.2243 64.6665 53.3333 64.6665H10.6666C4.77557 64.6665 -6.10352e-05 59.8909 -6.10352e-05 53.9998V11.3332Z" fill="#1F2D47"/>
<path d="M17.3333 20.3331C17.3333 19.0444 18.3779 17.9998 19.6666 17.9998H24.3333C24.8856 17.9998 25.3333 18.4475 25.3333 18.9998C25.3333 19.552 24.8856 19.9998 24.3333 19.9998H19.6666C19.4825 19.9998 19.3333 20.149 19.3333 20.3331V24.9998C19.3333 25.552 18.8856 25.9998 18.3333 25.9998C17.781 25.9998 17.3333 25.552 17.3333 24.9998V20.3331ZM46.6666 20.3331L46.6666 25.0061C46.6666 25.5584 46.2189 26.0061 45.6666 26.0061C45.1143 26.0061 44.6666 25.5584 44.6666 25.0061L44.6666 20.3331C44.6666 20.149 44.5174 19.9998 44.3333 19.9998H39.6666C39.1143 19.9998 38.6666 19.552 38.6666 18.9998C38.6666 18.4475 39.1143 17.9998 39.6666 17.9998H44.3333C45.6219 17.9998 46.6666 19.0444 46.6666 20.3331ZM39.6666 47.3331L44.3333 47.3331C45.6219 47.3331 46.6666 46.2884 46.6666 44.9997V40.3331C46.6666 39.7808 46.2189 39.3331 45.6666 39.3331C45.1143 39.3331 44.6666 39.7808 44.6666 40.3331V44.9997C44.6666 45.1838 44.5174 45.3331 44.3333 45.3331L39.6666 45.3331C39.1143 45.3331 38.6666 45.7808 38.6666 46.3331C38.6666 46.8854 39.1143 47.3331 39.6666 47.3331ZM17.3333 44.9998L17.3333 40.3383C17.3333 39.786 17.781 39.3383 18.3333 39.3383C18.8856 39.3383 19.3333 39.786 19.3333 40.3383L19.3333 44.9998C19.3333 45.1839 19.4825 45.3331 19.6666 45.3331H24.3353C24.8875 45.3331 25.3353 45.7808 25.3353 46.3331C25.3353 46.8854 24.8875 47.3331 24.3353 47.3331H19.6666C18.378 47.3331 17.3333 46.2884 17.3333 44.9998ZM33.3274 40.6664H26.6666C25.1938 40.6664 23.9999 39.4725 23.9999 37.9998V27.3331C23.9999 25.8603 25.1938 24.6664 26.6666 24.6664H37.3333C38.806 24.6664 39.9999 25.8603 39.9999 27.3331V33.9998H35.3274C34.2228 33.9998 33.3274 34.8952 33.3274 35.9998V40.6664ZM39.9999 35.3331V35.3372L34.6625 40.6664H34.6607V35.9998C34.6607 35.6316 34.9592 35.3331 35.3274 35.3331H39.9999ZM27.3333 28.6664C26.9651 28.6664 26.6666 28.9649 26.6666 29.3331C26.6666 29.7013 26.9651 29.9998 27.3333 29.9998H35.3333C35.7015 29.9998 35.9999 29.7013 35.9999 29.3331C35.9999 28.9649 35.7015 28.6664 35.3333 28.6664H27.3333ZM26.6666 32.6664C26.6666 33.0346 26.9651 33.3331 27.3333 33.3331H31.3333C31.7015 33.3331 31.9999 33.0346 31.9999 32.6664C31.9999 32.2982 31.7015 31.9998 31.3333 31.9998H27.3333C26.9651 31.9998 26.6666 32.2982 26.6666 32.6664Z" fill="#C6D1E7"/>
</svg>
