<svg width="64" height="65" viewBox="0 0 64 65" fill="none" xmlns="http://www.w3.org/2000/svg">
<path d="M-6.10352e-05 10.9997C-6.10352e-05 5.10864 4.77557 0.333008 10.6666 0.333008H53.3333C59.2243 0.333008 63.9999 5.10864 63.9999 10.9997V53.6663C63.9999 59.5574 59.2243 64.333 53.3333 64.333H10.6666C4.77557 64.333 -6.10352e-05 59.5574 -6.10352e-05 53.6663V10.9997Z" fill="#1F2D47"/>
<path d="M41.3333 36.3328V26.9995C41.3333 23.2283 41.3333 21.3427 40.1617 20.1711C38.9901 18.9995 37.1045 18.9995 33.3333 18.9995H30.6666C26.8954 18.9995 25.0097 18.9995 23.8382 20.1711C22.6666 21.3427 22.6666 23.2283 22.6666 26.9995V37.6662C22.6666 41.4374 22.6666 43.323 23.8382 44.4946C25.0097 45.6662 26.8954 45.6662 30.6666 45.6662H33.3333" stroke="#C6D1E7" stroke-width="2" stroke-linecap="round"/>
<path d="M22.6666 21.7681C21.3665 21.8959 20.4914 22.185 19.8382 22.8381C18.6666 24.0097 18.6666 25.8953 18.6666 29.6666V34.9999C18.6666 38.7711 18.6666 40.6568 19.8382 41.8283C20.4914 42.4815 21.3665 42.7705 22.6666 42.8984" stroke="#C6D1E7" stroke-width="2"/>
<path d="M44.3333 33.6665C44.3333 34.2188 44.781 34.6665 45.3333 34.6665C45.8856 34.6665 46.3333 34.2188 46.3333 33.6665H44.3333ZM44.1617 22.8381L44.8688 22.131L44.8688 22.131L44.1617 22.8381ZM46.3333 33.6665V29.6666H44.3333V33.6665H46.3333ZM46.3333 29.6666C46.3333 27.8092 46.3354 26.3156 46.1779 25.1442C46.0166 23.9441 45.6714 22.9336 44.8688 22.131L43.4546 23.5453C43.8236 23.9143 44.0642 24.4324 44.1957 25.4107C44.3312 26.4179 44.3333 27.7527 44.3333 29.6666H46.3333ZM41.2354 22.7633C42.4478 22.8825 43.0437 23.1344 43.4546 23.5453L44.8688 22.131C43.9733 21.2356 42.8189 20.9094 41.4312 20.7729L41.2354 22.7633Z" fill="#C6D1E7"/>
<path d="M27.9999 33.6665H35.9999" stroke="#C6D1E7" stroke-width="2" stroke-linecap="round"/>
<path d="M27.9999 28.333H35.9999" stroke="#C6D1E7" stroke-width="2" stroke-linecap="round"/>
<path d="M27.9999 38.9995H31.9999" stroke="#C6D1E7" stroke-width="2" stroke-linecap="round"/>
<path d="M38.6666 40.333L45.3333 46.9997M45.3333 40.333L38.6666 46.9997" stroke="#C6D1E7" stroke-width="2" stroke-linecap="round" stroke-linejoin="round"/>
</svg>
