<svg width="64" height="65" viewBox="0 0 64 65" fill="none" xmlns="http://www.w3.org/2000/svg">
<path d="M-6.10352e-05 10.9997C-6.10352e-05 5.10864 4.77557 0.333008 10.6666 0.333008H53.3333C59.2243 0.333008 63.9999 5.10864 63.9999 10.9997V53.6663C63.9999 59.5574 59.2243 64.333 53.3333 64.333H10.6666C4.77557 64.333 -6.10352e-05 59.5574 -6.10352e-05 53.6663V10.9997Z" fill="#1F2D47"/>
<path fill-rule="evenodd" clip-rule="evenodd" d="M45.9999 31.7115C45.9999 22.54 42.7692 18.333 31.9999 18.333C21.2307 18.333 17.9999 22.54 17.9999 31.7115C17.9999 38.2385 19.6362 42.2512 24.4615 44.0225V47.1105C24.4615 48.2471 25.8876 48.7663 26.6264 47.8986L29.1163 44.9741C30.0112 45.0515 30.9712 45.0899 31.9999 45.0899C42.7692 45.0899 45.9999 40.8829 45.9999 31.7115ZM29.7112 42.8646C30.4251 42.9212 31.1871 42.9494 31.9999 42.9494C41.1124 42.9494 43.8461 39.4155 43.8461 31.7115C43.8461 24.0074 41.1124 20.4736 31.9999 20.4736C22.8875 20.4736 20.1538 24.0074 20.1538 31.7115C20.1538 37.1569 21.5196 40.5189 25.5384 42.0222V46.5969C25.5384 46.9957 26.0388 47.1779 26.298 46.8734L29.7112 42.8646Z" fill="#BFC8D0"/>
<path d="M31.9999 42.1878C31.1766 42.1878 30.4046 42.1592 29.6815 42.1016L26.224 46.178C25.9614 46.4876 25.4545 46.3023 25.4545 45.8968V41.2449C21.3835 39.7164 19.9999 36.2977 19.9999 30.7604C19.9999 22.9265 22.7692 19.333 31.9999 19.333C41.2307 19.333 43.9999 22.9265 43.9999 30.7604C43.9999 38.5943 41.2307 42.1878 31.9999 42.1878Z" fill="#9179EE"/>
<path fill-rule="evenodd" clip-rule="evenodd" d="M45.9999 30.7115C45.9999 21.54 42.7692 17.333 31.9999 17.333C21.2307 17.333 17.9999 21.54 17.9999 30.7115C17.9999 37.2385 19.6362 41.2512 24.4615 43.0225V46.1105C24.4615 47.2471 25.8876 47.7663 26.6264 46.8986L29.1163 43.9741C30.0112 44.0515 30.9712 44.0899 31.9999 44.0899C42.7692 44.0899 45.9999 39.8829 45.9999 30.7115ZM29.7112 41.8646C30.4251 41.9212 31.1871 41.9494 31.9999 41.9494C41.1124 41.9494 43.8461 38.4155 43.8461 30.7115C43.8461 23.0074 41.1124 19.4736 31.9999 19.4736C22.8875 19.4736 20.1538 23.0074 20.1538 30.7115C20.1538 36.1569 21.5196 39.5189 25.5384 41.0222V45.5969C25.5384 45.9957 26.0388 46.1779 26.298 45.8734L29.7112 41.8646Z" fill="white"/>
<path d="M27.5431 28.4675L27.5025 28.49L27.4667 28.5196C27.1901 28.7484 26.7755 29.3764 27.1387 30.1527C27.4413 30.7995 28.1156 32.1204 29.3004 33.1156C30.4591 34.089 31.6964 34.6125 32.5092 34.7839L32.5602 34.7947H32.6068C32.6091 34.7949 32.6139 34.7955 32.6218 34.7966C32.6411 34.7993 32.6645 34.8033 32.7011 34.8097L32.7873 34.3172L32.7011 34.8097C32.7074 34.8108 32.7139 34.812 32.7207 34.8132C32.9708 34.8574 33.5703 34.9634 34.0728 34.4628C34.3954 34.1413 34.6898 33.8062 34.8164 33.6555C34.9054 33.5743 35.1956 33.4061 35.5625 33.5302C36.2575 33.7651 37.0838 34.2951 37.4832 34.5639C37.7925 34.772 38.4924 35.2734 38.8079 35.5012L38.8081 35.5014C38.8343 35.5203 38.8958 35.5823 38.9291 35.6684C38.9556 35.7372 38.9699 35.8319 38.906 35.9687C38.7874 36.2225 38.4265 36.707 37.9378 37.1308C37.44 37.5624 36.9222 37.833 36.5071 37.833C36.5086 37.833 36.5071 37.8328 36.5025 37.8322C36.4839 37.8297 36.4152 37.8204 36.2791 37.7898C36.1261 37.7555 35.9194 37.7016 35.6668 37.6256C35.1621 37.4738 34.4849 37.237 33.7029 36.9005C32.1374 36.2271 30.1667 35.1607 28.3217 33.5902C27.1612 32.6024 26.0663 31.2366 25.2137 29.9581C24.354 28.6688 23.7789 27.5262 23.6224 26.9985L23.6114 26.9616L23.5949 26.9267C23.556 26.8444 23.5011 26.6685 23.4999 26.469C23.4989 26.2763 23.5472 26.0922 23.6746 25.9396C24.0946 25.4362 24.5393 24.9416 25.5204 24.467C25.6118 24.4227 25.755 24.3838 25.8957 24.3815C26.04 24.3792 26.1151 24.415 26.1452 24.4414C26.5206 24.7705 27.1024 25.3516 27.4945 25.8481C27.697 26.1046 27.9418 26.4305 28.1457 26.7136C28.2477 26.8552 28.3377 26.9836 28.4061 27.0857C28.4404 27.1369 28.4678 27.1792 28.488 27.2118C28.5018 27.2342 28.5092 27.2473 28.5123 27.2529C28.514 27.2586 28.5217 27.2829 28.5285 27.3269C28.537 27.3824 28.5411 27.4507 28.5353 27.5221C28.5234 27.6681 28.4754 27.7854 28.3891 27.8645C28.0961 28.1328 27.6989 28.3812 27.5431 28.4675ZM32.2774 22.85C32.2771 22.8497 32.2768 22.8494 32.2765 22.8491C32.2768 22.8489 32.2771 22.8486 32.2774 22.8483C32.2846 22.8415 32.2994 22.833 32.3225 22.833C36.3145 22.833 39.4983 25.8709 39.4999 29.556C39.4993 29.5569 39.4982 29.5582 39.4966 29.5597C39.4895 29.5664 39.4747 29.5749 39.4515 29.5749C39.4284 29.5749 39.4136 29.5664 39.4065 29.5597C39.4048 29.5582 39.4038 29.5569 39.4032 29.556C39.4016 25.8325 36.2031 22.8653 32.3225 22.8653C32.2994 22.8653 32.2846 22.8567 32.2774 22.85ZM32.2774 26.979C32.2771 26.9787 32.2768 26.9784 32.2765 26.9782C32.2768 26.9779 32.2771 26.9776 32.2774 26.9773C32.2846 26.9706 32.2994 26.962 32.3225 26.962C33.8915 26.962 35.1112 28.1512 35.1128 29.556C35.1122 29.5569 35.1111 29.5582 35.1095 29.5597C35.1024 29.5664 35.0876 29.5749 35.0644 29.5749C35.0413 29.5749 35.0265 29.5664 35.0194 29.5597C35.0177 29.5582 35.0167 29.5569 35.0161 29.556C35.0145 28.1129 33.7802 26.9943 32.3225 26.9943C32.2994 26.9943 32.2846 26.9858 32.2774 26.979ZM32.2774 24.9145C32.2771 24.9142 32.2768 24.9139 32.2765 24.9137C32.2768 24.9134 32.2771 24.9131 32.2774 24.9128C32.2846 24.906 32.2994 24.8975 32.3225 24.8975C35.103 24.8975 37.3048 27.011 37.3064 29.556C37.3057 29.5569 37.3047 29.5582 37.3031 29.5597C37.2959 29.5664 37.2811 29.5749 37.258 29.5749C37.2349 29.5749 37.2201 29.5664 37.2129 29.5597C37.2113 29.5582 37.2102 29.5569 37.2096 29.556C37.208 26.9727 34.9916 24.9298 32.3225 24.9298C32.2994 24.9298 32.2846 24.9213 32.2774 24.9145Z" fill="white" stroke="white" stroke-linecap="round"/>
</svg>
