<svg width="64" height="64" viewBox="0 0 64 64" fill="none" xmlns="http://www.w3.org/2000/svg">
<path d="M-6.10352e-05 10.6667C-6.10352e-05 4.77563 4.77557 0 10.6666 0H53.3333C59.2243 0 63.9999 4.77563 63.9999 10.6667V53.3333C63.9999 59.2244 59.2243 64 53.3333 64H10.6666C4.77557 64 -6.10352e-05 59.2244 -6.10352e-05 53.3333V10.6667Z" fill="#1F2D47"/>
<path d="M27.4999 31.3113L30.4999 34.2753L37.2499 27.6064M43.9999 32.0523C43.9999 39.3264 35.969 44.617 33.0469 46.3012C32.7148 46.4926 32.5488 46.5883 32.3145 46.6379C32.1326 46.6765 31.8673 46.6765 31.6854 46.6379C31.4511 46.5883 31.285 46.4926 30.953 46.3012C28.0309 44.617 19.9999 39.3264 19.9999 32.0523V24.965C19.9999 23.7802 19.9999 23.1877 20.1961 22.6785C20.3694 22.2286 20.6509 21.8272 21.0164 21.509C21.4302 21.1487 21.9916 20.9407 23.1145 20.5247L31.1572 17.5449C31.4691 17.4294 31.625 17.3716 31.7854 17.3487C31.9277 17.3284 32.0722 17.3284 32.2145 17.3487C32.3749 17.3716 32.5308 17.4294 32.8426 17.5449L40.8853 20.5247C42.0082 20.9407 42.5697 21.1487 42.9835 21.509C43.349 21.8272 43.6305 22.2286 43.8038 22.6785C43.9999 23.1877 43.9999 23.7802 43.9999 24.965V32.0523Z" stroke="#C6D1E7" stroke-width="2" stroke-linecap="round" stroke-linejoin="round"/>
</svg>
