<svg width="64" height="65" viewBox="0 0 64 65" fill="none" xmlns="http://www.w3.org/2000/svg">
<path d="M-6.10352e-05 10.9997C-6.10352e-05 5.10864 4.77557 0.333008 10.6666 0.333008H53.3333C59.2243 0.333008 63.9999 5.10864 63.9999 10.9997V53.6663C63.9999 59.5574 59.2243 64.333 53.3333 64.333H10.6666C4.77557 64.333 -6.10352e-05 59.5574 -6.10352e-05 53.6663V10.9997Z" fill="#1F2D47"/>
<g filter="url(#filter0_d_2185_244)">
<path d="M32.0027 27.6006L27.3882 19.457C27.5414 19.301 27.7177 19.1987 27.8939 19.1299C26.5331 19.5777 25.9088 21.1058 25.9088 21.1058L17.4787 35.9791C17.3601 36.4454 17.3272 36.8664 17.342 37.2371H26.543L32.0027 27.6006Z" fill="#34A853"/>
<path d="M32.0025 27.6006L37.4622 37.2371H46.6632C46.678 36.8664 46.6451 36.4454 46.5264 35.9791L38.0964 21.1058C38.0964 21.1058 37.4704 19.5777 36.1112 19.1299C36.2859 19.1987 36.4638 19.301 36.617 19.457L32.0025 27.6006Z" fill="#FBBC05"/>
<path d="M32.0025 27.6017L36.617 19.4581C36.4638 19.3021 36.2859 19.1998 36.1113 19.131C35.9103 19.0656 35.6945 19.022 35.4605 19.0103H35.2167H28.7884H28.5445C28.3122 19.0203 28.0948 19.0639 27.8938 19.131C27.7192 19.1998 27.5412 19.3021 27.388 19.4581L32.0025 27.6017Z" fill="#188038"/>
<path d="M26.5445 37.2373L21.9827 45.2887C21.9827 45.2887 21.8312 45.2149 21.6252 45.0622C22.2727 45.5604 22.902 45.6661 22.902 45.6661H40.818C41.8065 45.6661 42.0124 45.2887 42.0124 45.2887C42.0157 45.287 42.0174 45.2853 42.0207 45.2836L37.4622 37.2373H26.5445Z" fill="#4285F4"/>
<path d="M26.5449 37.2373H17.3438C17.39 38.3309 17.8644 38.97 17.8644 38.97L18.2104 39.5705C18.2351 39.6058 18.2499 39.6259 18.2499 39.6259L19.0028 40.9476L20.6931 43.8898C20.7425 44.0088 20.8002 44.1179 20.8612 44.2219C20.8842 44.2571 20.9056 44.2957 20.9304 44.3292C20.9369 44.3393 20.9435 44.3493 20.9501 44.3594C21.1593 44.6546 21.3933 44.8828 21.6272 45.0622C21.8332 45.2165 21.9847 45.2887 21.9847 45.2887L26.5449 37.2373Z" fill="#1967D2"/>
<path d="M37.4622 37.2373H46.6632C46.6171 38.3309 46.1426 38.97 46.1426 38.97L45.7966 39.5705C45.7719 39.6058 45.7571 39.6259 45.7571 39.6259L45.0042 40.9476L43.3139 43.8898C43.2645 44.0088 43.2068 44.1179 43.1459 44.2219C43.1228 44.2571 43.1014 44.2957 43.0767 44.3292C43.0701 44.3393 43.0635 44.3493 43.0569 44.3594C42.8477 44.6546 42.6138 44.8828 42.3798 45.0622C42.1739 45.2165 42.0223 45.2887 42.0223 45.2887L37.4622 37.2373Z" fill="#EA4335"/>
</g>
<defs>
<filter id="filter0_d_2185_244" x="13.3333" y="14.9997" width="37.3333" height="37.3333" filterUnits="userSpaceOnUse" color-interpolation-filters="sRGB">
<feFlood flood-opacity="0" result="BackgroundImageFix"/>
<feColorMatrix in="SourceAlpha" type="matrix" values="0 0 0 0 0 0 0 0 0 0 0 0 0 0 0 0 0 0 127 0" result="hardAlpha"/>
<feOffset dy="1.33333"/>
<feGaussianBlur stdDeviation="1.33333"/>
<feColorMatrix type="matrix" values="0 0 0 0 0.0627451 0 0 0 0 0.0941176 0 0 0 0 0.156863 0 0 0 0.05 0"/>
<feBlend mode="normal" in2="BackgroundImageFix" result="effect1_dropShadow_2185_244"/>
<feBlend mode="normal" in="SourceGraphic" in2="effect1_dropShadow_2185_244" result="shape"/>
</filter>
</defs>
</svg>
