<svg width="64" height="65" viewBox="0 0 64 65" fill="none" xmlns="http://www.w3.org/2000/svg">
<path d="M-6.10352e-05 11.0002C-6.10352e-05 5.10913 4.77557 0.333496 10.6666 0.333496H53.3333C59.2243 0.333496 63.9999 5.10913 63.9999 11.0002V53.6668C63.9999 59.5579 59.2243 64.3335 53.3333 64.3335H10.6666C4.77557 64.3335 -6.10352e-05 59.5579 -6.10352e-05 53.6668V11.0002Z" fill="#1F2D47"/>
<path d="M27.1999 20.3335H22.1333C21.3865 20.3335 21.0132 20.3335 20.728 20.4788C20.4771 20.6067 20.2731 20.8106 20.1453 21.0615C19.9999 21.3467 19.9999 21.7201 19.9999 22.4668V27.5335C19.9999 28.2802 19.9999 28.6536 20.1453 28.9388C20.2731 29.1897 20.4771 29.3937 20.728 29.5215C21.0132 29.6668 21.3865 29.6668 22.1333 29.6668H27.1999C27.9467 29.6668 28.32 29.6668 28.6053 29.5215C28.8561 29.3937 29.0601 29.1897 29.1879 28.9388C29.3333 28.6536 29.3333 28.2802 29.3333 27.5335V22.4668C29.3333 21.7201 29.3333 21.3467 29.1879 21.0615C29.0601 20.8106 28.8561 20.6067 28.6053 20.4788C28.32 20.3335 27.9467 20.3335 27.1999 20.3335Z" stroke="#C6D1E7" stroke-width="2" stroke-linecap="round" stroke-linejoin="round"/>
<path d="M41.8666 20.3335H36.7999C36.0532 20.3335 35.6798 20.3335 35.3946 20.4788C35.1437 20.6067 34.9398 20.8106 34.8119 21.0615C34.6666 21.3467 34.6666 21.7201 34.6666 22.4668V27.5335C34.6666 28.2802 34.6666 28.6536 34.8119 28.9388C34.9398 29.1897 35.1437 29.3937 35.3946 29.5215C35.6798 29.6668 36.0532 29.6668 36.7999 29.6668H41.8666C42.6133 29.6668 42.9867 29.6668 43.2719 29.5215C43.5228 29.3937 43.7268 29.1897 43.8546 28.9388C43.9999 28.6536 43.9999 28.2802 43.9999 27.5335V22.4668C43.9999 21.7201 43.9999 21.3467 43.8546 21.0615C43.7268 20.8106 43.5228 20.6067 43.2719 20.4788C42.9867 20.3335 42.6133 20.3335 41.8666 20.3335Z" stroke="#C6D1E7" stroke-width="2" stroke-linecap="round" stroke-linejoin="round"/>
<path d="M41.8666 35.0002H36.7999C36.0532 35.0002 35.6798 35.0002 35.3946 35.1455C35.1437 35.2733 34.9398 35.4773 34.8119 35.7282C34.6666 36.0134 34.6666 36.3868 34.6666 37.1335V42.2002C34.6666 42.9469 34.6666 43.3203 34.8119 43.6055C34.9398 43.8564 35.1437 44.0603 35.3946 44.1882C35.6798 44.3335 36.0532 44.3335 36.7999 44.3335H41.8666C42.6133 44.3335 42.9867 44.3335 43.2719 44.1882C43.5228 44.0603 43.7268 43.8564 43.8546 43.6055C43.9999 43.3203 43.9999 42.9469 43.9999 42.2002V37.1335C43.9999 36.3868 43.9999 36.0134 43.8546 35.7282C43.7268 35.4773 43.5228 35.2733 43.2719 35.1455C42.9867 35.0002 42.6133 35.0002 41.8666 35.0002Z" stroke="#C6D1E7" stroke-width="2" stroke-linecap="round" stroke-linejoin="round"/>
<path d="M27.1999 35.0002H22.1333C21.3865 35.0002 21.0132 35.0002 20.728 35.1455C20.4771 35.2733 20.2731 35.4773 20.1453 35.7282C19.9999 36.0134 19.9999 36.3868 19.9999 37.1335V42.2002C19.9999 42.9469 19.9999 43.3203 20.1453 43.6055C20.2731 43.8564 20.4771 44.0603 20.728 44.1882C21.0132 44.3335 21.3865 44.3335 22.1333 44.3335H27.1999C27.9467 44.3335 28.32 44.3335 28.6053 44.1882C28.8561 44.0603 29.0601 43.8564 29.1879 43.6055C29.3333 43.3203 29.3333 42.9469 29.3333 42.2002V37.1335C29.3333 36.3868 29.3333 36.0134 29.1879 35.7282C29.0601 35.4773 28.8561 35.2733 28.6053 35.1455C28.32 35.0002 27.9467 35.0002 27.1999 35.0002Z" stroke="#C6D1E7" stroke-width="2" stroke-linecap="round" stroke-linejoin="round"/>
</svg>
