<svg width="64" height="65" viewBox="0 0 64 65" fill="none" xmlns="http://www.w3.org/2000/svg">
<path d="M-6.10352e-05 11.3332C-6.10352e-05 5.44213 4.77557 0.666504 10.6666 0.666504H53.3333C59.2243 0.666504 63.9999 5.44213 63.9999 11.3332V53.9998C63.9999 59.8909 59.2243 64.6665 53.3333 64.6665H10.6666C4.77557 64.6665 -6.10352e-05 59.8909 -6.10352e-05 53.9998V11.3332Z" fill="#1F2D47"/>
<path d="M35.3333 41.9997L37.9999 44.6663L43.9999 38.6663M45.3135 33.3995C45.3266 33.1568 45.3333 32.9123 45.3333 32.6663C45.3333 25.3025 39.3637 19.333 31.9999 19.333C24.6361 19.333 18.6666 25.3025 18.6666 32.6663C18.6666 39.9136 24.4486 45.8103 31.6513 45.9952M31.9999 24.6663V32.6663L36.9844 35.1586" stroke="#C6D1E7" stroke-width="2" stroke-linecap="round" stroke-linejoin="round"/>
</svg>
