<svg width="64" height="64" viewBox="0 0 64 64" fill="none" xmlns="http://www.w3.org/2000/svg">
<path d="M-6.10352e-05 10.6667C-6.10352e-05 4.77563 4.77557 0 10.6666 0H53.3333C59.2243 0 63.9999 4.77563 63.9999 10.6667V53.3333C63.9999 59.2244 59.2243 64 53.3333 64H10.6666C4.77557 64 -6.10352e-05 59.2244 -6.10352e-05 53.3333V10.6667Z" fill="#1F2D47"/>
<path d="M31.9999 39.3332H32.0133M26.9333 45.3332H37.0666C38.5601 45.3332 39.3068 45.3332 39.8772 45.0425C40.379 44.7869 40.787 44.3789 41.0426 43.8771C41.3333 43.3067 41.3333 42.56 41.3333 41.0665V22.9332C41.3333 21.4397 41.3333 20.693 41.0426 20.1225C40.787 19.6208 40.379 19.2128 39.8772 18.9572C39.3068 18.6665 38.5601 18.6665 37.0666 18.6665H26.9333C25.4398 18.6665 24.6931 18.6665 24.1226 18.9572C23.6209 19.2128 23.2129 19.6208 22.9573 20.1225C22.6666 20.693 22.6666 21.4397 22.6666 22.9332V41.0665C22.6666 42.56 22.6666 43.3067 22.9573 43.8771C23.2129 44.3789 23.6209 44.7869 24.1226 45.0425C24.6931 45.3332 25.4398 45.3332 26.9333 45.3332ZM32.6666 39.3332C32.6666 39.7014 32.3681 39.9998 31.9999 39.9998C31.6317 39.9998 31.3333 39.7014 31.3333 39.3332C31.3333 38.965 31.6317 38.6665 31.9999 38.6665C32.3681 38.6665 32.6666 38.965 32.6666 39.3332Z" stroke="#C6D1E7" stroke-width="2" stroke-linecap="round" stroke-linejoin="round"/>
</svg>
