<svg width="64" height="64" viewBox="0 0 64 64" fill="none" xmlns="http://www.w3.org/2000/svg">
<path d="M-6.10352e-05 10.6667C-6.10352e-05 4.77563 4.77557 0 10.6666 0H53.3333C59.2243 0 63.9999 4.77563 63.9999 10.6667V53.3333C63.9999 59.2244 59.2243 64 53.3333 64H10.6666C4.77557 64 -6.10352e-05 59.2244 -6.10352e-05 53.3333V10.6667Z" fill="#1F2D47"/>
<path d="M34.6666 25.3335H25.7467C21.4913 25.3335 19.3636 25.3335 18.1684 26.6986C16.9732 28.0637 17.2544 30.1727 17.8169 34.3908L18.3502 38.3908C18.7912 41.6986 19.0118 43.3526 20.143 44.343C21.2743 45.3335 22.9429 45.3335 26.28 45.3335H33.6051C36.9422 45.3335 38.6108 45.3335 39.742 44.343C40.8733 43.3526 41.0939 41.6986 41.5349 38.3908L42.0682 34.3908" stroke="#C6D1E7" stroke-width="2" stroke-linecap="round"/>
<path d="M35.3333 23C35.8856 23 36.3333 22.5523 36.3333 22C36.3333 21.4477 35.8856 21 35.3333 21V23ZM22.66 23H35.3333V21H22.66V23ZM22.66 21C20.2725 21 18.4629 23.1543 18.8749 25.5059L20.8449 25.1607C20.6473 24.033 21.5151 23 22.66 23V21Z" fill="#C6D1E7"/>
<path d="M35.9999 19.6665C36.5522 19.6665 36.9999 19.2188 36.9999 18.6665C36.9999 18.1142 36.5522 17.6665 35.9999 17.6665V19.6665ZM24.9341 18.6817L25.0409 19.676L25.0409 19.676L24.9341 18.6817ZM22.552 21.339L23.552 21.3368L23.552 21.3368L22.552 21.339ZM25.5973 19.6665H35.9999V17.6665H25.5973V19.6665ZM25.5973 17.6665C25.2767 17.6665 25.0361 17.665 24.8274 17.6874L25.0409 19.676C25.1159 19.668 25.2228 19.6665 25.5973 19.6665V17.6665ZM23.6031 21.891C23.5624 21.5187 23.5522 21.4123 23.552 21.3368L21.552 21.3411C21.5525 21.551 21.5801 21.79 21.615 22.1087L23.6031 21.891ZM24.8274 17.6874C22.9615 17.8877 21.548 19.4645 21.552 21.3411L23.552 21.3368C23.5502 20.4838 24.1927 19.767 25.0409 19.676L24.8274 17.6874Z" fill="#C6D1E7"/>
<path d="M41.9999 19.9998V28.6665M41.9999 19.9998L45.3333 23.1109M41.9999 19.9998L38.6666 23.1109" stroke="#C6D1E7" stroke-width="2" stroke-linecap="round" stroke-linejoin="round"/>
<path d="M23.9999 32H35.9999" stroke="#C6D1E7" stroke-width="2" stroke-linecap="round"/>
<path d="M25.3333 36H34.6666" stroke="#C6D1E7" stroke-width="2" stroke-linecap="round"/>
<path d="M26.6666 40H33.3333" stroke="#C6D1E7" stroke-width="2" stroke-linecap="round"/>
</svg>
