<svg width="64" height="65" viewBox="0 0 64 65" fill="none" xmlns="http://www.w3.org/2000/svg">
<path d="M-6.10352e-05 10.9997C-6.10352e-05 5.10864 4.77557 0.333008 10.6666 0.333008H53.3333C59.2243 0.333008 63.9999 5.10864 63.9999 10.9997V53.6663C63.9999 59.5574 59.2243 64.333 53.3333 64.333H10.6666C4.77557 64.333 -6.10352e-05 59.5574 -6.10352e-05 53.6663V10.9997Z" fill="#1F2D47"/>
<path d="M36.8612 40.3527C37.433 42.4866 36.1666 44.6799 34.0328 45.2517C31.8989 45.8235 29.7056 44.5571 29.1338 42.4233M18.7424 31.8174C18.2231 29.9532 18.7632 27.9377 20.145 26.5828M32.1951 23.9875C32.6007 23.2577 32.7343 22.3757 32.5011 21.5056C32.0247 19.7274 30.1969 18.6721 28.4187 19.1486C26.6404 19.6251 25.5852 21.4529 26.0616 23.2311C26.2948 24.1012 26.8515 24.7982 27.5676 25.2274M43.092 25.293C42.6096 23.4189 41.1342 21.9434 39.26 21.461M39.3208 28.9267C38.8449 27.1505 37.5743 25.6653 35.7886 24.7976C34.0029 23.93 31.8484 23.751 29.7989 24.3002C27.7495 24.8493 25.9731 26.0816 24.8604 27.7258C23.7478 29.3701 23.3901 31.2916 23.866 33.0678C24.6534 36.0066 24.5005 38.3511 24.0033 40.1326C23.4365 42.1631 23.1531 43.1783 23.2297 43.3822C23.3173 43.6154 23.3806 43.6794 23.613 43.7694C23.816 43.8481 24.669 43.6195 26.3751 43.1624L42.1952 38.9234C43.9012 38.4663 44.7543 38.2377 44.8908 38.068C45.047 37.8739 45.0698 37.7868 45.0291 37.541C44.9934 37.3262 44.2404 36.5887 42.7343 35.1136C41.4129 33.8194 40.1083 31.8655 39.3208 28.9267Z" stroke="#C6D1E7" stroke-width="2" stroke-linecap="round" stroke-linejoin="round"/>
</svg>
