<svg width="406" height="324" viewBox="0 0 406 324" fill="none" xmlns="http://www.w3.org/2000/svg">
<g clip-path="url(#clip0_2143_1890)">
<rect width="406" height="324" rx="8" fill="#111928"/>
<g filter="url(#filter0_d_2143_1890)">
<rect x="32" y="127" width="84" height="201" rx="3.48515" fill="#1F2D47"/>
</g>
<path fill-rule="evenodd" clip-rule="evenodd" d="M95.2655 146.246L97.4308 144.452L90.3962 259.4L88.4667 257.356L88.4667 257.355L86.5304 255.304L84.3573 257.104L84.3572 257.105L82.1852 258.904L80.2489 256.853L80.2478 256.853L78.3115 254.801L76.1394 256.602L73.9663 258.401L72.03 256.35L70.0925 254.298L67.9205 256.099L65.7485 257.898L63.811 255.847L61.8747 253.795L59.7016 255.596L57.5296 257.395L55.5932 255.344L53.6558 253.292L51.4838 255.093L49.3134 256.891L56.3485 141.934L58.2826 143.983L60.2189 146.035L62.3921 144.234L64.5641 142.434L66.5004 144.485L68.4378 146.538L70.6099 144.737L72.783 142.937L74.7193 144.988L76.6556 147.041L78.8288 145.24L81.0008 143.44L82.9383 145.491L84.8745 147.543L87.0466 145.743L87.0477 145.743L89.2197 143.943L91.1561 145.994L91.156 145.995L93.0935 148.046L95.2655 146.247L95.2655 146.246Z" fill="url(#paint0_linear_2143_1890)"/>
<line x1="65.1607" y1="164.151" x2="85.1218" y2="165.372" stroke="#7E98C8" stroke-width="1.50376" stroke-linecap="round"/>
<line x1="63.7495" y1="187.252" x2="83.7106" y2="188.473" stroke="#7E98C8" stroke-width="1.50376" stroke-linecap="round"/>
<line x1="63.1734" y1="196.648" x2="83.1345" y2="197.87" stroke="#7E98C8" stroke-width="1.50376" stroke-linecap="round"/>
<line x1="62.5991" y1="206.044" x2="82.5602" y2="207.266" stroke="#7E98C8" stroke-width="1.50376" stroke-linecap="round"/>
<line x1="62.0239" y1="215.441" x2="81.9851" y2="216.663" stroke="#7E98C8" stroke-width="1.50376" stroke-linecap="round"/>
<line x1="61.4487" y1="224.841" x2="74.104" y2="225.616" stroke="#7E98C8" stroke-width="1.50376" stroke-linecap="round"/>
<line x1="64.7671" y1="170.596" x2="77.422" y2="171.371" stroke="#7E98C8" stroke-width="1.50376" stroke-linecap="round"/>
<rect x="74" y="154" width="53.2088" height="53.2088" rx="4" fill="#111928" fill-opacity="0.5"/>
<path d="M86.679 205.679H78.7198C76.9615 205.679 75.5361 204.254 75.5361 202.496V194.536" stroke="#C3DDFD" stroke-width="2" stroke-linecap="round" stroke-linejoin="round"/>
<path d="M125.308 192.957V201.78C125.308 203.729 123.728 205.309 121.779 205.309H112.956" stroke="#C3DDFD" stroke-width="2" stroke-linecap="round" stroke-linejoin="round"/>
<path d="M112.956 155.9H121.779C123.728 155.9 125.308 157.48 125.308 159.43V168.252" stroke="#C3DDFD" stroke-width="2" stroke-linecap="round" stroke-linejoin="round"/>
<path d="M75.9004 168.252V159.43C75.9004 157.48 77.4804 155.9 79.4295 155.9H88.2524" stroke="#C3DDFD" stroke-width="2" stroke-linecap="round" stroke-linejoin="round"/>
<path d="M75.9004 180.604H125.309" stroke="#C3DDFD" stroke-width="2" stroke-linecap="round" stroke-linejoin="round"/>
<mask id="mask0_2143_1890" style="mask-type:alpha" maskUnits="userSpaceOnUse" x="203" y="169" width="222" height="157">
<rect x="203" y="169" width="222" height="157" fill="url(#paint1_linear_2143_1890)"/>
</mask>
<g mask="url(#mask0_2143_1890)">
<g clip-path="url(#clip1_2143_1890)">
<path d="M203 172.645C203 170.632 204.632 169 206.645 169H420.355C422.368 169 424 170.632 424 172.645V288.378H203V172.645Z" fill="#314872"/>
<path d="M208 201H419V308H208V201Z" fill="#0F1828"/>
<mask id="path-20-inside-1_2143_1890" fill="white">
<path d="M208 174H419V201H208V174Z"/>
</mask>
<path d="M208 174H419V201H208V174Z" fill="#1F2D47"/>
<path d="M419 200.37H208V201.63H419V200.37Z" fill="#314872" mask="url(#path-20-inside-1_2143_1890)"/>
<path d="M237.926 185.989C237.417 185.989 237.049 186.131 236.82 186.416C236.596 186.696 236.484 187.081 236.484 187.571C236.484 187.809 236.512 188.026 236.568 188.222C236.624 188.413 236.708 188.579 236.82 188.719C236.932 188.859 237.072 188.969 237.24 189.048C237.408 189.123 237.604 189.16 237.828 189.16C237.949 189.16 238.052 189.158 238.136 189.153C238.225 189.148 238.302 189.139 238.367 189.125V187.438H239.459V189.839C239.328 189.89 239.118 189.944 238.829 190C238.54 190.061 238.183 190.091 237.758 190.091C237.394 190.091 237.063 190.035 236.764 189.923C236.47 189.811 236.218 189.648 236.008 189.433C235.798 189.218 235.635 188.955 235.518 188.642C235.406 188.329 235.35 187.972 235.35 187.571C235.35 187.165 235.413 186.806 235.539 186.493C235.665 186.18 235.838 185.917 236.057 185.702C236.276 185.483 236.533 185.317 236.827 185.205C237.126 185.093 237.443 185.037 237.779 185.037C238.008 185.037 238.213 185.053 238.395 185.086C238.582 185.114 238.74 185.149 238.871 185.191C239.006 185.228 239.116 185.268 239.2 185.31C239.289 185.352 239.352 185.385 239.389 185.408L239.074 186.283C238.925 186.204 238.752 186.136 238.556 186.08C238.365 186.019 238.155 185.989 237.926 185.989ZM243.849 188.152C243.849 188.441 243.807 188.707 243.723 188.95C243.639 189.188 243.518 189.393 243.359 189.566C243.2 189.734 243.009 189.865 242.785 189.958C242.566 190.051 242.318 190.098 242.043 190.098C241.772 190.098 241.525 190.051 241.301 189.958C241.082 189.865 240.893 189.734 240.734 189.566C240.575 189.393 240.452 189.188 240.363 188.95C240.274 188.707 240.23 188.441 240.23 188.152C240.23 187.863 240.274 187.599 240.363 187.361C240.456 187.123 240.582 186.92 240.741 186.752C240.904 186.584 241.096 186.453 241.315 186.36C241.539 186.267 241.782 186.22 242.043 186.22C242.309 186.22 242.552 186.267 242.771 186.36C242.995 186.453 243.186 186.584 243.345 186.752C243.504 186.92 243.627 187.123 243.716 187.361C243.805 187.599 243.849 187.863 243.849 188.152ZM242.785 188.152C242.785 187.83 242.72 187.578 242.589 187.396C242.463 187.209 242.281 187.116 242.043 187.116C241.805 187.116 241.621 187.209 241.49 187.396C241.359 187.578 241.294 187.83 241.294 188.152C241.294 188.474 241.359 188.731 241.49 188.922C241.621 189.109 241.805 189.202 242.043 189.202C242.281 189.202 242.463 189.109 242.589 188.922C242.72 188.731 242.785 188.474 242.785 188.152ZM248.101 188.152C248.101 188.441 248.059 188.707 247.975 188.95C247.891 189.188 247.77 189.393 247.611 189.566C247.452 189.734 247.261 189.865 247.037 189.958C246.818 190.051 246.57 190.098 246.295 190.098C246.024 190.098 245.777 190.051 245.553 189.958C245.334 189.865 245.145 189.734 244.986 189.566C244.827 189.393 244.704 189.188 244.615 188.95C244.526 188.707 244.482 188.441 244.482 188.152C244.482 187.863 244.526 187.599 244.615 187.361C244.708 187.123 244.834 186.92 244.993 186.752C245.156 186.584 245.348 186.453 245.567 186.36C245.791 186.267 246.034 186.22 246.295 186.22C246.561 186.22 246.804 186.267 247.023 186.36C247.247 186.453 247.438 186.584 247.597 186.752C247.756 186.92 247.879 187.123 247.968 187.361C248.057 187.599 248.101 187.863 248.101 188.152ZM247.037 188.152C247.037 187.83 246.972 187.578 246.841 187.396C246.715 187.209 246.533 187.116 246.295 187.116C246.057 187.116 245.873 187.209 245.742 187.396C245.611 187.578 245.546 187.83 245.546 188.152C245.546 188.474 245.611 188.731 245.742 188.922C245.873 189.109 246.057 189.202 246.295 189.202C246.533 189.202 246.715 189.109 246.841 188.922C246.972 188.731 247.037 188.474 247.037 188.152ZM249.798 188.04C249.798 188.623 250.034 188.915 250.505 188.915C250.612 188.915 250.713 188.901 250.806 188.873C250.899 188.845 250.979 188.812 251.044 188.775V187.109C250.993 187.1 250.932 187.093 250.862 187.088C250.792 187.079 250.71 187.074 250.617 187.074C250.342 187.074 250.136 187.165 250.001 187.347C249.866 187.529 249.798 187.76 249.798 188.04ZM252.087 189.538C252.087 190.14 251.933 190.586 251.625 190.875C251.322 191.169 250.85 191.316 250.211 191.316C249.987 191.316 249.763 191.295 249.539 191.253C249.315 191.216 249.107 191.164 248.916 191.099L249.098 190.224C249.261 190.289 249.432 190.341 249.609 190.378C249.791 190.415 249.996 190.434 250.225 190.434C250.524 190.434 250.734 190.369 250.855 190.238C250.981 190.107 251.044 189.939 251.044 189.734V189.601C250.932 189.652 250.815 189.692 250.694 189.72C250.577 189.743 250.449 189.755 250.309 189.755C249.8 189.755 249.411 189.606 249.14 189.307C248.869 189.004 248.734 188.581 248.734 188.04C248.734 187.769 248.776 187.524 248.86 187.305C248.944 187.081 249.065 186.89 249.224 186.731C249.387 186.572 249.586 186.451 249.819 186.367C250.052 186.278 250.316 186.234 250.61 186.234C250.736 186.234 250.864 186.241 250.995 186.255C251.13 186.264 251.263 186.278 251.394 186.297C251.525 186.316 251.648 186.339 251.765 186.367C251.886 186.39 251.994 186.416 252.087 186.444V189.538ZM254.535 190.07C254.232 190.065 253.985 190.033 253.793 189.972C253.607 189.911 253.457 189.827 253.345 189.72C253.238 189.608 253.163 189.475 253.121 189.321C253.084 189.162 253.065 188.985 253.065 188.789V184.736L254.108 184.568V188.579C254.108 188.672 254.115 188.756 254.129 188.831C254.143 188.906 254.169 188.969 254.206 189.02C254.248 189.071 254.307 189.113 254.381 189.146C254.456 189.179 254.556 189.2 254.682 189.209L254.535 190.07ZM255.105 188.187C255.105 187.86 255.154 187.576 255.252 187.333C255.355 187.086 255.488 186.88 255.651 186.717C255.814 186.554 256.001 186.43 256.211 186.346C256.426 186.262 256.645 186.22 256.869 186.22C257.392 186.22 257.805 186.381 258.108 186.703C258.411 187.02 258.563 187.489 258.563 188.11C258.563 188.171 258.561 188.238 258.556 188.313C258.551 188.383 258.547 188.446 258.542 188.502H256.176C256.199 188.717 256.3 188.887 256.477 189.013C256.654 189.139 256.892 189.202 257.191 189.202C257.382 189.202 257.569 189.186 257.751 189.153C257.938 189.116 258.089 189.071 258.206 189.02L258.346 189.867C258.29 189.895 258.215 189.923 258.122 189.951C258.029 189.979 257.924 190.002 257.807 190.021C257.695 190.044 257.574 190.063 257.443 190.077C257.312 190.091 257.182 190.098 257.051 190.098C256.72 190.098 256.43 190.049 256.183 189.951C255.94 189.853 255.737 189.72 255.574 189.552C255.415 189.379 255.296 189.176 255.217 188.943C255.142 188.71 255.105 188.458 255.105 188.187ZM257.555 187.788C257.55 187.699 257.534 187.613 257.506 187.529C257.483 187.445 257.443 187.37 257.387 187.305C257.336 187.24 257.268 187.186 257.184 187.144C257.105 187.102 257.004 187.081 256.883 187.081C256.766 187.081 256.666 187.102 256.582 187.144C256.498 187.181 256.428 187.233 256.372 187.298C256.316 187.363 256.272 187.44 256.239 187.529C256.211 187.613 256.19 187.699 256.176 187.788H257.555ZM262.212 189.111C262.263 189.116 262.321 189.12 262.387 189.125C262.457 189.125 262.538 189.125 262.632 189.125C263.178 189.125 263.581 188.987 263.843 188.712C264.109 188.437 264.242 188.056 264.242 187.571C264.242 187.062 264.116 186.677 263.864 186.416C263.612 186.155 263.213 186.024 262.667 186.024C262.592 186.024 262.515 186.026 262.436 186.031C262.356 186.031 262.282 186.036 262.212 186.045V189.111ZM265.369 187.571C265.369 187.991 265.303 188.357 265.173 188.67C265.042 188.983 264.855 189.242 264.613 189.447C264.375 189.652 264.083 189.806 263.738 189.909C263.392 190.012 263.005 190.063 262.576 190.063C262.38 190.063 262.151 190.054 261.89 190.035C261.628 190.021 261.372 189.988 261.12 189.937V185.212C261.372 185.165 261.633 185.135 261.904 185.121C262.179 185.102 262.415 185.093 262.611 185.093C263.026 185.093 263.402 185.14 263.738 185.233C264.078 185.326 264.37 185.473 264.613 185.674C264.855 185.875 265.042 186.131 265.173 186.444C265.303 186.757 265.369 187.132 265.369 187.571ZM268.43 187.242C268.336 187.219 268.227 187.195 268.101 187.172C267.975 187.144 267.839 187.13 267.695 187.13C267.629 187.13 267.55 187.137 267.457 187.151C267.368 187.16 267.3 187.172 267.254 187.186V190H266.211V186.514C266.397 186.449 266.617 186.388 266.869 186.332C267.125 186.271 267.41 186.241 267.723 186.241C267.779 186.241 267.846 186.246 267.926 186.255C268.005 186.26 268.084 186.269 268.164 186.283C268.243 186.292 268.322 186.306 268.402 186.325C268.481 186.339 268.549 186.358 268.605 186.381L268.43 187.242ZM270.207 190H269.164V186.318H270.207V190ZM270.305 185.254C270.305 185.445 270.242 185.597 270.116 185.709C269.994 185.816 269.85 185.87 269.682 185.87C269.514 185.87 269.367 185.816 269.241 185.709C269.119 185.597 269.059 185.445 269.059 185.254C269.059 185.063 269.119 184.913 269.241 184.806C269.367 184.694 269.514 184.638 269.682 184.638C269.85 184.638 269.994 184.694 270.116 184.806C270.242 184.913 270.305 185.063 270.305 185.254ZM272.079 190C271.841 189.533 271.598 188.987 271.351 188.362C271.108 187.737 270.877 187.055 270.658 186.318H271.764C271.811 186.5 271.864 186.698 271.925 186.913C271.99 187.123 272.056 187.338 272.121 187.557C272.191 187.772 272.259 187.982 272.324 188.187C272.394 188.392 272.462 188.579 272.527 188.747C272.588 188.579 272.653 188.392 272.723 188.187C272.793 187.982 272.861 187.772 272.926 187.557C272.996 187.338 273.061 187.123 273.122 186.913C273.187 186.698 273.243 186.5 273.29 186.318H274.368C274.149 187.055 273.915 187.737 273.668 188.362C273.425 188.987 273.185 189.533 272.947 190H272.079ZM274.656 188.187C274.656 187.86 274.705 187.576 274.803 187.333C274.905 187.086 275.038 186.88 275.202 186.717C275.365 186.554 275.552 186.43 275.762 186.346C275.976 186.262 276.196 186.22 276.42 186.22C276.942 186.22 277.355 186.381 277.659 186.703C277.962 187.02 278.114 187.489 278.114 188.11C278.114 188.171 278.111 188.238 278.107 188.313C278.102 188.383 278.097 188.446 278.093 188.502H275.727C275.75 188.717 275.85 188.887 276.028 189.013C276.205 189.139 276.443 189.202 276.742 189.202C276.933 189.202 277.12 189.186 277.302 189.153C277.488 189.116 277.64 189.071 277.757 189.02L277.897 189.867C277.841 189.895 277.766 189.923 277.673 189.951C277.579 189.979 277.474 190.002 277.358 190.021C277.246 190.044 277.124 190.063 276.994 190.077C276.863 190.091 276.732 190.098 276.602 190.098C276.27 190.098 275.981 190.049 275.734 189.951C275.491 189.853 275.288 189.72 275.125 189.552C274.966 189.379 274.847 189.176 274.768 188.943C274.693 188.71 274.656 188.458 274.656 188.187ZM277.106 187.788C277.101 187.699 277.085 187.613 277.057 187.529C277.033 187.445 276.994 187.37 276.938 187.305C276.886 187.24 276.819 187.186 276.735 187.144C276.655 187.102 276.555 187.081 276.434 187.081C276.317 187.081 276.217 187.102 276.133 187.144C276.049 187.181 275.979 187.233 275.923 187.298C275.867 187.363 275.822 187.44 275.79 187.529C275.762 187.613 275.741 187.699 275.727 187.788H277.106Z" fill="white"/>
<g filter="url(#filter1_d_2143_1890)">
<path d="M222.002 184.634L219.695 180.562C219.771 180.484 219.859 180.433 219.948 180.398C219.267 180.622 218.955 181.386 218.955 181.386L214.74 188.823C214.681 189.056 214.664 189.267 214.672 189.452H219.272L222.002 184.634Z" fill="#34A853"/>
<path d="M222.002 184.634L224.732 189.452H229.332C229.34 189.267 229.323 189.056 229.264 188.823L225.049 181.386C225.049 181.386 224.736 180.622 224.056 180.398C224.144 180.433 224.233 180.484 224.309 180.562L222.002 184.634Z" fill="#FBBC05"/>
<path d="M222.002 184.634L224.309 180.562C224.232 180.484 224.143 180.433 224.056 180.398C223.955 180.366 223.848 180.344 223.731 180.338H223.609H220.395H220.273C220.156 180.343 220.048 180.365 219.947 180.398C219.86 180.433 219.771 180.484 219.694 180.562L222.002 184.634Z" fill="#188038"/>
<path d="M219.272 189.452L216.991 193.478C216.991 193.478 216.915 193.441 216.812 193.365C217.136 193.614 217.451 193.667 217.451 193.667H226.409C226.903 193.667 227.006 193.478 227.006 193.478C227.008 193.477 227.009 193.476 227.01 193.475L224.731 189.452H219.272Z" fill="#4285F4"/>
<path d="M219.272 189.452H214.672C214.695 189.999 214.932 190.319 214.932 190.319L215.105 190.619C215.118 190.636 215.125 190.646 215.125 190.646L215.501 191.307L216.347 192.778C216.371 192.838 216.4 192.892 216.431 192.944C216.442 192.962 216.453 192.981 216.465 192.998C216.468 193.003 216.472 193.008 216.475 193.013C216.58 193.161 216.697 193.275 216.814 193.365C216.917 193.442 216.992 193.478 216.992 193.478L219.272 189.452Z" fill="#1967D2"/>
<path d="M224.731 189.452H229.332C229.309 189.999 229.072 190.319 229.072 190.319L228.899 190.619C228.886 190.636 228.879 190.646 228.879 190.646L228.502 191.307L227.657 192.778C227.633 192.838 227.604 192.892 227.573 192.944C227.562 192.962 227.551 192.981 227.539 192.998C227.535 193.003 227.532 193.008 227.529 193.013C227.424 193.161 227.307 193.275 227.19 193.365C227.087 193.442 227.012 193.478 227.012 193.478L224.731 189.452Z" fill="#EA4335"/>
</g>
</g>
</g>
<path d="M221.574 215.377C221.735 215.656 221.915 215.997 222.113 216.4C222.311 216.803 222.513 217.229 222.718 217.676C222.923 218.116 223.125 218.567 223.323 219.029C223.528 219.484 223.715 219.905 223.884 220.294C224.053 219.905 224.236 219.484 224.434 219.029C224.632 218.567 224.834 218.116 225.039 217.676C225.244 217.229 225.446 216.803 225.644 216.4C225.842 215.997 226.022 215.656 226.183 215.377H227.437C227.503 215.934 227.565 216.528 227.624 217.159C227.683 217.782 227.734 218.424 227.778 219.084C227.829 219.737 227.873 220.397 227.91 221.064C227.954 221.724 227.991 222.369 228.02 223H226.656C226.627 222.113 226.59 221.2 226.546 220.261C226.509 219.322 226.451 218.413 226.37 217.533C226.289 217.702 226.194 217.903 226.084 218.138C225.974 218.373 225.857 218.629 225.732 218.908C225.607 219.179 225.479 219.462 225.347 219.755C225.222 220.048 225.098 220.334 224.973 220.613C224.856 220.884 224.746 221.141 224.643 221.383C224.54 221.618 224.452 221.819 224.379 221.988H223.345C223.272 221.819 223.184 221.614 223.081 221.372C222.978 221.13 222.865 220.873 222.74 220.602C222.623 220.323 222.498 220.037 222.366 219.744C222.241 219.451 222.117 219.168 221.992 218.897C221.867 218.626 221.75 218.373 221.64 218.138C221.53 217.896 221.435 217.694 221.354 217.533C221.273 218.413 221.211 219.322 221.167 220.261C221.13 221.2 221.097 222.113 221.068 223H219.704C219.733 222.369 219.766 221.717 219.803 221.042C219.847 220.367 219.891 219.7 219.935 219.04C219.986 218.373 220.041 217.727 220.1 217.104C220.159 216.481 220.221 215.905 220.287 215.377H221.574ZM234.266 217.247C233.672 219.432 232.982 221.412 232.198 223.187C232.051 223.517 231.901 223.799 231.747 224.034C231.593 224.269 231.42 224.463 231.23 224.617C231.039 224.771 230.826 224.881 230.592 224.947C230.357 225.02 230.086 225.057 229.778 225.057C229.572 225.057 229.367 225.035 229.162 224.991C228.964 224.947 228.813 224.899 228.711 224.848L228.953 223.781C229.217 223.884 229.477 223.935 229.734 223.935C230.078 223.935 230.346 223.851 230.537 223.682C230.735 223.521 230.907 223.268 231.054 222.923C230.636 222.116 230.232 221.236 229.844 220.283C229.462 219.33 229.121 218.318 228.821 217.247H230.24C230.313 217.555 230.401 217.889 230.504 218.248C230.614 218.607 230.731 218.974 230.856 219.348C230.98 219.715 231.112 220.081 231.252 220.448C231.391 220.815 231.53 221.156 231.67 221.471C231.904 220.818 232.124 220.125 232.33 219.392C232.535 218.651 232.722 217.936 232.891 217.247H234.266ZM239.292 221.856C239.373 221.863 239.479 221.871 239.611 221.878C239.743 221.878 239.923 221.878 240.15 221.878C241.081 221.878 241.774 221.643 242.229 221.174C242.691 220.697 242.922 220.034 242.922 219.183C242.922 218.318 242.698 217.654 242.251 217.192C241.804 216.73 241.111 216.499 240.172 216.499C239.761 216.499 239.468 216.51 239.292 216.532V221.856ZM244.374 219.183C244.374 219.843 244.271 220.419 244.066 220.91C243.861 221.394 243.567 221.801 243.186 222.131C242.812 222.454 242.357 222.696 241.822 222.857C241.294 223.011 240.707 223.088 240.062 223.088C239.754 223.088 239.406 223.073 239.017 223.044C238.628 223.022 238.258 222.971 237.906 222.89V215.487C238.258 215.406 238.632 215.355 239.028 215.333C239.424 215.311 239.776 215.3 240.084 215.3C240.722 215.3 241.305 215.377 241.833 215.531C242.361 215.678 242.812 215.912 243.186 216.235C243.567 216.55 243.861 216.954 244.066 217.445C244.271 217.929 244.374 218.508 244.374 219.183ZM249.1 218.446C248.99 218.409 248.836 218.373 248.638 218.336C248.447 218.292 248.223 218.27 247.967 218.27C247.82 218.27 247.662 218.285 247.494 218.314C247.332 218.343 247.219 218.369 247.153 218.391V223H245.822V217.522C246.078 217.427 246.397 217.339 246.779 217.258C247.167 217.17 247.596 217.126 248.066 217.126C248.154 217.126 248.256 217.133 248.374 217.148C248.491 217.155 248.608 217.17 248.726 217.192C248.843 217.207 248.957 217.229 249.067 217.258C249.177 217.28 249.265 217.302 249.331 217.324L249.1 218.446ZM251.6 223H250.269V217.247H251.6V223ZM251.743 215.564C251.743 215.813 251.662 216.011 251.501 216.158C251.34 216.305 251.149 216.378 250.929 216.378C250.702 216.378 250.507 216.305 250.346 216.158C250.185 216.011 250.104 215.813 250.104 215.564C250.104 215.307 250.185 215.106 250.346 214.959C250.507 214.812 250.702 214.739 250.929 214.739C251.149 214.739 251.34 214.812 251.501 214.959C251.662 215.106 251.743 215.307 251.743 215.564ZM254.772 223C254.406 222.245 254.028 221.379 253.639 220.404C253.258 219.421 252.91 218.369 252.594 217.247H254.013C254.094 217.57 254.186 217.918 254.288 218.292C254.398 218.659 254.512 219.029 254.629 219.403C254.754 219.77 254.879 220.129 255.003 220.481C255.135 220.826 255.256 221.137 255.366 221.416C255.476 221.137 255.594 220.826 255.718 220.481C255.843 220.129 255.964 219.77 256.081 219.403C256.206 219.029 256.323 218.659 256.433 218.292C256.543 217.918 256.639 217.57 256.719 217.247H258.094C257.779 218.369 257.427 219.421 257.038 220.404C256.657 221.379 256.283 222.245 255.916 223H254.772ZM258.64 220.151C258.64 219.645 258.714 219.201 258.86 218.82C259.014 218.439 259.216 218.123 259.465 217.874C259.715 217.617 260.001 217.427 260.323 217.302C260.646 217.17 260.976 217.104 261.313 217.104C262.105 217.104 262.721 217.35 263.161 217.841C263.609 218.332 263.832 219.066 263.832 220.041C263.832 220.114 263.829 220.199 263.821 220.294C263.821 220.382 263.818 220.463 263.81 220.536H260.015C260.052 220.998 260.213 221.357 260.499 221.614C260.793 221.863 261.214 221.988 261.764 221.988C262.087 221.988 262.38 221.959 262.644 221.9C262.916 221.841 263.128 221.779 263.282 221.713L263.458 222.802C263.385 222.839 263.282 222.879 263.15 222.923C263.026 222.96 262.879 222.993 262.71 223.022C262.549 223.059 262.373 223.088 262.182 223.11C261.992 223.132 261.797 223.143 261.599 223.143C261.093 223.143 260.653 223.07 260.279 222.923C259.905 222.769 259.597 222.56 259.355 222.296C259.113 222.025 258.934 221.709 258.816 221.35C258.699 220.983 258.64 220.584 258.64 220.151ZM262.501 219.557C262.501 219.374 262.476 219.201 262.424 219.04C262.373 218.871 262.296 218.728 262.193 218.611C262.098 218.486 261.977 218.391 261.83 218.325C261.691 218.252 261.522 218.215 261.324 218.215C261.119 218.215 260.939 218.255 260.785 218.336C260.631 218.409 260.499 218.508 260.389 218.633C260.287 218.758 260.206 218.901 260.147 219.062C260.089 219.223 260.048 219.388 260.026 219.557H262.501Z" fill="#C6D1E7"/>
<path d="M278.676 220.426L273.935 222.428L273.572 221.339L277.257 219.865L273.572 218.391L273.935 217.302L278.676 219.304V220.426Z" fill="#C6D1E7"/>
<path d="M292.081 216.906C291.436 216.943 290.919 217.141 290.53 217.5C290.149 217.859 289.958 218.336 289.958 218.93C289.958 219.231 290.006 219.502 290.101 219.744C290.204 219.986 290.347 220.195 290.53 220.371C290.721 220.54 290.944 220.675 291.201 220.778C291.465 220.873 291.758 220.925 292.081 220.932V216.906ZM292.081 223V222.087C291.553 222.072 291.073 221.984 290.64 221.823C290.207 221.662 289.833 221.442 289.518 221.163C289.21 220.884 288.972 220.558 288.803 220.184C288.634 219.803 288.55 219.388 288.55 218.941C288.55 218.501 288.634 218.094 288.803 217.72C288.972 217.339 289.21 217.009 289.518 216.73C289.833 216.444 290.207 216.217 290.64 216.048C291.073 215.879 291.553 215.78 292.081 215.751V214.882H293.434V215.751C293.962 215.78 294.442 215.879 294.875 216.048C295.308 216.217 295.678 216.444 295.986 216.73C296.294 217.009 296.532 217.339 296.701 217.72C296.877 218.094 296.965 218.501 296.965 218.941C296.965 219.388 296.877 219.803 296.701 220.184C296.532 220.558 296.294 220.884 295.986 221.163C295.678 221.442 295.308 221.662 294.875 221.823C294.442 221.984 293.962 222.072 293.434 222.087V223H292.081ZM293.434 220.932C293.749 220.925 294.039 220.873 294.303 220.778C294.567 220.675 294.791 220.54 294.974 220.371C295.157 220.195 295.3 219.986 295.403 219.744C295.506 219.502 295.557 219.231 295.557 218.93C295.557 218.336 295.363 217.859 294.974 217.5C294.593 217.141 294.079 216.943 293.434 216.906V220.932ZM303.295 217.247V223H301.975C301.975 222.582 301.975 222.168 301.975 221.757C301.982 221.346 301.986 220.965 301.986 220.613C301.993 220.261 301.997 219.957 301.997 219.7C302.004 219.436 302.008 219.242 302.008 219.117C301.788 219.403 301.561 219.718 301.326 220.063C301.091 220.408 300.857 220.752 300.622 221.097C300.395 221.442 300.178 221.779 299.973 222.109C299.768 222.439 299.588 222.736 299.434 223H298.257V217.247H299.566C299.566 217.672 299.562 218.079 299.555 218.468C299.555 218.849 299.555 219.198 299.555 219.513C299.555 219.828 299.551 220.103 299.544 220.338C299.544 220.573 299.544 220.752 299.544 220.877C299.749 220.562 299.962 220.239 300.182 219.909C300.402 219.572 300.622 219.245 300.842 218.93C301.069 218.607 301.293 218.303 301.513 218.017C301.733 217.731 301.946 217.474 302.151 217.247H303.295ZM308.81 220.151C308.81 219.557 308.674 219.095 308.403 218.765C308.139 218.435 307.71 218.27 307.116 218.27C306.991 218.27 306.859 218.277 306.72 218.292C306.588 218.299 306.456 218.321 306.324 218.358V221.647C306.441 221.728 306.595 221.805 306.786 221.878C306.984 221.944 307.193 221.977 307.413 221.977C307.897 221.977 308.249 221.812 308.469 221.482C308.696 221.152 308.81 220.708 308.81 220.151ZM310.174 220.129C310.174 220.569 310.115 220.972 309.998 221.339C309.888 221.706 309.726 222.021 309.514 222.285C309.301 222.549 309.033 222.754 308.711 222.901C308.395 223.048 308.036 223.121 307.633 223.121C307.361 223.121 307.112 223.088 306.885 223.022C306.657 222.956 306.47 222.883 306.324 222.802V225.035H304.993V217.434C305.264 217.361 305.598 217.291 305.994 217.225C306.39 217.159 306.808 217.126 307.248 217.126C307.702 217.126 308.109 217.196 308.469 217.335C308.828 217.474 309.132 217.676 309.382 217.94C309.638 218.197 309.833 218.512 309.965 218.886C310.104 219.253 310.174 219.667 310.174 220.129ZM312.887 219.227C312.865 219.535 312.843 219.858 312.821 220.195C312.799 220.525 312.781 220.855 312.766 221.185C312.752 221.515 312.737 221.834 312.722 222.142C312.708 222.45 312.697 222.736 312.689 223H311.402C311.417 222.575 311.439 222.116 311.468 221.625C311.498 221.126 311.531 220.624 311.567 220.118C311.611 219.605 311.655 219.102 311.699 218.611C311.743 218.12 311.791 217.665 311.842 217.247H312.997C313.276 217.694 313.558 218.222 313.844 218.831C314.13 219.432 314.449 220.118 314.801 220.888C315.168 220.103 315.502 219.396 315.802 218.765C316.103 218.127 316.371 217.621 316.605 217.247H317.771C317.823 217.665 317.87 218.12 317.914 218.611C317.966 219.102 318.01 219.605 318.046 220.118C318.083 220.624 318.116 221.126 318.145 221.625C318.175 222.116 318.197 222.575 318.211 223H316.891C316.877 222.399 316.851 221.779 316.814 221.141C316.785 220.496 316.748 219.858 316.704 219.227C316.594 219.447 316.473 219.693 316.341 219.964C316.217 220.235 316.092 220.51 315.967 220.789C315.843 221.068 315.722 221.339 315.604 221.603C315.487 221.86 315.384 222.087 315.296 222.285H314.306C314.218 222.087 314.112 221.856 313.987 221.592C313.87 221.328 313.749 221.057 313.624 220.778C313.5 220.499 313.371 220.228 313.239 219.964C313.115 219.693 312.997 219.447 312.887 219.227ZM321.787 222.065C322.198 222.065 322.509 222.043 322.722 221.999V220.525C322.649 220.503 322.542 220.481 322.403 220.459C322.264 220.437 322.11 220.426 321.941 220.426C321.794 220.426 321.644 220.437 321.49 220.459C321.343 220.481 321.208 220.521 321.083 220.58C320.966 220.639 320.87 220.723 320.797 220.833C320.724 220.936 320.687 221.068 320.687 221.229C320.687 221.544 320.786 221.764 320.984 221.889C321.182 222.006 321.45 222.065 321.787 222.065ZM321.677 217.104C322.117 217.104 322.487 217.159 322.788 217.269C323.089 217.379 323.327 217.533 323.503 217.731C323.686 217.929 323.815 218.171 323.888 218.457C323.969 218.736 324.009 219.044 324.009 219.381V222.868C323.804 222.912 323.492 222.963 323.074 223.022C322.663 223.088 322.198 223.121 321.677 223.121C321.332 223.121 321.017 223.088 320.731 223.022C320.445 222.956 320.199 222.85 319.994 222.703C319.796 222.556 319.638 222.366 319.521 222.131C319.411 221.896 319.356 221.607 319.356 221.262C319.356 220.932 319.418 220.653 319.543 220.426C319.675 220.199 319.851 220.015 320.071 219.876C320.291 219.729 320.544 219.627 320.83 219.568C321.123 219.502 321.428 219.469 321.743 219.469C321.89 219.469 322.044 219.48 322.205 219.502C322.366 219.517 322.539 219.546 322.722 219.59V219.37C322.722 219.216 322.704 219.069 322.667 218.93C322.63 218.791 322.564 218.67 322.469 218.567C322.381 218.457 322.26 218.373 322.106 218.314C321.959 218.255 321.772 218.226 321.545 218.226C321.237 218.226 320.955 218.248 320.698 218.292C320.441 218.336 320.232 218.387 320.071 218.446L319.906 217.368C320.075 217.309 320.32 217.251 320.643 217.192C320.966 217.133 321.31 217.104 321.677 217.104Z" fill="#C6D1E7"/>
<path d="M337.682 281.274C337.856 281.274 338.03 281.262 338.204 281.238C338.378 281.208 338.534 281.16 338.672 281.094C338.81 281.022 338.921 280.929 339.005 280.815C339.089 280.695 339.131 280.545 339.131 280.365C339.131 280.131 339.032 279.945 338.834 279.807C338.642 279.669 338.375 279.6 338.033 279.6C337.703 279.6 337.409 279.639 337.151 279.717C336.899 279.789 336.686 279.876 336.512 279.978L336.143 279.069C336.335 278.949 336.596 278.847 336.926 278.763C337.262 278.673 337.634 278.628 338.042 278.628C338.366 278.628 338.666 278.664 338.942 278.736C339.218 278.802 339.455 278.907 339.653 279.051C339.851 279.195 340.007 279.375 340.121 279.591C340.235 279.807 340.292 280.059 340.292 280.347C340.292 280.611 340.217 280.863 340.067 281.103C339.917 281.337 339.689 281.52 339.383 281.652C339.545 281.712 339.698 281.787 339.842 281.877C339.986 281.967 340.112 282.078 340.22 282.21C340.328 282.342 340.412 282.495 340.472 282.669C340.538 282.837 340.571 283.029 340.571 283.245C340.571 283.581 340.511 283.869 340.391 284.109C340.271 284.343 340.1 284.538 339.878 284.694C339.656 284.844 339.383 284.955 339.059 285.027C338.741 285.099 338.384 285.135 337.988 285.135C337.766 285.135 337.553 285.12 337.349 285.09C337.145 285.06 336.953 285.021 336.773 284.973C336.593 284.925 336.431 284.874 336.287 284.82C336.143 284.76 336.023 284.706 335.927 284.658L336.26 283.749C336.338 283.785 336.434 283.827 336.548 283.875C336.662 283.917 336.791 283.959 336.935 284.001C337.079 284.043 337.235 284.079 337.403 284.109C337.571 284.139 337.742 284.154 337.916 284.154C338.384 284.154 338.744 284.085 338.996 283.947C339.254 283.803 339.383 283.557 339.383 283.209C339.383 283.005 339.338 282.837 339.248 282.705C339.164 282.573 339.044 282.471 338.888 282.399C338.738 282.327 338.558 282.279 338.348 282.255C338.138 282.225 337.913 282.21 337.673 282.21H336.971V281.274H337.682ZM343.351 284.235C343.687 284.235 343.942 284.217 344.116 284.181V282.975C344.056 282.957 343.969 282.939 343.855 282.921C343.741 282.903 343.615 282.894 343.477 282.894C343.357 282.894 343.234 282.903 343.108 282.921C342.988 282.939 342.877 282.972 342.775 283.02C342.679 283.068 342.601 283.137 342.541 283.227C342.481 283.311 342.451 283.419 342.451 283.551C342.451 283.809 342.532 283.989 342.694 284.091C342.856 284.187 343.075 284.235 343.351 284.235ZM343.261 280.176C343.621 280.176 343.924 280.221 344.17 280.311C344.416 280.401 344.611 280.527 344.755 280.689C344.905 280.851 345.01 281.049 345.07 281.283C345.136 281.511 345.169 281.763 345.169 282.039V284.892C345.001 284.928 344.746 284.97 344.404 285.018C344.068 285.072 343.687 285.099 343.261 285.099C342.979 285.099 342.721 285.072 342.487 285.018C342.253 284.964 342.052 284.877 341.884 284.757C341.722 284.637 341.593 284.481 341.497 284.289C341.407 284.097 341.362 283.86 341.362 283.578C341.362 283.308 341.413 283.08 341.515 282.894C341.623 282.708 341.767 282.558 341.947 282.444C342.127 282.324 342.334 282.24 342.568 282.192C342.808 282.138 343.057 282.111 343.315 282.111C343.435 282.111 343.561 282.12 343.693 282.138C343.825 282.15 343.966 282.174 344.116 282.21V282.03C344.116 281.904 344.101 281.784 344.071 281.67C344.041 281.556 343.987 281.457 343.909 281.373C343.837 281.283 343.738 281.214 343.612 281.166C343.492 281.118 343.339 281.094 343.153 281.094C342.901 281.094 342.67 281.112 342.46 281.148C342.25 281.184 342.079 281.226 341.947 281.274L341.812 280.392C341.95 280.344 342.151 280.296 342.415 280.248C342.679 280.2 342.961 280.176 343.261 280.176ZM350.418 280.293V285H349.329V281.202H347.592V285H346.503V280.293H350.418ZM353.647 281.193C353.641 281.457 353.632 281.733 353.62 282.021C353.608 282.303 353.578 282.582 353.53 282.858C353.488 283.134 353.419 283.398 353.323 283.65C353.227 283.902 353.092 284.13 352.918 284.334C352.75 284.532 352.537 284.7 352.279 284.838C352.027 284.97 351.718 285.054 351.352 285.09L351.199 284.181C351.505 284.121 351.742 284.025 351.91 283.893C352.078 283.755 352.207 283.581 352.297 283.371C352.369 283.215 352.423 283.038 352.459 282.84C352.501 282.642 352.531 282.435 352.549 282.219C352.573 281.997 352.588 281.772 352.594 281.544C352.6 281.316 352.603 281.094 352.603 280.878V280.293H355.933V285H354.844V281.193H353.647ZM358.978 284.235C359.314 284.235 359.569 284.217 359.743 284.181V282.975C359.683 282.957 359.596 282.939 359.482 282.921C359.368 282.903 359.242 282.894 359.104 282.894C358.984 282.894 358.861 282.903 358.735 282.921C358.615 282.939 358.504 282.972 358.402 283.02C358.306 283.068 358.228 283.137 358.168 283.227C358.108 283.311 358.078 283.419 358.078 283.551C358.078 283.809 358.159 283.989 358.321 284.091C358.483 284.187 358.702 284.235 358.978 284.235ZM358.888 280.176C359.248 280.176 359.551 280.221 359.797 280.311C360.043 280.401 360.238 280.527 360.382 280.689C360.532 280.851 360.637 281.049 360.697 281.283C360.763 281.511 360.796 281.763 360.796 282.039V284.892C360.628 284.928 360.373 284.97 360.031 285.018C359.695 285.072 359.314 285.099 358.888 285.099C358.606 285.099 358.348 285.072 358.114 285.018C357.88 284.964 357.679 284.877 357.511 284.757C357.349 284.637 357.22 284.481 357.124 284.289C357.034 284.097 356.989 283.86 356.989 283.578C356.989 283.308 357.04 283.08 357.142 282.894C357.25 282.708 357.394 282.558 357.574 282.444C357.754 282.324 357.961 282.24 358.195 282.192C358.435 282.138 358.684 282.111 358.942 282.111C359.062 282.111 359.188 282.12 359.32 282.138C359.452 282.15 359.593 282.174 359.743 282.21V282.03C359.743 281.904 359.728 281.784 359.698 281.67C359.668 281.556 359.614 281.457 359.536 281.373C359.464 281.283 359.365 281.214 359.239 281.166C359.119 281.118 358.966 281.094 358.78 281.094C358.528 281.094 358.297 281.112 358.087 281.148C357.877 281.184 357.706 281.226 357.574 281.274L357.439 280.392C357.577 280.344 357.778 280.296 358.042 280.248C358.306 280.2 358.588 280.176 358.888 280.176ZM365.676 281.202H364.155V285H363.066V281.202H361.554V280.293H365.676V281.202ZM370.611 280.293V285H369.531C369.531 284.658 369.531 284.319 369.531 283.983C369.537 283.647 369.54 283.335 369.54 283.047C369.546 282.759 369.549 282.51 369.549 282.3C369.555 282.084 369.558 281.925 369.558 281.823C369.378 282.057 369.192 282.315 369 282.597C368.808 282.879 368.616 283.161 368.424 283.443C368.238 283.725 368.061 284.001 367.893 284.271C367.725 284.541 367.578 284.784 367.452 285H366.489V280.293H367.56C367.56 280.641 367.557 280.974 367.551 281.292C367.551 281.604 367.551 281.889 367.551 282.147C367.551 282.405 367.548 282.63 367.542 282.822C367.542 283.014 367.542 283.161 367.542 283.263C367.71 283.005 367.884 282.741 368.064 282.471C368.244 282.195 368.424 281.928 368.604 281.67C368.79 281.406 368.973 281.157 369.153 280.923C369.333 280.689 369.507 280.479 369.675 280.293H370.611Z" fill="#C6D1E7"/>
<path d="M357.597 244.615H366.518C369.153 244.615 371.22 246.946 370.981 249.649L369.555 265.802C369.345 268.18 367.41 270 365.092 270H341.908C339.59 270 337.655 268.18 337.445 265.802L336.019 249.649C335.951 248.886 336.068 248.152 336.329 247.493C336.564 246.899 336.768 246.28 336.74 245.642L336.695 244.615C336.695 242.066 338.701 240 341.176 240H349.403C350.592 240 351.731 240.486 352.572 241.352L354.428 243.264C355.269 244.129 356.408 244.615 357.597 244.615ZM338.936 244.572C338.943 244.73 339.102 244.835 339.254 244.79C339.643 244.677 340.055 244.615 340.482 244.615H350.297C351.147 244.615 351.58 243.593 350.987 242.984C350.567 242.551 349.997 242.308 349.403 242.308H341.176C339.953 242.308 338.958 243.317 338.936 244.572Z" fill="url(#paint2_linear_2143_1890)"/>
<path d="M411.597 244.615H420.518C423.153 244.615 425.22 246.946 424.981 249.649L423.555 265.802C423.345 268.18 421.41 270 419.092 270H395.908C393.59 270 391.655 268.18 391.445 265.802L390.019 249.649C389.951 248.886 390.068 248.152 390.329 247.493C390.564 246.899 390.768 246.28 390.74 245.642L390.695 244.615C390.695 242.066 392.701 240 395.176 240H403.403C404.592 240 405.731 240.486 406.572 241.352L408.428 243.264C409.269 244.129 410.408 244.615 411.597 244.615ZM392.936 244.572C392.943 244.73 393.102 244.835 393.254 244.79C393.643 244.677 394.055 244.615 394.482 244.615H404.297C405.147 244.615 405.58 243.593 404.987 242.984C404.567 242.551 403.997 242.308 403.403 242.308H395.176C393.953 242.308 392.958 243.317 392.936 244.572Z" fill="url(#paint3_linear_2143_1890)"/>
<path d="M223.533 278.7C224.439 278.7 225.132 278.865 225.612 279.195C226.098 279.525 226.341 280.041 226.341 280.743C226.341 281.109 226.275 281.424 226.143 281.688C226.017 281.946 225.831 282.159 225.585 282.327C225.339 282.489 225.039 282.609 224.685 282.687C224.331 282.765 223.926 282.804 223.47 282.804H222.903V285H221.769V278.853C222.033 278.793 222.324 278.754 222.642 278.736C222.966 278.712 223.263 278.7 223.533 278.7ZM223.614 279.681C223.326 279.681 223.089 279.69 222.903 279.708V281.832H223.452C223.998 281.832 224.418 281.757 224.712 281.607C225.006 281.451 225.153 281.16 225.153 280.734C225.153 280.53 225.114 280.359 225.036 280.221C224.958 280.083 224.85 279.975 224.712 279.897C224.574 279.819 224.409 279.765 224.217 279.735C224.031 279.699 223.83 279.681 223.614 279.681ZM228.829 284.235C229.165 284.235 229.42 284.217 229.594 284.181V282.975C229.534 282.957 229.447 282.939 229.333 282.921C229.219 282.903 229.093 282.894 228.955 282.894C228.835 282.894 228.712 282.903 228.586 282.921C228.466 282.939 228.355 282.972 228.253 283.02C228.157 283.068 228.079 283.137 228.019 283.227C227.959 283.311 227.929 283.419 227.929 283.551C227.929 283.809 228.01 283.989 228.172 284.091C228.334 284.187 228.553 284.235 228.829 284.235ZM228.739 280.176C229.099 280.176 229.402 280.221 229.648 280.311C229.894 280.401 230.089 280.527 230.233 280.689C230.383 280.851 230.488 281.049 230.548 281.283C230.614 281.511 230.647 281.763 230.647 282.039V284.892C230.479 284.928 230.224 284.97 229.882 285.018C229.546 285.072 229.165 285.099 228.739 285.099C228.457 285.099 228.199 285.072 227.965 285.018C227.731 284.964 227.53 284.877 227.362 284.757C227.2 284.637 227.071 284.481 226.975 284.289C226.885 284.097 226.84 283.86 226.84 283.578C226.84 283.308 226.891 283.08 226.993 282.894C227.101 282.708 227.245 282.558 227.425 282.444C227.605 282.324 227.812 282.24 228.046 282.192C228.286 282.138 228.535 282.111 228.793 282.111C228.913 282.111 229.039 282.12 229.171 282.138C229.303 282.15 229.444 282.174 229.594 282.21V282.03C229.594 281.904 229.579 281.784 229.549 281.67C229.519 281.556 229.465 281.457 229.387 281.373C229.315 281.283 229.216 281.214 229.09 281.166C228.97 281.118 228.817 281.094 228.631 281.094C228.379 281.094 228.148 281.112 227.938 281.148C227.728 281.184 227.557 281.226 227.425 281.274L227.29 280.392C227.428 280.344 227.629 280.296 227.893 280.248C228.157 280.2 228.439 280.176 228.739 280.176ZM231.774 280.437C231.852 280.407 231.948 280.377 232.062 280.347C232.176 280.317 232.299 280.29 232.431 280.266C232.563 280.242 232.701 280.224 232.845 280.212C232.995 280.194 233.145 280.185 233.295 280.185C233.553 280.185 233.799 280.209 234.033 280.257C234.267 280.305 234.471 280.383 234.645 280.491C234.819 280.599 234.957 280.737 235.059 280.905C235.167 281.073 235.221 281.274 235.221 281.508C235.221 281.76 235.152 281.973 235.014 282.147C234.876 282.321 234.717 282.45 234.537 282.534C234.807 282.636 235.014 282.786 235.158 282.984C235.302 283.182 235.374 283.434 235.374 283.74C235.374 283.986 235.32 284.196 235.212 284.37C235.11 284.544 234.966 284.688 234.78 284.802C234.6 284.91 234.387 284.988 234.141 285.036C233.895 285.09 233.628 285.117 233.34 285.117C232.992 285.117 232.668 285.087 232.368 285.027C232.068 284.973 231.831 284.907 231.657 284.829L231.846 283.947C231.96 283.995 232.143 284.052 232.395 284.118C232.647 284.178 232.944 284.208 233.286 284.208C233.946 284.208 234.276 284.016 234.276 283.632C234.276 283.494 234.246 283.383 234.186 283.299C234.126 283.215 234.051 283.152 233.961 283.11C233.871 283.062 233.769 283.032 233.655 283.02C233.541 283.002 233.43 282.993 233.322 282.993H232.422V282.183H233.313C233.535 282.183 233.724 282.144 233.88 282.066C234.042 281.982 234.123 281.838 234.123 281.634C234.123 281.466 234.045 281.334 233.889 281.238C233.739 281.136 233.526 281.085 233.25 281.085C233.13 281.085 233.007 281.094 232.881 281.112C232.755 281.124 232.632 281.142 232.512 281.166C232.398 281.19 232.293 281.217 232.197 281.247C232.101 281.271 232.026 281.295 231.972 281.319L231.774 280.437ZM238.173 281.832L239.172 280.293H240.315L238.767 282.516C239.091 282.936 239.4 283.362 239.694 283.794C239.994 284.22 240.24 284.622 240.432 285H239.253C239.199 284.886 239.127 284.757 239.037 284.613C238.953 284.463 238.86 284.31 238.758 284.154C238.662 283.992 238.56 283.833 238.452 283.677C238.344 283.521 238.239 283.374 238.137 283.236C237.927 283.506 237.72 283.806 237.516 284.136C237.318 284.46 237.153 284.748 237.021 285H235.905C235.995 284.82 236.103 284.628 236.229 284.424C236.355 284.22 236.49 284.013 236.634 283.803C236.778 283.587 236.925 283.374 237.075 283.164C237.231 282.948 237.384 282.744 237.534 282.552L235.977 280.293H237.174L238.173 281.832ZM245.343 282.642C245.343 283.014 245.289 283.353 245.181 283.659C245.073 283.965 244.92 284.226 244.722 284.442C244.524 284.658 244.284 284.826 244.002 284.946C243.726 285.066 243.42 285.126 243.084 285.126C242.748 285.126 242.442 285.066 242.166 284.946C241.89 284.826 241.653 284.658 241.455 284.442C241.257 284.226 241.101 283.965 240.987 283.659C240.879 283.353 240.825 283.014 240.825 282.642C240.825 282.27 240.879 281.934 240.987 281.634C241.101 281.328 241.257 281.067 241.455 280.851C241.659 280.635 241.899 280.47 242.175 280.356C242.451 280.236 242.754 280.176 243.084 280.176C243.414 280.176 243.717 280.236 243.993 280.356C244.275 280.47 244.515 280.635 244.713 280.851C244.911 281.067 245.064 281.328 245.172 281.634C245.286 281.934 245.343 282.27 245.343 282.642ZM244.227 282.642C244.227 282.174 244.125 281.805 243.921 281.535C243.723 281.259 243.444 281.121 243.084 281.121C242.724 281.121 242.442 281.259 242.238 281.535C242.04 281.805 241.941 282.174 241.941 282.642C241.941 283.116 242.04 283.491 242.238 283.767C242.442 284.043 242.724 284.181 243.084 284.181C243.444 284.181 243.723 284.043 243.921 283.767C244.125 283.491 244.227 283.116 244.227 282.642ZM245.889 284.109H246.429C246.615 283.863 246.759 283.59 246.861 283.29C246.969 282.984 247.047 282.666 247.095 282.336C247.143 282 247.173 281.658 247.185 281.31C247.197 280.962 247.206 280.623 247.212 280.293H250.587V284.109H251.307V286.332H250.335V285H246.852V286.332H245.889V284.109ZM249.498 284.109V281.193H248.22C248.208 281.439 248.193 281.691 248.175 281.949C248.157 282.201 248.124 282.453 248.076 282.705C248.028 282.951 247.962 283.194 247.878 283.434C247.8 283.668 247.695 283.893 247.563 284.109H249.498ZM256.282 280.293V285H255.202C255.202 284.658 255.202 284.319 255.202 283.983C255.208 283.647 255.211 283.335 255.211 283.047C255.217 282.759 255.22 282.51 255.22 282.3C255.226 282.084 255.229 281.925 255.229 281.823C255.049 282.057 254.863 282.315 254.671 282.597C254.479 282.879 254.287 283.161 254.095 283.443C253.909 283.725 253.732 284.001 253.564 284.271C253.396 284.541 253.249 284.784 253.123 285H252.16V280.293H253.231C253.231 280.641 253.228 280.974 253.222 281.292C253.222 281.604 253.222 281.889 253.222 282.147C253.222 282.405 253.219 282.63 253.213 282.822C253.213 283.014 253.213 283.161 253.213 283.263C253.381 283.005 253.555 282.741 253.735 282.471C253.915 282.195 254.095 281.928 254.275 281.67C254.461 281.406 254.644 281.157 254.824 280.923C255.004 280.689 255.178 280.479 255.346 280.293H256.282Z" fill="#C6D1E7"/>
<path d="M243.597 244.615H252.518C255.153 244.615 257.22 246.946 256.981 249.649L255.555 265.802C255.345 268.18 253.41 270 251.092 270H227.908C225.59 270 223.655 268.18 223.445 265.802L222.019 249.649C221.951 248.886 222.068 248.152 222.329 247.493C222.564 246.899 222.768 246.28 222.74 245.642L222.695 244.615C222.695 242.066 224.701 240 227.176 240H235.403C236.592 240 237.731 240.486 238.572 241.352L240.428 243.264C241.269 244.129 242.408 244.615 243.597 244.615ZM224.936 244.572C224.943 244.73 225.102 244.835 225.254 244.79C225.643 244.677 226.055 244.615 226.482 244.615H236.297C237.147 244.615 237.58 243.593 236.987 242.984C236.567 242.551 235.997 242.308 235.403 242.308H227.176C225.953 242.308 224.958 243.317 224.936 244.572Z" fill="url(#paint4_linear_2143_1890)"/>
<path d="M281.935 278.763V285H280.801V279.735H278.137V285H277.003V278.763H281.935ZM286.497 282.669C286.497 282.183 286.386 281.805 286.164 281.535C285.948 281.265 285.597 281.13 285.111 281.13C285.009 281.13 284.901 281.136 284.787 281.148C284.679 281.154 284.571 281.172 284.463 281.202V283.893C284.559 283.959 284.685 284.022 284.841 284.082C285.003 284.136 285.174 284.163 285.354 284.163C285.75 284.163 286.038 284.028 286.218 283.758C286.404 283.488 286.497 283.125 286.497 282.669ZM287.613 282.651C287.613 283.011 287.565 283.341 287.469 283.641C287.379 283.941 287.247 284.199 287.073 284.415C286.899 284.631 286.68 284.799 286.416 284.919C286.158 285.039 285.864 285.099 285.534 285.099C285.312 285.099 285.108 285.072 284.922 285.018C284.736 284.964 284.583 284.904 284.463 284.838V286.665H283.374V280.446C283.596 280.386 283.869 280.329 284.193 280.275C284.517 280.221 284.859 280.194 285.219 280.194C285.591 280.194 285.924 280.251 286.218 280.365C286.512 280.479 286.761 280.644 286.965 280.86C287.175 281.07 287.334 281.328 287.442 281.634C287.556 281.934 287.613 282.273 287.613 282.651ZM292.857 280.293V285H291.777C291.777 284.658 291.777 284.319 291.777 283.983C291.783 283.647 291.786 283.335 291.786 283.047C291.792 282.759 291.795 282.51 291.795 282.3C291.801 282.084 291.804 281.925 291.804 281.823C291.624 282.057 291.438 282.315 291.246 282.597C291.054 282.879 290.862 283.161 290.67 283.443C290.484 283.725 290.307 284.001 290.139 284.271C289.971 284.541 289.824 284.784 289.698 285H288.735V280.293H289.806C289.806 280.641 289.803 280.974 289.797 281.292C289.797 281.604 289.797 281.889 289.797 282.147C289.797 282.405 289.794 282.63 289.788 282.822C289.788 283.014 289.788 283.161 289.788 283.263C289.956 283.005 290.13 282.741 290.31 282.471C290.49 282.195 290.67 281.928 290.85 281.67C291.036 281.406 291.219 281.157 291.399 280.923C291.579 280.689 291.753 280.479 291.921 280.293H292.857ZM295.938 281.832L296.937 280.293H298.08L296.532 282.516C296.856 282.936 297.165 283.362 297.459 283.794C297.759 284.22 298.005 284.622 298.197 285H297.018C296.964 284.886 296.892 284.757 296.802 284.613C296.718 284.463 296.625 284.31 296.523 284.154C296.427 283.992 296.325 283.833 296.217 283.677C296.109 283.521 296.004 283.374 295.902 283.236C295.692 283.506 295.485 283.806 295.281 284.136C295.083 284.46 294.918 284.748 294.786 285H293.67C293.76 284.82 293.868 284.628 293.994 284.424C294.12 284.22 294.255 284.013 294.399 283.803C294.543 283.587 294.69 283.374 294.84 283.164C294.996 282.948 295.149 282.744 295.299 282.552L293.742 280.293H294.939L295.938 281.832ZM303.109 282.642C303.109 283.014 303.055 283.353 302.947 283.659C302.839 283.965 302.686 284.226 302.488 284.442C302.29 284.658 302.05 284.826 301.768 284.946C301.492 285.066 301.186 285.126 300.85 285.126C300.514 285.126 300.208 285.066 299.932 284.946C299.656 284.826 299.419 284.658 299.221 284.442C299.023 284.226 298.867 283.965 298.753 283.659C298.645 283.353 298.591 283.014 298.591 282.642C298.591 282.27 298.645 281.934 298.753 281.634C298.867 281.328 299.023 281.067 299.221 280.851C299.425 280.635 299.665 280.47 299.941 280.356C300.217 280.236 300.52 280.176 300.85 280.176C301.18 280.176 301.483 280.236 301.759 280.356C302.041 280.47 302.281 280.635 302.479 280.851C302.677 281.067 302.83 281.328 302.938 281.634C303.052 281.934 303.109 282.27 303.109 282.642ZM301.993 282.642C301.993 282.174 301.891 281.805 301.687 281.535C301.489 281.259 301.21 281.121 300.85 281.121C300.49 281.121 300.208 281.259 300.004 281.535C299.806 281.805 299.707 282.174 299.707 282.642C299.707 283.116 299.806 283.491 300.004 283.767C300.208 284.043 300.49 284.181 300.85 284.181C301.21 284.181 301.489 284.043 301.687 283.767C301.891 283.491 301.993 283.116 301.993 282.642ZM303.655 284.109H304.195C304.381 283.863 304.525 283.59 304.627 283.29C304.735 282.984 304.813 282.666 304.861 282.336C304.909 282 304.939 281.658 304.951 281.31C304.963 280.962 304.972 280.623 304.978 280.293H308.353V284.109H309.073V286.332H308.101V285H304.618V286.332H303.655V284.109ZM307.264 284.109V281.193H305.986C305.974 281.439 305.959 281.691 305.941 281.949C305.923 282.201 305.89 282.453 305.842 282.705C305.794 282.951 305.728 283.194 305.644 283.434C305.566 283.668 305.461 283.893 305.329 284.109H307.264ZM314.048 280.293V285H312.968C312.968 284.658 312.968 284.319 312.968 283.983C312.974 283.647 312.977 283.335 312.977 283.047C312.983 282.759 312.986 282.51 312.986 282.3C312.992 282.084 312.995 281.925 312.995 281.823C312.815 282.057 312.629 282.315 312.437 282.597C312.245 282.879 312.053 283.161 311.861 283.443C311.675 283.725 311.498 284.001 311.33 284.271C311.162 284.541 311.015 284.784 310.889 285H309.926V280.293H310.997C310.997 280.641 310.994 280.974 310.988 281.292C310.988 281.604 310.988 281.889 310.988 282.147C310.988 282.405 310.985 282.63 310.979 282.822C310.979 283.014 310.979 283.161 310.979 283.263C311.147 283.005 311.321 282.741 311.501 282.471C311.681 282.195 311.861 281.928 312.041 281.67C312.227 281.406 312.41 281.157 312.59 280.923C312.77 280.689 312.944 280.479 313.112 280.293H314.048Z" fill="#C6D1E7"/>
<path d="M299.597 244.615H308.518C311.153 244.615 313.22 246.946 312.981 249.649L311.555 265.802C311.345 268.18 309.41 270 307.092 270H283.908C281.59 270 279.655 268.18 279.445 265.802L278.019 249.649C277.951 248.886 278.068 248.152 278.329 247.493C278.564 246.899 278.768 246.28 278.74 245.642L278.695 244.615C278.695 242.066 280.701 240 283.176 240H291.403C292.592 240 293.731 240.486 294.572 241.352L296.428 243.264C297.269 244.129 298.408 244.615 299.597 244.615ZM280.936 244.572C280.943 244.73 281.102 244.835 281.254 244.79C281.643 244.677 282.055 244.615 282.482 244.615H292.297C293.147 244.615 293.58 243.593 292.987 242.984C292.567 242.551 291.997 242.308 291.403 242.308H283.176C281.953 242.308 280.958 243.317 280.936 244.572Z" fill="url(#paint5_linear_2143_1890)"/>
<mask id="mask1_2143_1890" style="mask-type:alpha" maskUnits="userSpaceOnUse" x="131" y="17" width="222" height="157">
<rect x="131" y="17" width="222" height="157" fill="url(#paint6_linear_2143_1890)"/>
</mask>
<g mask="url(#mask1_2143_1890)">
<g clip-path="url(#clip2_2143_1890)">
<path d="M131 20.6452C131 18.632 132.632 17 134.645 17H348.355C350.368 17 352 18.632 352 20.6452V136.378H131V20.6452Z" fill="#314872"/>
<path d="M136 49H347V156H136V49Z" fill="#0F1828"/>
<mask id="path-42-inside-2_2143_1890" fill="white">
<path d="M136 22H347V49H136V22Z"/>
</mask>
<path d="M136 22H347V49H136V22Z" fill="#1F2D47"/>
<path d="M347 48.3696H136V49.6304H347V48.3696Z" fill="#314872" mask="url(#path-42-inside-2_2143_1890)"/>
<path d="M149.976 33.4553L152.429 32.0586C152.519 32.0041 152.453 31.8663 152.354 31.9013L149.611 33.0882L148.515 31.9935C148.419 31.898 148.477 31.7346 148.611 31.7198L153.316 31.2029C153.539 31.1785 153.696 31.4159 153.586 31.6111L151.768 34.8486C151.697 34.9768 151.522 35.0008 151.418 34.8968L150.466 33.945C150.466 33.945 149.264 34.6149 148.833 34.8865C148.496 35.0988 148.072 35.3881 147.796 35.5782C146.606 36.3967 146.001 36.9105 146.001 38.2451V40.1897C146.001 40.5968 146.502 40.7911 146.776 40.4908L149.049 38.0056C149.351 37.675 149.779 37.4867 150.227 37.4867H151.475C152.463 37.4867 153.328 37.3028 154.069 36.9354C154.811 36.5679 155.387 36.0444 155.799 35.3641C156.211 34.6841 156.417 33.8798 156.417 32.9505C156.417 32.0212 156.216 31.225 155.815 30.5366C155.414 29.8482 154.852 29.3139 154.13 28.9339C153.407 28.5533 152.564 28.3633 151.602 28.3633H149.671C147.644 28.3633 146.001 30.0065 146.001 32.0334V33.7435C146.001 34.289 146.301 34.7535 146.81 34.7829C147.072 34.798 147.321 34.7572 147.606 34.6446C148.222 34.4009 150.078 33.3994 150.078 33.3994" fill="url(#paint7_linear_2143_1890)"/>
<path opacity="0.5" d="M146 38.8776V40.1896C146 40.5967 146.501 40.791 146.775 40.4907L149.048 38.0056C149.277 37.7547 149.579 37.586 149.907 37.5191C149.864 37.5182 149.822 37.5176 149.779 37.5176C148.343 37.5176 147.026 38.0281 146 38.8777L146 38.8776Z" fill="url(#paint8_linear_2143_1890)"/>
<path opacity="0.5" d="M155.814 30.5365C155.413 29.8481 154.851 29.3138 154.129 28.9338C154.12 28.9289 154.11 28.9246 154.101 28.9199C154.104 28.9985 154.106 29.0775 154.106 29.1569C154.106 29.9955 153.932 30.7931 153.618 31.516C153.613 31.5479 153.603 31.5801 153.585 31.6113L153.53 31.7088L153.149 32.3884L151.767 34.8489C151.696 34.9772 151.521 35.0011 151.417 34.8972L150.93 34.4098L150.465 33.9455C150.465 33.9455 149.263 34.6154 148.832 34.8871C148.74 34.9453 148.641 35.0094 148.54 35.0756C148.274 35.2507 147.996 35.4409 147.795 35.5789C146.605 36.3967 146 36.9105 146 38.2452V38.8775C147.026 38.0281 148.343 37.5174 149.779 37.5174C149.822 37.5174 149.864 37.5182 149.906 37.519C150.011 37.4976 150.118 37.4864 150.226 37.4864H151.474C152.462 37.4864 153.327 37.3025 154.068 36.9351C154.81 36.5676 155.386 36.0441 155.798 35.3638C156.21 34.6838 156.415 33.8795 156.415 32.9502C156.415 32.021 156.215 31.2247 155.814 30.5363L155.814 30.5365Z" fill="url(#paint9_linear_2143_1890)"/>
<path d="M147.605 34.6443C148.147 34.43 149.648 33.63 150.002 33.4399L151.999 32.3029L152.428 32.0583C152.518 32.0038 152.453 31.8659 152.354 31.901L151.725 32.1733L149.611 33.0881L148.514 31.9934C148.446 31.9255 148.456 31.8233 148.515 31.7646C147.526 32.4543 146.757 33.4377 146.334 34.5886C146.461 34.7011 146.621 34.7719 146.81 34.7828C147.072 34.7979 147.32 34.7571 147.605 34.6444V34.6443Z" fill="url(#paint10_radial_2143_1890)"/>
<path opacity="0.5" d="M154.102 28.9199C153.386 28.5489 152.552 28.3633 151.602 28.3633H149.671C147.644 28.3633 146.001 30.0065 146.001 32.0334V33.7435C146.001 34.0867 146.12 34.3978 146.334 34.5887C146.757 33.4379 147.526 32.4544 148.516 31.7648C148.529 31.752 148.544 31.7413 148.561 31.7335C148.576 31.7267 148.593 31.7219 148.611 31.7198L149.009 31.6761L153.316 31.2029C153.504 31.1824 153.644 31.347 153.619 31.516C153.69 31.3531 153.754 31.1864 153.81 31.0163C154.003 30.4314 154.108 29.8065 154.108 29.1569C154.108 29.0775 154.105 28.9985 154.102 28.9199H154.102Z" fill="url(#paint11_radial_2143_1890)"/>
<path d="M163.449 31.085C164.321 31.085 164.99 31.2397 165.457 31.5491C165.924 31.8529 166.157 32.3535 166.157 33.0511C166.157 33.7542 165.921 34.2633 165.448 34.5783C164.976 34.8877 164.301 35.0424 163.423 35.0424H163.01V37H161.694V31.2369C161.98 31.1807 162.284 31.1413 162.605 31.1188C162.926 31.0963 163.207 31.085 163.449 31.085ZM163.533 32.2073C163.437 32.2073 163.342 32.2101 163.246 32.2157C163.156 32.2213 163.077 32.227 163.01 32.2326V33.9202H163.423C163.879 33.9202 164.222 33.8583 164.453 33.7345C164.683 33.6108 164.799 33.3801 164.799 33.0426C164.799 32.8795 164.768 32.7445 164.706 32.6376C164.65 32.5307 164.565 32.4463 164.453 32.3845C164.346 32.317 164.214 32.272 164.056 32.2495C163.899 32.2213 163.724 32.2073 163.533 32.2073ZM169.714 33.6755C169.602 33.6473 169.47 33.6192 169.318 33.5911C169.166 33.5573 169.003 33.5405 168.828 33.5405C168.75 33.5405 168.654 33.5489 168.541 33.5658C168.435 33.577 168.353 33.5911 168.297 33.608V37H167.039V32.7979C167.264 32.7192 167.529 32.646 167.833 32.5785C168.142 32.5054 168.485 32.4689 168.862 32.4689C168.93 32.4689 169.011 32.4745 169.107 32.4857C169.202 32.4914 169.298 32.5026 169.394 32.5195C169.489 32.5307 169.585 32.5476 169.681 32.5701C169.776 32.587 169.858 32.6095 169.925 32.6376L169.714 33.6755ZM172.213 36.1225C172.337 36.1225 172.455 36.1196 172.567 36.114C172.68 36.1084 172.77 36.1 172.837 36.0887V35.1352C172.787 35.124 172.711 35.1127 172.609 35.1015C172.508 35.0902 172.415 35.0846 172.331 35.0846C172.213 35.0846 172.1 35.093 171.993 35.1099C171.892 35.1212 171.802 35.1465 171.723 35.1859C171.645 35.2252 171.583 35.2787 171.538 35.3462C171.493 35.4137 171.47 35.4981 171.47 35.5993C171.47 35.7962 171.535 35.934 171.664 36.0128C171.799 36.0859 171.982 36.1225 172.213 36.1225ZM172.112 32.4435C172.483 32.4435 172.792 32.4857 173.04 32.5701C173.287 32.6545 173.484 32.7754 173.63 32.9329C173.782 33.0904 173.889 33.2817 173.951 33.5067C174.013 33.7317 174.044 33.982 174.044 34.2577V36.8734C173.864 36.9128 173.613 36.9578 173.293 37.0084C172.972 37.0647 172.584 37.0928 172.128 37.0928C171.842 37.0928 171.58 37.0675 171.344 37.0169C171.113 36.9662 170.913 36.8847 170.745 36.7722C170.576 36.654 170.446 36.5022 170.356 36.3165C170.266 36.1309 170.221 35.9031 170.221 35.6331C170.221 35.3743 170.272 35.1549 170.373 34.9749C170.48 34.7949 170.621 34.6515 170.795 34.5446C170.97 34.4377 171.169 34.3618 171.394 34.3167C171.619 34.2661 171.853 34.2408 172.095 34.2408C172.258 34.2408 172.401 34.2492 172.525 34.2661C172.654 34.2774 172.758 34.2942 172.837 34.3167V34.1986C172.837 33.9849 172.773 33.8133 172.643 33.6839C172.514 33.5545 172.289 33.4898 171.968 33.4898C171.754 33.4898 171.543 33.5067 171.335 33.5405C171.127 33.5686 170.947 33.6108 170.795 33.667L170.635 32.6545C170.708 32.632 170.798 32.6095 170.905 32.587C171.017 32.5589 171.138 32.5364 171.268 32.5195C171.397 32.497 171.532 32.4801 171.673 32.4689C171.819 32.452 171.965 32.4435 172.112 32.4435ZM175.139 31.4563L176.396 31.2538V32.5617H177.906V33.608H176.396V35.169C176.396 35.4334 176.441 35.6443 176.531 35.8018C176.626 35.9593 176.815 36.0381 177.096 36.0381C177.231 36.0381 177.369 36.0268 177.51 36.0043C177.656 35.9762 177.788 35.9396 177.906 35.8946L178.083 36.8734C177.931 36.9353 177.763 36.9887 177.577 37.0338C177.391 37.0788 177.164 37.1013 176.894 37.1013C176.55 37.1013 176.266 37.0563 176.041 36.9662C175.816 36.8706 175.636 36.7412 175.501 36.5781C175.366 36.4093 175.271 36.2068 175.214 35.9706C175.164 35.7343 175.139 35.4727 175.139 35.1859V31.4563ZM180.187 37H178.93V32.5617H180.187V37ZM180.305 31.2791C180.305 31.5097 180.229 31.6926 180.078 31.8276C179.931 31.957 179.757 32.0216 179.554 32.0216C179.352 32.0216 179.175 31.957 179.023 31.8276C178.877 31.6926 178.803 31.5097 178.803 31.2791C178.803 31.0485 178.877 30.8685 179.023 30.7391C179.175 30.6041 179.352 30.5366 179.554 30.5366C179.757 30.5366 179.931 30.6041 180.078 30.7391C180.229 30.8685 180.305 31.0485 180.305 31.2791ZM183.808 34.6458C183.808 34.2408 183.754 33.9539 183.647 33.7852C183.546 33.6164 183.369 33.532 183.116 33.532C183.037 33.532 182.955 33.5377 182.871 33.5489C182.787 33.5545 182.705 33.563 182.626 33.5742V37H181.369V32.7135C181.476 32.6854 181.6 32.6573 181.74 32.6292C181.887 32.5954 182.038 32.5673 182.196 32.5448C182.359 32.5167 182.525 32.497 182.694 32.4857C182.863 32.4689 183.028 32.4604 183.192 32.4604C183.512 32.4604 183.771 32.5026 183.968 32.587C184.17 32.6657 184.336 32.7614 184.466 32.8739C184.646 32.7445 184.851 32.6432 185.082 32.5701C185.318 32.497 185.535 32.4604 185.731 32.4604C186.086 32.4604 186.376 32.511 186.601 32.6123C186.831 32.7079 187.014 32.8457 187.149 33.0258C187.284 33.2058 187.377 33.4195 187.427 33.667C187.478 33.9145 187.503 34.1902 187.503 34.4939V37H186.246V34.6458C186.246 34.2408 186.193 33.9539 186.086 33.7852C185.985 33.6164 185.807 33.532 185.554 33.532C185.487 33.532 185.391 33.5489 185.267 33.5827C185.149 33.6164 185.051 33.6586 184.972 33.7092C185.011 33.8386 185.037 33.9764 185.048 34.1227C185.059 34.2633 185.065 34.4152 185.065 34.5783V37H183.808V34.6458ZM189.902 37H188.645V32.5617H189.902V37ZM190.02 31.2791C190.02 31.5097 189.945 31.6926 189.793 31.8276C189.646 31.957 189.472 32.0216 189.269 32.0216C189.067 32.0216 188.89 31.957 188.738 31.8276C188.592 31.6926 188.519 31.5097 188.519 31.2791C188.519 31.0485 188.592 30.8685 188.738 30.7391C188.89 30.6041 189.067 30.5366 189.269 30.5366C189.472 30.5366 189.646 30.6041 189.793 30.7391C189.945 30.8685 190.02 31.0485 190.02 31.2791Z" fill="white"/>
<circle cx="328.5" cy="34.5" r="7.5" fill="#496CAB"/>
</g>
</g>
<path d="M153.941 60.377V68H152.555V61.565H149.299V68H147.913V60.377H153.941ZM160.903 65.118C160.903 65.5727 160.837 65.987 160.705 66.361C160.573 66.735 160.386 67.054 160.144 67.318C159.902 67.582 159.608 67.7873 159.264 67.934C158.926 68.0807 158.552 68.154 158.142 68.154C157.731 68.154 157.357 68.0807 157.02 67.934C156.682 67.7873 156.393 67.582 156.151 67.318C155.909 67.054 155.718 66.735 155.579 66.361C155.447 65.987 155.381 65.5727 155.381 65.118C155.381 64.6633 155.447 64.2527 155.579 63.886C155.718 63.512 155.909 63.193 156.151 62.929C156.4 62.665 156.693 62.4633 157.031 62.324C157.368 62.1773 157.738 62.104 158.142 62.104C158.545 62.104 158.915 62.1773 159.253 62.324C159.597 62.4633 159.891 62.665 160.133 62.929C160.375 63.193 160.562 63.512 160.694 63.886C160.833 64.2527 160.903 64.6633 160.903 65.118ZM159.539 65.118C159.539 64.546 159.414 64.095 159.165 63.765C158.923 63.4277 158.582 63.259 158.142 63.259C157.702 63.259 157.357 63.4277 157.108 63.765C156.866 64.095 156.745 64.546 156.745 65.118C156.745 65.6973 156.866 66.1557 157.108 66.493C157.357 66.8303 157.702 66.999 158.142 66.999C158.582 66.999 158.923 66.8303 159.165 66.493C159.414 66.1557 159.539 65.6973 159.539 65.118ZM164.529 63.347C164.521 63.6697 164.51 64.007 164.496 64.359C164.481 64.7037 164.444 65.0447 164.386 65.382C164.334 65.7193 164.25 66.042 164.133 66.35C164.015 66.658 163.85 66.9367 163.638 67.186C163.432 67.428 163.172 67.6333 162.857 67.802C162.549 67.9633 162.171 68.066 161.724 68.11L161.537 66.999C161.911 66.9257 162.2 66.8083 162.406 66.647C162.611 66.4783 162.769 66.2657 162.879 66.009C162.967 65.8183 163.033 65.602 163.077 65.36C163.128 65.118 163.165 64.865 163.187 64.601C163.216 64.3297 163.234 64.0547 163.242 63.776C163.249 63.4973 163.253 63.226 163.253 62.962V62.247H167.323V68H165.992V63.347H164.529ZM173.717 62.247C173.123 64.4323 172.434 66.4123 171.649 68.187C171.502 68.517 171.352 68.7993 171.198 69.034C171.044 69.2687 170.872 69.463 170.681 69.617C170.49 69.771 170.278 69.881 170.043 69.947C169.808 70.0203 169.537 70.057 169.229 70.057C169.024 70.057 168.818 70.035 168.613 69.991C168.415 69.947 168.265 69.8993 168.162 69.848L168.404 68.781C168.668 68.8837 168.928 68.935 169.185 68.935C169.53 68.935 169.797 68.8507 169.988 68.682C170.186 68.5207 170.358 68.2677 170.505 67.923C170.087 67.1163 169.684 66.2363 169.295 65.283C168.914 64.3297 168.573 63.3177 168.272 62.247H169.691C169.764 62.555 169.852 62.8887 169.955 63.248C170.065 63.6073 170.182 63.974 170.307 64.348C170.432 64.7147 170.564 65.0813 170.703 65.448C170.842 65.8147 170.982 66.1557 171.121 66.471C171.356 65.8183 171.576 65.1253 171.781 64.392C171.986 63.6513 172.173 62.9363 172.342 62.247H173.717ZM175.681 64.029C175.681 64.381 175.78 64.6303 175.978 64.777C176.183 64.9163 176.462 64.986 176.814 64.986C176.983 64.986 177.148 64.9787 177.309 64.964C177.478 64.942 177.624 64.9163 177.749 64.887V62.247H179.08V68H177.749V65.943C177.617 65.965 177.445 65.9943 177.232 66.031C177.019 66.0603 176.829 66.075 176.66 66.075C176.315 66.075 176 66.042 175.714 65.976C175.435 65.91 175.193 65.8 174.988 65.646C174.783 65.4847 174.625 65.2757 174.515 65.019C174.405 64.755 174.35 64.4287 174.35 64.04V62.247H175.681V64.029ZM180.453 65.151C180.453 64.645 180.526 64.2013 180.673 63.82C180.827 63.4387 181.028 63.1233 181.278 62.874C181.527 62.6173 181.813 62.4267 182.136 62.302C182.458 62.17 182.788 62.104 183.126 62.104C183.918 62.104 184.534 62.3497 184.974 62.841C185.421 63.3323 185.645 64.0657 185.645 65.041C185.645 65.1143 185.641 65.1987 185.634 65.294C185.634 65.382 185.63 65.4627 185.623 65.536H181.828C181.864 65.998 182.026 66.3573 182.312 66.614C182.605 66.8633 183.027 66.988 183.577 66.988C183.899 66.988 184.193 66.9587 184.457 66.9C184.728 66.8413 184.941 66.779 185.095 66.713L185.271 67.802C185.197 67.8387 185.095 67.879 184.963 67.923C184.838 67.9597 184.691 67.9927 184.523 68.022C184.361 68.0587 184.185 68.088 183.995 68.11C183.804 68.132 183.61 68.143 183.412 68.143C182.906 68.143 182.466 68.0697 182.092 67.923C181.718 67.769 181.41 67.56 181.168 67.296C180.926 67.0247 180.746 66.7093 180.629 66.35C180.511 65.9833 180.453 65.5837 180.453 65.151ZM184.314 64.557C184.314 64.3737 184.288 64.2013 184.237 64.04C184.185 63.8713 184.108 63.7283 184.006 63.611C183.91 63.4863 183.789 63.391 183.643 63.325C183.503 63.2517 183.335 63.215 183.137 63.215C182.931 63.215 182.752 63.2553 182.598 63.336C182.444 63.4093 182.312 63.5083 182.202 63.633C182.099 63.7577 182.018 63.9007 181.96 64.062C181.901 64.2233 181.861 64.3883 181.839 64.557H184.314ZM191.885 68H190.554V65.591H188.387V68H187.056V62.247H188.387V64.491H190.554V62.247H191.885V68ZM198.614 62.247V68H197.294C197.294 67.582 197.294 67.1677 197.294 66.757C197.302 66.3463 197.305 65.965 197.305 65.613C197.313 65.261 197.316 64.9567 197.316 64.7C197.324 64.436 197.327 64.2417 197.327 64.117C197.107 64.403 196.88 64.7183 196.645 65.063C196.411 65.4077 196.176 65.7523 195.941 66.097C195.714 66.4417 195.498 66.779 195.292 67.109C195.087 67.439 194.907 67.736 194.753 68H193.576V62.247H194.885C194.885 62.6723 194.882 63.0793 194.874 63.468C194.874 63.8493 194.874 64.1977 194.874 64.513C194.874 64.8283 194.871 65.1033 194.863 65.338C194.863 65.5727 194.863 65.7523 194.863 65.877C195.069 65.5617 195.281 65.239 195.501 64.909C195.721 64.5717 195.941 64.2453 196.161 63.93C196.389 63.6073 196.612 63.303 196.832 63.017C197.052 62.731 197.265 62.4743 197.47 62.247H198.614Z" fill="#C6D1E7"/>
<mask id="mask2_2143_1890" style="mask-type:alpha" maskUnits="userSpaceOnUse" x="147" y="80" width="228" height="74">
<rect x="147" y="80" width="228" height="74" fill="url(#paint12_linear_2143_1890)"/>
</mask>
<g mask="url(#mask2_2143_1890)">
<rect x="147" y="96" width="228" height="26" rx="2" fill="#314872"/>
<ellipse cx="159.5" cy="109.222" rx="7.5" ry="7.22222" fill="#1F2D47"/>
<rect x="170.819" y="107" width="38.4375" height="4.81482" rx="1" fill="#1F2D47"/>
<rect x="214.382" y="107" width="21.3542" height="4.81482" rx="1" fill="#1F2D47"/>
<rect x="313" y="101" width="52" height="16" rx="1" fill="#496CAB"/>
<path d="M321.541 105.7C322.417 105.7 323.089 105.868 323.557 106.204C324.031 106.534 324.268 107.029 324.268 107.689C324.268 108.049 324.202 108.358 324.07 108.616C323.944 108.868 323.758 109.075 323.512 109.237C323.272 109.393 322.978 109.507 322.63 109.579C322.282 109.651 321.889 109.687 321.451 109.687H320.758V112H319.885V105.853C320.131 105.793 320.404 105.754 320.704 105.736C321.01 105.712 321.289 105.7 321.541 105.7ZM321.613 106.465C321.241 106.465 320.956 106.474 320.758 106.492V108.94H321.415C321.715 108.94 321.985 108.922 322.225 108.886C322.465 108.844 322.666 108.778 322.828 108.688C322.996 108.592 323.125 108.463 323.215 108.301C323.305 108.139 323.35 107.932 323.35 107.68C323.35 107.44 323.302 107.242 323.206 107.086C323.116 106.93 322.99 106.807 322.828 106.717C322.672 106.621 322.489 106.555 322.279 106.519C322.069 106.483 321.847 106.465 321.613 106.465ZM327.533 111.397C327.731 111.397 327.905 111.394 328.055 111.388C328.211 111.376 328.34 111.358 328.442 111.334V109.939C328.382 109.909 328.283 109.885 328.145 109.867C328.013 109.843 327.851 109.831 327.659 109.831C327.533 109.831 327.398 109.84 327.254 109.858C327.116 109.876 326.987 109.915 326.867 109.975C326.753 110.029 326.657 110.107 326.579 110.209C326.501 110.305 326.462 110.434 326.462 110.596C326.462 110.896 326.558 111.106 326.75 111.226C326.942 111.34 327.203 111.397 327.533 111.397ZM327.461 107.203C327.797 107.203 328.079 107.248 328.307 107.338C328.541 107.422 328.727 107.545 328.865 107.707C329.009 107.863 329.111 108.052 329.171 108.274C329.231 108.49 329.261 108.73 329.261 108.994V111.919C329.189 111.931 329.087 111.949 328.955 111.973C328.829 111.991 328.685 112.009 328.523 112.027C328.361 112.045 328.184 112.06 327.992 112.072C327.806 112.09 327.62 112.099 327.434 112.099C327.17 112.099 326.927 112.072 326.705 112.018C326.483 111.964 326.291 111.88 326.129 111.766C325.967 111.646 325.841 111.49 325.751 111.298C325.661 111.106 325.616 110.875 325.616 110.605C325.616 110.347 325.667 110.125 325.769 109.939C325.877 109.753 326.021 109.603 326.201 109.489C326.381 109.375 326.591 109.291 326.831 109.237C327.071 109.183 327.323 109.156 327.587 109.156C327.671 109.156 327.758 109.162 327.848 109.174C327.938 109.18 328.022 109.192 328.1 109.21C328.184 109.222 328.256 109.234 328.316 109.246C328.376 109.258 328.418 109.267 328.442 109.273V109.039C328.442 108.901 328.427 108.766 328.397 108.634C328.367 108.496 328.313 108.376 328.235 108.274C328.157 108.166 328.049 108.082 327.911 108.022C327.779 107.956 327.605 107.923 327.389 107.923C327.113 107.923 326.87 107.944 326.66 107.986C326.456 108.022 326.303 108.061 326.201 108.103L326.102 107.41C326.21 107.362 326.39 107.317 326.642 107.275C326.894 107.227 327.167 107.203 327.461 107.203ZM332.649 107.203C332.919 107.203 333.171 107.23 333.405 107.284C333.639 107.338 333.84 107.419 334.008 107.527C334.176 107.635 334.308 107.77 334.404 107.932C334.5 108.094 334.548 108.283 334.548 108.499C334.548 108.637 334.524 108.763 334.476 108.877C334.428 108.991 334.368 109.093 334.296 109.183C334.224 109.273 334.143 109.351 334.053 109.417C333.969 109.477 333.888 109.519 333.81 109.543C334.086 109.627 334.302 109.777 334.458 109.993C334.62 110.203 334.701 110.47 334.701 110.794C334.701 111.238 334.521 111.568 334.161 111.784C333.801 112 333.312 112.108 332.694 112.108C332.316 112.108 331.989 112.078 331.713 112.018C331.443 111.958 331.251 111.901 331.137 111.847L331.281 111.136C331.377 111.172 331.548 111.223 331.794 111.289C332.046 111.349 332.346 111.379 332.694 111.379C333.072 111.379 333.36 111.322 333.558 111.208C333.756 111.088 333.855 110.911 333.855 110.677C333.855 110.509 333.816 110.374 333.738 110.272C333.666 110.164 333.573 110.083 333.459 110.029C333.345 109.975 333.222 109.939 333.09 109.921C332.958 109.903 332.835 109.894 332.721 109.894H331.938V109.228H332.694C332.802 109.228 332.913 109.222 333.027 109.21C333.147 109.192 333.255 109.159 333.351 109.111C333.453 109.063 333.537 108.997 333.603 108.913C333.669 108.823 333.702 108.706 333.702 108.562C333.702 108.448 333.672 108.352 333.612 108.274C333.558 108.19 333.483 108.121 333.387 108.067C333.291 108.013 333.177 107.974 333.045 107.95C332.919 107.92 332.787 107.905 332.649 107.905C332.541 107.905 332.424 107.914 332.298 107.932C332.172 107.95 332.049 107.974 331.929 108.004C331.809 108.028 331.701 108.055 331.605 108.085C331.509 108.115 331.44 108.142 331.398 108.166L331.245 107.446C331.293 107.428 331.368 107.404 331.47 107.374C331.572 107.344 331.686 107.317 331.812 107.293C331.944 107.269 332.082 107.248 332.226 107.23C332.37 107.212 332.511 107.203 332.649 107.203ZM339.474 112C339.408 111.868 339.327 111.721 339.231 111.559C339.135 111.397 339.03 111.232 338.916 111.064C338.802 110.89 338.685 110.719 338.565 110.551C338.445 110.383 338.328 110.224 338.214 110.074C338.1 110.224 337.983 110.386 337.863 110.56C337.743 110.728 337.626 110.899 337.512 111.073C337.404 111.241 337.302 111.406 337.206 111.568C337.11 111.73 337.029 111.874 336.963 112H336.099C336.309 111.592 336.558 111.178 336.846 110.758C337.14 110.332 337.431 109.927 337.719 109.543L336.171 107.32H337.116L338.232 108.958L339.357 107.32H340.248L338.736 109.489C339.024 109.879 339.318 110.293 339.618 110.731C339.924 111.163 340.182 111.586 340.392 112H339.474ZM346.019 109.66C346.019 110.032 345.965 110.368 345.857 110.668C345.749 110.968 345.596 111.226 345.398 111.442C345.206 111.658 344.975 111.826 344.705 111.946C344.435 112.06 344.141 112.117 343.823 112.117C343.505 112.117 343.211 112.06 342.941 111.946C342.671 111.826 342.437 111.658 342.239 111.442C342.047 111.226 341.897 110.968 341.789 110.668C341.681 110.368 341.627 110.032 341.627 109.66C341.627 109.294 341.681 108.961 341.789 108.661C341.897 108.355 342.047 108.094 342.239 107.878C342.437 107.662 342.671 107.497 342.941 107.383C343.211 107.263 343.505 107.203 343.823 107.203C344.141 107.203 344.435 107.263 344.705 107.383C344.975 107.497 345.206 107.662 345.398 107.878C345.596 108.094 345.749 108.355 345.857 108.661C345.965 108.961 346.019 109.294 346.019 109.66ZM345.146 109.66C345.146 109.132 345.026 108.715 344.786 108.409C344.552 108.097 344.231 107.941 343.823 107.941C343.415 107.941 343.091 108.097 342.851 108.409C342.617 108.715 342.5 109.132 342.5 109.66C342.5 110.188 342.617 110.608 342.851 110.92C343.091 111.226 343.415 111.379 343.823 111.379C344.231 111.379 344.552 111.226 344.786 110.92C345.026 110.608 345.146 110.188 345.146 109.66ZM347.431 111.316H347.935C348.133 111.028 348.289 110.731 348.403 110.425C348.523 110.119 348.613 109.804 348.673 109.48C348.733 109.15 348.772 108.808 348.79 108.454C348.808 108.094 348.82 107.716 348.826 107.32H351.895V111.316H352.525V113.305H351.733V112H348.223V113.305H347.431V111.316ZM351.058 111.316V108.022H349.591C349.585 108.304 349.57 108.589 349.546 108.877C349.522 109.159 349.483 109.441 349.429 109.723C349.375 109.999 349.297 110.272 349.195 110.542C349.099 110.806 348.976 111.064 348.826 111.316H351.058ZM358.172 107.32V112H357.362V108.436C357.182 108.664 356.984 108.931 356.768 109.237C356.552 109.543 356.336 109.861 356.12 110.191C355.904 110.515 355.697 110.836 355.499 111.154C355.301 111.472 355.13 111.754 354.986 112H354.239V107.32H355.049V110.686C355.205 110.428 355.382 110.146 355.58 109.84C355.778 109.528 355.982 109.222 356.192 108.922C356.408 108.616 356.621 108.325 356.831 108.049C357.047 107.767 357.248 107.524 357.434 107.32H358.172Z" fill="white"/>
<rect x="261" y="107" width="38.4375" height="4.81482" rx="1" fill="#1F2D47"/>
<rect x="147" y="126.854" width="228" height="26" rx="2" fill="#314872"/>
<ellipse cx="159.5" cy="140.076" rx="7.5" ry="7.22222" fill="#1F2D47"/>
<rect x="170.819" y="137.854" width="38.4375" height="4.81482" rx="1" fill="#1F2D47"/>
<rect x="214.382" y="137.854" width="21.3542" height="4.81482" rx="1" fill="#1F2D47"/>
<rect x="313" y="132" width="55" height="16" rx="1" fill="#496CAB"/>
<path d="M324.853 136.763V143H323.98V137.51H320.983V143H320.11V136.763H324.853ZM330.408 140.669C330.408 140.123 330.273 139.703 330.003 139.409C329.733 139.115 329.373 138.968 328.923 138.968C328.671 138.968 328.473 138.977 328.329 138.995C328.191 139.013 328.08 139.034 327.996 139.058V142.01C328.098 142.094 328.245 142.175 328.437 142.253C328.629 142.331 328.839 142.37 329.067 142.37C329.307 142.37 329.511 142.328 329.679 142.244C329.853 142.154 329.994 142.034 330.102 141.884C330.21 141.728 330.288 141.548 330.336 141.344C330.384 141.134 330.408 140.909 330.408 140.669ZM331.281 140.669C331.281 141.023 331.233 141.35 331.137 141.65C331.047 141.95 330.912 142.208 330.732 142.424C330.552 142.64 330.33 142.808 330.066 142.928C329.808 143.048 329.511 143.108 329.175 143.108C328.905 143.108 328.665 143.072 328.455 143C328.251 142.928 328.098 142.859 327.996 142.793V144.665H327.159V138.464C327.357 138.416 327.603 138.365 327.897 138.311C328.197 138.251 328.542 138.221 328.932 138.221C329.292 138.221 329.616 138.278 329.904 138.392C330.192 138.506 330.438 138.668 330.642 138.878C330.846 139.088 331.002 139.346 331.11 139.652C331.224 139.952 331.281 140.291 331.281 140.669ZM337.202 138.32V143H336.392V139.436C336.212 139.664 336.014 139.931 335.798 140.237C335.582 140.543 335.366 140.861 335.15 141.191C334.934 141.515 334.727 141.836 334.529 142.154C334.331 142.472 334.16 142.754 334.016 143H333.269V138.32H334.079V141.686C334.235 141.428 334.412 141.146 334.61 140.84C334.808 140.528 335.012 140.222 335.222 139.922C335.438 139.616 335.651 139.325 335.861 139.049C336.077 138.767 336.278 138.524 336.464 138.32H337.202ZM342.248 143C342.182 142.868 342.101 142.721 342.005 142.559C341.909 142.397 341.804 142.232 341.69 142.064C341.576 141.89 341.459 141.719 341.339 141.551C341.219 141.383 341.102 141.224 340.988 141.074C340.874 141.224 340.757 141.386 340.637 141.56C340.517 141.728 340.4 141.899 340.286 142.073C340.178 142.241 340.076 142.406 339.98 142.568C339.884 142.73 339.803 142.874 339.737 143H338.873C339.083 142.592 339.332 142.178 339.62 141.758C339.914 141.332 340.205 140.927 340.493 140.543L338.945 138.32H339.89L341.006 139.958L342.131 138.32H343.022L341.51 140.489C341.798 140.879 342.092 141.293 342.392 141.731C342.698 142.163 342.956 142.586 343.166 143H342.248ZM348.793 140.66C348.793 141.032 348.739 141.368 348.631 141.668C348.523 141.968 348.37 142.226 348.172 142.442C347.98 142.658 347.749 142.826 347.479 142.946C347.209 143.06 346.915 143.117 346.597 143.117C346.279 143.117 345.985 143.06 345.715 142.946C345.445 142.826 345.211 142.658 345.013 142.442C344.821 142.226 344.671 141.968 344.563 141.668C344.455 141.368 344.401 141.032 344.401 140.66C344.401 140.294 344.455 139.961 344.563 139.661C344.671 139.355 344.821 139.094 345.013 138.878C345.211 138.662 345.445 138.497 345.715 138.383C345.985 138.263 346.279 138.203 346.597 138.203C346.915 138.203 347.209 138.263 347.479 138.383C347.749 138.497 347.98 138.662 348.172 138.878C348.37 139.094 348.523 139.355 348.631 139.661C348.739 139.961 348.793 140.294 348.793 140.66ZM347.92 140.66C347.92 140.132 347.8 139.715 347.56 139.409C347.326 139.097 347.005 138.941 346.597 138.941C346.189 138.941 345.865 139.097 345.625 139.409C345.391 139.715 345.274 140.132 345.274 140.66C345.274 141.188 345.391 141.608 345.625 141.92C345.865 142.226 346.189 142.379 346.597 142.379C347.005 142.379 347.326 142.226 347.56 141.92C347.8 141.608 347.92 141.188 347.92 140.66ZM350.205 142.316H350.709C350.907 142.028 351.063 141.731 351.177 141.425C351.297 141.119 351.387 140.804 351.447 140.48C351.507 140.15 351.546 139.808 351.564 139.454C351.582 139.094 351.594 138.716 351.6 138.32H354.669V142.316H355.299V144.305H354.507V143H350.997V144.305H350.205V142.316ZM353.832 142.316V139.022H352.365C352.359 139.304 352.344 139.589 352.32 139.877C352.296 140.159 352.257 140.441 352.203 140.723C352.149 140.999 352.071 141.272 351.969 141.542C351.873 141.806 351.75 142.064 351.6 142.316H353.832ZM360.947 138.32V143H360.137V139.436C359.957 139.664 359.759 139.931 359.543 140.237C359.327 140.543 359.111 140.861 358.895 141.191C358.679 141.515 358.472 141.836 358.274 142.154C358.076 142.472 357.905 142.754 357.761 143H357.014V138.32H357.824V141.686C357.98 141.428 358.157 141.146 358.355 140.84C358.553 140.528 358.757 140.222 358.967 139.922C359.183 139.616 359.396 139.325 359.606 139.049C359.822 138.767 360.023 138.524 360.209 138.32H360.947Z" fill="white"/>
<rect x="261" y="137.854" width="38.4375" height="4.81482" rx="1" fill="#1F2D47"/>
<path d="M267.99 80.07C267.783 80.2967 267.55 80.55 267.29 80.83C267.03 81.1033 266.757 81.3867 266.47 81.68C266.19 81.9667 265.91 82.25 265.63 82.53C265.35 82.81 265.087 83.07 264.84 83.31C265.127 83.51 265.43 83.7567 265.75 84.05C266.07 84.3433 266.383 84.6567 266.69 84.99C266.997 85.3233 267.283 85.6633 267.55 86.01C267.823 86.3567 268.05 86.6867 268.23 87H267.09C266.89 86.6867 266.66 86.3733 266.4 86.06C266.14 85.74 265.863 85.4367 265.57 85.15C265.283 84.8567 264.99 84.5867 264.69 84.34C264.397 84.0933 264.11 83.8833 263.83 83.71V87H262.86V80.07H263.83V83.13C264.063 82.91 264.32 82.6633 264.6 82.39C264.88 82.11 265.157 81.83 265.43 81.55C265.703 81.27 265.96 81.0033 266.2 80.75C266.447 80.49 266.653 80.2633 266.82 80.07H267.99ZM271.153 82.58C271.153 82.8 271.146 83.0367 271.133 83.29C271.126 83.5367 271.11 83.7867 271.083 84.04C271.056 84.2867 271.02 84.5333 270.973 84.78C270.926 85.02 270.866 85.2467 270.793 85.46C270.72 85.6733 270.626 85.8733 270.513 86.06C270.406 86.2467 270.273 86.4133 270.113 86.56C269.953 86.7 269.766 86.82 269.553 86.92C269.34 87.0133 269.09 87.0733 268.803 87.1L268.673 86.32C269 86.2533 269.256 86.13 269.443 85.95C269.636 85.77 269.79 85.55 269.903 85.29C270.003 85.0633 270.076 84.8067 270.123 84.52C270.17 84.2333 270.203 83.9367 270.223 83.63C270.243 83.3167 270.253 83.0033 270.253 82.69C270.26 82.3767 270.263 82.08 270.263 81.8H273.723V87H272.793V82.58H271.153ZM279.69 81.8V87H278.79V83.04C278.59 83.2933 278.37 83.59 278.13 83.93C277.89 84.27 277.65 84.6233 277.41 84.99C277.17 85.35 276.94 85.7067 276.72 86.06C276.5 86.4133 276.31 86.7267 276.15 87H275.32V81.8H276.22V85.54C276.393 85.2533 276.59 84.94 276.81 84.6C277.03 84.2533 277.256 83.9133 277.49 83.58C277.73 83.24 277.966 82.9167 278.2 82.61C278.44 82.2967 278.663 82.0267 278.87 81.8H279.69ZM280.996 84.41C280.996 83.95 281.063 83.55 281.196 83.21C281.33 82.8633 281.506 82.5767 281.726 82.35C281.946 82.1233 282.2 81.9533 282.486 81.84C282.773 81.7267 283.066 81.67 283.366 81.67C284.066 81.67 284.603 81.89 284.976 82.33C285.35 82.7633 285.536 83.4267 285.536 84.32C285.536 84.36 285.536 84.4133 285.536 84.48C285.536 84.54 285.533 84.5967 285.526 84.65H281.966C282.006 85.19 282.163 85.6 282.436 85.88C282.71 86.16 283.136 86.3 283.716 86.3C284.043 86.3 284.316 86.2733 284.536 86.22C284.763 86.16 284.933 86.1033 285.046 86.05L285.176 86.83C285.063 86.89 284.863 86.9533 284.576 87.02C284.296 87.0867 283.976 87.12 283.616 87.12C283.163 87.12 282.77 87.0533 282.436 86.92C282.11 86.78 281.84 86.59 281.626 86.35C281.413 86.11 281.253 85.8267 281.146 85.5C281.046 85.1667 280.996 84.8033 280.996 84.41ZM284.566 83.9C284.573 83.48 284.466 83.1367 284.246 82.87C284.033 82.5967 283.736 82.46 283.356 82.46C283.143 82.46 282.953 82.5033 282.786 82.59C282.626 82.67 282.49 82.7767 282.376 82.91C282.263 83.0433 282.173 83.1967 282.106 83.37C282.046 83.5433 282.006 83.72 281.986 83.9H284.566ZM291.132 87H290.202V84.7H287.802V87H286.872V81.8H287.802V83.92H290.202V81.8H291.132V87ZM296.402 81.8V82.58H294.712V87H293.782V82.58H292.092V81.8H296.402Z" fill="#A9BADA"/>
<path d="M319.99 80.07C319.783 80.2967 319.55 80.55 319.29 80.83C319.03 81.1033 318.757 81.3867 318.47 81.68C318.19 81.9667 317.91 82.25 317.63 82.53C317.35 82.81 317.087 83.07 316.84 83.31C317.127 83.51 317.43 83.7567 317.75 84.05C318.07 84.3433 318.383 84.6567 318.69 84.99C318.997 85.3233 319.283 85.6633 319.55 86.01C319.823 86.3567 320.05 86.6867 320.23 87H319.09C318.89 86.6867 318.66 86.3733 318.4 86.06C318.14 85.74 317.863 85.4367 317.57 85.15C317.283 84.8567 316.99 84.5867 316.69 84.34C316.397 84.0933 316.11 83.8833 315.83 83.71V87H314.86V80.07H315.83V83.13C316.063 82.91 316.32 82.6633 316.6 82.39C316.88 82.11 317.157 81.83 317.43 81.55C317.703 81.27 317.96 81.0033 318.2 80.75C318.447 80.49 318.653 80.2633 318.82 80.07H319.99ZM322.849 86.33C323.069 86.33 323.262 86.3267 323.429 86.32C323.602 86.3067 323.746 86.2867 323.859 86.26V84.71C323.792 84.6767 323.682 84.65 323.529 84.63C323.382 84.6033 323.202 84.59 322.989 84.59C322.849 84.59 322.699 84.6 322.539 84.62C322.386 84.64 322.242 84.6833 322.109 84.75C321.982 84.81 321.876 84.8967 321.789 85.01C321.702 85.1167 321.659 85.26 321.659 85.44C321.659 85.7733 321.766 86.0067 321.979 86.14C322.192 86.2667 322.482 86.33 322.849 86.33ZM322.769 81.67C323.142 81.67 323.456 81.72 323.709 81.82C323.969 81.9133 324.176 82.05 324.329 82.23C324.489 82.4033 324.602 82.6133 324.669 82.86C324.736 83.1 324.769 83.3667 324.769 83.66V86.91C324.689 86.9233 324.576 86.9433 324.429 86.97C324.289 86.99 324.129 87.01 323.949 87.03C323.769 87.05 323.572 87.0667 323.359 87.08C323.152 87.1 322.946 87.11 322.739 87.11C322.446 87.11 322.176 87.08 321.929 87.02C321.682 86.96 321.469 86.8667 321.289 86.74C321.109 86.6067 320.969 86.4333 320.869 86.22C320.769 86.0067 320.719 85.75 320.719 85.45C320.719 85.1633 320.776 84.9167 320.889 84.71C321.009 84.5033 321.169 84.3367 321.369 84.21C321.569 84.0833 321.802 83.99 322.069 83.93C322.336 83.87 322.616 83.84 322.909 83.84C323.002 83.84 323.099 83.8467 323.199 83.86C323.299 83.8667 323.392 83.88 323.479 83.9C323.572 83.9133 323.652 83.9267 323.719 83.94C323.786 83.9533 323.832 83.9633 323.859 83.97V83.71C323.859 83.5567 323.842 83.4067 323.809 83.26C323.776 83.1067 323.716 82.9733 323.629 82.86C323.542 82.74 323.422 82.6467 323.269 82.58C323.122 82.5067 322.929 82.47 322.689 82.47C322.382 82.47 322.112 82.4933 321.879 82.54C321.652 82.58 321.482 82.6233 321.369 82.67L321.259 81.9C321.379 81.8467 321.579 81.7967 321.859 81.75C322.139 81.6967 322.442 81.67 322.769 81.67ZM329.984 81.8V82.58H328.294V87H327.364V82.58H325.674V81.8H329.984ZM330.653 84.41C330.653 83.95 330.719 83.55 330.853 83.21C330.986 82.8633 331.163 82.5767 331.383 82.35C331.603 82.1233 331.856 81.9533 332.143 81.84C332.429 81.7267 332.723 81.67 333.023 81.67C333.723 81.67 334.259 81.89 334.633 82.33C335.006 82.7633 335.193 83.4267 335.193 84.32C335.193 84.36 335.193 84.4133 335.193 84.48C335.193 84.54 335.189 84.5967 335.183 84.65H331.623C331.663 85.19 331.819 85.6 332.093 85.88C332.366 86.16 332.793 86.3 333.373 86.3C333.699 86.3 333.973 86.2733 334.193 86.22C334.419 86.16 334.589 86.1033 334.703 86.05L334.833 86.83C334.719 86.89 334.519 86.9533 334.233 87.02C333.953 87.0867 333.633 87.12 333.273 87.12C332.819 87.12 332.426 87.0533 332.093 86.92C331.766 86.78 331.496 86.59 331.283 86.35C331.069 86.11 330.909 85.8267 330.803 85.5C330.703 85.1667 330.653 84.8033 330.653 84.41ZM334.223 83.9C334.229 83.48 334.123 83.1367 333.903 82.87C333.689 82.5967 333.393 82.46 333.013 82.46C332.799 82.46 332.609 82.5033 332.443 82.59C332.283 82.67 332.146 82.7767 332.033 82.91C331.919 83.0433 331.829 83.1967 331.763 83.37C331.703 83.5433 331.663 83.72 331.643 83.9H334.223ZM339.749 82.58H337.459V87H336.529V81.8H339.749V82.58ZM345.298 84.4C345.298 84.8133 345.238 85.1867 345.118 85.52C344.998 85.8533 344.828 86.14 344.608 86.38C344.395 86.62 344.138 86.8067 343.838 86.94C343.538 87.0667 343.212 87.13 342.858 87.13C342.505 87.13 342.178 87.0667 341.878 86.94C341.578 86.8067 341.318 86.62 341.098 86.38C340.885 86.14 340.718 85.8533 340.598 85.52C340.478 85.1867 340.418 84.8133 340.418 84.4C340.418 83.9933 340.478 83.6233 340.598 83.29C340.718 82.95 340.885 82.66 341.098 82.42C341.318 82.18 341.578 81.9967 341.878 81.87C342.178 81.7367 342.505 81.67 342.858 81.67C343.212 81.67 343.538 81.7367 343.838 81.87C344.138 81.9967 344.395 82.18 344.608 82.42C344.828 82.66 344.998 82.95 345.118 83.29C345.238 83.6233 345.298 83.9933 345.298 84.4ZM344.328 84.4C344.328 83.8133 344.195 83.35 343.928 83.01C343.668 82.6633 343.312 82.49 342.858 82.49C342.405 82.49 342.045 82.6633 341.778 83.01C341.518 83.35 341.388 83.8133 341.388 84.4C341.388 84.9867 341.518 85.4533 341.778 85.8C342.045 86.14 342.405 86.31 342.858 86.31C343.312 86.31 343.668 86.14 343.928 85.8C344.195 85.4533 344.328 84.9867 344.328 84.4ZM350.217 84.41C350.217 83.8033 350.067 83.3367 349.767 83.01C349.467 82.6833 349.067 82.52 348.567 82.52C348.287 82.52 348.067 82.53 347.907 82.55C347.753 82.57 347.63 82.5933 347.537 82.62V85.9C347.65 85.9933 347.813 86.0833 348.027 86.17C348.24 86.2567 348.473 86.3 348.727 86.3C348.993 86.3 349.22 86.2533 349.407 86.16C349.6 86.06 349.757 85.9267 349.877 85.76C349.997 85.5867 350.083 85.3867 350.137 85.16C350.19 84.9267 350.217 84.6767 350.217 84.41ZM351.187 84.41C351.187 84.8033 351.133 85.1667 351.027 85.5C350.927 85.8333 350.777 86.12 350.577 86.36C350.377 86.6 350.13 86.7867 349.837 86.92C349.55 87.0533 349.22 87.12 348.847 87.12C348.547 87.12 348.28 87.08 348.047 87C347.82 86.92 347.65 86.8433 347.537 86.77V88.85H346.607V81.96C346.827 81.9067 347.1 81.85 347.427 81.79C347.76 81.7233 348.143 81.69 348.577 81.69C348.977 81.69 349.337 81.7533 349.657 81.88C349.977 82.0067 350.25 82.1867 350.477 82.42C350.703 82.6533 350.877 82.94 350.997 83.28C351.123 83.6133 351.187 83.99 351.187 84.41ZM356.865 81.8V87H355.965V83.04C355.765 83.2933 355.545 83.59 355.305 83.93C355.065 84.27 354.825 84.6233 354.585 84.99C354.345 85.35 354.115 85.7067 353.895 86.06C353.675 86.4133 353.485 86.7267 353.325 87H352.495V81.8H353.395V85.54C353.569 85.2533 353.765 84.94 353.985 84.6C354.205 84.2533 354.432 83.9133 354.665 83.58C354.905 83.24 355.142 82.9167 355.375 82.61C355.615 82.2967 355.839 82.0267 356.045 81.8H356.865ZM360.612 84.98C360.512 84.98 360.415 84.98 360.322 84.98C360.229 84.9733 360.139 84.9667 360.052 84.96C359.839 85.28 359.632 85.6233 359.432 85.99C359.239 86.35 359.065 86.6867 358.912 87H357.972C358.052 86.8067 358.145 86.61 358.252 86.41C358.359 86.2033 358.465 86.0033 358.572 85.81C358.685 85.6167 358.799 85.4333 358.912 85.26C359.025 85.0867 359.132 84.93 359.232 84.79C359.045 84.7233 358.892 84.6433 358.772 84.55C358.652 84.45 358.555 84.34 358.482 84.22C358.409 84.1 358.355 83.9733 358.322 83.84C358.295 83.7 358.282 83.56 358.282 83.42C358.282 83.1267 358.335 82.87 358.442 82.65C358.555 82.43 358.709 82.25 358.902 82.11C359.095 81.9633 359.322 81.8533 359.582 81.78C359.849 81.7067 360.139 81.67 360.452 81.67C360.892 81.67 361.265 81.69 361.572 81.73C361.879 81.77 362.135 81.8167 362.342 81.87V87H361.422V84.98H360.612ZM361.422 82.49C361.349 82.4767 361.225 82.4633 361.052 82.45C360.885 82.4367 360.692 82.43 360.472 82.43C360.092 82.43 359.785 82.51 359.552 82.67C359.319 82.8233 359.202 83.07 359.202 83.41C359.202 83.7433 359.322 83.9733 359.562 84.1C359.802 84.2267 360.112 84.29 360.492 84.29H361.422V82.49Z" fill="#A9BADA"/>
<rect x="171" y="82.8535" width="31" height="4" rx="1" fill="#1F2D47"/>
<rect x="215" y="82.8535" width="18" height="4" rx="1" fill="#1F2D47"/>
</g>
<path d="M140.56 161.61C134.471 158.984 142.587 157.404 148.971 155.306C164.445 150.221 171.47 148.004 186.362 141.85C187.799 141.326 187.176 139.88 185.738 140.405C177.522 143.062 168.333 146.221 161.868 148.185L153.382 137.972C152.64 137.077 153.268 135.683 154.46 135.664L195.033 135.076C196.952 135.059 198.103 137.215 197.028 138.798L178.854 164.98C178.129 166.001 176.636 166.058 175.868 165.094L168.483 156.174C164.664 157.761 164.821 158.236 160.697 160.257C155.985 162.552 153.484 164.518 151.947 165.396C139.667 173.489 152.543 166.78 140.56 161.61Z" fill="url(#paint13_linear_2143_1890)"/>
<path d="M130.365 233.301C123.561 227.613 134.568 228.681 143.551 228.425C165.326 227.805 175.176 227.64 196.613 225.429C198.655 225.305 198.407 223.214 196.364 223.338C184.819 223.612 171.835 224.16 162.799 224.213L155.813 207.886C155.204 206.455 156.539 204.908 158.074 205.338L210.311 220.05C212.777 220.76 213.431 223.963 211.449 225.581L178.171 252.218C176.853 253.251 174.918 252.755 174.3 251.226L168.233 236.976C162.733 237.555 162.753 238.224 156.696 239.242C149.781 240.388 145.825 241.954 143.52 242.494C124.692 248.189 143.756 244.496 130.365 233.301Z" fill="url(#paint14_linear_2143_1890)"/>
<rect x="29" y="226" width="90" height="98" fill="url(#paint15_linear_2143_1890)"/>
</g>
<defs>
<filter id="filter0_d_2143_1890" x="2" y="101" width="144" height="261" filterUnits="userSpaceOnUse" color-interpolation-filters="sRGB">
<feFlood flood-opacity="0" result="BackgroundImageFix"/>
<feColorMatrix in="SourceAlpha" type="matrix" values="0 0 0 0 0 0 0 0 0 0 0 0 0 0 0 0 0 0 127 0" result="hardAlpha"/>
<feOffset dy="4"/>
<feGaussianBlur stdDeviation="15"/>
<feComposite in2="hardAlpha" operator="out"/>
<feColorMatrix type="matrix" values="0 0 0 0 0.0588235 0 0 0 0 0.0941176 0 0 0 0 0.156863 0 0 0 0.36 0"/>
<feBlend mode="normal" in2="BackgroundImageFix" result="effect1_dropShadow_2143_1890"/>
<feBlend mode="normal" in="SourceGraphic" in2="effect1_dropShadow_2143_1890" result="shape"/>
</filter>
<filter id="filter1_d_2143_1890" x="212.667" y="178.333" width="18.6667" height="18.6667" filterUnits="userSpaceOnUse" color-interpolation-filters="sRGB">
<feFlood flood-opacity="0" result="BackgroundImageFix"/>
<feColorMatrix in="SourceAlpha" type="matrix" values="0 0 0 0 0 0 0 0 0 0 0 0 0 0 0 0 0 0 127 0" result="hardAlpha"/>
<feOffset dy="0.666667"/>
<feGaussianBlur stdDeviation="0.666667"/>
<feColorMatrix type="matrix" values="0 0 0 0 0.0627451 0 0 0 0 0.0941176 0 0 0 0 0.156863 0 0 0 0.05 0"/>
<feBlend mode="normal" in2="BackgroundImageFix" result="effect1_dropShadow_2143_1890"/>
<feBlend mode="normal" in="SourceGraphic" in2="effect1_dropShadow_2143_1890" result="shape"/>
</filter>
<linearGradient id="paint0_linear_2143_1890" x1="77.148" y1="139.051" x2="67.9273" y2="289.723" gradientUnits="userSpaceOnUse">
<stop stop-color="#314872"/>
<stop offset="1" stop-color="#1F2D47"/>
</linearGradient>
<linearGradient id="paint1_linear_2143_1890" x1="232.5" y1="163.5" x2="277.794" y2="247.313" gradientUnits="userSpaceOnUse">
<stop stop-color="white"/>
<stop offset="1" stop-color="white" stop-opacity="0"/>
</linearGradient>
<linearGradient id="paint2_linear_2143_1890" x1="353.5" y1="240" x2="353.5" y2="270" gradientUnits="userSpaceOnUse">
<stop stop-color="#314872"/>
<stop offset="1" stop-color="#1F2D47"/>
</linearGradient>
<linearGradient id="paint3_linear_2143_1890" x1="407.5" y1="240" x2="407.5" y2="270" gradientUnits="userSpaceOnUse">
<stop stop-color="#314872"/>
<stop offset="1" stop-color="#1F2D47"/>
</linearGradient>
<linearGradient id="paint4_linear_2143_1890" x1="239.5" y1="240" x2="239.5" y2="270" gradientUnits="userSpaceOnUse">
<stop stop-color="#314872"/>
<stop offset="1" stop-color="#1F2D47"/>
</linearGradient>
<linearGradient id="paint5_linear_2143_1890" x1="295.5" y1="240" x2="295.5" y2="270" gradientUnits="userSpaceOnUse">
<stop stop-color="#314872"/>
<stop offset="1" stop-color="#1F2D47"/>
</linearGradient>
<linearGradient id="paint6_linear_2143_1890" x1="160.732" y1="10.1267" x2="193.815" y2="102.981" gradientUnits="userSpaceOnUse">
<stop stop-color="white"/>
<stop offset="1" stop-color="white" stop-opacity="0"/>
</linearGradient>
<linearGradient id="paint7_linear_2143_1890" x1="146.001" y1="34.5" x2="156.417" y2="34.5" gradientUnits="userSpaceOnUse">
<stop stop-color="#6094FF"/>
<stop offset="0.25" stop-color="#4C85FD"/>
<stop offset="0.77" stop-color="#185FF9"/>
<stop offset="1" stop-color="#004DF7"/>
</linearGradient>
<linearGradient id="paint8_linear_2143_1890" x1="146.274" y1="39.758" x2="149.477" y2="37.5213" gradientUnits="userSpaceOnUse">
<stop offset="0.07" stop-color="#5E93FF" stop-opacity="0.5"/>
<stop offset="0.3" stop-color="#517BE8" stop-opacity="0.59"/>
<stop offset="0.69" stop-color="#2E3CAD" stop-opacity="0.85"/>
<stop offset="0.89" stop-color="#191589"/>
</linearGradient>
<linearGradient id="paint9_linear_2143_1890" x1="147.719" y1="40.1326" x2="156.73" y2="29.4007" gradientUnits="userSpaceOnUse">
<stop offset="0.07" stop-color="#5E93FF" stop-opacity="0.5"/>
<stop offset="0.27" stop-color="#3B54C4" stop-opacity="0.7"/>
<stop offset="0.48" stop-color="#222598" stop-opacity="0.85"/>
<stop offset="0.61" stop-color="#191589" stop-opacity="0.9"/>
<stop offset="0.67" stop-color="#18188D" stop-opacity="0.86"/>
<stop offset="0.75" stop-color="#15219A" stop-opacity="0.76"/>
<stop offset="0.82" stop-color="#1030AF" stop-opacity="0.59"/>
<stop offset="0.9" stop-color="#0945CD" stop-opacity="0.36"/>
<stop offset="0.99" stop-color="#0161F3" stop-opacity="0.05"/>
<stop offset="1" stop-color="#0066FA" stop-opacity="0"/>
</linearGradient>
<radialGradient id="paint10_radial_2143_1890" cx="0" cy="0" r="1" gradientUnits="userSpaceOnUse" gradientTransform="translate(148.421 31.3299) scale(2.73289)">
<stop stop-color="#191589" stop-opacity="0.9"/>
<stop offset="0.17" stop-color="#161E95" stop-opacity="0.8"/>
<stop offset="0.48" stop-color="#0E36B7" stop-opacity="0.53"/>
<stop offset="0.91" stop-color="#025DEE" stop-opacity="0.09"/>
<stop offset="1" stop-color="#0066FA" stop-opacity="0"/>
</radialGradient>
<radialGradient id="paint11_radial_2143_1890" cx="0" cy="0" r="1" gradientUnits="userSpaceOnUse" gradientTransform="translate(153.951 31.6044) scale(3.61361)">
<stop offset="0.18" stop-color="#191589"/>
<stop offset="0.19" stop-color="#18168A" stop-opacity="0.99"/>
<stop offset="0.47" stop-color="#0E38BA" stop-opacity="0.57"/>
<stop offset="0.7" stop-color="#0651DC" stop-opacity="0.26"/>
<stop offset="0.89" stop-color="#0160F2" stop-opacity="0.07"/>
<stop offset="1" stop-color="#0066FA" stop-opacity="0"/>
</radialGradient>
<linearGradient id="paint12_linear_2143_1890" x1="375" y1="80" x2="331.543" y2="213.895" gradientUnits="userSpaceOnUse">
<stop stop-color="white"/>
<stop offset="1" stop-color="white" stop-opacity="0"/>
</linearGradient>
<linearGradient id="paint13_linear_2143_1890" x1="190.725" y1="134.939" x2="133.34" y2="165.509" gradientUnits="userSpaceOnUse">
<stop stop-color="#314872"/>
<stop offset="1" stop-color="#111928" stop-opacity="0"/>
</linearGradient>
<linearGradient id="paint14_linear_2143_1890" x1="204.841" y1="218.232" x2="119.624" y2="235.547" gradientUnits="userSpaceOnUse">
<stop stop-color="#314872"/>
<stop offset="1" stop-color="#111928" stop-opacity="0"/>
</linearGradient>
<linearGradient id="paint15_linear_2143_1890" x1="74" y1="226" x2="74.0001" y2="294.033" gradientUnits="userSpaceOnUse">
<stop stop-color="#111928" stop-opacity="0"/>
<stop offset="1" stop-color="#111928"/>
</linearGradient>
<clipPath id="clip0_2143_1890">
<rect width="406" height="324" rx="8" fill="white"/>
</clipPath>
<clipPath id="clip1_2143_1890">
<path d="M203 172.645C203 170.632 204.632 169 206.645 169H420.355C422.368 169 424 170.632 424 172.645V288.378H203V172.645Z" fill="white"/>
</clipPath>
<clipPath id="clip2_2143_1890">
<path d="M131 20.6452C131 18.632 132.632 17 134.645 17H348.355C350.368 17 352 18.632 352 20.6452V136.378H131V20.6452Z" fill="white"/>
</clipPath>
</defs>
</svg>
