<svg width="406" height="324" viewBox="0 0 406 324" fill="none" xmlns="http://www.w3.org/2000/svg">
<rect width="406" height="324" rx="8" fill="#111928"/>
<rect width="406" height="324" rx="8" stroke="#1F2D47"/>
<mask id="mask0_2143_2016" style="mask-type:alpha" maskUnits="userSpaceOnUse" x="32" y="53" width="319" height="236">
<rect x="32" y="53" width="319" height="236" fill="url(#paint0_linear_2143_2016)"/>
</mask>
<g mask="url(#mask0_2143_2016)">
<g clip-path="url(#clip0_2143_2016)">
<path d="M32 56.6452C32 54.632 33.632 53 35.6452 53H347.355C349.368 53 351 54.632 351 56.6452V289H32V56.6452Z" fill="#314872"/>
<path d="M37 85H346V296H37V85Z" fill="#0F1828"/>
<mask id="path-5-inside-1_2143_2016" fill="white">
<path d="M37 58H346V85H37V58Z"/>
</mask>
<path d="M37 58H346V85H37V58Z" fill="#1F2D47"/>
<path d="M346 84.3696H37V85.6304H346V84.3696Z" fill="#314872" mask="url(#path-5-inside-1_2143_2016)"/>
<path d="M50.9764 69.4553L53.4285 68.0586C53.5186 68.0041 53.4534 67.8663 53.3542 67.9013L50.6115 69.0882L49.5146 67.9935C49.4191 67.898 49.4766 67.7346 49.6108 67.7198L54.3161 67.2029C54.5386 67.1785 54.6956 67.4159 54.5861 67.6111L52.7685 70.8486C52.6966 70.9768 52.522 71.0008 52.418 70.8968L51.4662 69.945C51.4662 69.945 50.2643 70.6149 49.8333 70.8865C49.4964 71.0988 49.0724 71.3881 48.7957 71.5782C47.6058 72.3967 47.001 72.9105 47.001 74.2451V76.1897C47.001 76.5968 47.5016 76.7911 47.7762 76.4908L50.049 74.0056C50.3513 73.675 50.7787 73.4867 51.2269 73.4867H52.4748C53.4632 73.4867 54.3281 73.3028 55.0692 72.9354C55.8107 72.5679 56.3871 72.0444 56.7989 71.3641C57.2108 70.6841 57.4165 69.8798 57.4165 68.9505C57.4165 68.0212 57.2158 67.225 56.8147 66.5366C56.4135 65.8482 55.8518 65.3139 55.1296 64.9339C54.4071 64.5533 53.5644 64.3633 52.6015 64.3633H50.6712C48.6442 64.3633 47.001 66.0065 47.001 68.0334V69.7435C47.001 70.289 47.3005 70.7535 47.8101 70.7829C48.0722 70.798 48.3207 70.7572 48.6056 70.6446C49.2224 70.4009 51.0784 69.3994 51.0784 69.3994" fill="url(#paint1_linear_2143_2016)"/>
<path opacity="0.5" d="M47 74.8776V76.1896C47 76.5967 47.5006 76.791 47.7752 76.4907L50.048 74.0056C50.2773 73.7547 50.5788 73.586 50.9066 73.5191C50.8643 73.5182 50.8218 73.5176 50.7792 73.5176C49.3431 73.5176 48.0262 74.0281 47.0002 74.8777L47 74.8776Z" fill="url(#paint2_linear_2143_2016)"/>
<path opacity="0.5" d="M56.8137 66.5365C56.4125 65.8481 55.8508 65.3138 55.1286 64.9338C55.1196 64.9289 55.1103 64.9246 55.1013 64.9199C55.1044 64.9985 55.1064 65.0775 55.1064 65.1569C55.1064 65.9955 54.932 66.7931 54.6181 67.516C54.6133 67.5479 54.6027 67.5801 54.5853 67.6113L54.5305 67.7088L54.149 68.3884L52.7675 70.8489C52.6956 70.9772 52.521 71.0011 52.4171 70.8972L51.9297 70.4098L51.4654 69.9455C51.4654 69.9455 50.2635 70.6154 49.8325 70.8871C49.74 70.9453 49.6409 71.0094 49.5402 71.0756C49.274 71.2507 48.9956 71.4409 48.7949 71.5789C47.6048 72.3967 47 72.9105 47 74.2452V74.8775C48.0261 74.0281 49.3429 73.5174 50.779 73.5174C50.8217 73.5174 50.864 73.5182 50.9065 73.519C51.0107 73.4976 51.1176 73.4864 51.2258 73.4864H52.4737C53.4621 73.4864 54.327 73.3025 55.0681 72.9351C55.8096 72.5676 56.3859 72.0441 56.7978 71.3638C57.2097 70.6838 57.4154 69.8795 57.4154 68.9502C57.4154 68.021 57.2147 67.2247 56.8135 66.5363L56.8137 66.5365Z" fill="url(#paint3_linear_2143_2016)"/>
<path d="M48.6051 70.6443C49.1474 70.43 50.6477 69.63 51.0022 69.4399L52.9986 68.3029L53.4282 68.0583C53.5183 68.0038 53.4531 67.8659 53.3539 67.901L52.7248 68.1733L50.6112 69.0881L49.5143 67.9934C49.4465 67.9255 49.456 67.8233 49.5153 67.7646C48.5259 68.4543 47.7566 69.4377 47.334 70.5886C47.4606 70.7011 47.6208 70.7719 47.8097 70.7828C48.0717 70.7979 48.3202 70.7571 48.6051 70.6444V70.6443Z" fill="url(#paint4_radial_2143_2016)"/>
<path opacity="0.5" d="M55.1022 64.9199C54.3858 64.5489 53.5524 64.3633 52.6015 64.3633H50.6712C48.6442 64.3633 47.001 66.0065 47.001 68.0334V69.7435C47.001 70.0867 47.1195 70.3978 47.3344 70.5887C47.7571 69.4379 48.5264 68.4544 49.5157 67.7648C49.5286 67.752 49.5439 67.7413 49.5611 67.7335C49.5762 67.7267 49.5929 67.7219 49.6111 67.7198L50.0093 67.6761L54.3164 67.2029C54.5036 67.1824 54.6443 67.347 54.6192 67.516C54.69 67.3531 54.7535 67.1864 54.8097 67.0163C55.0028 66.4314 55.1075 65.8065 55.1075 65.1569C55.1075 65.0775 55.1055 64.9985 55.1024 64.9199H55.1022Z" fill="url(#paint5_radial_2143_2016)"/>
<path d="M64.4487 67.085C65.3206 67.085 65.99 67.2397 66.4569 67.5491C66.9238 67.8529 67.1572 68.3535 67.1572 69.0511C67.1572 69.7542 66.921 70.2633 66.4484 70.5783C65.9759 70.8877 65.3009 71.0424 64.4234 71.0424H64.0099V73H62.6936V67.2369C62.9805 67.1807 63.2842 67.1413 63.6049 67.1188C63.9255 67.0963 64.2068 67.085 64.4487 67.085ZM64.533 68.2073C64.4374 68.2073 64.3418 68.2101 64.2462 68.2157C64.1562 68.2213 64.0774 68.227 64.0099 68.2326V69.9202H64.4234C64.879 69.9202 65.2221 69.8583 65.4528 69.7345C65.6834 69.6108 65.7987 69.3801 65.7987 69.0426C65.7987 68.8795 65.7678 68.7445 65.7059 68.6376C65.6497 68.5307 65.5653 68.4463 65.4528 68.3845C65.3459 68.317 65.2137 68.272 65.0562 68.2495C64.8987 68.2213 64.7243 68.2073 64.533 68.2073ZM70.7143 69.6755C70.6018 69.6473 70.4696 69.6192 70.3177 69.5911C70.1658 69.5573 70.0027 69.5405 69.8283 69.5405C69.7495 69.5405 69.6539 69.5489 69.5414 69.5658C69.4345 69.577 69.353 69.5911 69.2967 69.608V73H68.0395V68.7979C68.2645 68.7192 68.5289 68.646 68.8326 68.5785C69.142 68.5054 69.4851 68.4689 69.862 68.4689C69.9295 68.4689 70.0111 68.4745 70.1067 68.4857C70.2024 68.4914 70.298 68.5026 70.3936 68.5195C70.4893 68.5307 70.5849 68.5476 70.6805 68.5701C70.7761 68.587 70.8577 68.6095 70.9252 68.6376L70.7143 69.6755ZM73.2128 72.1225C73.3366 72.1225 73.4547 72.1196 73.5672 72.114C73.6797 72.1084 73.7697 72.1 73.8372 72.0887V71.1352C73.7866 71.124 73.7106 71.1127 73.6094 71.1015C73.5081 71.0902 73.4153 71.0846 73.3309 71.0846C73.2128 71.0846 73.1003 71.093 72.9934 71.1099C72.8922 71.1212 72.8022 71.1465 72.7234 71.1859C72.6447 71.2252 72.5828 71.2787 72.5378 71.3462C72.4928 71.4137 72.4703 71.4981 72.4703 71.5993C72.4703 71.7962 72.535 71.934 72.6643 72.0128C72.7993 72.0859 72.9822 72.1225 73.2128 72.1225ZM73.1116 68.4435C73.4828 68.4435 73.7922 68.4857 74.0397 68.5701C74.2872 68.6545 74.4841 68.7754 74.6304 68.9329C74.7823 69.0904 74.8891 69.2817 74.951 69.5067C75.0129 69.7317 75.0438 69.982 75.0438 70.2577V72.8734C74.8638 72.9128 74.6135 72.9578 74.2929 73.0084C73.9722 73.0647 73.5841 73.0928 73.1284 73.0928C72.8415 73.0928 72.58 73.0675 72.3437 73.0169C72.1131 72.9662 71.9134 72.8847 71.7446 72.7722C71.5759 72.654 71.4465 72.5022 71.3565 72.3165C71.2665 72.1309 71.2215 71.9031 71.2215 71.6331C71.2215 71.3743 71.2721 71.1549 71.3733 70.9749C71.4802 70.7949 71.6209 70.6515 71.7952 70.5446C71.9696 70.4377 72.1693 70.3618 72.3943 70.3167C72.6193 70.2661 72.8528 70.2408 73.0947 70.2408C73.2578 70.2408 73.4013 70.2492 73.525 70.2661C73.6544 70.2774 73.7585 70.2942 73.8372 70.3167V70.1986C73.8372 69.9849 73.7725 69.8133 73.6431 69.6839C73.5138 69.5545 73.2887 69.4898 72.9681 69.4898C72.7543 69.4898 72.5434 69.5067 72.3353 69.5405C72.1271 69.5686 71.9471 69.6108 71.7952 69.667L71.6349 68.6545C71.708 68.632 71.7981 68.6095 71.9049 68.587C72.0174 68.5589 72.1384 68.5364 72.2678 68.5195C72.3971 68.497 72.5321 68.4801 72.6728 68.4689C72.819 68.452 72.9653 68.4435 73.1116 68.4435ZM76.1385 67.4563L77.3958 67.2538V68.5617H78.9061V69.608H77.3958V71.169C77.3958 71.4334 77.4408 71.6443 77.5308 71.8018C77.6264 71.9593 77.8148 72.0381 78.0961 72.0381C78.2311 72.0381 78.3689 72.0268 78.5096 72.0043C78.6558 71.9762 78.788 71.9396 78.9061 71.8946L79.0833 72.8734C78.9315 72.9353 78.7627 72.9887 78.5771 73.0338C78.3914 73.0788 78.1636 73.1013 77.8936 73.1013C77.5505 73.1013 77.2664 73.0563 77.0414 72.9662C76.8164 72.8706 76.6363 72.7412 76.5013 72.5781C76.3663 72.4093 76.2707 72.2068 76.2145 71.9706C76.1638 71.7343 76.1385 71.4727 76.1385 71.1859V67.4563ZM81.1872 73H79.93V68.5617H81.1872V73ZM81.3053 67.2791C81.3053 67.5097 81.2294 67.6926 81.0775 67.8276C80.9313 67.957 80.7569 68.0216 80.5544 68.0216C80.3519 68.0216 80.1747 67.957 80.0228 67.8276C79.8765 67.6926 79.8034 67.5097 79.8034 67.2791C79.8034 67.0485 79.8765 66.8685 80.0228 66.7391C80.1747 66.6041 80.3519 66.5366 80.5544 66.5366C80.7569 66.5366 80.9313 66.6041 81.0775 66.7391C81.2294 66.8685 81.3053 67.0485 81.3053 67.2791ZM84.8076 70.6458C84.8076 70.2408 84.7542 69.9539 84.6473 69.7852C84.546 69.6164 84.3688 69.532 84.1157 69.532C84.0369 69.532 83.9554 69.5377 83.871 69.5489C83.7866 69.5545 83.705 69.563 83.6263 69.5742V73H82.369V68.7135C82.4759 68.6854 82.5997 68.6573 82.7403 68.6292C82.8866 68.5954 83.0384 68.5673 83.196 68.5448C83.3591 68.5167 83.525 68.497 83.6938 68.4857C83.8625 68.4689 84.0285 68.4604 84.1916 68.4604C84.5123 68.4604 84.771 68.5026 84.9679 68.587C85.1704 68.6657 85.3364 68.7614 85.4657 68.8739C85.6458 68.7445 85.8511 68.6432 86.0817 68.5701C86.318 68.497 86.5345 68.4604 86.7314 68.4604C87.0858 68.4604 87.3755 68.511 87.6005 68.6123C87.8312 68.7079 88.014 68.8457 88.149 69.0258C88.284 69.2058 88.3768 69.4195 88.4274 69.667C88.4781 69.9145 88.5034 70.1902 88.5034 70.4939V73H87.2461V70.6458C87.2461 70.2408 87.1927 69.9539 87.0858 69.7852C86.9846 69.6164 86.8074 69.532 86.5542 69.532C86.4867 69.532 86.3911 69.5489 86.2673 69.5827C86.1492 69.6164 86.0508 69.6586 85.972 69.7092C86.0114 69.8386 86.0367 69.9764 86.048 70.1227C86.0592 70.2633 86.0648 70.4152 86.0648 70.5783V73H84.8076V70.6458ZM90.9023 73H89.6451V68.5617H90.9023V73ZM91.0205 67.2791C91.0205 67.5097 90.9445 67.6926 90.7926 67.8276C90.6464 67.957 90.472 68.0216 90.2695 68.0216C90.067 68.0216 89.8898 67.957 89.7379 67.8276C89.5916 67.6926 89.5185 67.5097 89.5185 67.2791C89.5185 67.0485 89.5916 66.8685 89.7379 66.7391C89.8898 66.6041 90.067 66.5366 90.2695 66.5366C90.472 66.5366 90.6464 66.6041 90.7926 66.7391C90.9445 66.8685 91.0205 67.0485 91.0205 67.2791Z" fill="white"/>
<circle cx="330.5" cy="70.5" r="7.5" fill="#496CAB"/>
</g>
</g>
<path d="M54.913 111V103.377H56.288V108.437C56.5373 108.041 56.8197 107.616 57.135 107.161C57.4577 106.699 57.7877 106.241 58.125 105.786C58.4697 105.331 58.8107 104.895 59.148 104.477C59.4853 104.052 59.8007 103.685 60.094 103.377H61.227V111H59.863V105.544C59.555 105.911 59.2287 106.325 58.884 106.787C58.5467 107.242 58.213 107.715 57.883 108.206C57.553 108.69 57.234 109.174 56.926 109.658C56.618 110.135 56.3393 110.582 56.09 111H54.913ZM62.7366 105.423C62.8319 105.386 62.9492 105.35 63.0886 105.313C63.2279 105.276 63.3782 105.243 63.5396 105.214C63.7009 105.185 63.8696 105.163 64.0456 105.148C64.2289 105.126 64.4122 105.115 64.5956 105.115C64.9109 105.115 65.2116 105.144 65.4976 105.203C65.7836 105.262 66.0329 105.357 66.2456 105.489C66.4582 105.621 66.6269 105.79 66.7516 105.995C66.8836 106.2 66.9496 106.446 66.9496 106.732C66.9496 107.04 66.8652 107.3 66.6966 107.513C66.5279 107.726 66.3336 107.883 66.1136 107.986C66.4436 108.111 66.6966 108.294 66.8726 108.536C67.0486 108.778 67.1366 109.086 67.1366 109.46C67.1366 109.761 67.0706 110.017 66.9386 110.23C66.8139 110.443 66.6379 110.619 66.4106 110.758C66.1906 110.89 65.9302 110.985 65.6296 111.044C65.3289 111.11 65.0026 111.143 64.6506 111.143C64.2252 111.143 63.8292 111.106 63.4626 111.033C63.0959 110.967 62.8062 110.886 62.5936 110.791L62.8246 109.713C62.9639 109.772 63.1876 109.841 63.4956 109.922C63.8036 109.995 64.1666 110.032 64.5846 110.032C65.3912 110.032 65.7946 109.797 65.7946 109.328C65.7946 109.159 65.7579 109.024 65.6846 108.921C65.6112 108.818 65.5196 108.741 65.4096 108.69C65.2996 108.631 65.1749 108.595 65.0356 108.58C64.8962 108.558 64.7606 108.547 64.6286 108.547H63.5286V107.557H64.6176C64.8889 107.557 65.1199 107.509 65.3106 107.414C65.5086 107.311 65.6076 107.135 65.6076 106.886C65.6076 106.681 65.5122 106.519 65.3216 106.402C65.1382 106.277 64.8779 106.215 64.5406 106.215C64.3939 106.215 64.2436 106.226 64.0896 106.248C63.9356 106.263 63.7852 106.285 63.6386 106.314C63.4992 106.343 63.3709 106.376 63.2536 106.413C63.1362 106.442 63.0446 106.472 62.9786 106.501L62.7366 105.423ZM73.5276 105.247V111H72.2076C72.2076 110.582 72.2076 110.168 72.2076 109.757C72.2149 109.346 72.2186 108.965 72.2186 108.613C72.2259 108.261 72.2296 107.957 72.2296 107.7C72.2369 107.436 72.2406 107.242 72.2406 107.117C72.0206 107.403 71.7932 107.718 71.5586 108.063C71.3239 108.408 71.0892 108.752 70.8546 109.097C70.6272 109.442 70.4109 109.779 70.2056 110.109C70.0002 110.439 69.8206 110.736 69.6666 111H68.4896V105.247H69.7986C69.7986 105.672 69.7949 106.079 69.7876 106.468C69.7876 106.849 69.7876 107.198 69.7876 107.513C69.7876 107.828 69.7839 108.103 69.7766 108.338C69.7766 108.573 69.7766 108.752 69.7766 108.877C69.9819 108.562 70.1946 108.239 70.4146 107.909C70.6346 107.572 70.8546 107.245 71.0746 106.93C71.3019 106.607 71.5256 106.303 71.7456 106.017C71.9656 105.731 72.1782 105.474 72.3836 105.247H73.5276ZM74.9059 108.129C74.9059 107.704 74.9719 107.308 75.1039 106.941C75.2359 106.567 75.4229 106.244 75.6649 105.973C75.9143 105.702 76.2149 105.489 76.5669 105.335C76.9189 105.181 77.3149 105.104 77.7549 105.104C78.2976 105.104 78.8109 105.203 79.2949 105.401L79.0089 106.49C78.8549 106.424 78.6789 106.369 78.4809 106.325C78.2903 106.281 78.0849 106.259 77.8649 106.259C77.3443 106.259 76.9483 106.424 76.6769 106.754C76.4056 107.077 76.2699 107.535 76.2699 108.129C76.2699 108.701 76.3983 109.156 76.6549 109.493C76.9116 109.823 77.3443 109.988 77.9529 109.988C78.1803 109.988 78.4039 109.966 78.6239 109.922C78.8439 109.878 79.0346 109.823 79.1959 109.757L79.3829 110.857C79.2363 110.93 79.0126 110.996 78.7119 111.055C78.4186 111.114 78.1143 111.143 77.7989 111.143C77.3076 111.143 76.8786 111.07 76.5119 110.923C76.1526 110.769 75.8519 110.56 75.6099 110.296C75.3753 110.025 75.1993 109.706 75.0819 109.339C74.9646 108.965 74.9059 108.562 74.9059 108.129ZM81.7444 107.557C81.9131 107.388 82.0964 107.201 82.2944 106.996C82.4924 106.783 82.6867 106.571 82.8774 106.358C83.0754 106.145 83.2624 105.944 83.4384 105.753C83.6144 105.555 83.7611 105.386 83.8784 105.247H85.4404C85.2791 105.438 85.0921 105.647 84.8794 105.874C84.6741 106.101 84.4577 106.336 84.2304 106.578C84.0104 106.813 83.7904 107.044 83.5704 107.271C83.3577 107.491 83.1634 107.689 82.9874 107.865C83.2147 108.056 83.4494 108.279 83.6914 108.536C83.9407 108.785 84.1827 109.053 84.4174 109.339C84.6594 109.618 84.8831 109.904 85.0884 110.197C85.2937 110.483 85.4661 110.751 85.6054 111H84.0654C83.9261 110.78 83.7611 110.549 83.5704 110.307C83.3871 110.065 83.1927 109.83 82.9874 109.603C82.7821 109.368 82.5731 109.148 82.3604 108.943C82.1477 108.738 81.9424 108.562 81.7444 108.415V111H80.4134V105.247H81.7444V107.557ZM91.2657 105.247C90.6717 107.432 89.9823 109.412 89.1977 111.187C89.051 111.517 88.9007 111.799 88.7467 112.034C88.5927 112.269 88.4203 112.463 88.2297 112.617C88.039 112.771 87.8263 112.881 87.5917 112.947C87.357 113.02 87.0857 113.057 86.7777 113.057C86.5723 113.057 86.367 113.035 86.1617 112.991C85.9637 112.947 85.8133 112.899 85.7107 112.848L85.9527 111.781C86.2167 111.884 86.477 111.935 86.7337 111.935C87.0783 111.935 87.346 111.851 87.5367 111.682C87.7347 111.521 87.907 111.268 88.0537 110.923C87.6357 110.116 87.2323 109.236 86.8437 108.283C86.4623 107.33 86.1213 106.318 85.8207 105.247H87.2397C87.313 105.555 87.401 105.889 87.5037 106.248C87.6137 106.607 87.731 106.974 87.8557 107.348C87.9803 107.715 88.1123 108.081 88.2517 108.448C88.391 108.815 88.5303 109.156 88.6697 109.471C88.9043 108.818 89.1243 108.125 89.3297 107.392C89.535 106.651 89.722 105.936 89.8907 105.247H91.2657ZM91.8464 108.151C91.8464 107.645 91.9197 107.201 92.0664 106.82C92.2204 106.439 92.422 106.123 92.6714 105.874C92.9207 105.617 93.2067 105.427 93.5294 105.302C93.852 105.17 94.182 105.104 94.5194 105.104C95.3114 105.104 95.9274 105.35 96.3674 105.841C96.8147 106.332 97.0384 107.066 97.0384 108.041C97.0384 108.114 97.0347 108.199 97.0274 108.294C97.0274 108.382 97.0237 108.463 97.0164 108.536H93.2214C93.258 108.998 93.4194 109.357 93.7054 109.614C93.9987 109.863 94.4204 109.988 94.9704 109.988C95.293 109.988 95.5864 109.959 95.8504 109.9C96.1217 109.841 96.3344 109.779 96.4884 109.713L96.6644 110.802C96.591 110.839 96.4884 110.879 96.3564 110.923C96.2317 110.96 96.085 110.993 95.9164 111.022C95.755 111.059 95.579 111.088 95.3884 111.11C95.1977 111.132 95.0034 111.143 94.8054 111.143C94.2994 111.143 93.8594 111.07 93.4854 110.923C93.1114 110.769 92.8034 110.56 92.5614 110.296C92.3194 110.025 92.1397 109.709 92.0224 109.35C91.905 108.983 91.8464 108.584 91.8464 108.151ZM95.7074 107.557C95.7074 107.374 95.6817 107.201 95.6304 107.04C95.579 106.871 95.502 106.728 95.3994 106.611C95.304 106.486 95.183 106.391 95.0364 106.325C94.897 106.252 94.7284 106.215 94.5304 106.215C94.325 106.215 94.1454 106.255 93.9914 106.336C93.8374 106.409 93.7054 106.508 93.5954 106.633C93.4927 106.758 93.412 106.901 93.3534 107.062C93.2947 107.223 93.2544 107.388 93.2324 107.557H95.7074ZM99.7915 107.227C99.7695 107.535 99.7475 107.858 99.7255 108.195C99.7035 108.525 99.6852 108.855 99.6705 109.185C99.6559 109.515 99.6412 109.834 99.6265 110.142C99.6119 110.45 99.6009 110.736 99.5935 111H98.3065C98.3212 110.575 98.3432 110.116 98.3725 109.625C98.4019 109.126 98.4349 108.624 98.4715 108.118C98.5155 107.605 98.5595 107.102 98.6035 106.611C98.6475 106.12 98.6952 105.665 98.7465 105.247H99.9015C100.18 105.694 100.463 106.222 100.749 106.831C101.035 107.432 101.354 108.118 101.706 108.888C102.072 108.103 102.406 107.396 102.707 106.765C103.007 106.127 103.275 105.621 103.51 105.247H104.676C104.727 105.665 104.775 106.12 104.819 106.611C104.87 107.102 104.914 107.605 104.951 108.118C104.987 108.624 105.02 109.126 105.05 109.625C105.079 110.116 105.101 110.575 105.116 111H103.796C103.781 110.399 103.755 109.779 103.719 109.141C103.689 108.496 103.653 107.858 103.609 107.227C103.499 107.447 103.378 107.693 103.246 107.964C103.121 108.235 102.996 108.51 102.872 108.789C102.747 109.068 102.626 109.339 102.509 109.603C102.391 109.86 102.289 110.087 102.201 110.285H101.211C101.123 110.087 101.016 109.856 100.892 109.592C100.774 109.328 100.653 109.057 100.529 108.778C100.404 108.499 100.276 108.228 100.144 107.964C100.019 107.693 99.9015 107.447 99.7915 107.227ZM111.705 105.247V111H110.385C110.385 110.582 110.385 110.168 110.385 109.757C110.393 109.346 110.396 108.965 110.396 108.613C110.404 108.261 110.407 107.957 110.407 107.7C110.415 107.436 110.418 107.242 110.418 107.117C110.198 107.403 109.971 107.718 109.736 108.063C109.502 108.408 109.267 108.752 109.032 109.097C108.805 109.442 108.589 109.779 108.383 110.109C108.178 110.439 107.998 110.736 107.844 111H106.667V105.247H107.976C107.976 105.672 107.973 106.079 107.965 106.468C107.965 106.849 107.965 107.198 107.965 107.513C107.965 107.828 107.962 108.103 107.954 108.338C107.954 108.573 107.954 108.752 107.954 108.877C108.16 108.562 108.372 108.239 108.592 107.909C108.812 107.572 109.032 107.245 109.252 106.93C109.48 106.607 109.703 106.303 109.923 106.017C110.143 105.731 110.356 105.474 110.561 105.247H111.705ZM115.266 109.911H115.926C116.153 109.61 116.329 109.277 116.454 108.91C116.586 108.536 116.681 108.147 116.74 107.744C116.799 107.333 116.835 106.915 116.85 106.49C116.865 106.065 116.876 105.65 116.883 105.247H121.008V109.911H121.888V112.628H120.7V111H116.443V112.628H115.266V109.911ZM119.677 109.911V106.347H118.115C118.1 106.648 118.082 106.956 118.06 107.271C118.038 107.579 117.998 107.887 117.939 108.195C117.88 108.496 117.8 108.793 117.697 109.086C117.602 109.372 117.473 109.647 117.312 109.911H119.677ZM128.134 108.118C128.134 108.573 128.068 108.987 127.936 109.361C127.804 109.735 127.617 110.054 127.375 110.318C127.133 110.582 126.84 110.787 126.495 110.934C126.158 111.081 125.784 111.154 125.373 111.154C124.962 111.154 124.588 111.081 124.251 110.934C123.914 110.787 123.624 110.582 123.382 110.318C123.14 110.054 122.949 109.735 122.81 109.361C122.678 108.987 122.612 108.573 122.612 108.118C122.612 107.663 122.678 107.253 122.81 106.886C122.949 106.512 123.14 106.193 123.382 105.929C123.631 105.665 123.925 105.463 124.262 105.324C124.599 105.177 124.97 105.104 125.373 105.104C125.776 105.104 126.147 105.177 126.484 105.324C126.829 105.463 127.122 105.665 127.364 105.929C127.606 106.193 127.793 106.512 127.925 106.886C128.064 107.253 128.134 107.663 128.134 108.118ZM126.77 108.118C126.77 107.546 126.645 107.095 126.396 106.765C126.154 106.428 125.813 106.259 125.373 106.259C124.933 106.259 124.588 106.428 124.339 106.765C124.097 107.095 123.976 107.546 123.976 108.118C123.976 108.697 124.097 109.156 124.339 109.493C124.588 109.83 124.933 109.999 125.373 109.999C125.813 109.999 126.154 109.83 126.396 109.493C126.645 109.156 126.77 108.697 126.77 108.118ZM130.836 107.557C131.005 107.388 131.188 107.201 131.386 106.996C131.584 106.783 131.779 106.571 131.969 106.358C132.167 106.145 132.354 105.944 132.53 105.753C132.706 105.555 132.853 105.386 132.97 105.247H134.532C134.371 105.438 134.184 105.647 133.971 105.874C133.766 106.101 133.55 106.336 133.322 106.578C133.102 106.813 132.882 107.044 132.662 107.271C132.45 107.491 132.255 107.689 132.079 107.865C132.307 108.056 132.541 108.279 132.783 108.536C133.033 108.785 133.275 109.053 133.509 109.339C133.751 109.618 133.975 109.904 134.18 110.197C134.386 110.483 134.558 110.751 134.697 111H133.157C133.018 110.78 132.853 110.549 132.662 110.307C132.479 110.065 132.285 109.83 132.079 109.603C131.874 109.368 131.665 109.148 131.452 108.943C131.24 108.738 131.034 108.562 130.836 108.415V111H129.505V105.247H130.836V107.557ZM140.357 105.247C139.763 107.432 139.074 109.412 138.289 111.187C138.143 111.517 137.992 111.799 137.838 112.034C137.684 112.269 137.512 112.463 137.321 112.617C137.131 112.771 136.918 112.881 136.683 112.947C136.449 113.02 136.177 113.057 135.869 113.057C135.664 113.057 135.459 113.035 135.253 112.991C135.055 112.947 134.905 112.899 134.802 112.848L135.044 111.781C135.308 111.884 135.569 111.935 135.825 111.935C136.17 111.935 136.438 111.851 136.628 111.682C136.826 111.521 136.999 111.268 137.145 110.923C136.727 110.116 136.324 109.236 135.935 108.283C135.554 107.33 135.213 106.318 134.912 105.247H136.331C136.405 105.555 136.493 105.889 136.595 106.248C136.705 106.607 136.823 106.974 136.947 107.348C137.072 107.715 137.204 108.081 137.343 108.448C137.483 108.815 137.622 109.156 137.761 109.471C137.996 108.818 138.216 108.125 138.421 107.392C138.627 106.651 138.814 105.936 138.982 105.247H140.357ZM142.707 107.227C142.685 107.535 142.663 107.858 142.641 108.195C142.619 108.525 142.6 108.855 142.586 109.185C142.571 109.515 142.556 109.834 142.542 110.142C142.527 110.45 142.516 110.736 142.509 111H141.222C141.236 110.575 141.258 110.116 141.288 109.625C141.317 109.126 141.35 108.624 141.387 108.118C141.431 107.605 141.475 107.102 141.519 106.611C141.563 106.12 141.61 105.665 141.662 105.247H142.817C143.095 105.694 143.378 106.222 143.664 106.831C143.95 107.432 144.269 108.118 144.621 108.888C144.987 108.103 145.321 107.396 145.622 106.765C145.922 106.127 146.19 105.621 146.425 105.247H147.591C147.642 105.665 147.69 106.12 147.734 106.611C147.785 107.102 147.829 107.605 147.866 108.118C147.902 108.624 147.935 109.126 147.965 109.625C147.994 110.116 148.016 110.575 148.031 111H146.711C146.696 110.399 146.67 109.779 146.634 109.141C146.604 108.496 146.568 107.858 146.524 107.227C146.414 107.447 146.293 107.693 146.161 107.964C146.036 108.235 145.911 108.51 145.787 108.789C145.662 109.068 145.541 109.339 145.424 109.603C145.306 109.86 145.204 110.087 145.116 110.285H144.126C144.038 110.087 143.931 109.856 143.807 109.592C143.689 109.328 143.568 109.057 143.444 108.778C143.319 108.499 143.191 108.228 143.059 107.964C142.934 107.693 142.817 107.447 142.707 107.227ZM149.263 108.151C149.263 107.645 149.337 107.201 149.483 106.82C149.637 106.439 149.839 106.123 150.088 105.874C150.338 105.617 150.624 105.427 150.946 105.302C151.269 105.17 151.599 105.104 151.936 105.104C152.728 105.104 153.344 105.35 153.784 105.841C154.232 106.332 154.455 107.066 154.455 108.041C154.455 108.114 154.452 108.199 154.444 108.294C154.444 108.382 154.441 108.463 154.433 108.536H150.638C150.675 108.998 150.836 109.357 151.122 109.614C151.416 109.863 151.837 109.988 152.387 109.988C152.71 109.988 153.003 109.959 153.267 109.9C153.539 109.841 153.751 109.779 153.905 109.713L154.081 110.802C154.008 110.839 153.905 110.879 153.773 110.923C153.649 110.96 153.502 110.993 153.333 111.022C153.172 111.059 152.996 111.088 152.805 111.11C152.615 111.132 152.42 111.143 152.222 111.143C151.716 111.143 151.276 111.07 150.902 110.923C150.528 110.769 150.22 110.56 149.978 110.296C149.736 110.025 149.557 109.709 149.439 109.35C149.322 108.983 149.263 108.584 149.263 108.151ZM153.124 107.557C153.124 107.374 153.099 107.201 153.047 107.04C152.996 106.871 152.919 106.728 152.816 106.611C152.721 106.486 152.6 106.391 152.453 106.325C152.314 106.252 152.145 106.215 151.947 106.215C151.742 106.215 151.562 106.255 151.408 106.336C151.254 106.409 151.122 106.508 151.012 106.633C150.91 106.758 150.829 106.901 150.77 107.062C150.712 107.223 150.671 107.388 150.649 107.557H153.124ZM160.696 111H159.365V108.591H157.198V111H155.867V105.247H157.198V107.491H159.365V105.247H160.696V111ZM166.721 106.358H164.862V111H163.531V106.358H161.683V105.247H166.721V106.358ZM172.753 105.247V111H171.433C171.433 110.582 171.433 110.168 171.433 109.757C171.44 109.346 171.444 108.965 171.444 108.613C171.451 108.261 171.455 107.957 171.455 107.7C171.462 107.436 171.466 107.242 171.466 107.117C171.246 107.403 171.019 107.718 170.784 108.063C170.549 108.408 170.315 108.752 170.08 109.097C169.853 109.442 169.636 109.779 169.431 110.109C169.226 110.439 169.046 110.736 168.892 111H167.715V105.247H169.024C169.024 105.672 169.02 106.079 169.013 106.468C169.013 106.849 169.013 107.198 169.013 107.513C169.013 107.828 169.009 108.103 169.002 108.338C169.002 108.573 169.002 108.752 169.002 108.877C169.207 108.562 169.42 108.239 169.64 107.909C169.86 107.572 170.08 107.245 170.3 106.93C170.527 106.607 170.751 106.303 170.971 106.017C171.191 105.731 171.404 105.474 171.609 105.247H172.753Z" fill="#C6D1E7"/>
<mask id="mask1_2143_2016" style="mask-type:alpha" maskUnits="userSpaceOnUse" x="52" y="122" width="328" height="127">
<rect x="52" y="122" width="328" height="127" fill="url(#paint6_linear_2143_2016)"/>
</mask>
<g mask="url(#mask1_2143_2016)">
<rect x="52" y="149" width="317.969" height="30" rx="2" fill="#1F2D47"/>
<rect x="62" y="162" width="45" height="5" rx="1" fill="#111928"/>
<rect x="149" y="162" width="21.3542" height="4.81482" rx="1" fill="#111928"/>
<rect x="270" y="156" width="110" height="17" rx="2" fill="#314872"/>
<path d="M281.337 161.07H282.307V168H281.337V164.8H277.947V168H276.977V161.07H277.947V163.96H281.337V161.07ZM286.028 167.33C286.248 167.33 286.441 167.327 286.608 167.32C286.781 167.307 286.924 167.287 287.038 167.26V165.71C286.971 165.677 286.861 165.65 286.708 165.63C286.561 165.603 286.381 165.59 286.168 165.59C286.028 165.59 285.878 165.6 285.718 165.62C285.564 165.64 285.421 165.683 285.288 165.75C285.161 165.81 285.054 165.897 284.968 166.01C284.881 166.117 284.838 166.26 284.838 166.44C284.838 166.773 284.944 167.007 285.158 167.14C285.371 167.267 285.661 167.33 286.028 167.33ZM285.948 162.67C286.321 162.67 286.634 162.72 286.888 162.82C287.148 162.913 287.354 163.05 287.508 163.23C287.668 163.403 287.781 163.613 287.848 163.86C287.914 164.1 287.948 164.367 287.948 164.66V167.91C287.868 167.923 287.754 167.943 287.608 167.97C287.468 167.99 287.308 168.01 287.128 168.03C286.948 168.05 286.751 168.067 286.538 168.08C286.331 168.1 286.124 168.11 285.918 168.11C285.624 168.11 285.354 168.08 285.108 168.02C284.861 167.96 284.648 167.867 284.468 167.74C284.288 167.607 284.148 167.433 284.048 167.22C283.948 167.007 283.898 166.75 283.898 166.45C283.898 166.163 283.954 165.917 284.068 165.71C284.188 165.503 284.348 165.337 284.548 165.21C284.748 165.083 284.981 164.99 285.248 164.93C285.514 164.87 285.794 164.84 286.088 164.84C286.181 164.84 286.278 164.847 286.378 164.86C286.478 164.867 286.571 164.88 286.658 164.9C286.751 164.913 286.831 164.927 286.898 164.94C286.964 164.953 287.011 164.963 287.038 164.97V164.71C287.038 164.557 287.021 164.407 286.988 164.26C286.954 164.107 286.894 163.973 286.808 163.86C286.721 163.74 286.601 163.647 286.448 163.58C286.301 163.507 286.108 163.47 285.868 163.47C285.561 163.47 285.291 163.493 285.058 163.54C284.831 163.58 284.661 163.623 284.548 163.67L284.438 162.9C284.558 162.847 284.758 162.797 285.038 162.75C285.318 162.697 285.621 162.67 285.948 162.67ZM293.317 167.3C293.357 167.307 293.414 167.313 293.487 167.32C293.56 167.327 293.644 167.333 293.737 167.34C293.83 167.34 293.927 167.343 294.027 167.35C294.134 167.35 294.234 167.35 294.327 167.35C294.52 167.35 294.704 167.337 294.877 167.31C295.057 167.283 295.21 167.237 295.337 167.17C295.47 167.103 295.574 167.017 295.647 166.91C295.727 166.797 295.767 166.653 295.767 166.48C295.767 166.313 295.73 166.177 295.657 166.07C295.59 165.957 295.497 165.867 295.377 165.8C295.257 165.733 295.114 165.687 294.947 165.66C294.787 165.633 294.614 165.62 294.427 165.62H293.317V167.3ZM294.307 164.93C294.487 164.93 294.65 164.92 294.797 164.9C294.95 164.873 295.08 164.83 295.187 164.77C295.3 164.71 295.387 164.63 295.447 164.53C295.514 164.43 295.547 164.303 295.547 164.15C295.547 163.99 295.507 163.863 295.427 163.77C295.347 163.677 295.24 163.607 295.107 163.56C294.98 163.507 294.834 163.473 294.667 163.46C294.507 163.44 294.344 163.43 294.177 163.43C294.024 163.43 293.867 163.433 293.707 163.44C293.554 163.447 293.424 163.453 293.317 163.46V164.93H294.307ZM294.287 168.09C293.894 168.09 293.53 168.07 293.197 168.03C292.864 167.997 292.6 167.957 292.407 167.91V162.85C292.6 162.803 292.864 162.763 293.197 162.73C293.53 162.69 293.894 162.67 294.287 162.67C294.56 162.67 294.827 162.693 295.087 162.74C295.347 162.787 295.577 162.867 295.777 162.98C295.977 163.087 296.137 163.237 296.257 163.43C296.384 163.617 296.447 163.85 296.447 164.13C296.447 164.383 296.384 164.6 296.257 164.78C296.13 164.96 295.96 165.1 295.747 165.2C296.034 165.3 296.26 165.45 296.427 165.65C296.6 165.843 296.687 166.117 296.687 166.47C296.687 166.783 296.624 167.043 296.497 167.25C296.377 167.457 296.207 167.623 295.987 167.75C295.774 167.877 295.52 167.963 295.227 168.01C294.934 168.063 294.62 168.09 294.287 168.09ZM300.445 168.12C300.025 168.12 299.655 168.053 299.335 167.92C299.022 167.787 298.755 167.6 298.535 167.36C298.322 167.12 298.162 166.837 298.055 166.51C297.949 166.177 297.895 165.81 297.895 165.41C297.895 165.01 297.952 164.643 298.065 164.31C298.185 163.977 298.352 163.69 298.565 163.45C298.779 163.203 299.039 163.013 299.345 162.88C299.659 162.74 300.005 162.67 300.385 162.67C300.619 162.67 300.852 162.69 301.085 162.73C301.319 162.77 301.542 162.833 301.755 162.92L301.545 163.71C301.405 163.643 301.242 163.59 301.055 163.55C300.875 163.51 300.682 163.49 300.475 163.49C299.955 163.49 299.555 163.653 299.275 163.98C299.002 164.307 298.865 164.783 298.865 165.41C298.865 165.69 298.895 165.947 298.955 166.18C299.022 166.413 299.122 166.613 299.255 166.78C299.395 166.947 299.572 167.077 299.785 167.17C299.999 167.257 300.259 167.3 300.565 167.3C300.812 167.3 301.035 167.277 301.235 167.23C301.435 167.183 301.592 167.133 301.705 167.08L301.835 167.86C301.782 167.893 301.705 167.927 301.605 167.96C301.505 167.987 301.392 168.01 301.265 168.03C301.139 168.057 301.002 168.077 300.855 168.09C300.715 168.11 300.579 168.12 300.445 168.12ZM305.284 165.98C305.184 165.98 305.087 165.98 304.994 165.98C304.9 165.973 304.81 165.967 304.724 165.96C304.51 166.28 304.304 166.623 304.104 166.99C303.91 167.35 303.737 167.687 303.584 168H302.644C302.724 167.807 302.817 167.61 302.924 167.41C303.03 167.203 303.137 167.003 303.244 166.81C303.357 166.617 303.47 166.433 303.584 166.26C303.697 166.087 303.804 165.93 303.904 165.79C303.717 165.723 303.564 165.643 303.444 165.55C303.324 165.45 303.227 165.34 303.154 165.22C303.08 165.1 303.027 164.973 302.994 164.84C302.967 164.7 302.954 164.56 302.954 164.42C302.954 164.127 303.007 163.87 303.114 163.65C303.227 163.43 303.38 163.25 303.574 163.11C303.767 162.963 303.994 162.853 304.254 162.78C304.52 162.707 304.81 162.67 305.124 162.67C305.564 162.67 305.937 162.69 306.244 162.73C306.55 162.77 306.807 162.817 307.014 162.87V168H306.094V165.98H305.284ZM306.094 163.49C306.02 163.477 305.897 163.463 305.724 163.45C305.557 163.437 305.364 163.43 305.144 163.43C304.764 163.43 304.457 163.51 304.224 163.67C303.99 163.823 303.874 164.07 303.874 164.41C303.874 164.743 303.994 164.973 304.234 165.1C304.474 165.227 304.784 165.29 305.164 165.29H306.094V163.49ZM310.812 165.17C311.019 165.317 311.242 165.503 311.482 165.73C311.722 165.95 311.956 166.19 312.182 166.45C312.416 166.71 312.632 166.977 312.832 167.25C313.032 167.517 313.202 167.767 313.342 168H312.242C312.096 167.773 311.922 167.543 311.722 167.31C311.529 167.07 311.326 166.84 311.112 166.62C310.899 166.4 310.682 166.197 310.462 166.01C310.242 165.823 310.036 165.667 309.842 165.54V168H308.912V162.8H309.842V165.03C310.002 164.877 310.186 164.7 310.392 164.5C310.599 164.293 310.806 164.087 311.012 163.88C311.226 163.667 311.422 163.467 311.602 163.28C311.782 163.087 311.929 162.927 312.042 162.8H313.122C312.976 162.96 312.802 163.143 312.602 163.35C312.409 163.55 312.206 163.757 311.992 163.97C311.786 164.183 311.579 164.397 311.372 164.61C311.166 164.817 310.979 165.003 310.812 165.17ZM318.88 165.4C318.88 165.813 318.82 166.187 318.7 166.52C318.58 166.853 318.41 167.14 318.19 167.38C317.977 167.62 317.72 167.807 317.42 167.94C317.12 168.067 316.794 168.13 316.44 168.13C316.087 168.13 315.76 168.067 315.46 167.94C315.16 167.807 314.9 167.62 314.68 167.38C314.467 167.14 314.3 166.853 314.18 166.52C314.06 166.187 314 165.813 314 165.4C314 164.993 314.06 164.623 314.18 164.29C314.3 163.95 314.467 163.66 314.68 163.42C314.9 163.18 315.16 162.997 315.46 162.87C315.76 162.737 316.087 162.67 316.44 162.67C316.794 162.67 317.12 162.737 317.42 162.87C317.72 162.997 317.977 163.18 318.19 163.42C318.41 163.66 318.58 163.95 318.7 164.29C318.82 164.623 318.88 164.993 318.88 165.4ZM317.91 165.4C317.91 164.813 317.777 164.35 317.51 164.01C317.25 163.663 316.894 163.49 316.44 163.49C315.987 163.49 315.627 163.663 315.36 164.01C315.1 164.35 314.97 164.813 314.97 165.4C314.97 165.987 315.1 166.453 315.36 166.8C315.627 167.14 315.987 167.31 316.44 167.31C316.894 167.31 317.25 167.14 317.51 166.8C317.777 166.453 317.91 165.987 317.91 165.4ZM323.933 168C323.973 167.467 324.067 166.907 324.213 166.32C324.367 165.727 324.553 165.153 324.773 164.6C324.993 164.04 325.233 163.523 325.493 163.05C325.76 162.57 326.02 162.18 326.273 161.88H322.903V161.07H327.313V161.84C327.093 162.093 326.85 162.443 326.583 162.89C326.317 163.33 326.063 163.827 325.823 164.38C325.59 164.927 325.387 165.513 325.213 166.14C325.047 166.76 324.943 167.38 324.903 168H323.933ZM330.038 164.17C329.971 164.83 329.921 165.49 329.888 166.15C329.855 166.803 329.828 167.42 329.808 168H328.918C328.931 167.593 328.951 167.17 328.978 166.73C329.005 166.283 329.035 165.837 329.068 165.39C329.101 164.937 329.138 164.493 329.178 164.06C329.218 163.62 329.261 163.2 329.308 162.8H330.158C330.371 163.147 330.621 163.623 330.908 164.23C331.195 164.83 331.525 165.523 331.898 166.31C332.271 165.523 332.601 164.83 332.888 164.23C333.175 163.623 333.425 163.147 333.638 162.8H334.498C334.545 163.2 334.588 163.62 334.628 164.06C334.668 164.493 334.705 164.937 334.738 165.39C334.771 165.837 334.801 166.283 334.828 166.73C334.855 167.17 334.875 167.593 334.888 168H333.968C333.948 167.42 333.921 166.803 333.888 166.15C333.855 165.49 333.805 164.83 333.738 164.17C333.631 164.377 333.508 164.627 333.368 164.92C333.228 165.207 333.088 165.5 332.948 165.8C332.815 166.1 332.688 166.387 332.568 166.66C332.448 166.933 332.355 167.15 332.288 167.31H331.508C331.435 167.143 331.335 166.923 331.208 166.65C331.088 166.377 330.958 166.09 330.818 165.79C330.685 165.483 330.548 165.187 330.408 164.9C330.268 164.607 330.145 164.363 330.038 164.17ZM341.252 165.4C341.252 165.813 341.192 166.187 341.072 166.52C340.952 166.853 340.782 167.14 340.562 167.38C340.349 167.62 340.092 167.807 339.792 167.94C339.492 168.067 339.166 168.13 338.812 168.13C338.459 168.13 338.132 168.067 337.832 167.94C337.532 167.807 337.272 167.62 337.052 167.38C336.839 167.14 336.672 166.853 336.552 166.52C336.432 166.187 336.372 165.813 336.372 165.4C336.372 164.993 336.432 164.623 336.552 164.29C336.672 163.95 336.839 163.66 337.052 163.42C337.272 163.18 337.532 162.997 337.832 162.87C338.132 162.737 338.459 162.67 338.812 162.67C339.166 162.67 339.492 162.737 339.792 162.87C340.092 162.997 340.349 163.18 340.562 163.42C340.782 163.66 340.952 163.95 341.072 164.29C341.192 164.623 341.252 164.993 341.252 165.4ZM340.282 165.4C340.282 164.813 340.149 164.35 339.882 164.01C339.622 163.663 339.266 163.49 338.812 163.49C338.359 163.49 337.999 163.663 337.732 164.01C337.472 164.35 337.342 164.813 337.342 165.4C337.342 165.987 337.472 166.453 337.732 166.8C337.999 167.14 338.359 167.31 338.812 167.31C339.266 167.31 339.622 167.14 339.882 166.8C340.149 166.453 340.282 165.987 340.282 165.4ZM346.065 162.8V164.33C346.065 164.723 346.165 165 346.365 165.16C346.565 165.313 346.839 165.39 347.185 165.39C347.439 165.39 347.649 165.377 347.815 165.35C347.989 165.323 348.142 165.293 348.275 165.26V162.8H349.205V168H348.275V165.98C348.222 165.993 348.152 166.01 348.065 166.03C347.979 166.05 347.879 166.07 347.765 166.09C347.659 166.103 347.545 166.117 347.425 166.13C347.305 166.143 347.189 166.15 347.075 166.15C346.789 166.15 346.525 166.12 346.285 166.06C346.052 166 345.849 165.9 345.675 165.76C345.509 165.62 345.375 165.437 345.275 165.21C345.182 164.977 345.135 164.687 345.135 164.34V162.8H346.065ZM355.477 162.8V168H354.577V164.04C354.377 164.293 354.157 164.59 353.917 164.93C353.677 165.27 353.437 165.623 353.197 165.99C352.957 166.35 352.727 166.707 352.507 167.06C352.287 167.413 352.097 167.727 351.937 168H351.107V162.8H352.007V166.54C352.181 166.253 352.377 165.94 352.597 165.6C352.817 165.253 353.044 164.913 353.277 164.58C353.517 164.24 353.754 163.917 353.987 163.61C354.227 163.297 354.451 163.027 354.657 162.8H355.477ZM359.634 168.12C359.214 168.12 358.844 168.053 358.524 167.92C358.211 167.787 357.944 167.6 357.724 167.36C357.511 167.12 357.351 166.837 357.244 166.51C357.137 166.177 357.084 165.81 357.084 165.41C357.084 165.01 357.141 164.643 357.254 164.31C357.374 163.977 357.541 163.69 357.754 163.45C357.967 163.203 358.227 163.013 358.534 162.88C358.847 162.74 359.194 162.67 359.574 162.67C359.807 162.67 360.041 162.69 360.274 162.73C360.507 162.77 360.731 162.833 360.944 162.92L360.734 163.71C360.594 163.643 360.431 163.59 360.244 163.55C360.064 163.51 359.871 163.49 359.664 163.49C359.144 163.49 358.744 163.653 358.464 163.98C358.191 164.307 358.054 164.783 358.054 165.41C358.054 165.69 358.084 165.947 358.144 166.18C358.211 166.413 358.311 166.613 358.444 166.78C358.584 166.947 358.761 167.077 358.974 167.17C359.187 167.257 359.447 167.3 359.754 167.3C360.001 167.3 360.224 167.277 360.424 167.23C360.624 167.183 360.781 167.133 360.894 167.08L361.024 167.86C360.971 167.893 360.894 167.927 360.794 167.96C360.694 167.987 360.581 168.01 360.454 168.03C360.327 168.057 360.191 168.077 360.044 168.09C359.904 168.11 359.767 168.12 359.634 168.12ZM364.318 163.58C364.318 163.8 364.311 164.037 364.298 164.29C364.291 164.537 364.275 164.787 364.248 165.04C364.221 165.287 364.185 165.533 364.138 165.78C364.091 166.02 364.031 166.247 363.958 166.46C363.885 166.673 363.791 166.873 363.678 167.06C363.571 167.247 363.438 167.413 363.278 167.56C363.118 167.7 362.931 167.82 362.718 167.92C362.505 168.013 362.255 168.073 361.968 168.1L361.838 167.32C362.165 167.253 362.421 167.13 362.608 166.95C362.801 166.77 362.955 166.55 363.068 166.29C363.168 166.063 363.241 165.807 363.288 165.52C363.335 165.233 363.368 164.937 363.388 164.63C363.408 164.317 363.418 164.003 363.418 163.69C363.425 163.377 363.428 163.08 363.428 162.8H366.888V168H365.958V163.58H364.318ZM373.375 165.4C373.375 165.813 373.315 166.187 373.195 166.52C373.075 166.853 372.905 167.14 372.685 167.38C372.471 167.62 372.215 167.807 371.915 167.94C371.615 168.067 371.288 168.13 370.935 168.13C370.581 168.13 370.255 168.067 369.955 167.94C369.655 167.807 369.395 167.62 369.175 167.38C368.961 167.14 368.795 166.853 368.675 166.52C368.555 166.187 368.495 165.813 368.495 165.4C368.495 164.993 368.555 164.623 368.675 164.29C368.795 163.95 368.961 163.66 369.175 163.42C369.395 163.18 369.655 162.997 369.955 162.87C370.255 162.737 370.581 162.67 370.935 162.67C371.288 162.67 371.615 162.737 371.915 162.87C372.215 162.997 372.471 163.18 372.685 163.42C372.905 163.66 373.075 163.95 373.195 164.29C373.315 164.623 373.375 164.993 373.375 165.4ZM372.405 165.4C372.405 164.813 372.271 164.35 372.005 164.01C371.745 163.663 371.388 163.49 370.935 163.49C370.481 163.49 370.121 163.663 369.855 164.01C369.595 164.35 369.465 164.813 369.465 165.4C369.465 165.987 369.595 166.453 369.855 166.8C370.121 167.14 370.481 167.31 370.935 167.31C371.388 167.31 371.745 167.14 372.005 166.8C372.271 166.453 372.405 165.987 372.405 165.4Z" fill="white"/>
<rect x="207" y="162" width="41" height="5" rx="1" fill="#111928"/>
<rect x="52" y="184" width="317.969" height="30" rx="2" fill="#1F2D47"/>
<rect x="63" y="196.854" width="49" height="5" rx="1" fill="#111928"/>
<rect x="148" y="196.854" width="23.4147" height="4.81482" rx="1" fill="#111928"/>
<rect x="270" y="191" width="108" height="17" rx="2" fill="#314872"/>
<path d="M281.68 196.07H282.65V203H281.68V199.8H278.29V203H277.32V196.07H278.29V198.96H281.68V196.07ZM286.371 202.33C286.591 202.33 286.784 202.327 286.951 202.32C287.124 202.307 287.267 202.287 287.381 202.26V200.71C287.314 200.677 287.204 200.65 287.051 200.63C286.904 200.603 286.724 200.59 286.511 200.59C286.371 200.59 286.221 200.6 286.061 200.62C285.907 200.64 285.764 200.683 285.631 200.75C285.504 200.81 285.397 200.897 285.311 201.01C285.224 201.117 285.181 201.26 285.181 201.44C285.181 201.773 285.287 202.007 285.501 202.14C285.714 202.267 286.004 202.33 286.371 202.33ZM286.291 197.67C286.664 197.67 286.977 197.72 287.231 197.82C287.491 197.913 287.697 198.05 287.851 198.23C288.011 198.403 288.124 198.613 288.191 198.86C288.257 199.1 288.291 199.367 288.291 199.66V202.91C288.211 202.923 288.097 202.943 287.951 202.97C287.811 202.99 287.651 203.01 287.471 203.03C287.291 203.05 287.094 203.067 286.881 203.08C286.674 203.1 286.467 203.11 286.261 203.11C285.967 203.11 285.697 203.08 285.451 203.02C285.204 202.96 284.991 202.867 284.811 202.74C284.631 202.607 284.491 202.433 284.391 202.22C284.291 202.007 284.241 201.75 284.241 201.45C284.241 201.163 284.297 200.917 284.411 200.71C284.531 200.503 284.691 200.337 284.891 200.21C285.091 200.083 285.324 199.99 285.591 199.93C285.857 199.87 286.137 199.84 286.431 199.84C286.524 199.84 286.621 199.847 286.721 199.86C286.821 199.867 286.914 199.88 287.001 199.9C287.094 199.913 287.174 199.927 287.241 199.94C287.307 199.953 287.354 199.963 287.381 199.97V199.71C287.381 199.557 287.364 199.407 287.331 199.26C287.297 199.107 287.237 198.973 287.151 198.86C287.064 198.74 286.944 198.647 286.791 198.58C286.644 198.507 286.451 198.47 286.211 198.47C285.904 198.47 285.634 198.493 285.401 198.54C285.174 198.58 285.004 198.623 284.891 198.67L284.781 197.9C284.901 197.847 285.101 197.797 285.381 197.75C285.661 197.697 285.964 197.67 286.291 197.67ZM293.66 202.3C293.7 202.307 293.756 202.313 293.83 202.32C293.903 202.327 293.986 202.333 294.08 202.34C294.173 202.34 294.27 202.343 294.37 202.35C294.476 202.35 294.576 202.35 294.67 202.35C294.863 202.35 295.046 202.337 295.22 202.31C295.4 202.283 295.553 202.237 295.68 202.17C295.813 202.103 295.916 202.017 295.99 201.91C296.07 201.797 296.11 201.653 296.11 201.48C296.11 201.313 296.073 201.177 296 201.07C295.933 200.957 295.84 200.867 295.72 200.8C295.6 200.733 295.456 200.687 295.29 200.66C295.13 200.633 294.956 200.62 294.77 200.62H293.66V202.3ZM294.65 199.93C294.83 199.93 294.993 199.92 295.14 199.9C295.293 199.873 295.423 199.83 295.53 199.77C295.643 199.71 295.73 199.63 295.79 199.53C295.856 199.43 295.89 199.303 295.89 199.15C295.89 198.99 295.85 198.863 295.77 198.77C295.69 198.677 295.583 198.607 295.45 198.56C295.323 198.507 295.176 198.473 295.01 198.46C294.85 198.44 294.686 198.43 294.52 198.43C294.366 198.43 294.21 198.433 294.05 198.44C293.896 198.447 293.766 198.453 293.66 198.46V199.93H294.65ZM294.63 203.09C294.236 203.09 293.873 203.07 293.54 203.03C293.206 202.997 292.943 202.957 292.75 202.91V197.85C292.943 197.803 293.206 197.763 293.54 197.73C293.873 197.69 294.236 197.67 294.63 197.67C294.903 197.67 295.17 197.693 295.43 197.74C295.69 197.787 295.92 197.867 296.12 197.98C296.32 198.087 296.48 198.237 296.6 198.43C296.726 198.617 296.79 198.85 296.79 199.13C296.79 199.383 296.726 199.6 296.6 199.78C296.473 199.96 296.303 200.1 296.09 200.2C296.376 200.3 296.603 200.45 296.77 200.65C296.943 200.843 297.03 201.117 297.03 201.47C297.03 201.783 296.966 202.043 296.84 202.25C296.72 202.457 296.55 202.623 296.33 202.75C296.116 202.877 295.863 202.963 295.57 203.01C295.276 203.063 294.963 203.09 294.63 203.09ZM300.788 203.12C300.368 203.12 299.998 203.053 299.678 202.92C299.365 202.787 299.098 202.6 298.878 202.36C298.665 202.12 298.505 201.837 298.398 201.51C298.291 201.177 298.238 200.81 298.238 200.41C298.238 200.01 298.295 199.643 298.408 199.31C298.528 198.977 298.695 198.69 298.908 198.45C299.121 198.203 299.381 198.013 299.688 197.88C300.001 197.74 300.348 197.67 300.728 197.67C300.961 197.67 301.195 197.69 301.428 197.73C301.661 197.77 301.885 197.833 302.098 197.92L301.888 198.71C301.748 198.643 301.585 198.59 301.398 198.55C301.218 198.51 301.025 198.49 300.818 198.49C300.298 198.49 299.898 198.653 299.618 198.98C299.345 199.307 299.208 199.783 299.208 200.41C299.208 200.69 299.238 200.947 299.298 201.18C299.365 201.413 299.465 201.613 299.598 201.78C299.738 201.947 299.915 202.077 300.128 202.17C300.341 202.257 300.601 202.3 300.908 202.3C301.155 202.3 301.378 202.277 301.578 202.23C301.778 202.183 301.935 202.133 302.048 202.08L302.178 202.86C302.125 202.893 302.048 202.927 301.948 202.96C301.848 202.987 301.735 203.01 301.608 203.03C301.481 203.057 301.345 203.077 301.198 203.09C301.058 203.11 300.921 203.12 300.788 203.12ZM305.627 200.98C305.527 200.98 305.43 200.98 305.337 200.98C305.243 200.973 305.153 200.967 305.067 200.96C304.853 201.28 304.647 201.623 304.447 201.99C304.253 202.35 304.08 202.687 303.927 203H302.987C303.067 202.807 303.16 202.61 303.267 202.41C303.373 202.203 303.48 202.003 303.587 201.81C303.7 201.617 303.813 201.433 303.927 201.26C304.04 201.087 304.147 200.93 304.247 200.79C304.06 200.723 303.907 200.643 303.787 200.55C303.667 200.45 303.57 200.34 303.497 200.22C303.423 200.1 303.37 199.973 303.337 199.84C303.31 199.7 303.297 199.56 303.297 199.42C303.297 199.127 303.35 198.87 303.457 198.65C303.57 198.43 303.723 198.25 303.917 198.11C304.11 197.963 304.337 197.853 304.597 197.78C304.863 197.707 305.153 197.67 305.467 197.67C305.907 197.67 306.28 197.69 306.587 197.73C306.893 197.77 307.15 197.817 307.357 197.87V203H306.437V200.98H305.627ZM306.437 198.49C306.363 198.477 306.24 198.463 306.067 198.45C305.9 198.437 305.707 198.43 305.487 198.43C305.107 198.43 304.8 198.51 304.567 198.67C304.333 198.823 304.217 199.07 304.217 199.41C304.217 199.743 304.337 199.973 304.577 200.1C304.817 200.227 305.127 200.29 305.507 200.29H306.437V198.49ZM311.155 200.17C311.362 200.317 311.585 200.503 311.825 200.73C312.065 200.95 312.298 201.19 312.525 201.45C312.758 201.71 312.975 201.977 313.175 202.25C313.375 202.517 313.545 202.767 313.685 203H312.585C312.438 202.773 312.265 202.543 312.065 202.31C311.872 202.07 311.668 201.84 311.455 201.62C311.242 201.4 311.025 201.197 310.805 201.01C310.585 200.823 310.378 200.667 310.185 200.54V203H309.255V197.8H310.185V200.03C310.345 199.877 310.528 199.7 310.735 199.5C310.942 199.293 311.148 199.087 311.355 198.88C311.568 198.667 311.765 198.467 311.945 198.28C312.125 198.087 312.272 197.927 312.385 197.8H313.465C313.318 197.96 313.145 198.143 312.945 198.35C312.752 198.55 312.548 198.757 312.335 198.97C312.128 199.183 311.922 199.397 311.715 199.61C311.508 199.817 311.322 200.003 311.155 200.17ZM319.223 200.4C319.223 200.813 319.163 201.187 319.043 201.52C318.923 201.853 318.753 202.14 318.533 202.38C318.32 202.62 318.063 202.807 317.763 202.94C317.463 203.067 317.137 203.13 316.783 203.13C316.43 203.13 316.103 203.067 315.803 202.94C315.503 202.807 315.243 202.62 315.023 202.38C314.81 202.14 314.643 201.853 314.523 201.52C314.403 201.187 314.343 200.813 314.343 200.4C314.343 199.993 314.403 199.623 314.523 199.29C314.643 198.95 314.81 198.66 315.023 198.42C315.243 198.18 315.503 197.997 315.803 197.87C316.103 197.737 316.43 197.67 316.783 197.67C317.137 197.67 317.463 197.737 317.763 197.87C318.063 197.997 318.32 198.18 318.533 198.42C318.753 198.66 318.923 198.95 319.043 199.29C319.163 199.623 319.223 199.993 319.223 200.4ZM318.253 200.4C318.253 199.813 318.12 199.35 317.853 199.01C317.593 198.663 317.237 198.49 316.783 198.49C316.33 198.49 315.97 198.663 315.703 199.01C315.443 199.35 315.313 199.813 315.313 200.4C315.313 200.987 315.443 201.453 315.703 201.8C315.97 202.14 316.33 202.31 316.783 202.31C317.237 202.31 317.593 202.14 317.853 201.8C318.12 201.453 318.253 200.987 318.253 200.4ZM324.906 202.32C325.499 202.32 325.923 202.203 326.176 201.97C326.436 201.737 326.566 201.423 326.566 201.03C326.566 200.777 326.513 200.563 326.406 200.39C326.299 200.217 326.159 200.08 325.986 199.98C325.813 199.873 325.609 199.8 325.376 199.76C325.149 199.713 324.916 199.69 324.676 199.69H324.436V198.93H324.766C324.933 198.93 325.103 198.913 325.276 198.88C325.456 198.847 325.619 198.787 325.766 198.7C325.913 198.613 326.033 198.497 326.126 198.35C326.219 198.197 326.266 198.007 326.266 197.78C326.266 197.593 326.233 197.433 326.166 197.3C326.099 197.167 326.009 197.057 325.896 196.97C325.789 196.883 325.663 196.823 325.516 196.79C325.376 196.75 325.226 196.73 325.066 196.73C324.746 196.73 324.473 196.777 324.246 196.87C324.026 196.963 323.839 197.06 323.686 197.16L323.326 196.45C323.406 196.397 323.506 196.34 323.626 196.28C323.753 196.213 323.893 196.153 324.046 196.1C324.199 196.047 324.363 196.003 324.536 195.97C324.716 195.93 324.903 195.91 325.096 195.91C325.463 195.91 325.779 195.957 326.046 196.05C326.313 196.137 326.533 196.263 326.706 196.43C326.879 196.59 327.009 196.783 327.096 197.01C327.183 197.23 327.226 197.47 327.226 197.73C327.226 198.09 327.123 198.4 326.916 198.66C326.709 198.913 326.459 199.107 326.166 199.24C326.346 199.293 326.519 199.37 326.686 199.47C326.853 199.57 326.996 199.697 327.116 199.85C327.243 200.003 327.343 200.18 327.416 200.38C327.496 200.58 327.536 200.803 327.536 201.05C327.536 201.35 327.483 201.63 327.376 201.89C327.276 202.143 327.116 202.363 326.896 202.55C326.683 202.737 326.413 202.883 326.086 202.99C325.759 203.097 325.373 203.15 324.926 203.15C324.753 203.15 324.573 203.137 324.386 203.11C324.206 203.083 324.036 203.05 323.876 203.01C323.716 202.97 323.576 202.93 323.456 202.89C323.336 202.85 323.249 202.817 323.196 202.79L323.376 201.98C323.489 202.033 323.676 202.103 323.936 202.19C324.203 202.277 324.526 202.32 324.906 202.32ZM333.061 197.8V198.58H331.371V203H330.441V198.58H328.751V197.8H333.061ZM338.91 200.4C338.91 200.813 338.85 201.187 338.73 201.52C338.61 201.853 338.44 202.14 338.22 202.38C338.006 202.62 337.75 202.807 337.45 202.94C337.15 203.067 336.823 203.13 336.47 203.13C336.116 203.13 335.79 203.067 335.49 202.94C335.19 202.807 334.93 202.62 334.71 202.38C334.496 202.14 334.33 201.853 334.21 201.52C334.09 201.187 334.03 200.813 334.03 200.4C334.03 199.993 334.09 199.623 334.21 199.29C334.33 198.95 334.496 198.66 334.71 198.42C334.93 198.18 335.19 197.997 335.49 197.87C335.79 197.737 336.116 197.67 336.47 197.67C336.823 197.67 337.15 197.737 337.45 197.87C337.75 197.997 338.006 198.18 338.22 198.42C338.44 198.66 338.61 198.95 338.73 199.29C338.85 199.623 338.91 199.993 338.91 200.4ZM337.94 200.4C337.94 199.813 337.806 199.35 337.54 199.01C337.28 198.663 336.923 198.49 336.47 198.49C336.016 198.49 335.656 198.663 335.39 199.01C335.13 199.35 335 199.813 335 200.4C335 200.987 335.13 201.453 335.39 201.8C335.656 202.14 336.016 202.31 336.47 202.31C336.923 202.31 337.28 202.14 337.54 201.8C337.806 201.453 337.94 200.987 337.94 200.4ZM343.722 197.8V199.33C343.722 199.723 343.822 200 344.022 200.16C344.222 200.313 344.496 200.39 344.842 200.39C345.096 200.39 345.306 200.377 345.472 200.35C345.646 200.323 345.799 200.293 345.932 200.26V197.8H346.862V203H345.932V200.98C345.879 200.993 345.809 201.01 345.722 201.03C345.636 201.05 345.536 201.07 345.422 201.09C345.316 201.103 345.202 201.117 345.082 201.13C344.962 201.143 344.846 201.15 344.732 201.15C344.446 201.15 344.182 201.12 343.942 201.06C343.709 201 343.506 200.9 343.332 200.76C343.166 200.62 343.032 200.437 342.932 200.21C342.839 199.977 342.792 199.687 342.792 199.34V197.8H343.722ZM353.134 197.8V203H352.234V199.04C352.034 199.293 351.814 199.59 351.574 199.93C351.334 200.27 351.094 200.623 350.854 200.99C350.614 201.35 350.384 201.707 350.164 202.06C349.944 202.413 349.754 202.727 349.594 203H348.764V197.8H349.664V201.54C349.838 201.253 350.034 200.94 350.254 200.6C350.474 200.253 350.701 199.913 350.934 199.58C351.174 199.24 351.411 198.917 351.644 198.61C351.884 198.297 352.108 198.027 352.314 197.8H353.134ZM357.291 203.12C356.871 203.12 356.501 203.053 356.181 202.92C355.868 202.787 355.601 202.6 355.381 202.36C355.168 202.12 355.008 201.837 354.901 201.51C354.795 201.177 354.741 200.81 354.741 200.41C354.741 200.01 354.798 199.643 354.911 199.31C355.031 198.977 355.198 198.69 355.411 198.45C355.625 198.203 355.885 198.013 356.191 197.88C356.505 197.74 356.851 197.67 357.231 197.67C357.465 197.67 357.698 197.69 357.931 197.73C358.165 197.77 358.388 197.833 358.601 197.92L358.391 198.71C358.251 198.643 358.088 198.59 357.901 198.55C357.721 198.51 357.528 198.49 357.321 198.49C356.801 198.49 356.401 198.653 356.121 198.98C355.848 199.307 355.711 199.783 355.711 200.41C355.711 200.69 355.741 200.947 355.801 201.18C355.868 201.413 355.968 201.613 356.101 201.78C356.241 201.947 356.418 202.077 356.631 202.17C356.845 202.257 357.105 202.3 357.411 202.3C357.658 202.3 357.881 202.277 358.081 202.23C358.281 202.183 358.438 202.133 358.551 202.08L358.681 202.86C358.628 202.893 358.551 202.927 358.451 202.96C358.351 202.987 358.238 203.01 358.111 203.03C357.985 203.057 357.848 203.077 357.701 203.09C357.561 203.11 357.425 203.12 357.291 203.12ZM361.975 198.58C361.975 198.8 361.969 199.037 361.955 199.29C361.949 199.537 361.932 199.787 361.905 200.04C361.879 200.287 361.842 200.533 361.795 200.78C361.749 201.02 361.689 201.247 361.615 201.46C361.542 201.673 361.449 201.873 361.335 202.06C361.229 202.247 361.095 202.413 360.935 202.56C360.775 202.7 360.589 202.82 360.375 202.92C360.162 203.013 359.912 203.073 359.625 203.1L359.495 202.32C359.822 202.253 360.079 202.13 360.265 201.95C360.459 201.77 360.612 201.55 360.725 201.29C360.825 201.063 360.899 200.807 360.945 200.52C360.992 200.233 361.025 199.937 361.045 199.63C361.065 199.317 361.075 199.003 361.075 198.69C361.082 198.377 361.085 198.08 361.085 197.8H364.545V203H363.615V198.58H361.975ZM371.032 200.4C371.032 200.813 370.972 201.187 370.852 201.52C370.732 201.853 370.562 202.14 370.342 202.38C370.128 202.62 369.872 202.807 369.572 202.94C369.272 203.067 368.945 203.13 368.592 203.13C368.238 203.13 367.912 203.067 367.612 202.94C367.312 202.807 367.052 202.62 366.832 202.38C366.618 202.14 366.452 201.853 366.332 201.52C366.212 201.187 366.152 200.813 366.152 200.4C366.152 199.993 366.212 199.623 366.332 199.29C366.452 198.95 366.618 198.66 366.832 198.42C367.052 198.18 367.312 197.997 367.612 197.87C367.912 197.737 368.238 197.67 368.592 197.67C368.945 197.67 369.272 197.737 369.572 197.87C369.872 197.997 370.128 198.18 370.342 198.42C370.562 198.66 370.732 198.95 370.852 199.29C370.972 199.623 371.032 199.993 371.032 200.4ZM370.062 200.4C370.062 199.813 369.928 199.35 369.662 199.01C369.402 198.663 369.045 198.49 368.592 198.49C368.138 198.49 367.778 198.663 367.512 199.01C367.252 199.35 367.122 199.813 367.122 200.4C367.122 200.987 367.252 201.453 367.512 201.8C367.778 202.14 368.138 202.31 368.592 202.31C369.045 202.31 369.402 202.14 369.662 201.8C369.928 201.453 370.062 200.987 370.062 200.4Z" fill="white"/>
<rect x="206" y="196.854" width="42.1464" height="4.81482" rx="1" fill="#111928"/>
<rect x="52" y="219" width="317.969" height="30" rx="2" fill="#1F2D47"/>
<rect x="63" y="231.854" width="49" height="5" rx="1" fill="#111928"/>
<rect x="148" y="231.854" width="23.4147" height="4.81482" rx="1" fill="#111928"/>
<rect x="270" y="226" width="108" height="17" rx="2" fill="#314872"/>
<path d="M281.255 231.07H282.225V238H281.255V234.8H277.865V238H276.895V231.07H277.865V233.96H281.255V231.07ZM285.946 237.33C286.166 237.33 286.359 237.327 286.526 237.32C286.699 237.307 286.842 237.287 286.956 237.26V235.71C286.889 235.677 286.779 235.65 286.626 235.63C286.479 235.603 286.299 235.59 286.086 235.59C285.946 235.59 285.796 235.6 285.636 235.62C285.482 235.64 285.339 235.683 285.206 235.75C285.079 235.81 284.972 235.897 284.886 236.01C284.799 236.117 284.756 236.26 284.756 236.44C284.756 236.773 284.862 237.007 285.076 237.14C285.289 237.267 285.579 237.33 285.946 237.33ZM285.866 232.67C286.239 232.67 286.552 232.72 286.806 232.82C287.066 232.913 287.272 233.05 287.426 233.23C287.586 233.403 287.699 233.613 287.766 233.86C287.832 234.1 287.866 234.367 287.866 234.66V237.91C287.786 237.923 287.672 237.943 287.526 237.97C287.386 237.99 287.226 238.01 287.046 238.03C286.866 238.05 286.669 238.067 286.456 238.08C286.249 238.1 286.042 238.11 285.836 238.11C285.542 238.11 285.272 238.08 285.026 238.02C284.779 237.96 284.566 237.867 284.386 237.74C284.206 237.607 284.066 237.433 283.966 237.22C283.866 237.007 283.816 236.75 283.816 236.45C283.816 236.163 283.872 235.917 283.986 235.71C284.106 235.503 284.266 235.337 284.466 235.21C284.666 235.083 284.899 234.99 285.166 234.93C285.432 234.87 285.712 234.84 286.006 234.84C286.099 234.84 286.196 234.847 286.296 234.86C286.396 234.867 286.489 234.88 286.576 234.9C286.669 234.913 286.749 234.927 286.816 234.94C286.882 234.953 286.929 234.963 286.956 234.97V234.71C286.956 234.557 286.939 234.407 286.906 234.26C286.872 234.107 286.812 233.973 286.726 233.86C286.639 233.74 286.519 233.647 286.366 233.58C286.219 233.507 286.026 233.47 285.786 233.47C285.479 233.47 285.209 233.493 284.976 233.54C284.749 233.58 284.579 233.623 284.466 233.67L284.356 232.9C284.476 232.847 284.676 232.797 284.956 232.75C285.236 232.697 285.539 232.67 285.866 232.67ZM293.235 237.3C293.275 237.307 293.331 237.313 293.405 237.32C293.478 237.327 293.561 237.333 293.655 237.34C293.748 237.34 293.845 237.343 293.945 237.35C294.051 237.35 294.151 237.35 294.245 237.35C294.438 237.35 294.621 237.337 294.795 237.31C294.975 237.283 295.128 237.237 295.255 237.17C295.388 237.103 295.491 237.017 295.565 236.91C295.645 236.797 295.685 236.653 295.685 236.48C295.685 236.313 295.648 236.177 295.575 236.07C295.508 235.957 295.415 235.867 295.295 235.8C295.175 235.733 295.031 235.687 294.865 235.66C294.705 235.633 294.531 235.62 294.345 235.62H293.235V237.3ZM294.225 234.93C294.405 234.93 294.568 234.92 294.715 234.9C294.868 234.873 294.998 234.83 295.105 234.77C295.218 234.71 295.305 234.63 295.365 234.53C295.431 234.43 295.465 234.303 295.465 234.15C295.465 233.99 295.425 233.863 295.345 233.77C295.265 233.677 295.158 233.607 295.025 233.56C294.898 233.507 294.751 233.473 294.585 233.46C294.425 233.44 294.261 233.43 294.095 233.43C293.941 233.43 293.785 233.433 293.625 233.44C293.471 233.447 293.341 233.453 293.235 233.46V234.93H294.225ZM294.205 238.09C293.811 238.09 293.448 238.07 293.115 238.03C292.781 237.997 292.518 237.957 292.325 237.91V232.85C292.518 232.803 292.781 232.763 293.115 232.73C293.448 232.69 293.811 232.67 294.205 232.67C294.478 232.67 294.745 232.693 295.005 232.74C295.265 232.787 295.495 232.867 295.695 232.98C295.895 233.087 296.055 233.237 296.175 233.43C296.301 233.617 296.365 233.85 296.365 234.13C296.365 234.383 296.301 234.6 296.175 234.78C296.048 234.96 295.878 235.1 295.665 235.2C295.951 235.3 296.178 235.45 296.345 235.65C296.518 235.843 296.605 236.117 296.605 236.47C296.605 236.783 296.541 237.043 296.415 237.25C296.295 237.457 296.125 237.623 295.905 237.75C295.691 237.877 295.438 237.963 295.145 238.01C294.851 238.063 294.538 238.09 294.205 238.09ZM300.363 238.12C299.943 238.12 299.573 238.053 299.253 237.92C298.94 237.787 298.673 237.6 298.453 237.36C298.24 237.12 298.08 236.837 297.973 236.51C297.867 236.177 297.813 235.81 297.813 235.41C297.813 235.01 297.87 234.643 297.983 234.31C298.103 233.977 298.27 233.69 298.483 233.45C298.697 233.203 298.957 233.013 299.263 232.88C299.577 232.74 299.923 232.67 300.303 232.67C300.537 232.67 300.77 232.69 301.003 232.73C301.237 232.77 301.46 232.833 301.673 232.92L301.463 233.71C301.323 233.643 301.16 233.59 300.973 233.55C300.793 233.51 300.6 233.49 300.393 233.49C299.873 233.49 299.473 233.653 299.193 233.98C298.92 234.307 298.783 234.783 298.783 235.41C298.783 235.69 298.813 235.947 298.873 236.18C298.94 236.413 299.04 236.613 299.173 236.78C299.313 236.947 299.49 237.077 299.703 237.17C299.917 237.257 300.177 237.3 300.483 237.3C300.73 237.3 300.953 237.277 301.153 237.23C301.353 237.183 301.51 237.133 301.623 237.08L301.753 237.86C301.7 237.893 301.623 237.927 301.523 237.96C301.423 237.987 301.31 238.01 301.183 238.03C301.057 238.057 300.92 238.077 300.773 238.09C300.633 238.11 300.497 238.12 300.363 238.12ZM305.202 235.98C305.102 235.98 305.005 235.98 304.912 235.98C304.818 235.973 304.728 235.967 304.642 235.96C304.428 236.28 304.222 236.623 304.022 236.99C303.828 237.35 303.655 237.687 303.502 238H302.562C302.642 237.807 302.735 237.61 302.842 237.41C302.948 237.203 303.055 237.003 303.162 236.81C303.275 236.617 303.388 236.433 303.502 236.26C303.615 236.087 303.722 235.93 303.822 235.79C303.635 235.723 303.482 235.643 303.362 235.55C303.242 235.45 303.145 235.34 303.072 235.22C302.998 235.1 302.945 234.973 302.912 234.84C302.885 234.7 302.872 234.56 302.872 234.42C302.872 234.127 302.925 233.87 303.032 233.65C303.145 233.43 303.298 233.25 303.492 233.11C303.685 232.963 303.912 232.853 304.172 232.78C304.438 232.707 304.728 232.67 305.042 232.67C305.482 232.67 305.855 232.69 306.162 232.73C306.468 232.77 306.725 232.817 306.932 232.87V238H306.012V235.98H305.202ZM306.012 233.49C305.938 233.477 305.815 233.463 305.642 233.45C305.475 233.437 305.282 233.43 305.062 233.43C304.682 233.43 304.375 233.51 304.142 233.67C303.908 233.823 303.792 234.07 303.792 234.41C303.792 234.743 303.912 234.973 304.152 235.1C304.392 235.227 304.702 235.29 305.082 235.29H306.012V233.49ZM310.73 235.17C310.937 235.317 311.16 235.503 311.4 235.73C311.64 235.95 311.874 236.19 312.1 236.45C312.334 236.71 312.55 236.977 312.75 237.25C312.95 237.517 313.12 237.767 313.26 238H312.16C312.014 237.773 311.84 237.543 311.64 237.31C311.447 237.07 311.244 236.84 311.03 236.62C310.817 236.4 310.6 236.197 310.38 236.01C310.16 235.823 309.954 235.667 309.76 235.54V238H308.83V232.8H309.76V235.03C309.92 234.877 310.104 234.7 310.31 234.5C310.517 234.293 310.724 234.087 310.93 233.88C311.144 233.667 311.34 233.467 311.52 233.28C311.7 233.087 311.847 232.927 311.96 232.8H313.04C312.894 232.96 312.72 233.143 312.52 233.35C312.327 233.55 312.124 233.757 311.91 233.97C311.704 234.183 311.497 234.397 311.29 234.61C311.084 234.817 310.897 235.003 310.73 235.17ZM318.798 235.4C318.798 235.813 318.738 236.187 318.618 236.52C318.498 236.853 318.328 237.14 318.108 237.38C317.895 237.62 317.638 237.807 317.338 237.94C317.038 238.067 316.712 238.13 316.358 238.13C316.005 238.13 315.678 238.067 315.378 237.94C315.078 237.807 314.818 237.62 314.598 237.38C314.385 237.14 314.218 236.853 314.098 236.52C313.978 236.187 313.918 235.813 313.918 235.4C313.918 234.993 313.978 234.623 314.098 234.29C314.218 233.95 314.385 233.66 314.598 233.42C314.818 233.18 315.078 232.997 315.378 232.87C315.678 232.737 316.005 232.67 316.358 232.67C316.712 232.67 317.038 232.737 317.338 232.87C317.638 232.997 317.895 233.18 318.108 233.42C318.328 233.66 318.498 233.95 318.618 234.29C318.738 234.623 318.798 234.993 318.798 235.4ZM317.828 235.4C317.828 234.813 317.695 234.35 317.428 234.01C317.168 233.663 316.812 233.49 316.358 233.49C315.905 233.49 315.545 233.663 315.278 234.01C315.018 234.35 314.888 234.813 314.888 235.4C314.888 235.987 315.018 236.453 315.278 236.8C315.545 237.14 315.905 237.31 316.358 237.31C316.812 237.31 317.168 237.14 317.428 236.8C317.695 236.453 317.828 235.987 317.828 235.4ZM323.151 232.5C323.531 232.353 323.901 232.167 324.261 231.94C324.621 231.707 324.951 231.417 325.251 231.07H325.911V238H324.981V232.36C324.901 232.433 324.801 232.51 324.681 232.59C324.568 232.67 324.441 232.747 324.301 232.82C324.168 232.893 324.025 232.963 323.871 233.03C323.725 233.097 323.581 233.153 323.441 233.2L323.151 232.5ZM329.876 237.3C329.916 237.307 329.972 237.313 330.046 237.32C330.119 237.327 330.202 237.333 330.296 237.34C330.389 237.34 330.486 237.343 330.586 237.35C330.692 237.35 330.792 237.35 330.886 237.35C331.079 237.35 331.262 237.337 331.436 237.31C331.616 237.283 331.769 237.237 331.896 237.17C332.029 237.103 332.132 237.017 332.206 236.91C332.286 236.797 332.326 236.653 332.326 236.48C332.326 236.313 332.289 236.177 332.216 236.07C332.149 235.957 332.056 235.867 331.936 235.8C331.816 235.733 331.672 235.687 331.506 235.66C331.346 235.633 331.172 235.62 330.986 235.62H329.876V237.3ZM330.866 234.93C331.046 234.93 331.209 234.92 331.356 234.9C331.509 234.873 331.639 234.83 331.746 234.77C331.859 234.71 331.946 234.63 332.006 234.53C332.072 234.43 332.106 234.303 332.106 234.15C332.106 233.99 332.066 233.863 331.986 233.77C331.906 233.677 331.799 233.607 331.666 233.56C331.539 233.507 331.392 233.473 331.226 233.46C331.066 233.44 330.902 233.43 330.736 233.43C330.582 233.43 330.426 233.433 330.266 233.44C330.112 233.447 329.982 233.453 329.876 233.46V234.93H330.866ZM330.846 238.09C330.452 238.09 330.089 238.07 329.756 238.03C329.422 237.997 329.159 237.957 328.966 237.91V232.85C329.159 232.803 329.422 232.763 329.756 232.73C330.089 232.69 330.452 232.67 330.846 232.67C331.119 232.67 331.386 232.693 331.646 232.74C331.906 232.787 332.136 232.867 332.336 232.98C332.536 233.087 332.696 233.237 332.816 233.43C332.942 233.617 333.006 233.85 333.006 234.13C333.006 234.383 332.942 234.6 332.816 234.78C332.689 234.96 332.519 235.1 332.306 235.2C332.592 235.3 332.819 235.45 332.986 235.65C333.159 235.843 333.246 236.117 333.246 236.47C333.246 236.783 333.182 237.043 333.056 237.25C332.936 237.457 332.766 237.623 332.546 237.75C332.332 237.877 332.079 237.963 331.786 238.01C331.492 238.063 331.179 238.09 330.846 238.09ZM339.334 235.4C339.334 235.813 339.274 236.187 339.154 236.52C339.034 236.853 338.864 237.14 338.644 237.38C338.431 237.62 338.174 237.807 337.874 237.94C337.574 238.067 337.248 238.13 336.894 238.13C336.541 238.13 336.214 238.067 335.914 237.94C335.614 237.807 335.354 237.62 335.134 237.38C334.921 237.14 334.754 236.853 334.634 236.52C334.514 236.187 334.454 235.813 334.454 235.4C334.454 234.993 334.514 234.623 334.634 234.29C334.754 233.95 334.921 233.66 335.134 233.42C335.354 233.18 335.614 232.997 335.914 232.87C336.214 232.737 336.541 232.67 336.894 232.67C337.248 232.67 337.574 232.737 337.874 232.87C338.174 232.997 338.431 233.18 338.644 233.42C338.864 233.66 339.034 233.95 339.154 234.29C339.274 234.623 339.334 234.993 339.334 235.4ZM338.364 235.4C338.364 234.813 338.231 234.35 337.964 234.01C337.704 233.663 337.348 233.49 336.894 233.49C336.441 233.49 336.081 233.663 335.814 234.01C335.554 234.35 335.424 234.813 335.424 235.4C335.424 235.987 335.554 236.453 335.814 236.8C336.081 237.14 336.441 237.31 336.894 237.31C337.348 237.31 337.704 237.14 337.964 236.8C338.231 236.453 338.364 235.987 338.364 235.4ZM344.147 232.8V234.33C344.147 234.723 344.247 235 344.447 235.16C344.647 235.313 344.921 235.39 345.267 235.39C345.521 235.39 345.731 235.377 345.897 235.35C346.071 235.323 346.224 235.293 346.357 235.26V232.8H347.287V238H346.357V235.98C346.304 235.993 346.234 236.01 346.147 236.03C346.061 236.05 345.961 236.07 345.847 236.09C345.741 236.103 345.627 236.117 345.507 236.13C345.387 236.143 345.271 236.15 345.157 236.15C344.871 236.15 344.607 236.12 344.367 236.06C344.134 236 343.931 235.9 343.757 235.76C343.591 235.62 343.457 235.437 343.357 235.21C343.264 234.977 343.217 234.687 343.217 234.34V232.8H344.147ZM353.559 232.8V238H352.659V234.04C352.459 234.293 352.239 234.59 351.999 234.93C351.759 235.27 351.519 235.623 351.279 235.99C351.039 236.35 350.809 236.707 350.589 237.06C350.369 237.413 350.179 237.727 350.019 238H349.189V232.8H350.089V236.54C350.263 236.253 350.459 235.94 350.679 235.6C350.899 235.253 351.126 234.913 351.359 234.58C351.599 234.24 351.836 233.917 352.069 233.61C352.309 233.297 352.533 233.027 352.739 232.8H353.559ZM357.716 238.12C357.296 238.12 356.926 238.053 356.606 237.92C356.293 237.787 356.026 237.6 355.806 237.36C355.593 237.12 355.433 236.837 355.326 236.51C355.219 236.177 355.166 235.81 355.166 235.41C355.166 235.01 355.223 234.643 355.336 234.31C355.456 233.977 355.623 233.69 355.836 233.45C356.049 233.203 356.309 233.013 356.616 232.88C356.929 232.74 357.276 232.67 357.656 232.67C357.889 232.67 358.123 232.69 358.356 232.73C358.589 232.77 358.813 232.833 359.026 232.92L358.816 233.71C358.676 233.643 358.513 233.59 358.326 233.55C358.146 233.51 357.953 233.49 357.746 233.49C357.226 233.49 356.826 233.653 356.546 233.98C356.273 234.307 356.136 234.783 356.136 235.41C356.136 235.69 356.166 235.947 356.226 236.18C356.293 236.413 356.393 236.613 356.526 236.78C356.666 236.947 356.843 237.077 357.056 237.17C357.269 237.257 357.529 237.3 357.836 237.3C358.083 237.3 358.306 237.277 358.506 237.23C358.706 237.183 358.863 237.133 358.976 237.08L359.106 237.86C359.053 237.893 358.976 237.927 358.876 237.96C358.776 237.987 358.663 238.01 358.536 238.03C358.409 238.057 358.273 238.077 358.126 238.09C357.986 238.11 357.849 238.12 357.716 238.12ZM362.4 233.58C362.4 233.8 362.393 234.037 362.38 234.29C362.373 234.537 362.357 234.787 362.33 235.04C362.303 235.287 362.267 235.533 362.22 235.78C362.173 236.02 362.113 236.247 362.04 236.46C361.967 236.673 361.873 236.873 361.76 237.06C361.653 237.247 361.52 237.413 361.36 237.56C361.2 237.7 361.013 237.82 360.8 237.92C360.587 238.013 360.337 238.073 360.05 238.1L359.92 237.32C360.247 237.253 360.503 237.13 360.69 236.95C360.883 236.77 361.037 236.55 361.15 236.29C361.25 236.063 361.323 235.807 361.37 235.52C361.417 235.233 361.45 234.937 361.47 234.63C361.49 234.317 361.5 234.003 361.5 233.69C361.507 233.377 361.51 233.08 361.51 232.8H364.97V238H364.04V233.58H362.4ZM371.457 235.4C371.457 235.813 371.397 236.187 371.277 236.52C371.157 236.853 370.987 237.14 370.767 237.38C370.553 237.62 370.297 237.807 369.997 237.94C369.697 238.067 369.37 238.13 369.017 238.13C368.663 238.13 368.337 238.067 368.037 237.94C367.737 237.807 367.477 237.62 367.257 237.38C367.043 237.14 366.877 236.853 366.757 236.52C366.637 236.187 366.577 235.813 366.577 235.4C366.577 234.993 366.637 234.623 366.757 234.29C366.877 233.95 367.043 233.66 367.257 233.42C367.477 233.18 367.737 232.997 368.037 232.87C368.337 232.737 368.663 232.67 369.017 232.67C369.37 232.67 369.697 232.737 369.997 232.87C370.297 232.997 370.553 233.18 370.767 233.42C370.987 233.66 371.157 233.95 371.277 234.29C371.397 234.623 371.457 234.993 371.457 235.4ZM370.487 235.4C370.487 234.813 370.353 234.35 370.087 234.01C369.827 233.663 369.47 233.49 369.017 233.49C368.563 233.49 368.203 233.663 367.937 234.01C367.677 234.35 367.547 234.813 367.547 235.4C367.547 235.987 367.677 236.453 367.937 236.8C368.203 237.14 368.563 237.31 369.017 237.31C369.47 237.31 369.827 237.14 370.087 236.8C370.353 236.453 370.487 235.987 370.487 235.4Z" fill="white"/>
<rect x="206" y="231.854" width="42.1464" height="4.81482" rx="1" fill="#111928"/>
<path d="M216.473 133.07C216.267 133.297 216.033 133.55 215.773 133.83C215.513 134.103 215.24 134.387 214.953 134.68C214.673 134.967 214.393 135.25 214.113 135.53C213.833 135.81 213.57 136.07 213.323 136.31C213.61 136.51 213.913 136.757 214.233 137.05C214.553 137.343 214.867 137.657 215.173 137.99C215.48 138.323 215.767 138.663 216.033 139.01C216.307 139.357 216.533 139.687 216.713 140H215.573C215.373 139.687 215.143 139.373 214.883 139.06C214.623 138.74 214.347 138.437 214.053 138.15C213.767 137.857 213.473 137.587 213.173 137.34C212.88 137.093 212.593 136.883 212.313 136.71V140H211.343V133.07H212.313V136.13C212.547 135.91 212.803 135.663 213.083 135.39C213.363 135.11 213.64 134.83 213.913 134.55C214.187 134.27 214.443 134.003 214.683 133.75C214.93 133.49 215.137 133.263 215.303 133.07H216.473ZM219.636 135.58C219.636 135.8 219.63 136.037 219.616 136.29C219.61 136.537 219.593 136.787 219.566 137.04C219.54 137.287 219.503 137.533 219.456 137.78C219.41 138.02 219.35 138.247 219.276 138.46C219.203 138.673 219.11 138.873 218.996 139.06C218.89 139.247 218.756 139.413 218.596 139.56C218.436 139.7 218.25 139.82 218.036 139.92C217.823 140.013 217.573 140.073 217.286 140.1L217.156 139.32C217.483 139.253 217.74 139.13 217.926 138.95C218.12 138.77 218.273 138.55 218.386 138.29C218.486 138.063 218.56 137.807 218.606 137.52C218.653 137.233 218.686 136.937 218.706 136.63C218.726 136.317 218.736 136.003 218.736 135.69C218.743 135.377 218.746 135.08 218.746 134.8H222.206V140H221.276V135.58H219.636ZM228.173 134.8V140H227.273V136.04C227.073 136.293 226.853 136.59 226.613 136.93C226.373 137.27 226.133 137.623 225.893 137.99C225.653 138.35 225.423 138.707 225.203 139.06C224.983 139.413 224.793 139.727 224.633 140H223.803V134.8H224.703V138.54C224.876 138.253 225.073 137.94 225.293 137.6C225.513 137.253 225.74 136.913 225.973 136.58C226.213 136.24 226.45 135.917 226.683 135.61C226.923 135.297 227.146 135.027 227.353 134.8H228.173ZM229.48 137.41C229.48 136.95 229.546 136.55 229.68 136.21C229.813 135.863 229.99 135.577 230.21 135.35C230.43 135.123 230.683 134.953 230.97 134.84C231.256 134.727 231.55 134.67 231.85 134.67C232.55 134.67 233.086 134.89 233.46 135.33C233.833 135.763 234.02 136.427 234.02 137.32C234.02 137.36 234.02 137.413 234.02 137.48C234.02 137.54 234.016 137.597 234.01 137.65H230.45C230.49 138.19 230.646 138.6 230.92 138.88C231.193 139.16 231.62 139.3 232.2 139.3C232.526 139.3 232.8 139.273 233.02 139.22C233.246 139.16 233.416 139.103 233.53 139.05L233.66 139.83C233.546 139.89 233.346 139.953 233.06 140.02C232.78 140.087 232.46 140.12 232.1 140.12C231.646 140.12 231.253 140.053 230.92 139.92C230.593 139.78 230.323 139.59 230.11 139.35C229.896 139.11 229.736 138.827 229.63 138.5C229.53 138.167 229.48 137.803 229.48 137.41ZM233.05 136.9C233.056 136.48 232.95 136.137 232.73 135.87C232.516 135.597 232.22 135.46 231.84 135.46C231.626 135.46 231.436 135.503 231.27 135.59C231.11 135.67 230.973 135.777 230.86 135.91C230.746 136.043 230.656 136.197 230.59 136.37C230.53 136.543 230.49 136.72 230.47 136.9H233.05ZM239.616 140H238.686V137.7H236.286V140H235.356V134.8H236.286V136.92H238.686V134.8H239.616V140ZM244.885 134.8V135.58H243.195V140H242.265V135.58H240.575V134.8H244.885Z" fill="#A9BADA"/>
<path d="M141.244 133.07C141.037 133.297 140.804 133.55 140.544 133.83C140.284 134.103 140.011 134.387 139.724 134.68C139.444 134.967 139.164 135.25 138.884 135.53C138.604 135.81 138.341 136.07 138.094 136.31C138.381 136.51 138.684 136.757 139.004 137.05C139.324 137.343 139.637 137.657 139.944 137.99C140.251 138.323 140.537 138.663 140.804 139.01C141.077 139.357 141.304 139.687 141.484 140H140.344C140.144 139.687 139.914 139.373 139.654 139.06C139.394 138.74 139.117 138.437 138.824 138.15C138.537 137.857 138.244 137.587 137.944 137.34C137.651 137.093 137.364 136.883 137.084 136.71V140H136.114V133.07H137.084V136.13C137.317 135.91 137.574 135.663 137.854 135.39C138.134 135.11 138.411 134.83 138.684 134.55C138.957 134.27 139.214 134.003 139.454 133.75C139.701 133.49 139.907 133.263 140.074 133.07H141.244ZM144.103 139.33C144.323 139.33 144.516 139.327 144.683 139.32C144.856 139.307 145 139.287 145.113 139.26V137.71C145.046 137.677 144.936 137.65 144.783 137.63C144.636 137.603 144.456 137.59 144.243 137.59C144.103 137.59 143.953 137.6 143.793 137.62C143.64 137.64 143.496 137.683 143.363 137.75C143.236 137.81 143.13 137.897 143.043 138.01C142.956 138.117 142.913 138.26 142.913 138.44C142.913 138.773 143.02 139.007 143.233 139.14C143.446 139.267 143.736 139.33 144.103 139.33ZM144.023 134.67C144.396 134.67 144.71 134.72 144.963 134.82C145.223 134.913 145.43 135.05 145.583 135.23C145.743 135.403 145.856 135.613 145.923 135.86C145.99 136.1 146.023 136.367 146.023 136.66V139.91C145.943 139.923 145.83 139.943 145.683 139.97C145.543 139.99 145.383 140.01 145.203 140.03C145.023 140.05 144.826 140.067 144.613 140.08C144.406 140.1 144.2 140.11 143.993 140.11C143.7 140.11 143.43 140.08 143.183 140.02C142.936 139.96 142.723 139.867 142.543 139.74C142.363 139.607 142.223 139.433 142.123 139.22C142.023 139.007 141.973 138.75 141.973 138.45C141.973 138.163 142.03 137.917 142.143 137.71C142.263 137.503 142.423 137.337 142.623 137.21C142.823 137.083 143.056 136.99 143.323 136.93C143.59 136.87 143.87 136.84 144.163 136.84C144.256 136.84 144.353 136.847 144.453 136.86C144.553 136.867 144.646 136.88 144.733 136.9C144.826 136.913 144.906 136.927 144.973 136.94C145.04 136.953 145.086 136.963 145.113 136.97V136.71C145.113 136.557 145.096 136.407 145.063 136.26C145.03 136.107 144.97 135.973 144.883 135.86C144.796 135.74 144.676 135.647 144.523 135.58C144.376 135.507 144.183 135.47 143.943 135.47C143.636 135.47 143.366 135.493 143.133 135.54C142.906 135.58 142.736 135.623 142.623 135.67L142.513 134.9C142.633 134.847 142.833 134.797 143.113 134.75C143.393 134.697 143.696 134.67 144.023 134.67ZM151.238 134.8V135.58H149.548V140H148.618V135.58H146.928V134.8H151.238ZM151.906 137.41C151.906 136.95 151.973 136.55 152.106 136.21C152.24 135.863 152.416 135.577 152.636 135.35C152.856 135.123 153.11 134.953 153.396 134.84C153.683 134.727 153.976 134.67 154.276 134.67C154.976 134.67 155.513 134.89 155.886 135.33C156.26 135.763 156.446 136.427 156.446 137.32C156.446 137.36 156.446 137.413 156.446 137.48C156.446 137.54 156.443 137.597 156.436 137.65H152.876C152.916 138.19 153.073 138.6 153.346 138.88C153.62 139.16 154.046 139.3 154.626 139.3C154.953 139.3 155.226 139.273 155.446 139.22C155.673 139.16 155.843 139.103 155.956 139.05L156.086 139.83C155.973 139.89 155.773 139.953 155.486 140.02C155.206 140.087 154.886 140.12 154.526 140.12C154.073 140.12 153.68 140.053 153.346 139.92C153.02 139.78 152.75 139.59 152.536 139.35C152.323 139.11 152.163 138.827 152.056 138.5C151.956 138.167 151.906 137.803 151.906 137.41ZM155.476 136.9C155.483 136.48 155.376 136.137 155.156 135.87C154.943 135.597 154.646 135.46 154.266 135.46C154.053 135.46 153.863 135.503 153.696 135.59C153.536 135.67 153.4 135.777 153.286 135.91C153.173 136.043 153.083 136.197 153.016 136.37C152.956 136.543 152.916 136.72 152.896 136.9H155.476ZM161.002 135.58H158.712V140H157.782V134.8H161.002V135.58ZM166.552 137.4C166.552 137.813 166.492 138.187 166.372 138.52C166.252 138.853 166.082 139.14 165.862 139.38C165.649 139.62 165.392 139.807 165.092 139.94C164.792 140.067 164.465 140.13 164.112 140.13C163.759 140.13 163.432 140.067 163.132 139.94C162.832 139.807 162.572 139.62 162.352 139.38C162.139 139.14 161.972 138.853 161.852 138.52C161.732 138.187 161.672 137.813 161.672 137.4C161.672 136.993 161.732 136.623 161.852 136.29C161.972 135.95 162.139 135.66 162.352 135.42C162.572 135.18 162.832 134.997 163.132 134.87C163.432 134.737 163.759 134.67 164.112 134.67C164.465 134.67 164.792 134.737 165.092 134.87C165.392 134.997 165.649 135.18 165.862 135.42C166.082 135.66 166.252 135.95 166.372 136.29C166.492 136.623 166.552 136.993 166.552 137.4ZM165.582 137.4C165.582 136.813 165.449 136.35 165.182 136.01C164.922 135.663 164.565 135.49 164.112 135.49C163.659 135.49 163.299 135.663 163.032 136.01C162.772 136.35 162.642 136.813 162.642 137.4C162.642 137.987 162.772 138.453 163.032 138.8C163.299 139.14 163.659 139.31 164.112 139.31C164.565 139.31 164.922 139.14 165.182 138.8C165.449 138.453 165.582 137.987 165.582 137.4ZM171.471 137.41C171.471 136.803 171.321 136.337 171.021 136.01C170.721 135.683 170.321 135.52 169.821 135.52C169.541 135.52 169.321 135.53 169.161 135.55C169.007 135.57 168.884 135.593 168.791 135.62V138.9C168.904 138.993 169.067 139.083 169.281 139.17C169.494 139.257 169.727 139.3 169.981 139.3C170.247 139.3 170.474 139.253 170.661 139.16C170.854 139.06 171.011 138.927 171.131 138.76C171.251 138.587 171.337 138.387 171.391 138.16C171.444 137.927 171.471 137.677 171.471 137.41ZM172.441 137.41C172.441 137.803 172.387 138.167 172.281 138.5C172.181 138.833 172.031 139.12 171.831 139.36C171.631 139.6 171.384 139.787 171.091 139.92C170.804 140.053 170.474 140.12 170.101 140.12C169.801 140.12 169.534 140.08 169.301 140C169.074 139.92 168.904 139.843 168.791 139.77V141.85H167.861V134.96C168.081 134.907 168.354 134.85 168.681 134.79C169.014 134.723 169.397 134.69 169.831 134.69C170.231 134.69 170.591 134.753 170.911 134.88C171.231 135.007 171.504 135.187 171.731 135.42C171.957 135.653 172.131 135.94 172.251 136.28C172.377 136.613 172.441 136.99 172.441 137.41ZM178.119 134.8V140H177.219V136.04C177.019 136.293 176.799 136.59 176.559 136.93C176.319 137.27 176.079 137.623 175.839 137.99C175.599 138.35 175.369 138.707 175.149 139.06C174.929 139.413 174.739 139.727 174.579 140H173.749V134.8H174.649V138.54C174.823 138.253 175.019 137.94 175.239 137.6C175.459 137.253 175.686 136.913 175.919 136.58C176.159 136.24 176.396 135.917 176.629 135.61C176.869 135.297 177.093 135.027 177.299 134.8H178.119ZM181.866 137.98C181.766 137.98 181.669 137.98 181.576 137.98C181.483 137.973 181.393 137.967 181.306 137.96C181.093 138.28 180.886 138.623 180.686 138.99C180.493 139.35 180.319 139.687 180.166 140H179.226C179.306 139.807 179.399 139.61 179.506 139.41C179.613 139.203 179.719 139.003 179.826 138.81C179.939 138.617 180.053 138.433 180.166 138.26C180.279 138.087 180.386 137.93 180.486 137.79C180.299 137.723 180.146 137.643 180.026 137.55C179.906 137.45 179.809 137.34 179.736 137.22C179.663 137.1 179.609 136.973 179.576 136.84C179.549 136.7 179.536 136.56 179.536 136.42C179.536 136.127 179.589 135.87 179.696 135.65C179.809 135.43 179.963 135.25 180.156 135.11C180.349 134.963 180.576 134.853 180.836 134.78C181.103 134.707 181.393 134.67 181.706 134.67C182.146 134.67 182.519 134.69 182.826 134.73C183.133 134.77 183.389 134.817 183.596 134.87V140H182.676V137.98H181.866ZM182.676 135.49C182.603 135.477 182.479 135.463 182.306 135.45C182.139 135.437 181.946 135.43 181.726 135.43C181.346 135.43 181.039 135.51 180.806 135.67C180.573 135.823 180.456 136.07 180.456 136.41C180.456 136.743 180.576 136.973 180.816 137.1C181.056 137.227 181.366 137.29 181.746 137.29H182.676V135.49Z" fill="#A9BADA"/>
<path d="M64.1132 140V141.85H63.1932V139.17H63.9232C64.2632 138.783 64.5232 138.357 64.7032 137.89C64.8899 137.417 65.0232 136.92 65.1032 136.4C65.1899 135.873 65.2399 135.33 65.2532 134.77C65.2732 134.21 65.2865 133.643 65.2932 133.07H69.2132V139.17H70.0832V141.85H69.1632V140H64.1132ZM66.2432 133.9C66.2232 134.34 66.1999 134.79 66.1732 135.25C66.1532 135.703 66.1032 136.157 66.0232 136.61C65.9499 137.057 65.8399 137.497 65.6932 137.93C65.5465 138.363 65.3399 138.777 65.0732 139.17H68.2432V133.9H66.2432ZM75.6498 137.4C75.6498 137.813 75.5898 138.187 75.4698 138.52C75.3498 138.853 75.1798 139.14 74.9598 139.38C74.7464 139.62 74.4898 139.807 74.1898 139.94C73.8898 140.067 73.5631 140.13 73.2098 140.13C72.8564 140.13 72.5298 140.067 72.2298 139.94C71.9298 139.807 71.6698 139.62 71.4498 139.38C71.2364 139.14 71.0698 138.853 70.9498 138.52C70.8298 138.187 70.7698 137.813 70.7698 137.4C70.7698 136.993 70.8298 136.623 70.9498 136.29C71.0698 135.95 71.2364 135.66 71.4498 135.42C71.6698 135.18 71.9298 134.997 72.2298 134.87C72.5298 134.737 72.8564 134.67 73.2098 134.67C73.5631 134.67 73.8898 134.737 74.1898 134.87C74.4898 134.997 74.7464 135.18 74.9598 135.42C75.1798 135.66 75.3498 135.95 75.4698 136.29C75.5898 136.623 75.6498 136.993 75.6498 137.4ZM74.6798 137.4C74.6798 136.813 74.5464 136.35 74.2798 136.01C74.0198 135.663 73.6631 135.49 73.2098 135.49C72.7564 135.49 72.3964 135.663 72.1298 136.01C71.8698 136.35 71.7398 136.813 71.7398 137.4C71.7398 137.987 71.8698 138.453 72.1298 138.8C72.3964 139.14 72.7564 139.31 73.2098 139.31C73.6631 139.31 74.0198 139.14 74.2798 138.8C74.5464 138.453 74.6798 137.987 74.6798 137.4ZM78.8582 137.17C79.0649 137.317 79.2882 137.503 79.5282 137.73C79.7682 137.95 80.0015 138.19 80.2282 138.45C80.4615 138.71 80.6782 138.977 80.8782 139.25C81.0782 139.517 81.2482 139.767 81.3882 140H80.2882C80.1415 139.773 79.9682 139.543 79.7682 139.31C79.5749 139.07 79.3715 138.84 79.1582 138.62C78.9449 138.4 78.7282 138.197 78.5082 138.01C78.2882 137.823 78.0815 137.667 77.8882 137.54V140H76.9582V134.8H77.8882V137.03C78.0482 136.877 78.2315 136.7 78.4382 136.5C78.6449 136.293 78.8515 136.087 79.0582 135.88C79.2715 135.667 79.4682 135.467 79.6482 135.28C79.8282 135.087 79.9749 134.927 80.0882 134.8H81.1682C81.0215 134.96 80.8482 135.143 80.6482 135.35C80.4549 135.55 80.2515 135.757 80.0382 135.97C79.8315 136.183 79.6249 136.397 79.4182 136.61C79.2115 136.817 79.0249 137.003 78.8582 137.17ZM81.7193 140.97C81.7926 141.003 81.886 141.033 81.9993 141.06C82.1193 141.093 82.236 141.11 82.3493 141.11C82.716 141.11 83.0026 141.027 83.2093 140.86C83.416 140.7 83.6026 140.437 83.7693 140.07C83.3493 139.27 82.956 138.423 82.5893 137.53C82.2293 136.63 81.9293 135.72 81.6893 134.8H82.6893C82.7626 135.1 82.8493 135.423 82.9493 135.77C83.056 136.117 83.1726 136.473 83.2993 136.84C83.426 137.207 83.5626 137.573 83.7093 137.94C83.856 138.307 84.0093 138.66 84.1693 139C84.4226 138.3 84.6426 137.607 84.8293 136.92C85.016 136.233 85.1926 135.527 85.3593 134.8H86.3193C86.0793 135.78 85.8126 136.723 85.5193 137.63C85.226 138.53 84.9093 139.373 84.5693 140.16C84.436 140.46 84.296 140.717 84.1493 140.93C84.0093 141.15 83.8526 141.33 83.6793 141.47C83.506 141.61 83.3093 141.713 83.0893 141.78C82.876 141.847 82.6326 141.88 82.3593 141.88C82.286 141.88 82.2093 141.873 82.1293 141.86C82.0493 141.853 81.9693 141.84 81.8893 141.82C81.816 141.807 81.746 141.79 81.6793 141.77C81.6193 141.75 81.576 141.733 81.5493 141.72L81.7193 140.97ZM88.29 136.17C88.2233 136.83 88.1733 137.49 88.14 138.15C88.1067 138.803 88.08 139.42 88.06 140H87.17C87.1833 139.593 87.2033 139.17 87.23 138.73C87.2567 138.283 87.2867 137.837 87.32 137.39C87.3533 136.937 87.39 136.493 87.43 136.06C87.47 135.62 87.5133 135.2 87.56 134.8H88.41C88.6233 135.147 88.8733 135.623 89.16 136.23C89.4467 136.83 89.7767 137.523 90.15 138.31C90.5233 137.523 90.8533 136.83 91.14 136.23C91.4267 135.623 91.6767 135.147 91.89 134.8H92.75C92.7967 135.2 92.84 135.62 92.88 136.06C92.92 136.493 92.9567 136.937 92.99 137.39C93.0233 137.837 93.0533 138.283 93.08 138.73C93.1067 139.17 93.1267 139.593 93.14 140H92.22C92.2 139.42 92.1733 138.803 92.14 138.15C92.1067 137.49 92.0567 136.83 91.99 136.17C91.8833 136.377 91.76 136.627 91.62 136.92C91.48 137.207 91.34 137.5 91.2 137.8C91.0667 138.1 90.94 138.387 90.82 138.66C90.7 138.933 90.6067 139.15 90.54 139.31H89.76C89.6867 139.143 89.5867 138.923 89.46 138.65C89.34 138.377 89.21 138.09 89.07 137.79C88.9367 137.483 88.8 137.187 88.66 136.9C88.52 136.607 88.3967 136.363 88.29 136.17ZM94.3245 137.41C94.3245 136.95 94.3911 136.55 94.5245 136.21C94.6578 135.863 94.8345 135.577 95.0545 135.35C95.2745 135.123 95.5278 134.953 95.8145 134.84C96.1011 134.727 96.3945 134.67 96.6945 134.67C97.3945 134.67 97.9311 134.89 98.3045 135.33C98.6778 135.763 98.8645 136.427 98.8645 137.32C98.8645 137.36 98.8645 137.413 98.8645 137.48C98.8645 137.54 98.8611 137.597 98.8545 137.65H95.2945C95.3345 138.19 95.4911 138.6 95.7645 138.88C96.0378 139.16 96.4645 139.3 97.0445 139.3C97.3711 139.3 97.6445 139.273 97.8645 139.22C98.0911 139.16 98.2611 139.103 98.3745 139.05L98.5045 139.83C98.3911 139.89 98.1911 139.953 97.9045 140.02C97.6245 140.087 97.3045 140.12 96.9445 140.12C96.4911 140.12 96.0978 140.053 95.7645 139.92C95.4378 139.78 95.1678 139.59 94.9545 139.35C94.7411 139.11 94.5811 138.827 94.4745 138.5C94.3745 138.167 94.3245 137.803 94.3245 137.41ZM97.8945 136.9C97.9011 136.48 97.7945 136.137 97.5745 135.87C97.3611 135.597 97.0645 135.46 96.6845 135.46C96.4711 135.46 96.2811 135.503 96.1145 135.59C95.9545 135.67 95.8178 135.777 95.7045 135.91C95.5911 136.043 95.5011 136.197 95.4345 136.37C95.3745 136.543 95.3345 136.72 95.3145 136.9H97.8945ZM104.46 140H103.53V137.7H101.13V140H100.2V134.8H101.13V136.92H103.53V134.8H104.46V140ZM109.73 134.8V135.58H108.04V140H107.11V135.58H105.42V134.8H109.73Z" fill="#A9BADA"/>
<path d="M306.311 135.07C306.311 135.35 306.334 135.597 306.381 135.81C306.434 136.017 306.521 136.19 306.641 136.33C306.767 136.463 306.934 136.563 307.141 136.63C307.354 136.697 307.621 136.73 307.941 136.73C308.067 136.73 308.194 136.727 308.321 136.72C308.454 136.707 308.581 136.693 308.701 136.68C308.821 136.667 308.927 136.65 309.021 136.63C309.114 136.61 309.191 136.593 309.251 136.58V133.07H310.221V140H309.251V137.42C309.124 137.453 308.927 137.487 308.661 137.52C308.401 137.553 308.121 137.57 307.821 137.57C307.314 137.57 306.901 137.513 306.581 137.4C306.261 137.28 306.007 137.113 305.821 136.9C305.641 136.68 305.517 136.417 305.451 136.11C305.384 135.797 305.351 135.45 305.351 135.07V133.07H306.311V135.07ZM311.589 137.41C311.589 136.95 311.656 136.55 311.789 136.21C311.922 135.863 312.099 135.577 312.319 135.35C312.539 135.123 312.792 134.953 313.079 134.84C313.366 134.727 313.659 134.67 313.959 134.67C314.659 134.67 315.196 134.89 315.569 135.33C315.942 135.763 316.129 136.427 316.129 137.32C316.129 137.36 316.129 137.413 316.129 137.48C316.129 137.54 316.126 137.597 316.119 137.65H312.559C312.599 138.19 312.756 138.6 313.029 138.88C313.302 139.16 313.729 139.3 314.309 139.3C314.636 139.3 314.909 139.273 315.129 139.22C315.356 139.16 315.526 139.103 315.639 139.05L315.769 139.83C315.656 139.89 315.456 139.953 315.169 140.02C314.889 140.087 314.569 140.12 314.209 140.12C313.756 140.12 313.362 140.053 313.029 139.92C312.702 139.78 312.432 139.59 312.219 139.35C312.006 139.11 311.846 138.827 311.739 138.5C311.639 138.167 311.589 137.803 311.589 137.41ZM315.159 136.9C315.166 136.48 315.059 136.137 314.839 135.87C314.626 135.597 314.329 135.46 313.949 135.46C313.736 135.46 313.546 135.503 313.379 135.59C313.219 135.67 313.082 135.777 312.969 135.91C312.856 136.043 312.766 136.197 312.699 136.37C312.639 136.543 312.599 136.72 312.579 136.9H315.159ZM319.725 140.12C319.305 140.12 318.935 140.053 318.615 139.92C318.302 139.787 318.035 139.6 317.815 139.36C317.602 139.12 317.442 138.837 317.335 138.51C317.228 138.177 317.175 137.81 317.175 137.41C317.175 137.01 317.232 136.643 317.345 136.31C317.465 135.977 317.632 135.69 317.845 135.45C318.058 135.203 318.318 135.013 318.625 134.88C318.938 134.74 319.285 134.67 319.665 134.67C319.898 134.67 320.132 134.69 320.365 134.73C320.598 134.77 320.822 134.833 321.035 134.92L320.825 135.71C320.685 135.643 320.522 135.59 320.335 135.55C320.155 135.51 319.962 135.49 319.755 135.49C319.235 135.49 318.835 135.653 318.555 135.98C318.282 136.307 318.145 136.783 318.145 137.41C318.145 137.69 318.175 137.947 318.235 138.18C318.302 138.413 318.402 138.613 318.535 138.78C318.675 138.947 318.852 139.077 319.065 139.17C319.278 139.257 319.538 139.3 319.845 139.3C320.092 139.3 320.315 139.277 320.515 139.23C320.715 139.183 320.872 139.133 320.985 139.08L321.115 139.86C321.062 139.893 320.985 139.927 320.885 139.96C320.785 139.987 320.672 140.01 320.545 140.03C320.418 140.057 320.282 140.077 320.135 140.09C319.995 140.11 319.858 140.12 319.725 140.12ZM325.93 134.8V135.58H324.24V140H323.31V135.58H321.62V134.8H325.93ZM331.479 137.4C331.479 137.813 331.419 138.187 331.299 138.52C331.179 138.853 331.009 139.14 330.789 139.38C330.576 139.62 330.319 139.807 330.019 139.94C329.719 140.067 329.392 140.13 329.039 140.13C328.686 140.13 328.359 140.067 328.059 139.94C327.759 139.807 327.499 139.62 327.279 139.38C327.066 139.14 326.899 138.853 326.779 138.52C326.659 138.187 326.599 137.813 326.599 137.4C326.599 136.993 326.659 136.623 326.779 136.29C326.899 135.95 327.066 135.66 327.279 135.42C327.499 135.18 327.759 134.997 328.059 134.87C328.359 134.737 328.686 134.67 329.039 134.67C329.392 134.67 329.719 134.737 330.019 134.87C330.319 134.997 330.576 135.18 330.789 135.42C331.009 135.66 331.179 135.95 331.299 136.29C331.419 136.623 331.479 136.993 331.479 137.4ZM330.509 137.4C330.509 136.813 330.376 136.35 330.109 136.01C329.849 135.663 329.492 135.49 329.039 135.49C328.586 135.49 328.226 135.663 327.959 136.01C327.699 136.35 327.569 136.813 327.569 137.4C327.569 137.987 327.699 138.453 327.959 138.8C328.226 139.14 328.586 139.31 329.039 139.31C329.492 139.31 329.849 139.14 330.109 138.8C330.376 138.453 330.509 137.987 330.509 137.4ZM336.457 134.8V135.58H334.767V140H333.837V135.58H332.147V134.8H336.457ZM339.176 139.33C339.396 139.33 339.59 139.327 339.756 139.32C339.93 139.307 340.073 139.287 340.186 139.26V137.71C340.12 137.677 340.01 137.65 339.856 137.63C339.71 137.603 339.53 137.59 339.316 137.59C339.176 137.59 339.026 137.6 338.866 137.62C338.713 137.64 338.57 137.683 338.436 137.75C338.31 137.81 338.203 137.897 338.116 138.01C338.03 138.117 337.986 138.26 337.986 138.44C337.986 138.773 338.093 139.007 338.306 139.14C338.52 139.267 338.81 139.33 339.176 139.33ZM339.096 134.67C339.47 134.67 339.783 134.72 340.036 134.82C340.296 134.913 340.503 135.05 340.656 135.23C340.816 135.403 340.93 135.613 340.996 135.86C341.063 136.1 341.096 136.367 341.096 136.66V139.91C341.016 139.923 340.903 139.943 340.756 139.97C340.616 139.99 340.456 140.01 340.276 140.03C340.096 140.05 339.9 140.067 339.686 140.08C339.48 140.1 339.273 140.11 339.066 140.11C338.773 140.11 338.503 140.08 338.256 140.02C338.01 139.96 337.796 139.867 337.616 139.74C337.436 139.607 337.296 139.433 337.196 139.22C337.096 139.007 337.046 138.75 337.046 138.45C337.046 138.163 337.103 137.917 337.216 137.71C337.336 137.503 337.496 137.337 337.696 137.21C337.896 137.083 338.13 136.99 338.396 136.93C338.663 136.87 338.943 136.84 339.236 136.84C339.33 136.84 339.426 136.847 339.526 136.86C339.626 136.867 339.72 136.88 339.806 136.9C339.9 136.913 339.98 136.927 340.046 136.94C340.113 136.953 340.16 136.963 340.186 136.97V136.71C340.186 136.557 340.17 136.407 340.136 136.26C340.103 136.107 340.043 135.973 339.956 135.86C339.87 135.74 339.75 135.647 339.596 135.58C339.45 135.507 339.256 135.47 339.016 135.47C338.71 135.47 338.44 135.493 338.206 135.54C337.98 135.58 337.81 135.623 337.696 135.67L337.586 134.9C337.706 134.847 337.906 134.797 338.186 134.75C338.466 134.697 338.77 134.67 339.096 134.67Z" fill="#A9BADA"/>
</g>
<defs>
<linearGradient id="paint0_linear_2143_2016" x1="74.7232" y1="42.6682" x2="126.198" y2="180.778" gradientUnits="userSpaceOnUse">
<stop stop-color="white"/>
<stop offset="1" stop-color="white" stop-opacity="0"/>
</linearGradient>
<linearGradient id="paint1_linear_2143_2016" x1="47.001" y1="70.5" x2="57.4165" y2="70.5" gradientUnits="userSpaceOnUse">
<stop stop-color="#6094FF"/>
<stop offset="0.25" stop-color="#4C85FD"/>
<stop offset="0.77" stop-color="#185FF9"/>
<stop offset="1" stop-color="#004DF7"/>
</linearGradient>
<linearGradient id="paint2_linear_2143_2016" x1="47.2745" y1="75.758" x2="50.4773" y2="73.5213" gradientUnits="userSpaceOnUse">
<stop offset="0.07" stop-color="#5E93FF" stop-opacity="0.5"/>
<stop offset="0.3" stop-color="#517BE8" stop-opacity="0.59"/>
<stop offset="0.69" stop-color="#2E3CAD" stop-opacity="0.85"/>
<stop offset="0.89" stop-color="#191589"/>
</linearGradient>
<linearGradient id="paint3_linear_2143_2016" x1="48.719" y1="76.1326" x2="57.7302" y2="65.4007" gradientUnits="userSpaceOnUse">
<stop offset="0.07" stop-color="#5E93FF" stop-opacity="0.5"/>
<stop offset="0.27" stop-color="#3B54C4" stop-opacity="0.7"/>
<stop offset="0.48" stop-color="#222598" stop-opacity="0.85"/>
<stop offset="0.61" stop-color="#191589" stop-opacity="0.9"/>
<stop offset="0.67" stop-color="#18188D" stop-opacity="0.86"/>
<stop offset="0.75" stop-color="#15219A" stop-opacity="0.76"/>
<stop offset="0.82" stop-color="#1030AF" stop-opacity="0.59"/>
<stop offset="0.9" stop-color="#0945CD" stop-opacity="0.36"/>
<stop offset="0.99" stop-color="#0161F3" stop-opacity="0.05"/>
<stop offset="1" stop-color="#0066FA" stop-opacity="0"/>
</linearGradient>
<radialGradient id="paint4_radial_2143_2016" cx="0" cy="0" r="1" gradientUnits="userSpaceOnUse" gradientTransform="translate(49.4206 67.3299) scale(2.73289)">
<stop stop-color="#191589" stop-opacity="0.9"/>
<stop offset="0.17" stop-color="#161E95" stop-opacity="0.8"/>
<stop offset="0.48" stop-color="#0E36B7" stop-opacity="0.53"/>
<stop offset="0.91" stop-color="#025DEE" stop-opacity="0.09"/>
<stop offset="1" stop-color="#0066FA" stop-opacity="0"/>
</radialGradient>
<radialGradient id="paint5_radial_2143_2016" cx="0" cy="0" r="1" gradientUnits="userSpaceOnUse" gradientTransform="translate(54.9513 67.6044) scale(3.61361)">
<stop offset="0.18" stop-color="#191589"/>
<stop offset="0.19" stop-color="#18168A" stop-opacity="0.99"/>
<stop offset="0.47" stop-color="#0E38BA" stop-opacity="0.57"/>
<stop offset="0.7" stop-color="#0651DC" stop-opacity="0.26"/>
<stop offset="0.89" stop-color="#0160F2" stop-opacity="0.07"/>
<stop offset="1" stop-color="#0066FA" stop-opacity="0"/>
</radialGradient>
<linearGradient id="paint6_linear_2143_2016" x1="177.884" y1="168.5" x2="149.463" y2="297.537" gradientUnits="userSpaceOnUse">
<stop stop-color="white"/>
<stop offset="1" stop-color="white" stop-opacity="0.2"/>
</linearGradient>
<clipPath id="clip0_2143_2016">
<path d="M32 56.6452C32 54.632 33.632 53 35.6452 53H347.355C349.368 53 351 54.632 351 56.6452V289H32V56.6452Z" fill="white"/>
</clipPath>
</defs>
</svg>
