<svg width="20" height="20" viewBox="0 0 20 20" fill="none" xmlns="http://www.w3.org/2000/svg">
<g clip-path="url(#clip0_2121_1735)">
<path d="M7.34507 17.7772C7.04041 17.7787 6.74738 17.6356 6.52864 17.3785L1.01896 10.8977C0.909147 10.7678 0.821521 10.6129 0.761092 10.4419C0.700663 10.2708 0.668612 10.0871 0.666771 9.90105C0.663053 9.52535 0.782608 9.16325 0.999137 8.89441C1.21567 8.62556 1.51143 8.47199 1.82137 8.46749C2.1313 8.46298 2.43002 8.6079 2.65181 8.87037L7.34973 14.394L17.3474 2.62427C17.5695 2.3618 17.8685 2.21702 18.1787 2.22179C18.4888 2.22657 18.7847 2.38049 19.0012 2.64972C19.2178 2.91894 19.3372 3.2814 19.3333 3.65736C19.3293 4.03332 19.2023 4.39199 18.9802 4.65446L8.16149 17.3785C7.94275 17.6356 7.64972 17.7787 7.34507 17.7772Z" fill="#1C64F2"/>
</g>
<defs>
<clipPath id="clip0_2121_1735">
<rect width="18.6667" height="18.6667" fill="white" transform="translate(0.666687 0.666504)"/>
</clipPath>
</defs>
</svg>
