<svg width="65" height="64" viewBox="0 0 65 64" fill="none" xmlns="http://www.w3.org/2000/svg">
<g id="device-database-encryption-1">
<g id="device-database-encryption-1_2">
<path id="Vector 1032" d="M6.66977 25.4698V38.3728" stroke="#C6D1E7" stroke-width="2.66667" stroke-linecap="round" stroke-linejoin="round"/>
<path id="Vector 1034" d="M6.66977 5.36768V18.2706" stroke="#C6D1E7" stroke-width="2.66667" stroke-linecap="round" stroke-linejoin="round"/>
<path id="Vector 1036" d="M6.66977 45.5734V58.4763" stroke="#C6D1E7" stroke-width="2.66667" stroke-linecap="round" stroke-linejoin="round"/>
<path id="Vector 1035" d="M31.7874 5.36743V18.2704" stroke="#C6D1E7" stroke-width="2.66667" stroke-linecap="round" stroke-linejoin="round"/>
<path id="Vector 1039" d="M39.4796 5.36743V18.2704" stroke="#C6D1E7" stroke-width="2.66667" stroke-linecap="round" stroke-linejoin="round"/>
<path id="Vector 1038" d="M14.7554 25.4698V38.3728" stroke="#C6D1E7" stroke-width="2.66667" stroke-linecap="round" stroke-linejoin="round"/>
<path id="Rectangle 591" d="M14.8249 10.1792C14.8249 7.52175 16.9792 5.36743 19.6367 5.36743C22.2942 5.36743 24.4485 7.52175 24.4485 10.1792V13.3853C24.4485 16.0427 22.2942 18.1971 19.6367 18.1971C16.9792 18.1971 14.8249 16.0427 14.8249 13.3853V10.1792Z" stroke="#C6D1E7" stroke-width="2.66667" stroke-linecap="round" stroke-linejoin="round"/>
<path id="Rectangle 592" d="M22.1101 30.2817C22.1101 27.6242 24.2644 25.4698 26.9219 25.4698C29.5794 25.4698 31.7337 27.6242 31.7337 30.2817V33.4877C31.7337 36.1452 29.5794 38.2995 26.9219 38.2995C24.2644 38.2995 22.1101 36.1452 22.1101 33.4877V30.2817Z" stroke="#C6D1E7" stroke-width="2.66667" stroke-linecap="round" stroke-linejoin="round"/>
<path id="Rectangle 593" d="M14.8249 50.4578C14.8249 47.8003 16.9792 45.646 19.6367 45.646C22.2942 45.646 24.4485 47.8003 24.4485 50.4578V53.6638C24.4485 56.3213 22.2942 58.4756 19.6367 58.4756C16.9792 58.4756 14.8249 56.3213 14.8249 53.6638V50.4578Z" stroke="#C6D1E7" stroke-width="2.66667" stroke-linecap="round" stroke-linejoin="round"/>
<path id="Vector" d="M36.7988 42.2427H57.2849C58.5141 42.2427 59.3335 43.0621 59.3335 44.2913V56.5829C59.3335 57.8121 58.5141 58.6316 57.2849 58.6316H36.7988C35.5697 58.6316 34.7502 57.8121 34.7502 56.5829V44.2913C34.7502 43.0621 35.5697 42.2427 36.7988 42.2427Z" stroke="#C6D1E7" stroke-width="2.66667" stroke-linecap="round" stroke-linejoin="round"/>
<path id="Vector_2" d="M38.8474 42.2426V38.1454C38.8474 33.6384 42.5349 29.9509 47.0418 29.9509C51.5488 29.9509 55.2363 33.6384 55.2363 38.1454V42.2426" stroke="#C6D1E7" stroke-width="2.66667" stroke-linecap="round" stroke-linejoin="round"/>
</g>
</g>
</svg>
