<svg width="292" height="300" viewBox="0 0 292 300" fill="none" xmlns="http://www.w3.org/2000/svg">
<g clip-path="url(#clip0_2224_1112)">
<rect x="53.5073" width="173.645" height="347.289" rx="23.3865" fill="#1F2D47"/>
<path d="M52.1416 47.3137C52.1416 47.0148 52.3839 46.7725 52.6828 46.7725H53.6069V61.0243H52.6828C52.3839 61.0243 52.1416 60.782 52.1416 60.4831V47.3137Z" fill="#314872"/>
<path d="M51.7529 71.2561C51.7529 70.9572 51.9952 70.7148 52.2941 70.7148H53.5774V97.2341H52.2941C51.9952 97.2341 51.7529 96.9918 51.7529 96.6929V71.2561Z" fill="#314872"/>
<path d="M51.7529 107.466C51.7529 107.167 51.9952 106.925 52.2941 106.925H53.5774V133.444H52.2941C51.9952 133.444 51.7529 133.202 51.7529 132.903V107.466Z" fill="#314872"/>
<path d="M228.978 46.9016C228.978 46.6027 228.735 46.3604 228.436 46.3604H227.153V88.7551H228.436C228.735 88.7551 228.978 88.5128 228.978 88.2139V46.9016Z" fill="#314872"/>
<rect x="60.7227" y="7.84961" width="158.141" height="331.785" rx="17.0544" fill="#111928"/>
<line x1="61.1069" y1="49.1295" x2="218.966" y2="49.1295" stroke="#1F2D47" stroke-width="0.584662"/>
<path d="M78.7041 36.9004H70.7041M70.7041 36.9004L73.7041 39.9004M70.7041 36.9004L73.7041 33.9004" stroke="#7E98C8" stroke-width="0.6" stroke-linecap="round" stroke-linejoin="round"/>
<path d="M168.204 32.5H171.204M165.204 34H174.204M173.204 34L172.853 39.2596C172.801 40.0488 172.775 40.4433 172.604 40.7425C172.454 41.0059 172.228 41.2176 171.955 41.3498C171.645 41.5 171.25 41.5 170.459 41.5H168.949C168.159 41.5 167.763 41.5 167.453 41.3498C167.18 41.2176 166.954 41.0059 166.804 40.7425C166.634 40.4433 166.607 40.0488 166.555 39.2596L166.204 34M168.704 36.25V38.75M170.704 36.25V38.75" stroke="#7E98C8" stroke-width="0.6" stroke-linecap="round" stroke-linejoin="round"/>
<path d="M205.633 37.4284C205.869 37.4284 206.061 37.2366 206.061 36.9999C206.061 36.7632 205.869 36.5713 205.633 36.5713C205.396 36.5713 205.204 36.7632 205.204 36.9999C205.204 37.2366 205.396 37.4284 205.633 37.4284Z" stroke="#7E98C8" stroke-width="0.6" stroke-linecap="round" stroke-linejoin="round"/>
<path d="M205.633 34.4284C205.869 34.4284 206.061 34.2366 206.061 33.9999C206.061 33.7632 205.869 33.5713 205.633 33.5713C205.396 33.5713 205.204 33.7632 205.204 33.9999C205.204 34.2366 205.396 34.4284 205.633 34.4284Z" stroke="#7E98C8" stroke-width="0.6" stroke-linecap="round" stroke-linejoin="round"/>
<path d="M205.633 40.4284C205.869 40.4284 206.061 40.2366 206.061 39.9999C206.061 39.7632 205.869 39.5713 205.633 39.5713C205.396 39.5713 205.204 39.7632 205.204 39.9999C205.204 40.2366 205.396 40.4284 205.633 40.4284Z" stroke="#7E98C8" stroke-width="0.6" stroke-linecap="round" stroke-linejoin="round"/>
<g clip-path="url(#clip1_2224_1112)">
<path d="M182.704 34.5L186.787 37.3577C187.117 37.5891 187.282 37.7048 187.462 37.7497C187.621 37.7892 187.787 37.7892 187.946 37.7497C188.126 37.7048 188.291 37.5891 188.622 37.3577L192.704 34.5M185.104 41H190.304C191.144 41 191.564 41 191.885 40.8365C192.167 40.6927 192.397 40.4632 192.541 40.181C192.704 39.8601 192.704 39.4401 192.704 38.6V35.4C192.704 34.5599 192.704 34.1399 192.541 33.819C192.397 33.5368 192.167 33.3073 191.885 33.1635C191.564 33 191.144 33 190.304 33H185.104C184.264 33 183.844 33 183.523 33.1635C183.241 33.3073 183.011 33.5368 182.868 33.819C182.704 34.1399 182.704 34.5599 182.704 35.4V38.6C182.704 39.4401 182.704 39.8601 182.868 40.181C183.011 40.4632 183.241 40.6927 183.523 40.8365C183.844 41 184.264 41 185.104 41Z" stroke="#7E98C8" stroke-width="0.6" stroke-linecap="round" stroke-linejoin="round"/>
</g>
<path d="M70.1582 69.6055V61.4155H76.2682V69.6055H75.2282V62.3255H71.1982V69.6055H70.1582ZM80.4916 68.7605C81.3886 68.7605 82.2466 67.9285 82.2466 66.6805C82.2466 65.4325 81.3886 64.6005 80.4916 64.6005C79.5816 64.6005 78.7366 65.4325 78.7366 66.6805C78.7366 67.9285 79.5816 68.7605 80.4916 68.7605ZM80.4916 69.6705C78.9836 69.6705 77.7616 68.4355 77.7616 66.6805C77.7616 64.9255 78.9836 63.6905 80.4916 63.6905C81.9996 63.6905 83.2216 64.9255 83.2216 66.6805C83.2216 68.4355 81.9996 69.6705 80.4916 69.6705ZM83.4877 69.6055V68.7605H83.6177C84.2547 68.7605 84.5927 68.4095 84.6577 67.7205L84.9827 63.7555H88.9477V69.6055H87.9727V64.6005H85.8277L85.6327 67.7205C85.5417 68.9685 84.8657 69.6705 83.8777 69.6705C83.7737 69.6705 83.6957 69.6575 83.6047 69.6445L83.4877 69.6055ZM90.9038 71.6855V70.9055C91.4888 70.9055 91.7358 70.6455 91.9438 70.1255L92.2038 69.4755L89.9288 63.7555H90.9688L92.7238 68.2405L94.4788 63.7555H95.5188L92.9838 70.1255C92.5158 71.3085 92.0608 71.7505 91.2938 71.7505C91.1898 71.7505 91.1118 71.7375 91.0208 71.7245L90.9038 71.6855ZM100.071 69.6055V67.4605C99.9284 67.5385 99.7854 67.6035 99.6164 67.6555C99.3174 67.7595 98.9014 67.8505 98.3814 67.8505C97.1984 67.8505 96.3664 67.0055 96.3664 65.7055V63.7555H97.3414V65.7055C97.3414 66.4335 97.8614 66.9405 98.6414 66.9405C99.0444 66.9405 99.3824 66.8365 99.6424 66.7195C99.7984 66.6545 99.9414 66.5765 100.071 66.4855V63.7555H101.046V69.6055H100.071ZM106.577 68.0455H107.617C107.227 68.8905 106.447 69.6705 105.147 69.6705C103.587 69.6705 102.352 68.4355 102.352 66.6805C102.352 64.9255 103.665 63.6905 105.082 63.6905C106.512 63.6905 107.747 64.8475 107.747 66.6155C107.747 66.7845 107.721 66.9015 107.708 66.9925L107.682 67.1355H103.392C103.457 67.9805 104.224 68.7605 105.147 68.7605C105.914 68.7605 106.382 68.3185 106.577 68.0455ZM103.392 66.2905H106.772C106.629 65.3155 105.927 64.6005 105.082 64.6005C104.237 64.6005 103.535 65.3155 103.392 66.2905ZM109.052 69.6055V63.7555H110.027V66.1605H113.017V63.7555H113.992V69.6055H113.017V67.0705H110.027V69.6055H109.052ZM122.697 65.1205V68.2405C122.788 68.3575 122.892 68.4485 123.009 68.5395C123.217 68.6825 123.503 68.8255 123.867 68.8255C124.712 68.8255 125.362 68.1755 125.362 66.6805C125.362 65.1855 124.712 64.5355 123.867 64.5355C123.503 64.5355 123.217 64.6915 123.009 64.8345C122.892 64.9255 122.788 65.0165 122.697 65.1205ZM121.722 71.6855V69.2155C121.618 69.3065 121.501 69.3845 121.371 69.4495C121.15 69.5665 120.838 69.6705 120.487 69.6705C119.187 69.6705 118.082 68.5655 118.082 66.6805C118.082 64.7955 119.187 63.6905 120.487 63.6905C120.838 63.6905 121.15 63.8075 121.371 63.9245C121.501 63.9895 121.618 64.0675 121.722 64.1455V61.4155H122.697V64.1455C122.801 64.0675 122.918 63.9895 123.048 63.9245C123.269 63.8075 123.568 63.6905 123.932 63.6905C125.232 63.6905 126.337 64.7955 126.337 66.6805C126.337 68.5655 125.232 69.6705 123.932 69.6705C123.568 69.6705 123.269 69.5665 123.048 69.4495C122.918 69.3845 122.801 69.3065 122.697 69.2155V71.6855H121.722ZM121.722 68.2405V65.1205C121.631 65.0165 121.527 64.9255 121.41 64.8345C121.202 64.6915 120.903 64.5355 120.552 64.5355C119.707 64.5355 119.057 65.1855 119.057 66.6805C119.057 68.1755 119.707 68.8255 120.552 68.8255C120.903 68.8255 121.202 68.6825 121.41 68.5395C121.527 68.4485 121.631 68.3575 121.722 68.2405ZM131.343 69.6055L131.083 68.9555C130.953 69.0985 130.81 69.2155 130.641 69.3195C130.342 69.5145 129.913 69.6705 129.328 69.6705C128.158 69.6705 127.378 68.8905 127.378 67.9155C127.378 66.8105 128.158 66.0305 131.083 66.0305V65.7055C131.083 65.1205 130.576 64.6005 129.848 64.6005C129.12 64.6005 128.821 64.9255 128.678 65.4455H127.638C127.781 64.4705 128.548 63.6905 129.848 63.6905C131.148 63.6905 132.058 64.6135 132.058 65.7055V69.6055H131.343ZM131.083 67.3955V66.9405C128.743 66.9405 128.353 67.3305 128.353 67.9805C128.353 68.3835 128.743 68.7605 129.328 68.7605C130.368 68.7605 131.083 68.0455 131.083 67.3955ZM133.681 69.6055V63.7555H134.656V68.1105L137.646 63.7555H138.621V69.6055H137.646V65.2505L134.656 69.6055H133.681ZM134.591 61.4155H135.371C135.436 61.8705 135.748 62.1955 136.151 62.1955C136.554 62.1955 136.866 61.8705 136.931 61.4155H137.711C137.568 62.1955 136.996 62.8455 136.151 62.8455C135.306 62.8455 134.734 62.1955 134.591 61.4155ZM139.398 69.6055V68.7605H139.528C140.165 68.7605 140.503 68.4095 140.568 67.7205L140.893 63.7555H144.858V69.6055H143.883V64.6005H141.738L141.543 67.7205C141.452 68.9685 140.776 69.6705 139.788 69.6705C139.684 69.6705 139.606 69.6575 139.515 69.6445L139.398 69.6055ZM148.827 67.8505H149.802C149.867 68.3705 150.244 68.7605 150.972 68.7605C151.635 68.7605 152.012 68.3705 152.012 67.9155C152.012 67.4605 151.609 67.0705 150.972 67.0705H150.452V66.1605H150.972C151.492 66.1605 151.882 65.8355 151.882 65.3805C151.882 64.9255 151.492 64.6005 150.972 64.6005C150.244 64.6005 149.932 64.9905 149.867 65.4455H148.892C148.957 64.4055 149.672 63.6905 150.972 63.6905C152.077 63.6905 152.857 64.4835 152.857 65.3805C152.857 65.8095 152.688 66.1085 152.493 66.3165C152.389 66.4335 152.272 66.5375 152.142 66.6155C152.298 66.7065 152.441 66.8105 152.558 66.9275C152.766 67.1355 152.987 67.4605 152.987 67.9155C152.987 68.8905 152.207 69.6705 150.972 69.6705C149.672 69.6705 148.892 68.8905 148.827 67.8505ZM158.054 69.6055L157.794 68.9555C157.664 69.0985 157.521 69.2155 157.352 69.3195C157.053 69.5145 156.624 69.6705 156.039 69.6705C154.869 69.6705 154.089 68.8905 154.089 67.9155C154.089 66.8105 154.869 66.0305 157.794 66.0305V65.7055C157.794 65.1205 157.287 64.6005 156.559 64.6005C155.831 64.6005 155.532 64.9255 155.389 65.4455H154.349C154.492 64.4705 155.259 63.6905 156.559 63.6905C157.859 63.6905 158.769 64.6135 158.769 65.7055V69.6055H158.054ZM157.794 67.3955V66.9405C155.454 66.9405 155.064 67.3305 155.064 67.9805C155.064 68.3835 155.454 68.7605 156.039 68.7605C157.079 68.7605 157.794 68.0455 157.794 67.3955ZM163.38 69.6055V61.4155H166.175C167.592 61.4155 168.775 62.5855 168.775 63.9505C168.775 65.3155 167.592 66.4855 166.175 66.4855H164.42V69.6055H163.38ZM164.42 65.5755H166.175C167.02 65.5755 167.735 64.8605 167.735 63.9505C167.735 63.0405 167.02 62.3255 166.175 62.3255H164.42V65.5755ZM170.337 69.6055V61.4155H173.392C174.757 61.4155 175.862 62.5205 175.862 63.8205C175.862 64.7695 175.407 65.3415 174.952 65.6925C174.679 65.9005 174.38 66.0565 174.055 66.1605L176.057 69.6055H174.887L172.937 66.2255H171.377V69.6055H170.337ZM171.377 65.3155H173.392C174.159 65.3155 174.822 64.6525 174.822 63.8205C174.822 62.9885 174.159 62.3255 173.392 62.3255H171.377V65.3155ZM180.798 62.2605C179.368 62.2605 178.003 63.6255 178.003 65.5105C178.003 67.3955 179.368 68.7605 180.798 68.7605C182.228 68.7605 183.593 67.3955 183.593 65.5105C183.593 63.6255 182.228 62.2605 180.798 62.2605ZM180.798 61.3505C182.813 61.3505 184.633 63.1705 184.633 65.5105C184.633 67.8505 182.813 69.6705 180.798 69.6705C178.783 69.6705 176.963 67.8505 176.963 65.5105C176.963 63.1705 178.783 61.3505 180.798 61.3505ZM187.17 68.6955H188.405C189.913 68.6955 191.265 67.3305 191.265 65.5105C191.265 63.6905 189.913 62.3255 188.405 62.3255H187.17V68.6955ZM186.13 69.6055V61.4155H188.405C190.55 61.4155 192.305 63.1705 192.305 65.5105C192.305 67.8505 190.55 69.6055 188.405 69.6055H186.13ZM69.1182 82.6055L72.2382 74.4155H73.1482L76.2682 82.6055H75.1632L74.3832 80.5905H71.0032L70.2232 82.6055H69.1182ZM71.3282 79.6805H74.0582L72.6932 76.1055L71.3282 79.6805ZM81.0106 80.5255H81.9856C81.7126 81.7085 80.7506 82.6705 79.4506 82.6705C77.9426 82.6705 76.7206 81.4355 76.7206 79.6805C76.7206 77.9255 77.9426 76.6905 79.4506 76.6905C80.7506 76.6905 81.7126 77.6525 81.9856 78.8355H81.0106C80.8026 78.1855 80.2176 77.6005 79.4506 77.6005C78.5406 77.6005 77.6956 78.4325 77.6956 79.6805C77.6956 80.9285 78.5406 81.7605 79.4506 81.7605C80.2176 81.7605 80.8026 81.1755 81.0106 80.5255ZM87.1171 80.5255H88.0921C87.8191 81.7085 86.8571 82.6705 85.5571 82.6705C84.0491 82.6705 82.8271 81.4355 82.8271 79.6805C82.8271 77.9255 84.0491 76.6905 85.5571 76.6905C86.8571 76.6905 87.8191 77.6525 88.0921 78.8355H87.1171C86.9091 78.1855 86.3241 77.6005 85.5571 77.6005C84.6471 77.6005 83.8021 78.4325 83.8021 79.6805C83.8021 80.9285 84.6471 81.7605 85.5571 81.7605C86.3241 81.7605 86.9091 81.1755 87.1171 80.5255ZM91.6635 81.7605C92.5605 81.7605 93.4185 80.9285 93.4185 79.6805C93.4185 78.4325 92.5605 77.6005 91.6635 77.6005C90.7535 77.6005 89.9085 78.4325 89.9085 79.6805C89.9085 80.9285 90.7535 81.7605 91.6635 81.7605ZM91.6635 82.6705C90.1555 82.6705 88.9335 81.4355 88.9335 79.6805C88.9335 77.9255 90.1555 76.6905 91.6635 76.6905C93.1715 76.6905 94.3935 77.9255 94.3935 79.6805C94.3935 81.4355 93.1715 82.6705 91.6635 82.6705ZM95.6966 80.1355V76.7555H96.6716V80.1355C96.6716 81.1105 97.3086 81.7605 98.1016 81.7605C99.0246 81.7605 99.6616 81.1235 99.6616 80.1355V76.7555H100.637V82.6055H99.9216L99.6616 81.9555C99.5446 82.0985 99.4016 82.2155 99.2326 82.3195C98.9336 82.5145 98.5306 82.6705 97.9716 82.6705C96.7366 82.6705 95.6966 81.6305 95.6966 80.1355ZM102.324 82.6055V76.7555H103.039L103.299 77.4055C103.416 77.2755 103.559 77.1585 103.728 77.0545C104.027 76.8595 104.43 76.6905 104.989 76.6905C106.224 76.6905 107.264 77.7305 107.264 79.2255V82.6055H106.289V79.2255C106.289 78.2505 105.626 77.6005 104.859 77.6005C103.936 77.6005 103.299 78.2375 103.299 79.2255V82.6055H102.324ZM109.342 80.7205V77.6655H108.302V76.7555H108.757C109.238 76.7555 109.472 76.5215 109.472 76.0405V75.1955H110.317V76.7555H111.617V77.6655H110.317V80.7205C110.317 81.3835 110.707 81.7605 111.292 81.7605C111.383 81.7605 111.461 81.7475 111.526 81.7345L111.617 81.6955V82.5405C111.578 82.5665 111.526 82.5925 111.474 82.6055C111.357 82.6445 111.214 82.6705 111.032 82.6705C110.135 82.6705 109.342 81.8905 109.342 80.7205ZM113.051 82.6055V76.7555H114.026V82.6055H113.051ZM112.921 75.1045C112.921 74.7405 113.181 74.4805 113.532 74.4805C113.896 74.4805 114.156 74.7405 114.156 75.1045C114.156 75.4555 113.896 75.7155 113.532 75.7155C113.181 75.7155 112.921 75.4555 112.921 75.1045ZM115.717 82.6055V76.7555H116.432L116.692 77.4055C116.809 77.2755 116.952 77.1585 117.121 77.0545C117.42 76.8595 117.823 76.6905 118.382 76.6905C119.617 76.6905 120.657 77.7305 120.657 79.2255V82.6055H119.682V79.2255C119.682 78.2505 119.019 77.6005 118.252 77.6005C117.329 77.6005 116.692 78.2375 116.692 79.2255V82.6055H115.717ZM122.216 83.0605H123.191C123.386 83.5155 123.776 83.9055 124.621 83.9055C125.609 83.9055 126.246 83.2555 126.246 82.4105V81.6305C126.129 81.7735 125.999 81.9035 125.843 82.0205C125.57 82.2155 125.141 82.4105 124.556 82.4105C123.061 82.4105 121.891 81.2535 121.891 79.5505C121.891 77.8475 123.061 76.6905 124.556 76.6905C125.141 76.6905 125.57 76.8595 125.843 77.0545C125.999 77.1585 126.129 77.2755 126.246 77.4055L126.506 76.7555H127.221V82.4105C127.221 83.7755 126.181 84.8155 124.621 84.8155C123.282 84.8155 122.463 84.0355 122.216 83.0605ZM124.621 81.5005C125.596 81.5005 126.376 80.7205 126.376 79.5505C126.376 78.3805 125.596 77.6005 124.621 77.6005C123.646 77.6005 122.866 78.3805 122.866 79.5505C122.866 80.7205 123.646 81.5005 124.621 81.5005Z" fill="white"/>
<rect x="69.4437" y="93.6596" width="31.2016" height="13.6899" rx="0.759695" stroke="#6281BC" stroke-width="0.651167"/>
<path d="M75.1793 103.505V99.1095H75.9119V103.505H75.1793ZM75.0816 97.869C75.0816 97.5955 75.277 97.4002 75.5407 97.4002C75.8142 97.4002 76.0096 97.5955 76.0096 97.869C76.0096 98.1328 75.8142 98.3281 75.5407 98.3281C75.277 98.3281 75.0816 98.1328 75.0816 97.869ZM77.1824 103.505V99.1095H77.7196L77.915 99.5979C78.0029 99.5002 78.1103 99.4123 78.2373 99.3342C78.462 99.1876 78.7648 99.0607 79.1848 99.0607C80.1127 99.0607 80.8941 99.8421 80.8941 100.965V103.505H80.1615V100.965C80.1615 100.233 79.6634 99.7444 79.0871 99.7444C78.3936 99.7444 77.915 100.223 77.915 100.965V103.505H77.1824ZM84.165 102.87C84.8976 102.87 85.5325 102.245 85.5325 101.307C85.5325 100.37 84.8976 99.7444 84.165 99.7444C83.4325 99.7444 82.7976 100.37 82.7976 101.307C82.7976 102.245 83.4325 102.87 84.165 102.87ZM82.1627 103.505V97.3514H82.8953V99.6467C82.9832 99.5393 83.1004 99.4416 83.2274 99.3537C83.452 99.2072 83.7743 99.0607 84.2139 99.0607C85.3469 99.0607 86.2651 99.9886 86.2651 101.307C86.2651 102.626 85.3469 103.554 84.2139 103.554C83.7743 103.554 83.452 103.437 83.2274 103.29C83.1004 103.212 82.9832 103.124 82.8953 103.017L82.6999 103.505H82.1627ZM89.0038 102.87C89.6777 102.87 90.3224 102.245 90.3224 101.307C90.3224 100.37 89.6777 99.7444 89.0038 99.7444C88.3201 99.7444 87.6852 100.37 87.6852 101.307C87.6852 102.245 88.3201 102.87 89.0038 102.87ZM89.0038 103.554C87.8707 103.554 86.9526 102.626 86.9526 101.307C86.9526 99.9886 87.8707 99.0607 89.0038 99.0607C90.1368 99.0607 91.055 99.9886 91.055 101.307C91.055 102.626 90.1368 103.554 89.0038 103.554ZM91.3037 103.505L92.8665 101.258L91.4014 99.1095H92.2316L93.3061 100.721L94.3805 99.1095H95.2107L93.7456 101.258L95.3084 103.505H94.4782L93.3061 101.796L92.134 103.505H91.3037Z" fill="#6281BC"/>
<path d="M96.965 136.979V130.049H99.55C100.87 130.049 101.915 131.083 101.915 132.359C101.915 133.635 100.87 134.669 99.55 134.669H98.285V136.979H96.965ZM98.285 133.404H99.55C100.1 133.404 100.595 132.909 100.595 132.359C100.595 131.809 100.1 131.314 99.55 131.314H98.285V133.404ZM102.959 136.979V131.919H103.894L104.114 132.469C104.202 132.359 104.312 132.26 104.433 132.172C104.642 132.007 104.939 131.864 105.324 131.864C105.445 131.864 105.522 131.886 105.599 131.897L105.709 131.919V133.239L105.588 133.217C105.511 133.206 105.401 133.184 105.269 133.184C104.653 133.184 104.224 133.624 104.224 134.284V136.979H102.959ZM109.781 136.979L109.561 136.484C109.44 136.583 109.319 136.682 109.176 136.759C108.923 136.902 108.571 137.034 108.131 137.034C107.031 137.034 106.426 136.44 106.426 135.604C106.426 134.603 107.141 133.899 109.451 133.899C109.451 133.338 109.121 133.019 108.626 133.019C108.285 133.019 108.109 133.162 107.988 133.294C107.922 133.371 107.878 133.47 107.856 133.569H106.591C106.712 132.645 107.471 131.864 108.736 131.864C109.88 131.864 110.716 132.7 110.716 133.844V136.979H109.781ZM109.451 134.999V134.779C107.966 134.779 107.691 135.054 107.691 135.494C107.691 135.769 107.966 136.044 108.351 136.044C109.011 136.044 109.451 135.615 109.451 134.999ZM112.255 135.219V133.074H111.485V132.029H111.815C112.222 132.029 112.42 131.831 112.42 131.424V130.709H113.52V131.919H114.62V133.074H113.52V135.164C113.52 135.604 113.795 135.879 114.235 135.879C114.356 135.879 114.422 135.868 114.477 135.857L114.565 135.824V136.924C114.51 136.946 114.455 136.968 114.389 136.979C114.268 137.012 114.125 137.034 113.96 137.034C112.959 137.034 112.255 136.319 112.255 135.219ZM115.772 136.979V131.919H117.037V136.979H115.772ZM116.432 131.314C116.047 131.314 115.717 130.984 115.717 130.599C115.717 130.214 116.047 129.884 116.432 129.884C116.817 129.884 117.147 130.214 117.147 130.599C117.147 130.984 116.817 131.314 116.432 131.314ZM118.352 136.979V131.919H119.287L119.507 132.414C119.606 132.315 119.727 132.216 119.848 132.139C120.057 132.007 120.354 131.864 120.717 131.864C121.234 131.864 121.597 132.029 121.828 132.194C121.96 132.293 122.07 132.403 122.147 132.524C122.268 132.403 122.4 132.293 122.554 132.194C122.818 132.029 123.192 131.864 123.632 131.864C124.732 131.864 125.447 132.579 125.447 133.954V136.979H124.182V134.064C124.182 133.448 123.797 133.074 123.357 133.074C122.917 133.074 122.532 133.448 122.532 134.064V136.979H121.267V134.064C121.267 133.448 120.882 133.074 120.442 133.074C120.002 133.074 119.617 133.448 119.617 134.064V136.979H118.352ZM126.712 136.979V131.919H127.977V136.979H126.712ZM127.372 131.314C126.987 131.314 126.657 130.984 126.657 130.599C126.657 130.214 126.987 129.884 127.372 129.884C127.757 129.884 128.087 130.214 128.087 130.599C128.087 130.984 127.757 131.314 127.372 131.314Z" fill="white"/>
<path d="M95.1636 7.60156H184.789V11.9312C184.789 16.9129 180.75 20.9514 175.769 20.9514H104.184C99.202 20.9514 95.1636 16.9129 95.1636 11.9312V7.60156Z" fill="#1F2D47"/>
<g filter="url(#filter0_d_2224_1112)">
<ellipse cx="80.3192" cy="132.752" rx="11.2015" ry="11.2015" fill="white"/>
<ellipse cx="80.3192" cy="132.752" rx="11.2015" ry="11.2015" stroke="#1F242B" stroke-width="0.365169"/>
</g>
<g clip-path="url(#clip2_2224_1112)">
<path d="M79.3672 131.508L82.0044 130.005C82.1013 129.947 82.0312 129.799 81.9244 129.836L78.9747 131.113L77.7951 129.935C77.6924 129.833 77.7543 129.657 77.8985 129.641L82.9589 129.085C83.1982 129.059 83.3671 129.314 83.2493 129.524L81.2945 133.006C81.2172 133.144 81.0294 133.17 80.9176 133.058L79.894 132.034C79.894 132.034 78.6014 132.755 78.1378 133.047C77.7755 133.275 77.3195 133.586 77.022 133.791C75.7423 134.671 75.0918 135.223 75.0918 136.659V138.75C75.0918 139.188 75.6302 139.397 75.9255 139.074L78.3698 136.401C78.6949 136.046 79.1546 135.843 79.6366 135.843H80.9787C82.0417 135.843 82.9718 135.645 83.7689 135.25C84.5663 134.855 85.1862 134.292 85.6291 133.56C86.0721 132.829 86.2933 131.964 86.2933 130.965C86.2933 129.965 86.0774 129.109 85.646 128.369C85.2146 127.628 84.6105 127.054 83.8338 126.645C83.0568 126.236 82.1505 126.031 81.1149 126.031H79.039C76.859 126.031 75.0918 127.798 75.0918 129.978V131.817C75.0918 132.404 75.4139 132.904 75.962 132.935C76.2438 132.952 76.5111 132.908 76.8175 132.787C77.4808 132.524 79.477 131.447 79.477 131.447" fill="url(#paint0_linear_2224_1112)"/>
<path opacity="0.5" d="M75.0923 137.339V138.75C75.0923 139.187 75.6306 139.396 75.926 139.073L78.3703 136.401C78.6169 136.131 78.9411 135.95 79.2937 135.878C79.2482 135.877 79.2025 135.876 79.1566 135.876C77.6122 135.876 76.1959 136.425 75.0925 137.339L75.0923 137.339Z" fill="url(#paint1_linear_2224_1112)"/>
<path opacity="0.5" d="M85.646 128.367C85.2146 127.627 84.6105 127.052 83.8338 126.644C83.8241 126.639 83.8141 126.634 83.8044 126.629C83.8077 126.713 83.8099 126.798 83.8099 126.884C83.8099 127.786 83.6223 128.643 83.2848 129.421C83.2796 129.455 83.2682 129.49 83.2494 129.523L83.1905 129.628L82.7802 130.359L81.2945 133.005C81.2172 133.143 81.0294 133.169 80.9176 133.057L80.3935 132.533L79.8941 132.034C79.8941 132.034 78.6016 132.754 78.138 133.046C78.0386 133.109 77.932 133.178 77.8237 133.249C77.5374 133.437 77.238 133.642 77.0221 133.79C75.7423 134.67 75.0918 135.222 75.0918 136.658V137.338C76.1953 136.424 77.6115 135.875 79.156 135.875C79.2018 135.875 79.2474 135.876 79.293 135.877C79.4052 135.854 79.5201 135.842 79.6364 135.842H80.9786C82.0415 135.842 82.9717 135.644 83.7687 135.249C84.5661 134.854 85.186 134.291 85.629 133.559C86.0719 132.828 86.2931 131.963 86.2931 130.963C86.2931 129.964 86.0773 129.108 85.6459 128.367L85.646 128.367Z" fill="url(#paint2_linear_2224_1112)"/>
<path d="M76.8173 132.785C77.4005 132.555 79.014 131.695 79.3952 131.49L81.5423 130.267L82.0043 130.004C82.1012 129.946 82.0311 129.797 81.9243 129.835L81.2478 130.128L78.9747 131.112L77.7951 129.934C77.7221 129.862 77.7323 129.752 77.7961 129.688C76.7321 130.43 75.9047 131.488 75.4502 132.725C75.5864 132.846 75.7586 132.923 75.9618 132.934C76.2436 132.951 76.5108 132.907 76.8173 132.786V132.785Z" fill="url(#paint3_radial_2224_1112)"/>
<path opacity="0.5" d="M83.8044 126.63C83.0339 126.231 82.1376 126.031 81.1149 126.031H79.039C76.859 126.031 75.0918 127.798 75.0918 129.978V131.817C75.0918 132.187 75.2193 132.521 75.4504 132.726C75.9049 131.489 76.7323 130.431 77.7963 129.689C77.8102 129.676 77.8266 129.664 77.8452 129.656C77.8614 129.648 77.8793 129.643 77.8989 129.641L78.3271 129.594L82.9593 129.085C83.1606 129.063 83.3119 129.24 83.2849 129.422C83.3611 129.247 83.4293 129.067 83.4898 128.885C83.6974 128.255 83.8101 127.583 83.8101 126.885C83.8101 126.799 83.8079 126.714 83.8045 126.63H83.8044Z" fill="url(#paint4_radial_2224_1112)"/>
</g>
<rect x="69.1177" y="151.938" width="142.172" height="104.047" rx="4.07328" fill="#1F2D47"/>
<path d="M82.4161 173.092H83.2961C83.4171 173.752 83.9011 174.247 84.7811 174.247C85.6611 174.247 86.2111 173.697 86.2111 173.037C86.2111 172.377 85.6611 171.827 84.7811 171.827H84.2751V171.057H84.7261C85.5071 171.057 85.9911 170.562 85.9911 169.902C85.9911 169.242 85.5071 168.747 84.7261 168.747C83.9451 168.747 83.4611 169.242 83.4061 169.902H82.5261C82.6471 168.802 83.4501 167.977 84.7261 167.977C85.9911 167.977 86.8711 168.857 86.8711 169.902C86.8711 170.397 86.6291 170.76 86.3981 170.991C86.2661 171.123 86.1121 171.233 85.9361 171.332C86.1451 171.431 86.3431 171.552 86.5081 171.706C86.8051 171.97 87.0911 172.41 87.0911 173.037C87.0911 174.082 86.1561 175.017 84.7811 175.017C83.3951 175.017 82.5921 174.192 82.4161 173.092ZM91.3837 174.962L91.1637 174.412C91.0537 174.533 90.9327 174.632 90.7897 174.72C90.5367 174.885 90.1737 175.017 89.6787 175.017C88.6887 175.017 88.0287 174.357 88.0287 173.532C88.0287 172.597 88.6887 171.937 91.1637 171.937V171.662C91.1637 171.167 90.7347 170.727 90.1187 170.727C89.5027 170.727 89.2497 171.002 89.1287 171.442H88.2487C88.3697 170.617 89.0187 169.957 90.1187 169.957C91.2187 169.957 91.9887 170.738 91.9887 171.662V174.962H91.3837ZM91.1637 173.092V172.707C89.1837 172.707 88.8537 173.037 88.8537 173.587C88.8537 173.928 89.1837 174.247 89.6787 174.247C90.5587 174.247 91.1637 173.642 91.1637 173.092ZM95.7253 174.962V168.032H98.3103C99.6303 168.032 100.675 169.066 100.675 170.342C100.675 171.618 99.6303 172.652 98.3103 172.652H97.0453V174.962H95.7253ZM97.0453 171.387H98.3103C98.8603 171.387 99.3553 170.892 99.3553 170.342C99.3553 169.792 98.8603 169.297 98.3103 169.297H97.0453V171.387ZM101.719 174.962V168.032H104.469C105.789 168.032 106.779 169.022 106.779 170.177C106.779 170.958 106.416 171.453 106.031 171.772C105.811 171.959 105.569 172.113 105.294 172.212L106.944 174.962H105.459L104.029 172.432H103.039V174.962H101.719ZM103.039 171.167H104.469C105.03 171.167 105.459 170.727 105.459 170.232C105.459 169.737 105.03 169.297 104.469 169.297H103.039V171.167ZM110.845 169.242C109.745 169.242 108.81 170.177 108.81 171.497C108.81 172.817 109.745 173.752 110.845 173.752C111.945 173.752 112.88 172.817 112.88 171.497C112.88 170.177 111.945 169.242 110.845 169.242ZM110.845 167.977C112.66 167.977 114.2 169.517 114.2 171.497C114.2 173.477 112.66 175.017 110.845 175.017C109.03 175.017 107.49 173.477 107.49 171.497C107.49 169.517 109.03 167.977 110.845 167.977ZM116.564 173.697H117.444C118.544 173.697 119.534 172.696 119.534 171.497C119.534 170.298 118.544 169.297 117.444 169.297H116.564V173.697ZM115.244 174.962V168.032H117.444C119.259 168.032 120.854 169.627 120.854 171.497C120.854 173.367 119.259 174.962 117.444 174.962H115.244ZM123.605 174.962L126.19 168.032H127.4L129.985 174.962H128.61L128.115 173.532H125.475L124.98 174.962H123.605ZM125.915 172.322H127.675L126.795 169.792L125.915 172.322ZM133.893 173.092H135.158C134.927 174.093 134.003 175.017 132.793 175.017C131.429 175.017 130.263 173.862 130.263 172.432C130.263 171.002 131.429 169.847 132.793 169.847C134.003 169.847 134.927 170.771 135.158 171.772H133.893C133.838 171.64 133.75 171.519 133.651 171.42C133.475 171.244 133.2 171.057 132.793 171.057C132.078 171.057 131.528 171.596 131.528 172.432C131.528 173.268 132.078 173.807 132.793 173.807C133.2 173.807 133.475 173.631 133.651 173.455C133.75 173.356 133.838 173.235 133.893 173.092ZM139.393 173.092H140.658C140.427 174.093 139.503 175.017 138.293 175.017C136.929 175.017 135.763 173.862 135.763 172.432C135.763 171.002 136.929 169.847 138.293 169.847C139.503 169.847 140.427 170.771 140.658 171.772H139.393C139.338 171.64 139.25 171.519 139.151 171.42C138.975 171.244 138.7 171.057 138.293 171.057C137.578 171.057 137.028 171.596 137.028 172.432C137.028 173.268 137.578 173.807 138.293 173.807C138.7 173.807 138.975 173.631 139.151 173.455C139.25 173.356 139.338 173.235 139.393 173.092ZM143.793 171.057C143.078 171.057 142.528 171.596 142.528 172.432C142.528 173.268 143.078 173.807 143.793 173.807C144.508 173.807 145.058 173.268 145.058 172.432C145.058 171.596 144.508 171.057 143.793 171.057ZM143.793 169.847C145.157 169.847 146.323 171.002 146.323 172.432C146.323 173.862 145.157 175.017 143.793 175.017C142.429 175.017 141.263 173.862 141.263 172.432C141.263 171.002 142.429 169.847 143.793 169.847ZM147.253 172.872V169.902H148.518V172.707C148.518 173.367 148.947 173.807 149.563 173.807C150.179 173.807 150.608 173.367 150.608 172.707V169.902H151.873V174.962H150.938L150.718 174.467C150.597 174.566 150.454 174.665 150.311 174.742C150.058 174.885 149.695 175.017 149.288 175.017C148.089 175.017 147.253 174.192 147.253 172.872ZM153.086 174.962V169.902H154.021L154.241 170.397C154.362 170.298 154.505 170.199 154.648 170.122C154.901 169.99 155.242 169.847 155.671 169.847C156.87 169.847 157.706 170.672 157.706 171.992V174.962H156.441V172.157C156.441 171.497 156.012 171.057 155.396 171.057C154.78 171.057 154.351 171.497 154.351 172.157V174.962H153.086ZM159.25 173.202V171.057H158.48V170.012H158.81C159.217 170.012 159.415 169.814 159.415 169.407V168.692H160.515V169.902H161.615V171.057H160.515V173.147C160.515 173.587 160.79 173.862 161.23 173.862C161.351 173.862 161.417 173.851 161.472 173.84L161.56 173.807V174.907C161.505 174.929 161.45 174.951 161.384 174.962C161.263 174.995 161.12 175.017 160.955 175.017C159.954 175.017 159.25 174.302 159.25 173.202ZM162.657 174.962V169.902H163.922V174.962H162.657ZM163.317 169.297C162.932 169.297 162.602 168.967 162.602 168.582C162.602 168.197 162.932 167.867 163.317 167.867C163.702 167.867 164.032 168.197 164.032 168.582C164.032 168.967 163.702 169.297 163.317 169.297ZM165.128 174.962V169.902H166.063L166.283 170.397C166.404 170.298 166.547 170.199 166.69 170.122C166.943 169.99 167.284 169.847 167.713 169.847C168.912 169.847 169.748 170.672 169.748 171.992V174.962H168.483V172.157C168.483 171.497 168.054 171.057 167.438 171.057C166.822 171.057 166.393 171.497 166.393 172.157V174.962H165.128ZM170.852 175.182H172.117C172.172 175.281 172.238 175.358 172.326 175.435C172.491 175.556 172.722 175.677 173.107 175.677C173.822 175.677 174.262 175.248 174.262 174.632V174.247C174.163 174.346 174.042 174.445 173.91 174.522C173.679 174.665 173.349 174.797 172.942 174.797C171.666 174.797 170.632 173.752 170.632 172.322C170.632 170.892 171.666 169.847 172.942 169.847C173.382 169.847 173.734 169.99 173.987 170.122C174.13 170.199 174.251 170.298 174.372 170.397L174.592 169.902H175.527V174.632C175.527 175.952 174.647 176.832 173.107 176.832C172.172 176.832 171.622 176.436 171.281 176.007C171.094 175.765 170.951 175.49 170.852 175.182ZM173.107 173.587C173.756 173.587 174.317 173.026 174.317 172.322C174.317 171.618 173.756 171.057 173.107 171.057C172.436 171.057 171.897 171.618 171.897 172.322C171.897 173.026 172.436 173.587 173.107 173.587ZM82.8561 187.962V183.012H87.0361V187.962H86.2111V183.782H83.6811V187.962H82.8561ZM90.4435 187.247C91.2025 187.247 91.9285 186.543 91.9285 185.487C91.9285 184.431 91.2025 183.727 90.4435 183.727C89.6735 183.727 88.9585 184.431 88.9585 185.487C88.9585 186.543 89.6735 187.247 90.4435 187.247ZM90.4435 188.017C89.1675 188.017 88.1335 186.972 88.1335 185.487C88.1335 184.002 89.1675 182.957 90.4435 182.957C91.7195 182.957 92.7535 184.002 92.7535 185.487C92.7535 186.972 91.7195 188.017 90.4435 188.017ZM92.9787 187.962V187.247H93.0887C93.6277 187.247 93.9137 186.95 93.9687 186.367L94.2437 183.012H97.5987V187.962H96.7737V183.727H94.9587L94.7937 186.367C94.7167 187.423 94.1447 188.017 93.3087 188.017C93.2207 188.017 93.1547 188.006 93.0777 187.995L92.9787 187.962ZM99.2538 189.722V189.062C99.7488 189.062 99.9578 188.842 100.134 188.402L100.354 187.852L98.4288 183.012H99.3088L100.794 186.807L102.279 183.012H103.159L101.014 188.402C100.618 189.403 100.233 189.777 99.5838 189.777C99.4958 189.777 99.4298 189.766 99.3528 189.755L99.2538 189.722ZM107.011 187.962V186.147C106.89 186.213 106.769 186.268 106.626 186.312C106.373 186.4 106.021 186.477 105.581 186.477C104.58 186.477 103.876 185.762 103.876 184.662V183.012H104.701V184.662C104.701 185.278 105.141 185.707 105.801 185.707C106.142 185.707 106.428 185.619 106.648 185.52C106.78 185.465 106.901 185.399 107.011 185.322V183.012H107.836V187.962H107.011ZM109.271 187.962V183.012H110.096V186.697L112.626 183.012H113.451V187.962H112.626V184.277L110.096 187.962H109.271ZM114.164 187.962L115.924 185.432L114.274 183.012H115.209L116.419 184.827L117.629 183.012H118.564L116.914 185.432L118.674 187.962H117.739L116.419 186.037L115.099 187.962H114.164ZM120.38 187.962V183.782H118.84V183.012H122.745V183.782H121.205V187.962H120.38ZM126.76 186.642H127.64C127.31 187.357 126.65 188.017 125.55 188.017C124.23 188.017 123.185 186.972 123.185 185.487C123.185 184.002 124.296 182.957 125.495 182.957C126.705 182.957 127.75 183.936 127.75 185.432C127.75 185.575 127.728 185.674 127.717 185.751L127.695 185.872H124.065C124.12 186.587 124.769 187.247 125.55 187.247C126.199 187.247 126.595 186.873 126.76 186.642ZM124.065 185.157H126.925C126.804 184.332 126.21 183.727 125.495 183.727C124.78 183.727 124.186 184.332 124.065 185.157ZM134.792 184.167V186.807C134.869 186.906 134.957 186.983 135.056 187.06C135.232 187.181 135.474 187.302 135.782 187.302C136.497 187.302 137.047 186.752 137.047 185.487C137.047 184.222 136.497 183.672 135.782 183.672C135.474 183.672 135.232 183.804 135.056 183.925C134.957 184.002 134.869 184.079 134.792 184.167ZM133.967 189.722V187.632C133.879 187.709 133.78 187.775 133.67 187.83C133.483 187.929 133.219 188.017 132.922 188.017C131.822 188.017 130.887 187.082 130.887 185.487C130.887 183.892 131.822 182.957 132.922 182.957C133.219 182.957 133.483 183.056 133.67 183.155C133.78 183.21 133.879 183.276 133.967 183.342V181.032H134.792V183.342C134.88 183.276 134.979 183.21 135.089 183.155C135.276 183.056 135.529 182.957 135.837 182.957C136.937 182.957 137.872 183.892 137.872 185.487C137.872 187.082 136.937 188.017 135.837 188.017C135.529 188.017 135.276 187.929 135.089 187.83C134.979 187.775 134.88 187.709 134.792 187.632V189.722H133.967ZM133.967 186.807V184.167C133.89 184.079 133.802 184.002 133.703 183.925C133.527 183.804 133.274 183.672 132.977 183.672C132.262 183.672 131.712 184.222 131.712 185.487C131.712 186.752 132.262 187.302 132.977 187.302C133.274 187.302 133.527 187.181 133.703 187.06C133.802 186.983 133.89 186.906 133.967 186.807ZM142.108 187.962L141.888 187.412C141.778 187.533 141.657 187.632 141.514 187.72C141.261 187.885 140.898 188.017 140.403 188.017C139.413 188.017 138.753 187.357 138.753 186.532C138.753 185.597 139.413 184.937 141.888 184.937V184.662C141.888 184.167 141.459 183.727 140.843 183.727C140.227 183.727 139.974 184.002 139.853 184.442H138.973C139.094 183.617 139.743 182.957 140.843 182.957C141.943 182.957 142.713 183.738 142.713 184.662V187.962H142.108ZM141.888 186.092V185.707C139.908 185.707 139.578 186.037 139.578 186.587C139.578 186.928 139.908 187.247 140.403 187.247C141.283 187.247 141.888 186.642 141.888 186.092ZM144.087 187.962V183.012H144.912V186.697L147.442 183.012H148.267V187.962H147.442V184.277L144.912 187.962H144.087ZM144.857 181.032H145.517C145.572 181.417 145.836 181.692 146.177 181.692C146.518 181.692 146.782 181.417 146.837 181.032H147.497C147.376 181.692 146.892 182.242 146.177 182.242C145.462 182.242 144.978 181.692 144.857 181.032ZM148.924 187.962V187.247H149.034C149.573 187.247 149.859 186.95 149.914 186.367L150.189 183.012H153.544V187.962H152.719V183.727H150.904L150.739 186.367C150.662 187.423 150.09 188.017 149.254 188.017C149.166 188.017 149.1 188.006 149.023 187.995L148.924 187.962ZM160.972 187.962L160.752 187.467C160.631 187.566 160.51 187.665 160.367 187.742C160.114 187.885 159.762 188.017 159.322 188.017C158.057 188.017 156.957 186.928 156.957 185.432C156.957 183.936 158.057 182.847 159.322 182.847C159.729 182.847 160.059 182.979 160.29 183.1C160.422 183.177 160.543 183.254 160.642 183.342V181.032H161.907V187.962H160.972ZM159.487 186.807C160.202 186.807 160.752 186.268 160.752 185.432C160.752 184.596 160.202 184.057 159.487 184.057C158.772 184.057 158.222 184.596 158.222 185.432C158.222 186.268 158.772 186.807 159.487 186.807ZM165.374 184.057C164.659 184.057 164.109 184.596 164.109 185.432C164.109 186.268 164.659 186.807 165.374 186.807C166.089 186.807 166.639 186.268 166.639 185.432C166.639 184.596 166.089 184.057 165.374 184.057ZM165.374 182.847C166.738 182.847 167.904 184.002 167.904 185.432C167.904 186.862 166.738 188.017 165.374 188.017C164.01 188.017 162.844 186.862 162.844 185.432C162.844 184.002 164.01 182.847 165.374 182.847ZM172.189 186.092H173.454C173.223 187.093 172.299 188.017 171.089 188.017C169.725 188.017 168.559 186.862 168.559 185.432C168.559 184.002 169.725 182.847 171.089 182.847C172.299 182.847 173.223 183.771 173.454 184.772H172.189C172.134 184.64 172.046 184.519 171.947 184.42C171.771 184.244 171.496 184.057 171.089 184.057C170.374 184.057 169.824 184.596 169.824 185.432C169.824 186.268 170.374 186.807 171.089 186.807C171.496 186.807 171.771 186.631 171.947 186.455C172.046 186.356 172.134 186.235 172.189 186.092ZM174.114 187.302C174.114 186.917 174.444 186.587 174.829 186.587C175.214 186.587 175.544 186.917 175.544 187.302C175.544 187.687 175.214 188.017 174.829 188.017C174.444 188.017 174.114 187.687 174.114 187.302ZM175.491 189.667V188.567L175.568 188.6C175.645 188.611 175.722 188.622 175.821 188.622C176.261 188.622 176.536 188.347 176.536 187.907V182.902H177.801V187.962C177.801 189.062 177.097 189.777 176.096 189.777C175.931 189.777 175.788 189.755 175.667 189.722C175.601 189.711 175.546 189.689 175.491 189.667ZM177.196 182.297C176.811 182.297 176.481 181.967 176.481 181.582C176.481 181.197 176.811 180.867 177.196 180.867C177.581 180.867 177.911 181.197 177.911 181.582C177.911 181.967 177.581 182.297 177.196 182.297ZM179.007 189.722V182.902H179.942L180.162 183.397C180.272 183.298 180.404 183.199 180.547 183.122C180.8 182.99 181.152 182.847 181.592 182.847C182.857 182.847 183.957 183.936 183.957 185.432C183.957 186.928 182.857 188.017 181.592 188.017C181.163 188.017 180.855 187.896 180.624 187.775C180.492 187.698 180.371 187.621 180.272 187.522V189.722H179.007ZM181.427 186.807C182.142 186.807 182.692 186.268 182.692 185.432C182.692 184.596 182.142 184.057 181.427 184.057C180.712 184.057 180.162 184.596 180.162 185.432C180.162 186.268 180.712 186.807 181.427 186.807ZM184.839 188.182H186.104C186.159 188.281 186.225 188.358 186.313 188.435C186.478 188.556 186.709 188.677 187.094 188.677C187.809 188.677 188.249 188.248 188.249 187.632V187.247C188.15 187.346 188.029 187.445 187.897 187.522C187.666 187.665 187.336 187.797 186.929 187.797C185.653 187.797 184.619 186.752 184.619 185.322C184.619 183.892 185.653 182.847 186.929 182.847C187.369 182.847 187.721 182.99 187.974 183.122C188.117 183.199 188.238 183.298 188.359 183.397L188.579 182.902H189.514V187.632C189.514 188.952 188.634 189.832 187.094 189.832C186.159 189.832 185.609 189.436 185.268 189.007C185.081 188.765 184.938 188.49 184.839 188.182ZM187.094 186.587C187.743 186.587 188.304 186.026 188.304 185.322C188.304 184.618 187.743 184.057 187.094 184.057C186.423 184.057 185.884 184.618 185.884 185.322C185.884 186.026 186.423 186.587 187.094 186.587ZM190.727 189.007L190.617 188.842C190.694 188.765 190.76 188.688 190.815 188.611C190.914 188.468 191.024 188.27 191.057 188.017C190.716 188.017 190.507 187.808 190.507 187.467C190.507 187.126 190.716 186.917 191.057 186.917C191.398 186.917 191.607 187.126 191.607 187.467C191.607 187.995 191.387 188.38 191.167 188.633C191.035 188.776 190.892 188.908 190.727 189.007ZM82.8561 200.962V196.012H83.6811V199.697L86.2111 196.012H87.0361V200.962H86.2111V197.277L83.6811 200.962H82.8561ZM88.0235 199.477H88.8485C88.9035 199.917 89.2225 200.247 89.8385 200.247C90.3995 200.247 90.7185 199.917 90.7185 199.532C90.7185 199.147 90.3775 198.817 89.8385 198.817H89.3985V198.047H89.8385C90.2785 198.047 90.6085 197.772 90.6085 197.387C90.6085 197.002 90.2785 196.727 89.8385 196.727C89.2225 196.727 88.9585 197.057 88.9035 197.442H88.0785C88.1335 196.562 88.7385 195.957 89.8385 195.957C90.7735 195.957 91.4335 196.628 91.4335 197.387C91.4335 197.75 91.2905 198.003 91.1255 198.179C91.0375 198.278 90.9385 198.366 90.8285 198.432C90.9605 198.509 91.0815 198.597 91.1805 198.696C91.3565 198.872 91.5435 199.147 91.5435 199.532C91.5435 200.357 90.8835 201.017 89.8385 201.017C88.7385 201.017 88.0785 200.357 88.0235 199.477ZM92.696 200.962V196.012H96.876V200.962H96.051V196.782H93.521V200.962H92.696ZM100.558 200.247C101.383 200.247 102.098 199.543 102.098 198.487C102.098 197.431 101.383 196.727 100.558 196.727C99.7334 196.727 99.0184 197.431 99.0184 198.487C99.0184 199.543 99.7334 200.247 100.558 200.247ZM98.3034 202.722V196.012H98.9084L99.1284 196.562C99.2274 196.452 99.3594 196.353 99.5024 196.265C99.7554 196.1 100.118 195.957 100.613 195.957C101.889 195.957 102.923 197.002 102.923 198.487C102.923 199.972 101.889 201.017 100.613 201.017C100.118 201.017 99.7554 200.852 99.5024 200.687C99.3594 200.588 99.2274 200.478 99.1284 200.357V202.722H98.3034ZM107.153 200.962L106.933 200.412C106.823 200.533 106.702 200.632 106.559 200.72C106.306 200.885 105.943 201.017 105.448 201.017C104.458 201.017 103.798 200.357 103.798 199.532C103.798 198.597 104.458 197.937 106.933 197.937V197.662C106.933 197.167 106.504 196.727 105.888 196.727C105.272 196.727 105.019 197.002 104.898 197.442H104.018C104.139 196.617 104.788 195.957 105.888 195.957C106.988 195.957 107.758 196.738 107.758 197.662V200.962H107.153ZM106.933 199.092V198.707C104.953 198.707 104.623 199.037 104.623 199.587C104.623 199.928 104.953 200.247 105.448 200.247C106.328 200.247 106.933 199.642 106.933 199.092ZM110.014 200.962V196.782H108.474V196.012H112.379V196.782H110.839V200.962H110.014ZM116.394 199.642H117.274C116.944 200.357 116.284 201.017 115.184 201.017C113.864 201.017 112.819 199.972 112.819 198.487C112.819 197.002 113.93 195.957 115.129 195.957C116.339 195.957 117.384 196.936 117.384 198.432C117.384 198.575 117.362 198.674 117.351 198.751L117.329 198.872H113.699C113.754 199.587 114.403 200.247 115.184 200.247C115.833 200.247 116.229 199.873 116.394 199.642ZM113.699 198.157H116.559C116.438 197.332 115.844 196.727 115.129 196.727C114.414 196.727 113.82 197.332 113.699 198.157ZM118.488 200.962V196.012H119.313V198.047H121.843V196.012H122.668V200.962H121.843V198.817H119.313V200.962H118.488ZM128.439 200.247C129.198 200.247 129.924 199.543 129.924 198.487C129.924 197.431 129.198 196.727 128.439 196.727C127.669 196.727 126.954 197.431 126.954 198.487C126.954 199.543 127.669 200.247 128.439 200.247ZM128.439 201.017C127.163 201.017 126.129 199.972 126.129 198.487C126.129 197.002 127.163 195.957 128.439 195.957C129.715 195.957 130.749 197.002 130.749 198.487C130.749 199.972 129.715 201.017 128.439 201.017ZM132.734 200.962V196.782H131.194V196.012H135.099V196.782H133.559V200.962H132.734ZM137.625 202.282V199.697H138.01C138.131 199.642 138.252 199.554 138.351 199.455C138.527 199.279 138.725 198.982 138.78 198.542L139.33 194.032H143.675V199.697H144.445V202.282H143.125V200.962H138.945V202.282H137.625ZM139.495 199.697H142.355V195.297H140.43L140.045 198.542C139.99 198.982 139.847 199.279 139.726 199.455C139.649 199.554 139.572 199.642 139.495 199.697ZM147.467 197.057C146.752 197.057 146.202 197.596 146.202 198.432C146.202 199.268 146.752 199.807 147.467 199.807C148.182 199.807 148.732 199.268 148.732 198.432C148.732 197.596 148.182 197.057 147.467 197.057ZM147.467 195.847C148.831 195.847 149.997 197.002 149.997 198.432C149.997 199.862 148.831 201.017 147.467 201.017C146.103 201.017 144.937 199.862 144.937 198.432C144.937 197.002 146.103 195.847 147.467 195.847ZM155.052 193.812V195.022C152.72 195.077 152.148 195.682 151.972 196.837C152.071 196.716 152.203 196.606 152.346 196.507C152.599 196.342 152.962 196.177 153.457 196.177C154.722 196.177 155.712 197.112 155.712 198.597C155.712 199.961 154.667 201.017 153.237 201.017C151.796 201.017 150.707 199.917 150.707 197.937C150.707 195.077 151.862 193.933 155.052 193.812ZM153.237 199.807C153.886 199.807 154.447 199.268 154.447 198.597C154.447 197.948 153.886 197.387 153.237 197.387C152.566 197.387 152.027 197.948 152.027 198.597C152.027 199.268 152.566 199.807 153.237 199.807ZM156.642 202.722V195.902H157.577L157.797 196.397C157.907 196.298 158.039 196.199 158.182 196.122C158.435 195.99 158.787 195.847 159.227 195.847C160.492 195.847 161.592 196.936 161.592 198.432C161.592 199.928 160.492 201.017 159.227 201.017C158.798 201.017 158.49 200.896 158.259 200.775C158.127 200.698 158.006 200.621 157.907 200.522V202.722H156.642ZM159.062 199.807C159.777 199.807 160.327 199.268 160.327 198.432C160.327 197.596 159.777 197.057 159.062 197.057C158.347 197.057 157.797 197.596 157.797 198.432C157.797 199.268 158.347 199.807 159.062 199.807ZM164.783 197.057C164.068 197.057 163.518 197.596 163.518 198.432C163.518 199.268 164.068 199.807 164.783 199.807C165.498 199.807 166.048 199.268 166.048 198.432C166.048 197.596 165.498 197.057 164.783 197.057ZM164.783 195.847C166.147 195.847 167.313 197.002 167.313 198.432C167.313 199.862 166.147 201.017 164.783 201.017C163.419 201.017 162.253 199.862 162.253 198.432C162.253 197.002 163.419 195.847 164.783 195.847ZM168.243 200.962V195.902H169.453L171.048 199.312L172.643 195.902H173.853V200.962H172.588V198.377L171.378 200.962H170.718L169.508 198.377V200.962H168.243ZM175.064 200.962V195.902H176.329V199.092L178.474 195.902H179.684V200.962H178.419V197.772L176.274 200.962H175.064ZM180.897 202.722V195.902H181.832L182.052 196.397C182.162 196.298 182.294 196.199 182.437 196.122C182.69 195.99 183.042 195.847 183.482 195.847C184.747 195.847 185.847 196.936 185.847 198.432C185.847 199.928 184.747 201.017 183.482 201.017C183.053 201.017 182.745 200.896 182.514 200.775C182.382 200.698 182.261 200.621 182.162 200.522V202.722H180.897ZM183.317 199.807C184.032 199.807 184.582 199.268 184.582 198.432C184.582 197.596 184.032 197.057 183.317 197.057C182.602 197.057 182.052 197.596 182.052 198.432C182.052 199.268 182.602 199.807 183.317 199.807ZM85.8811 213.962V212.147C85.7601 212.213 85.6391 212.268 85.4961 212.312C85.2431 212.4 84.8911 212.477 84.4511 212.477C83.4501 212.477 82.7461 211.762 82.7461 210.662V209.012H83.5711V210.662C83.5711 211.278 84.0111 211.707 84.6711 211.707C85.0121 211.707 85.2981 211.619 85.5181 211.52C85.6501 211.465 85.7711 211.399 85.8811 211.322V209.012H86.7061V213.962H85.8811ZM90.3963 213.247C91.2213 213.247 91.9363 212.543 91.9363 211.487C91.9363 210.431 91.2213 209.727 90.3963 209.727C89.5713 209.727 88.8563 210.431 88.8563 211.487C88.8563 212.543 89.5713 213.247 90.3963 213.247ZM88.1413 215.722V209.012H88.7463L88.9663 209.562C89.0653 209.452 89.1973 209.353 89.3403 209.265C89.5933 209.1 89.9563 208.957 90.4513 208.957C91.7273 208.957 92.7613 210.002 92.7613 211.487C92.7613 212.972 91.7273 214.017 90.4513 214.017C89.9563 214.017 89.5933 213.852 89.3403 213.687C89.1973 213.588 89.0653 213.478 88.9663 213.357V215.722H88.1413ZM97.1011 212.642H97.9811C97.6511 213.357 96.9911 214.017 95.8911 214.017C94.5711 214.017 93.5261 212.972 93.5261 211.487C93.5261 210.002 94.6371 208.957 95.8361 208.957C97.0461 208.957 98.0911 209.936 98.0911 211.432C98.0911 211.575 98.0691 211.674 98.0581 211.751L98.0361 211.872H94.4061C94.4611 212.587 95.1101 213.247 95.8911 213.247C96.5401 213.247 96.9361 212.873 97.1011 212.642ZM94.4061 211.157H97.2661C97.1451 210.332 96.5511 209.727 95.8361 209.727C95.1211 209.727 94.5271 210.332 94.4061 211.157ZM98.755 212.477H99.58C99.635 212.917 99.954 213.247 100.57 213.247C101.131 213.247 101.45 212.917 101.45 212.532C101.45 212.147 101.109 211.817 100.57 211.817H100.13V211.047H100.57C101.01 211.047 101.34 210.772 101.34 210.387C101.34 210.002 101.01 209.727 100.57 209.727C99.954 209.727 99.69 210.057 99.635 210.442H98.81C98.865 209.562 99.47 208.957 100.57 208.957C101.505 208.957 102.165 209.628 102.165 210.387C102.165 210.75 102.022 211.003 101.857 211.179C101.769 211.278 101.67 211.366 101.56 211.432C101.692 211.509 101.813 211.597 101.912 211.696C102.088 211.872 102.275 212.147 102.275 212.532C102.275 213.357 101.615 214.017 100.57 214.017C99.47 214.017 98.81 213.357 98.755 212.477ZM107.716 213.962L105.186 207.032H106.121L108.156 212.697L110.191 207.032H111.126L108.596 213.962H107.716ZM111.946 213.962V209.012H112.771V213.962H111.946ZM111.836 207.615C111.836 207.307 112.056 207.087 112.353 207.087C112.661 207.087 112.881 207.307 112.881 207.615C112.881 207.912 112.661 208.132 112.353 208.132C112.056 208.132 111.836 207.912 111.836 207.615ZM116.512 213.247C117.337 213.247 118.052 212.543 118.052 211.487C118.052 210.431 117.337 209.727 116.512 209.727C115.687 209.727 114.972 210.431 114.972 211.487C114.972 212.543 115.687 213.247 116.512 213.247ZM114.257 213.962V207.032H115.082V209.617C115.181 209.496 115.313 209.386 115.456 209.287C115.709 209.122 116.072 208.957 116.567 208.957C117.843 208.957 118.877 210.002 118.877 211.487C118.877 212.972 117.843 214.017 116.567 214.017C116.072 214.017 115.709 213.885 115.456 213.72C115.313 213.632 115.181 213.533 115.082 213.412L114.862 213.962H114.257ZM123.226 212.642H124.106C123.776 213.357 123.116 214.017 122.016 214.017C120.696 214.017 119.651 212.972 119.651 211.487C119.651 210.002 120.762 208.957 121.961 208.957C123.171 208.957 124.216 209.936 124.216 211.432C124.216 211.575 124.194 211.674 124.183 211.751L124.161 211.872H120.531C120.586 212.587 121.235 213.247 122.016 213.247C122.665 213.247 123.061 212.873 123.226 212.642ZM120.531 211.157H123.391C123.27 210.332 122.676 209.727 121.961 209.727C121.246 209.727 120.652 210.332 120.531 211.157ZM125.32 213.962V209.012H125.925L126.145 209.562C126.244 209.452 126.365 209.353 126.508 209.265C126.761 209.1 127.102 208.957 127.575 208.957H127.685V209.782H127.465C126.684 209.782 126.145 210.321 126.145 211.157V213.962H125.32ZM130.541 212.477H131.366C131.421 212.917 131.74 213.247 132.356 213.247C132.917 213.247 133.236 212.917 133.236 212.532C133.236 212.147 132.895 211.817 132.356 211.817H131.916V211.047H132.356C132.796 211.047 133.126 210.772 133.126 210.387C133.126 210.002 132.796 209.727 132.356 209.727C131.74 209.727 131.476 210.057 131.421 210.442H130.596C130.651 209.562 131.256 208.957 132.356 208.957C133.291 208.957 133.951 209.628 133.951 210.387C133.951 210.75 133.808 211.003 133.643 211.179C133.555 211.278 133.456 211.366 133.346 211.432C133.478 211.509 133.599 211.597 133.698 211.696C133.874 211.872 134.061 212.147 134.061 212.532C134.061 213.357 133.401 214.017 132.356 214.017C131.256 214.017 130.596 213.357 130.541 212.477ZM138.349 213.962L138.129 213.412C138.019 213.533 137.898 213.632 137.755 213.72C137.502 213.885 137.139 214.017 136.644 214.017C135.654 214.017 134.994 213.357 134.994 212.532C134.994 211.597 135.654 210.937 138.129 210.937V210.662C138.129 210.167 137.7 209.727 137.084 209.727C136.468 209.727 136.215 210.002 136.094 210.442H135.214C135.335 209.617 135.984 208.957 137.084 208.957C138.184 208.957 138.954 209.738 138.954 210.662V213.962H138.349ZM138.129 212.092V211.707C136.149 211.707 135.819 212.037 135.819 212.587C135.819 212.928 136.149 213.247 136.644 213.247C137.524 213.247 138.129 212.642 138.129 212.092ZM142.69 213.962V209.012H143.515V211.377L145.385 209.012H146.32L144.45 211.322L146.595 213.962H145.605L143.515 211.377V213.962H142.69ZM146.486 213.962V213.247H146.596C147.135 213.247 147.421 212.95 147.476 212.367L147.751 209.012H151.106V213.962H150.281V209.727H148.466L148.301 212.367C148.224 213.423 147.652 214.017 146.816 214.017C146.728 214.017 146.662 214.006 146.585 213.995L146.486 213.962ZM152.541 213.962V209.012H153.366V212.697L155.896 209.012H156.721V213.962H155.896V210.277L153.366 213.962H152.541ZM161.393 212.642H162.273C161.943 213.357 161.283 214.017 160.183 214.017C158.863 214.017 157.818 212.972 157.818 211.487C157.818 210.002 158.929 208.957 160.128 208.957C161.338 208.957 162.383 209.936 162.383 211.432C162.383 211.575 162.361 211.674 162.35 211.751L162.328 211.872H158.698C158.753 212.587 159.402 213.247 160.183 213.247C160.832 213.247 161.228 212.873 161.393 212.642ZM158.698 211.157H161.558C161.437 210.332 160.843 209.727 160.128 209.727C159.413 209.727 158.819 210.332 158.698 211.157ZM163.487 213.962V209.012H164.312V211.047H166.842V209.012H167.667V213.962H166.842V211.817H164.312V213.962H163.487ZM170.084 213.962V209.782H168.544V209.012H172.449V209.782H170.909V213.962H170.084ZM82.8561 226.962V220.032H85.4411C86.7611 220.032 87.8061 221.066 87.8061 222.342C87.8061 223.618 86.7611 224.652 85.4411 224.652H84.1761V226.962H82.8561ZM84.1761 223.387H85.4411C85.9911 223.387 86.4861 222.892 86.4861 222.342C86.4861 221.792 85.9911 221.297 85.4411 221.297H84.1761V223.387ZM88.8503 226.962V220.032H91.6003C92.9203 220.032 93.9103 221.022 93.9103 222.177C93.9103 222.958 93.5473 223.453 93.1623 223.772C92.9423 223.959 92.7003 224.113 92.4253 224.212L94.0753 226.962H92.5903L91.1603 224.432H90.1703V226.962H88.8503ZM90.1703 223.167H91.6003C92.1613 223.167 92.5903 222.727 92.5903 222.232C92.5903 221.737 92.1613 221.297 91.6003 221.297H90.1703V223.167ZM97.9755 221.242C96.8755 221.242 95.9405 222.177 95.9405 223.497C95.9405 224.817 96.8755 225.752 97.9755 225.752C99.0755 225.752 100.011 224.817 100.011 223.497C100.011 222.177 99.0755 221.242 97.9755 221.242ZM97.9755 219.977C99.7905 219.977 101.331 221.517 101.331 223.497C101.331 225.477 99.7905 227.017 97.9755 227.017C96.1605 227.017 94.6205 225.477 94.6205 223.497C94.6205 221.517 96.1605 219.977 97.9755 219.977ZM103.695 225.697H104.575C105.675 225.697 106.665 224.696 106.665 223.497C106.665 222.298 105.675 221.297 104.575 221.297H103.695V225.697ZM102.375 226.962V220.032H104.575C106.39 220.032 107.985 221.627 107.985 223.497C107.985 225.367 106.39 226.962 104.575 226.962H102.375ZM111.506 226.962V220.032H112.826V223.112L115.136 220.032H116.676L114.091 223.442L116.841 226.962H115.301L112.826 223.827V226.962H111.506ZM117.336 226.962V220.032H118.601V226.962H117.336ZM119.807 226.962V221.902H121.072V226.962H119.807ZM120.467 221.297C120.082 221.297 119.752 220.967 119.752 220.582C119.752 220.197 120.082 219.867 120.467 219.867C120.852 219.867 121.182 220.197 121.182 220.582C121.182 220.967 120.852 221.297 120.467 221.297ZM125.467 225.422H126.787C126.523 226.181 125.676 227.017 124.532 227.017C123.168 227.017 122.002 225.862 122.002 224.432C122.002 223.002 123.168 221.847 124.532 221.847C125.852 221.847 126.952 222.892 126.952 224.432C126.952 224.553 126.93 224.663 126.919 224.762L126.897 224.927H123.377C123.498 225.422 123.872 225.807 124.532 225.807C124.873 225.807 125.082 225.719 125.247 225.62C125.335 225.565 125.412 225.499 125.467 225.422ZM123.322 224.047H125.742C125.621 223.486 125.192 223.057 124.532 223.057C123.872 223.057 123.443 223.486 123.322 224.047ZM127.885 226.962V221.902H128.82L129.04 222.397C129.161 222.298 129.304 222.199 129.447 222.122C129.7 221.99 130.041 221.847 130.47 221.847C131.669 221.847 132.505 222.672 132.505 223.992V226.962H131.24V224.157C131.24 223.497 130.811 223.057 130.195 223.057C129.579 223.057 129.15 223.497 129.15 224.157V226.962H127.885ZM134.049 225.202V223.057H133.279V222.012H133.609C134.016 222.012 134.214 221.814 134.214 221.407V220.692H135.314V221.902H136.414V223.057H135.314V225.147C135.314 225.587 135.589 225.862 136.029 225.862C136.15 225.862 136.216 225.851 136.271 225.84L136.359 225.807V226.907C136.304 226.929 136.249 226.951 136.183 226.962C136.062 226.995 135.919 227.017 135.754 227.017C134.753 227.017 134.049 226.302 134.049 225.202ZM139.929 226.962V222.012H142.129C142.954 222.012 143.559 222.617 143.559 223.387C143.559 223.75 143.416 223.981 143.251 224.146C143.163 224.234 143.064 224.311 142.954 224.377C143.097 224.443 143.218 224.531 143.339 224.63C143.526 224.806 143.724 225.092 143.724 225.532C143.724 226.368 143.13 226.962 142.294 226.962H139.929ZM140.754 224.047H142.019C142.459 224.047 142.734 223.783 142.734 223.442C142.734 223.057 142.459 222.782 142.019 222.782H140.754V224.047ZM140.754 226.192H142.184C142.569 226.192 142.899 225.862 142.899 225.477C142.899 225.147 142.58 224.817 142.184 224.817H140.754V226.192ZM147.191 226.962V222.012H148.016V224.377L149.886 222.012H150.821L148.951 224.322L151.096 226.962H150.106L148.016 224.377V226.962H147.191ZM154.892 226.962L154.672 226.412C154.562 226.533 154.441 226.632 154.298 226.72C154.045 226.885 153.682 227.017 153.187 227.017C152.197 227.017 151.537 226.357 151.537 225.532C151.537 224.597 152.197 223.937 154.672 223.937V223.662C154.672 223.167 154.243 222.727 153.627 222.727C153.011 222.727 152.758 223.002 152.637 223.442H151.757C151.878 222.617 152.527 221.957 153.627 221.957C154.727 221.957 155.497 222.738 155.497 223.662V226.962H154.892ZM154.672 225.092V224.707C152.692 224.707 152.362 225.037 152.362 225.587C152.362 225.928 152.692 226.247 153.187 226.247C154.067 226.247 154.672 225.642 154.672 225.092ZM157.752 226.962V222.782H156.212V222.012H160.117V222.782H158.577V226.962H157.752ZM164.132 225.642H165.012C164.682 226.357 164.022 227.017 162.922 227.017C161.602 227.017 160.557 225.972 160.557 224.487C160.557 223.002 161.668 221.957 162.867 221.957C164.077 221.957 165.122 222.936 165.122 224.432C165.122 224.575 165.1 224.674 165.089 224.751L165.067 224.872H161.437C161.492 225.587 162.141 226.247 162.922 226.247C163.571 226.247 163.967 225.873 164.132 225.642ZM161.437 224.157H164.297C164.176 223.332 163.582 222.727 162.867 222.727C162.152 222.727 161.558 223.332 161.437 224.157ZM166.226 226.962V222.012H169.471V222.782H167.051V226.962H166.226ZM172.17 226.247C172.929 226.247 173.655 225.543 173.655 224.487C173.655 223.431 172.929 222.727 172.17 222.727C171.4 222.727 170.685 223.431 170.685 224.487C170.685 225.543 171.4 226.247 172.17 226.247ZM172.17 227.017C170.894 227.017 169.86 225.972 169.86 224.487C169.86 223.002 170.894 221.957 172.17 221.957C173.446 221.957 174.48 223.002 174.48 224.487C174.48 225.972 173.446 227.017 172.17 227.017ZM177.838 226.247C178.663 226.247 179.378 225.543 179.378 224.487C179.378 223.431 178.663 222.727 177.838 222.727C177.013 222.727 176.298 223.431 176.298 224.487C176.298 225.543 177.013 226.247 177.838 226.247ZM175.583 228.722V222.012H176.188L176.408 222.562C176.507 222.452 176.639 222.353 176.782 222.265C177.035 222.1 177.398 221.957 177.893 221.957C179.169 221.957 180.203 223.002 180.203 224.487C180.203 225.972 179.169 227.017 177.893 227.017C177.398 227.017 177.035 226.852 176.782 226.687C176.639 226.588 176.507 226.478 176.408 226.357V228.722H175.583ZM181.298 226.962V222.012H182.123V225.697L184.653 222.012H185.478V226.962H184.653V223.277L182.123 226.962H181.298ZM186.575 226.962L187.73 225.092C187.543 225.037 187.378 224.938 187.235 224.806C186.982 224.586 186.74 224.223 186.74 223.607C186.74 222.672 187.389 222.012 188.445 222.012H190.535V226.962H189.71V225.202H188.61L187.51 226.962H186.575ZM188.445 224.432H189.71V222.782H188.445C187.95 222.782 187.565 223.167 187.565 223.607C187.565 224.047 187.95 224.432 188.445 224.432ZM82.8561 239.962V235.012H87.0361V239.962H86.2111V235.782H83.6811V239.962H82.8561ZM90.7185 239.247C91.5435 239.247 92.2585 238.543 92.2585 237.487C92.2585 236.431 91.5435 235.727 90.7185 235.727C89.8935 235.727 89.1785 236.431 89.1785 237.487C89.1785 238.543 89.8935 239.247 90.7185 239.247ZM88.4635 241.722V235.012H89.0685L89.2885 235.562C89.3875 235.452 89.5195 235.353 89.6625 235.265C89.9155 235.1 90.2785 234.957 90.7735 234.957C92.0495 234.957 93.0835 236.002 93.0835 237.487C93.0835 238.972 92.0495 240.017 90.7735 240.017C90.2785 240.017 89.9155 239.852 89.6625 239.687C89.5195 239.588 89.3875 239.478 89.2885 239.357V241.722H88.4635ZM94.1784 239.962V235.012H95.0034V238.697L97.5334 235.012H98.3584V239.962H97.5334V236.277L95.0034 239.962H94.1784ZM99.0708 239.962L100.831 237.432L99.1808 235.012H100.116L101.326 236.827L102.536 235.012H103.471L101.821 237.432L103.581 239.962H102.646L101.326 238.037L100.006 239.962H99.0708ZM106.17 239.247C106.929 239.247 107.655 238.543 107.655 237.487C107.655 236.431 106.929 235.727 106.17 235.727C105.4 235.727 104.685 236.431 104.685 237.487C104.685 238.543 105.4 239.247 106.17 239.247ZM106.17 240.017C104.894 240.017 103.86 238.972 103.86 237.487C103.86 236.002 104.894 234.957 106.17 234.957C107.446 234.957 108.48 236.002 108.48 237.487C108.48 238.972 107.446 240.017 106.17 240.017ZM108.868 241.172V239.192H109.143C109.253 239.115 109.352 239.016 109.44 238.906C109.605 238.719 109.759 238.455 109.803 238.092L110.133 235.012H113.378V239.192H114.038V241.172H113.268V239.962H109.638V241.172H108.868ZM110.133 239.192H112.553V235.782H110.87L110.628 238.092C110.595 238.455 110.474 238.719 110.353 238.906C110.276 239.016 110.21 239.115 110.133 239.192ZM114.975 239.962V235.012H115.8V238.697L118.33 235.012H119.155V239.962H118.33V236.277L115.8 239.962H114.975ZM120.253 239.467C120.253 239.126 120.462 238.917 120.803 238.917C121.144 238.917 121.353 239.126 121.353 239.467C121.353 239.808 121.144 240.017 120.803 240.017C120.462 240.017 120.253 239.808 120.253 239.467Z" fill="white"/>
<rect x="48" y="201" width="195" height="120" fill="url(#paint5_linear_2224_1112)"/>
</g>
<g filter="url(#filter1_d_2224_1112)">
<path d="M220.89 99.9999C222.225 100.465 222.856 102.017 222.224 103.282L207.942 131.841C207.055 133.613 204.51 133.485 203.756 131.63L187.883 92.5709C187.128 90.7154 188.863 88.8478 190.735 89.4997L220.89 99.9999Z" fill="url(#paint6_linear_2224_1112)"/>
</g>
<g filter="url(#filter2_d_2224_1112)">
<path d="M231.915 95.5292C231.285 96.789 231.912 98.3324 233.242 98.7958L263.401 109.303C265.272 109.954 267.011 108.089 266.259 106.238L250.38 67.1652C249.628 65.3141 247.081 65.191 246.195 66.963L231.915 95.5292Z" fill="url(#paint7_linear_2224_1112)"/>
</g>
<g filter="url(#filter3_d_2224_1112)">
<path d="M224.513 96.8864C225.066 96.0062 226.136 95.5711 227.146 95.8162L264.687 104.927C266.886 105.461 267.052 108.439 264.93 109.301L206.847 132.905C204.725 133.767 202.766 131.518 203.97 129.601L224.513 96.8864Z" fill="url(#paint8_linear_2224_1112)"/>
</g>
<g filter="url(#filter4_d_2224_1112)">
<path d="M227.017 102.984C228.012 103.225 229.061 102.799 229.605 101.932L250.17 69.2064C251.37 67.2981 249.42 65.033 247.314 65.8886L189.185 89.5115C187.08 90.3671 187.263 93.3504 189.453 93.8812L227.017 102.984Z" fill="url(#paint9_linear_2224_1112)"/>
</g>
<g filter="url(#filter5_d_2224_1112)">
<path d="M48.1607 189.685C47.6321 187.649 45.5735 186.422 43.5626 186.944C41.5518 187.466 40.3502 189.54 40.8788 191.576L41.4354 193.719C34.706 196.606 30.9237 204.122 32.8429 211.513L36.0303 223.789C36.649 226.171 35.9784 228.7 34.2667 230.438C30.2441 234.522 34.1578 241.394 39.6886 239.958L72.7415 231.376C78.2723 229.939 78.3482 222.031 72.8467 220.42C70.5056 219.734 68.6897 217.852 68.071 215.469L64.8835 203.193C62.9641 195.801 56.0018 191.075 48.7172 191.828L48.1607 189.685ZM26.5714 197.181C27.3283 196.183 27.1379 194.749 26.1462 193.978C25.1546 193.207 23.7371 193.391 22.9803 194.388C18.4027 200.423 16.5044 208.376 18.5449 216.235C18.8621 217.456 20.0973 218.192 21.3038 217.879C22.5103 217.566 23.2313 216.322 22.9141 215.1C21.251 208.695 22.7818 202.177 26.5714 197.181ZM65.1967 183.427C64.05 182.923 62.7222 183.452 62.2309 184.608C61.7396 185.764 62.271 187.11 63.4177 187.613C63.8004 187.781 64.1777 187.96 64.5492 188.15C69.7478 190.802 73.7785 195.51 75.3311 201.49C75.6482 202.711 76.8834 203.447 78.0899 203.134C79.2964 202.821 80.0174 201.577 79.7002 200.355C77.7961 193.022 72.8539 187.283 66.5651 184.075C66.1157 183.846 65.6594 183.63 65.1967 183.427Z" fill="url(#paint10_linear_2224_1112)"/>
<path d="M62.5607 243.114C63.366 241.725 63.5902 240.065 63.184 238.501L51.533 241.526C51.9392 243.09 52.9424 244.431 54.3221 245.253C55.7018 246.076 57.3449 246.312 58.8899 245.911C60.435 245.51 61.7554 244.504 62.5607 243.114Z" fill="url(#paint11_linear_2224_1112)"/>
</g>
<defs>
<filter id="filter0_d_2224_1112" x="66.3789" y="119.725" width="27.8804" height="27.8809" filterUnits="userSpaceOnUse" color-interpolation-filters="sRGB">
<feFlood flood-opacity="0" result="BackgroundImageFix"/>
<feColorMatrix in="SourceAlpha" type="matrix" values="0 0 0 0 0 0 0 0 0 0 0 0 0 0 0 0 0 0 127 0" result="hardAlpha"/>
<feOffset dy="0.912921"/>
<feGaussianBlur stdDeviation="1.27809"/>
<feComposite in2="hardAlpha" operator="out"/>
<feColorMatrix type="matrix" values="0 0 0 0 0.161625 0 0 0 0 0.18275 0 0 0 0 0.225 0 0 0 0.14 0"/>
<feBlend mode="normal" in2="BackgroundImageFix" result="effect1_dropShadow_2224_1112"/>
<feBlend mode="normal" in="SourceGraphic" in2="effect1_dropShadow_2224_1112" result="shape"/>
</filter>
<filter id="filter1_d_2224_1112" x="170.124" y="65.93" width="93.3615" height="102.324" filterUnits="userSpaceOnUse" color-interpolation-filters="sRGB">
<feFlood flood-opacity="0" result="BackgroundImageFix"/>
<feColorMatrix in="SourceAlpha" type="matrix" values="0 0 0 0 0 0 0 0 0 0 0 0 0 0 0 0 0 0 127 0" result="hardAlpha"/>
<feOffset dx="11.7186" dy="5.8593"/>
<feGaussianBlur stdDeviation="14.6482"/>
<feComposite in2="hardAlpha" operator="out"/>
<feColorMatrix type="matrix" values="0 0 0 0 0.0666667 0 0 0 0 0.0980392 0 0 0 0 0.156863 0 0 0 0.32 0"/>
<feBlend mode="normal" in2="BackgroundImageFix" result="effect1_dropShadow_2224_1112"/>
<feBlend mode="normal" in="SourceGraphic" in2="effect1_dropShadow_2224_1112" result="shape"/>
</filter>
<filter id="filter2_d_2224_1112" x="214.091" y="42.2659" width="93.3625" height="102.325" filterUnits="userSpaceOnUse" color-interpolation-filters="sRGB">
<feFlood flood-opacity="0" result="BackgroundImageFix"/>
<feColorMatrix in="SourceAlpha" type="matrix" values="0 0 0 0 0 0 0 0 0 0 0 0 0 0 0 0 0 0 127 0" result="hardAlpha"/>
<feOffset dx="11.7186" dy="5.8593"/>
<feGaussianBlur stdDeviation="14.6482"/>
<feComposite in2="hardAlpha" operator="out"/>
<feColorMatrix type="matrix" values="0 0 0 0 0.0666667 0 0 0 0 0.0980392 0 0 0 0 0.156863 0 0 0 0.32 0"/>
<feBlend mode="normal" in2="BackgroundImageFix" result="effect1_dropShadow_2224_1112"/>
<feBlend mode="normal" in="SourceGraphic" in2="effect1_dropShadow_2224_1112" result="shape"/>
</filter>
<filter id="filter3_d_2224_1112" x="186.024" y="72.3109" width="121.424" height="95.9396" filterUnits="userSpaceOnUse" color-interpolation-filters="sRGB">
<feFlood flood-opacity="0" result="BackgroundImageFix"/>
<feColorMatrix in="SourceAlpha" type="matrix" values="0 0 0 0 0 0 0 0 0 0 0 0 0 0 0 0 0 0 127 0" result="hardAlpha"/>
<feOffset dx="11.7186" dy="5.8593"/>
<feGaussianBlur stdDeviation="14.6482"/>
<feComposite in2="hardAlpha" operator="out"/>
<feColorMatrix type="matrix" values="0 0 0 0 0.0666667 0 0 0 0 0.0980392 0 0 0 0 0.156863 0 0 0 0.32 0"/>
<feBlend mode="normal" in2="BackgroundImageFix" result="effect1_dropShadow_2224_1112"/>
<feBlend mode="normal" in="SourceGraphic" in2="effect1_dropShadow_2224_1112" result="shape"/>
</filter>
<filter id="filter4_d_2224_1112" x="170.126" y="42.265" width="121.426" height="95.9416" filterUnits="userSpaceOnUse" color-interpolation-filters="sRGB">
<feFlood flood-opacity="0" result="BackgroundImageFix"/>
<feColorMatrix in="SourceAlpha" type="matrix" values="0 0 0 0 0 0 0 0 0 0 0 0 0 0 0 0 0 0 127 0" result="hardAlpha"/>
<feOffset dx="11.7186" dy="5.8593"/>
<feGaussianBlur stdDeviation="14.6482"/>
<feComposite in2="hardAlpha" operator="out"/>
<feColorMatrix type="matrix" values="0 0 0 0 0.0666667 0 0 0 0 0.0980392 0 0 0 0 0.156863 0 0 0 0.32 0"/>
<feBlend mode="normal" in2="BackgroundImageFix" result="effect1_dropShadow_2224_1112"/>
<feBlend mode="normal" in="SourceGraphic" in2="effect1_dropShadow_2224_1112" result="shape"/>
</filter>
<filter id="filter5_d_2224_1112" x="0.150626" y="159.799" width="120.639" height="121.459" filterUnits="userSpaceOnUse" color-interpolation-filters="sRGB">
<feFlood flood-opacity="0" result="BackgroundImageFix"/>
<feColorMatrix in="SourceAlpha" type="matrix" values="0 0 0 0 0 0 0 0 0 0 0 0 0 0 0 0 0 0 127 0" result="hardAlpha"/>
<feOffset dx="11.7186" dy="5.8593"/>
<feGaussianBlur stdDeviation="14.6482"/>
<feComposite in2="hardAlpha" operator="out"/>
<feColorMatrix type="matrix" values="0 0 0 0 0.0666667 0 0 0 0 0.0980392 0 0 0 0 0.156863 0 0 0 0.32 0"/>
<feBlend mode="normal" in2="BackgroundImageFix" result="effect1_dropShadow_2224_1112"/>
<feBlend mode="normal" in="SourceGraphic" in2="effect1_dropShadow_2224_1112" result="shape"/>
</filter>
<linearGradient id="paint0_linear_2224_1112" x1="75.0918" y1="132.631" x2="86.2933" y2="132.631" gradientUnits="userSpaceOnUse">
<stop stop-color="#6094FF"/>
<stop offset="0.25" stop-color="#4C85FD"/>
<stop offset="0.77" stop-color="#185FF9"/>
<stop offset="1" stop-color="#004DF7"/>
</linearGradient>
<linearGradient id="paint1_linear_2224_1112" x1="75.3875" y1="138.285" x2="78.832" y2="135.88" gradientUnits="userSpaceOnUse">
<stop offset="0.07" stop-color="#5E93FF" stop-opacity="0.5"/>
<stop offset="0.3" stop-color="#517BE8" stop-opacity="0.59"/>
<stop offset="0.69" stop-color="#2E3CAD" stop-opacity="0.85"/>
<stop offset="0.89" stop-color="#191589"/>
</linearGradient>
<linearGradient id="paint2_linear_2224_1112" x1="76.9405" y1="138.688" x2="86.6317" y2="127.146" gradientUnits="userSpaceOnUse">
<stop offset="0.07" stop-color="#5E93FF" stop-opacity="0.5"/>
<stop offset="0.27" stop-color="#3B54C4" stop-opacity="0.7"/>
<stop offset="0.48" stop-color="#222598" stop-opacity="0.85"/>
<stop offset="0.61" stop-color="#191589" stop-opacity="0.9"/>
<stop offset="0.67" stop-color="#18188D" stop-opacity="0.86"/>
<stop offset="0.75" stop-color="#15219A" stop-opacity="0.76"/>
<stop offset="0.82" stop-color="#1030AF" stop-opacity="0.59"/>
<stop offset="0.9" stop-color="#0945CD" stop-opacity="0.36"/>
<stop offset="0.99" stop-color="#0161F3" stop-opacity="0.05"/>
<stop offset="1" stop-color="#0066FA" stop-opacity="0"/>
</linearGradient>
<radialGradient id="paint3_radial_2224_1112" cx="0" cy="0" r="1" gradientUnits="userSpaceOnUse" gradientTransform="translate(77.6943 129.221) scale(2.93911)">
<stop stop-color="#191589" stop-opacity="0.9"/>
<stop offset="0.17" stop-color="#161E95" stop-opacity="0.8"/>
<stop offset="0.48" stop-color="#0E36B7" stop-opacity="0.53"/>
<stop offset="0.91" stop-color="#025DEE" stop-opacity="0.09"/>
<stop offset="1" stop-color="#0066FA" stop-opacity="0"/>
</radialGradient>
<radialGradient id="paint4_radial_2224_1112" cx="0" cy="0" r="1" gradientUnits="userSpaceOnUse" gradientTransform="translate(83.642 129.517) scale(3.88629 3.88629)">
<stop offset="0.18" stop-color="#191589"/>
<stop offset="0.19" stop-color="#18168A" stop-opacity="0.99"/>
<stop offset="0.47" stop-color="#0E38BA" stop-opacity="0.57"/>
<stop offset="0.7" stop-color="#0651DC" stop-opacity="0.26"/>
<stop offset="0.89" stop-color="#0160F2" stop-opacity="0.07"/>
<stop offset="1" stop-color="#0066FA" stop-opacity="0"/>
</radialGradient>
<linearGradient id="paint5_linear_2224_1112" x1="145.5" y1="201" x2="145.5" y2="284.306" gradientUnits="userSpaceOnUse">
<stop stop-color="#111928" stop-opacity="0"/>
<stop offset="1" stop-color="#111928"/>
</linearGradient>
<linearGradient id="paint6_linear_2224_1112" x1="223.424" y1="100.882" x2="186.617" y2="115.84" gradientUnits="userSpaceOnUse">
<stop stop-color="#314872"/>
<stop offset="1" stop-color="#1F2D47"/>
</linearGradient>
<linearGradient id="paint7_linear_2224_1112" x1="230.721" y1="97.9174" x2="267.519" y2="82.9632" gradientUnits="userSpaceOnUse">
<stop stop-color="#314872"/>
<stop offset="1" stop-color="#1F2D47"/>
</linearGradient>
<linearGradient id="paint8_linear_2224_1112" x1="225.444" y1="95.4031" x2="239.37" y2="129.67" gradientUnits="userSpaceOnUse">
<stop stop-color="#314872"/>
<stop offset="1" stop-color="#1F2D47"/>
</linearGradient>
<linearGradient id="paint9_linear_2224_1112" x1="228.69" y1="103.39" x2="214.77" y2="69.1369" gradientUnits="userSpaceOnUse">
<stop stop-color="#344F81"/>
<stop offset="1" stop-color="#1F2D47"/>
</linearGradient>
<linearGradient id="paint10_linear_2224_1112" x1="43.2638" y1="185.732" x2="64.0987" y2="265.971" gradientUnits="userSpaceOnUse">
<stop stop-color="#344F81"/>
<stop offset="1" stop-color="#1F2D47"/>
</linearGradient>
<linearGradient id="paint11_linear_2224_1112" x1="43.2638" y1="185.732" x2="64.0987" y2="265.971" gradientUnits="userSpaceOnUse">
<stop stop-color="#344F81"/>
<stop offset="1" stop-color="#1F2D47"/>
</linearGradient>
<clipPath id="clip0_2224_1112">
<rect width="176.408" height="300" fill="white" transform="translate(52)"/>
</clipPath>
<clipPath id="clip1_2224_1112">
<rect width="12" height="12" fill="white" transform="translate(181.704 31)"/>
</clipPath>
<clipPath id="clip2_2224_1112">
<rect width="11.2015" height="13.1995" fill="white" transform="translate(75.0908 126.031)"/>
</clipPath>
</defs>
</svg>
