<svg width="292" height="300" viewBox="0 0 292 300" fill="none" xmlns="http://www.w3.org/2000/svg">
<g filter="url(#filter0_d_2223_201348)">
<path d="M48.1607 189.685C47.6321 187.649 45.5735 186.422 43.5626 186.944C41.5518 187.466 40.3502 189.54 40.8788 191.576L41.4354 193.719C34.706 196.606 30.9237 204.122 32.8429 211.513L36.0303 223.789C36.649 226.171 35.9784 228.7 34.2667 230.438C30.2441 234.522 34.1578 241.394 39.6886 239.958L72.7415 231.376C78.2723 229.939 78.3482 222.031 72.8467 220.42C70.5056 219.734 68.6897 217.852 68.071 215.469L64.8835 203.193C62.9641 195.801 56.0018 191.075 48.7172 191.828L48.1607 189.685ZM26.5714 197.181C27.3283 196.183 27.1379 194.749 26.1462 193.978C25.1546 193.207 23.7371 193.391 22.9803 194.388C18.4027 200.423 16.5044 208.376 18.5449 216.235C18.8621 217.456 20.0973 218.192 21.3038 217.879C22.5103 217.566 23.2313 216.322 22.9141 215.1C21.251 208.695 22.7818 202.177 26.5714 197.181ZM65.1967 183.427C64.05 182.923 62.7222 183.452 62.2309 184.608C61.7396 185.764 62.271 187.11 63.4177 187.613C63.8004 187.781 64.1777 187.96 64.5492 188.15C69.7478 190.802 73.7785 195.51 75.3311 201.49C75.6482 202.711 76.8834 203.447 78.0899 203.134C79.2964 202.821 80.0174 201.577 79.7002 200.355C77.7961 193.022 72.8539 187.283 66.5651 184.075C66.1157 183.846 65.6594 183.63 65.1967 183.427Z" fill="url(#paint0_linear_2223_201348)"/>
<path d="M62.5607 243.114C63.366 241.725 63.5902 240.065 63.184 238.501L51.533 241.526C51.9392 243.09 52.9424 244.431 54.3221 245.253C55.7018 246.076 57.3449 246.312 58.8899 245.911C60.435 245.51 61.7554 244.504 62.5607 243.114Z" fill="url(#paint1_linear_2223_201348)"/>
</g>
<g clip-path="url(#clip0_2223_201348)">
<rect x="53.5078" width="173.645" height="347.289" rx="23.3865" fill="#1F2D47"/>
<path d="M52.1426 47.3137C52.1426 47.0148 52.3849 46.7725 52.6838 46.7725H53.6078V61.0243H52.6838C52.3849 61.0243 52.1426 60.782 52.1426 60.4831V47.3137Z" fill="#314872"/>
<path d="M51.752 71.2561C51.752 70.9572 51.9943 70.7148 52.2932 70.7148H53.5764V97.2341H52.2932C51.9943 97.2341 51.752 96.9918 51.752 96.6929V71.2561Z" fill="#314872"/>
<path d="M51.7539 107.466C51.7539 107.167 51.9962 106.925 52.2951 106.925H53.5784V133.444H52.2951C51.9962 133.444 51.7539 133.202 51.7539 132.903V107.466Z" fill="#314872"/>
<path d="M228.977 46.9016C228.977 46.6027 228.734 46.3604 228.435 46.3604H227.152V88.7551H228.435C228.734 88.7551 228.977 88.5128 228.977 88.2139V46.9016Z" fill="#314872"/>
<rect x="60.7227" y="7.84961" width="158.141" height="331.785" rx="17.0544" fill="#111928"/>
<line x1="61.1074" y1="49.1295" x2="218.966" y2="49.1295" stroke="#1F2D47" stroke-width="0.584662"/>
<path d="M78.7051 36.9004H70.7051M70.7051 36.9004L73.7051 39.9004M70.7051 36.9004L73.7051 33.9004" stroke="#7E98C8" stroke-width="0.6" stroke-linecap="round" stroke-linejoin="round"/>
<path d="M168.205 32.5H171.205M165.205 34H174.205M173.205 34L172.854 39.2596C172.802 40.0488 172.776 40.4433 172.605 40.7425C172.455 41.0059 172.229 41.2176 171.956 41.3498C171.646 41.5 171.251 41.5 170.46 41.5H168.95C168.16 41.5 167.764 41.5 167.454 41.3498C167.181 41.2176 166.955 41.0059 166.805 40.7425C166.635 40.4433 166.608 40.0488 166.556 39.2596L166.205 34M168.705 36.25V38.75M170.705 36.25V38.75" stroke="#7E98C8" stroke-width="0.6" stroke-linecap="round" stroke-linejoin="round"/>
<path d="M205.634 37.4284C205.87 37.4284 206.062 37.2366 206.062 36.9999C206.062 36.7632 205.87 36.5713 205.634 36.5713C205.397 36.5713 205.205 36.7632 205.205 36.9999C205.205 37.2366 205.397 37.4284 205.634 37.4284Z" stroke="#7E98C8" stroke-width="0.6" stroke-linecap="round" stroke-linejoin="round"/>
<path d="M205.634 34.4284C205.87 34.4284 206.062 34.2366 206.062 33.9999C206.062 33.7632 205.87 33.5713 205.634 33.5713C205.397 33.5713 205.205 33.7632 205.205 33.9999C205.205 34.2366 205.397 34.4284 205.634 34.4284Z" stroke="#7E98C8" stroke-width="0.6" stroke-linecap="round" stroke-linejoin="round"/>
<path d="M205.634 40.4284C205.87 40.4284 206.062 40.2366 206.062 39.9999C206.062 39.7632 205.87 39.5713 205.634 39.5713C205.397 39.5713 205.205 39.7632 205.205 39.9999C205.205 40.2366 205.397 40.4284 205.634 40.4284Z" stroke="#7E98C8" stroke-width="0.6" stroke-linecap="round" stroke-linejoin="round"/>
<g clip-path="url(#clip1_2223_201348)">
<path d="M182.705 34.5L186.788 37.3577C187.118 37.5891 187.283 37.7048 187.463 37.7497C187.622 37.7892 187.788 37.7892 187.947 37.7497C188.127 37.7048 188.292 37.5891 188.623 37.3577L192.705 34.5M185.105 41H190.305C191.145 41 191.565 41 191.886 40.8365C192.168 40.6927 192.398 40.4632 192.542 40.181C192.705 39.8601 192.705 39.4401 192.705 38.6V35.4C192.705 34.5599 192.705 34.1399 192.542 33.819C192.398 33.5368 192.168 33.3073 191.886 33.1635C191.565 33 191.145 33 190.305 33H185.105C184.265 33 183.845 33 183.524 33.1635C183.242 33.3073 183.012 33.5368 182.869 33.819C182.705 34.1399 182.705 34.5599 182.705 35.4V38.6C182.705 39.4401 182.705 39.8601 182.869 40.181C183.012 40.4632 183.242 40.6927 183.524 40.8365C183.845 41 184.265 41 185.105 41Z" stroke="#7E98C8" stroke-width="0.6" stroke-linecap="round" stroke-linejoin="round"/>
</g>
<path d="M70.1572 69.6055V61.4155H76.2672V69.6055H75.2272V62.3255H71.1972V69.6055H70.1572ZM80.4907 68.7605C81.3877 68.7605 82.2457 67.9285 82.2457 66.6805C82.2457 65.4325 81.3877 64.6005 80.4907 64.6005C79.5807 64.6005 78.7357 65.4325 78.7357 66.6805C78.7357 67.9285 79.5807 68.7605 80.4907 68.7605ZM80.4907 69.6705C78.9827 69.6705 77.7607 68.4355 77.7607 66.6805C77.7607 64.9255 78.9827 63.6905 80.4907 63.6905C81.9987 63.6905 83.2207 64.9255 83.2207 66.6805C83.2207 68.4355 81.9987 69.6705 80.4907 69.6705ZM83.4868 69.6055V68.7605H83.6168C84.2538 68.7605 84.5918 68.4095 84.6568 67.7205L84.9818 63.7555H88.9468V69.6055H87.9718V64.6005H85.8268L85.6318 67.7205C85.5408 68.9685 84.8648 69.6705 83.8768 69.6705C83.7728 69.6705 83.6948 69.6575 83.6038 69.6445L83.4868 69.6055ZM90.9029 71.6855V70.9055C91.4879 70.9055 91.7349 70.6455 91.9429 70.1255L92.2029 69.4755L89.9279 63.7555H90.9679L92.7229 68.2405L94.4779 63.7555H95.5179L92.9829 70.1255C92.5149 71.3085 92.0599 71.7505 91.2929 71.7505C91.1889 71.7505 91.1109 71.7375 91.0199 71.7245L90.9029 71.6855ZM100.07 69.6055V67.4605C99.9274 67.5385 99.7844 67.6035 99.6154 67.6555C99.3164 67.7595 98.9004 67.8505 98.3804 67.8505C97.1974 67.8505 96.3654 67.0055 96.3654 65.7055V63.7555H97.3404V65.7055C97.3404 66.4335 97.8604 66.9405 98.6404 66.9405C99.0434 66.9405 99.3814 66.8365 99.6414 66.7195C99.7974 66.6545 99.9404 66.5765 100.07 66.4855V63.7555H101.045V69.6055H100.07ZM106.576 68.0455H107.616C107.226 68.8905 106.446 69.6705 105.146 69.6705C103.586 69.6705 102.351 68.4355 102.351 66.6805C102.351 64.9255 103.664 63.6905 105.081 63.6905C106.511 63.6905 107.746 64.8475 107.746 66.6155C107.746 66.7845 107.72 66.9015 107.707 66.9925L107.681 67.1355H103.391C103.456 67.9805 104.223 68.7605 105.146 68.7605C105.913 68.7605 106.381 68.3185 106.576 68.0455ZM103.391 66.2905H106.771C106.628 65.3155 105.926 64.6005 105.081 64.6005C104.236 64.6005 103.534 65.3155 103.391 66.2905ZM109.051 69.6055V63.7555H110.026V66.1605H113.016V63.7555H113.991V69.6055H113.016V67.0705H110.026V69.6055H109.051ZM122.696 65.1205V68.2405C122.787 68.3575 122.891 68.4485 123.008 68.5395C123.216 68.6825 123.502 68.8255 123.866 68.8255C124.711 68.8255 125.361 68.1755 125.361 66.6805C125.361 65.1855 124.711 64.5355 123.866 64.5355C123.502 64.5355 123.216 64.6915 123.008 64.8345C122.891 64.9255 122.787 65.0165 122.696 65.1205ZM121.721 71.6855V69.2155C121.617 69.3065 121.5 69.3845 121.37 69.4495C121.149 69.5665 120.837 69.6705 120.486 69.6705C119.186 69.6705 118.081 68.5655 118.081 66.6805C118.081 64.7955 119.186 63.6905 120.486 63.6905C120.837 63.6905 121.149 63.8075 121.37 63.9245C121.5 63.9895 121.617 64.0675 121.721 64.1455V61.4155H122.696V64.1455C122.8 64.0675 122.917 63.9895 123.047 63.9245C123.268 63.8075 123.567 63.6905 123.931 63.6905C125.231 63.6905 126.336 64.7955 126.336 66.6805C126.336 68.5655 125.231 69.6705 123.931 69.6705C123.567 69.6705 123.268 69.5665 123.047 69.4495C122.917 69.3845 122.8 69.3065 122.696 69.2155V71.6855H121.721ZM121.721 68.2405V65.1205C121.63 65.0165 121.526 64.9255 121.409 64.8345C121.201 64.6915 120.902 64.5355 120.551 64.5355C119.706 64.5355 119.056 65.1855 119.056 66.6805C119.056 68.1755 119.706 68.8255 120.551 68.8255C120.902 68.8255 121.201 68.6825 121.409 68.5395C121.526 68.4485 121.63 68.3575 121.721 68.2405ZM131.342 69.6055L131.082 68.9555C130.952 69.0985 130.809 69.2155 130.64 69.3195C130.341 69.5145 129.912 69.6705 129.327 69.6705C128.157 69.6705 127.377 68.8905 127.377 67.9155C127.377 66.8105 128.157 66.0305 131.082 66.0305V65.7055C131.082 65.1205 130.575 64.6005 129.847 64.6005C129.119 64.6005 128.82 64.9255 128.677 65.4455H127.637C127.78 64.4705 128.547 63.6905 129.847 63.6905C131.147 63.6905 132.057 64.6135 132.057 65.7055V69.6055H131.342ZM131.082 67.3955V66.9405C128.742 66.9405 128.352 67.3305 128.352 67.9805C128.352 68.3835 128.742 68.7605 129.327 68.7605C130.367 68.7605 131.082 68.0455 131.082 67.3955ZM133.68 69.6055V63.7555H134.655V68.1105L137.645 63.7555H138.62V69.6055H137.645V65.2505L134.655 69.6055H133.68ZM134.59 61.4155H135.37C135.435 61.8705 135.747 62.1955 136.15 62.1955C136.553 62.1955 136.865 61.8705 136.93 61.4155H137.71C137.567 62.1955 136.995 62.8455 136.15 62.8455C135.305 62.8455 134.733 62.1955 134.59 61.4155ZM139.397 69.6055V68.7605H139.527C140.164 68.7605 140.502 68.4095 140.567 67.7205L140.892 63.7555H144.857V69.6055H143.882V64.6005H141.737L141.542 67.7205C141.451 68.9685 140.775 69.6705 139.787 69.6705C139.683 69.6705 139.605 69.6575 139.514 69.6445L139.397 69.6055ZM148.826 67.8505H149.801C149.866 68.3705 150.243 68.7605 150.971 68.7605C151.634 68.7605 152.011 68.3705 152.011 67.9155C152.011 67.4605 151.608 67.0705 150.971 67.0705H150.451V66.1605H150.971C151.491 66.1605 151.881 65.8355 151.881 65.3805C151.881 64.9255 151.491 64.6005 150.971 64.6005C150.243 64.6005 149.931 64.9905 149.866 65.4455H148.891C148.956 64.4055 149.671 63.6905 150.971 63.6905C152.076 63.6905 152.856 64.4835 152.856 65.3805C152.856 65.8095 152.687 66.1085 152.492 66.3165C152.388 66.4335 152.271 66.5375 152.141 66.6155C152.297 66.7065 152.44 66.8105 152.557 66.9275C152.765 67.1355 152.986 67.4605 152.986 67.9155C152.986 68.8905 152.206 69.6705 150.971 69.6705C149.671 69.6705 148.891 68.8905 148.826 67.8505ZM158.053 69.6055L157.793 68.9555C157.663 69.0985 157.52 69.2155 157.351 69.3195C157.052 69.5145 156.623 69.6705 156.038 69.6705C154.868 69.6705 154.088 68.8905 154.088 67.9155C154.088 66.8105 154.868 66.0305 157.793 66.0305V65.7055C157.793 65.1205 157.286 64.6005 156.558 64.6005C155.83 64.6005 155.531 64.9255 155.388 65.4455H154.348C154.491 64.4705 155.258 63.6905 156.558 63.6905C157.858 63.6905 158.768 64.6135 158.768 65.7055V69.6055H158.053ZM157.793 67.3955V66.9405C155.453 66.9405 155.063 67.3305 155.063 67.9805C155.063 68.3835 155.453 68.7605 156.038 68.7605C157.078 68.7605 157.793 68.0455 157.793 67.3955ZM163.379 69.6055V61.4155H166.174C167.591 61.4155 168.774 62.5855 168.774 63.9505C168.774 65.3155 167.591 66.4855 166.174 66.4855H164.419V69.6055H163.379ZM164.419 65.5755H166.174C167.019 65.5755 167.734 64.8605 167.734 63.9505C167.734 63.0405 167.019 62.3255 166.174 62.3255H164.419V65.5755ZM170.336 69.6055V61.4155H173.391C174.756 61.4155 175.861 62.5205 175.861 63.8205C175.861 64.7695 175.406 65.3415 174.951 65.6925C174.678 65.9005 174.379 66.0565 174.054 66.1605L176.056 69.6055H174.886L172.936 66.2255H171.376V69.6055H170.336ZM171.376 65.3155H173.391C174.158 65.3155 174.821 64.6525 174.821 63.8205C174.821 62.9885 174.158 62.3255 173.391 62.3255H171.376V65.3155ZM180.797 62.2605C179.367 62.2605 178.002 63.6255 178.002 65.5105C178.002 67.3955 179.367 68.7605 180.797 68.7605C182.227 68.7605 183.592 67.3955 183.592 65.5105C183.592 63.6255 182.227 62.2605 180.797 62.2605ZM180.797 61.3505C182.812 61.3505 184.632 63.1705 184.632 65.5105C184.632 67.8505 182.812 69.6705 180.797 69.6705C178.782 69.6705 176.962 67.8505 176.962 65.5105C176.962 63.1705 178.782 61.3505 180.797 61.3505ZM187.169 68.6955H188.404C189.912 68.6955 191.264 67.3305 191.264 65.5105C191.264 63.6905 189.912 62.3255 188.404 62.3255H187.169V68.6955ZM186.129 69.6055V61.4155H188.404C190.549 61.4155 192.304 63.1705 192.304 65.5105C192.304 67.8505 190.549 69.6055 188.404 69.6055H186.129ZM69.1172 82.6055L72.2372 74.4155H73.1472L76.2672 82.6055H75.1622L74.3822 80.5905H71.0022L70.2222 82.6055H69.1172ZM71.3272 79.6805H74.0572L72.6922 76.1055L71.3272 79.6805ZM81.0096 80.5255H81.9846C81.7116 81.7085 80.7496 82.6705 79.4496 82.6705C77.9416 82.6705 76.7196 81.4355 76.7196 79.6805C76.7196 77.9255 77.9416 76.6905 79.4496 76.6905C80.7496 76.6905 81.7116 77.6525 81.9846 78.8355H81.0096C80.8016 78.1855 80.2166 77.6005 79.4496 77.6005C78.5396 77.6005 77.6946 78.4325 77.6946 79.6805C77.6946 80.9285 78.5396 81.7605 79.4496 81.7605C80.2166 81.7605 80.8016 81.1755 81.0096 80.5255ZM87.1161 80.5255H88.0911C87.8181 81.7085 86.8561 82.6705 85.5561 82.6705C84.0481 82.6705 82.8261 81.4355 82.8261 79.6805C82.8261 77.9255 84.0481 76.6905 85.5561 76.6905C86.8561 76.6905 87.8181 77.6525 88.0911 78.8355H87.1161C86.9081 78.1855 86.3231 77.6005 85.5561 77.6005C84.6461 77.6005 83.8011 78.4325 83.8011 79.6805C83.8011 80.9285 84.6461 81.7605 85.5561 81.7605C86.3231 81.7605 86.9081 81.1755 87.1161 80.5255ZM91.6625 81.7605C92.5595 81.7605 93.4175 80.9285 93.4175 79.6805C93.4175 78.4325 92.5595 77.6005 91.6625 77.6005C90.7525 77.6005 89.9075 78.4325 89.9075 79.6805C89.9075 80.9285 90.7525 81.7605 91.6625 81.7605ZM91.6625 82.6705C90.1545 82.6705 88.9325 81.4355 88.9325 79.6805C88.9325 77.9255 90.1545 76.6905 91.6625 76.6905C93.1705 76.6905 94.3925 77.9255 94.3925 79.6805C94.3925 81.4355 93.1705 82.6705 91.6625 82.6705ZM95.6956 80.1355V76.7555H96.6706V80.1355C96.6706 81.1105 97.3076 81.7605 98.1006 81.7605C99.0236 81.7605 99.6606 81.1235 99.6606 80.1355V76.7555H100.636V82.6055H99.9206L99.6606 81.9555C99.5436 82.0985 99.4006 82.2155 99.2316 82.3195C98.9326 82.5145 98.5296 82.6705 97.9706 82.6705C96.7356 82.6705 95.6956 81.6305 95.6956 80.1355ZM102.323 82.6055V76.7555H103.038L103.298 77.4055C103.415 77.2755 103.558 77.1585 103.727 77.0545C104.026 76.8595 104.429 76.6905 104.988 76.6905C106.223 76.6905 107.263 77.7305 107.263 79.2255V82.6055H106.288V79.2255C106.288 78.2505 105.625 77.6005 104.858 77.6005C103.935 77.6005 103.298 78.2375 103.298 79.2255V82.6055H102.323ZM109.341 80.7205V77.6655H108.301V76.7555H108.756C109.237 76.7555 109.471 76.5215 109.471 76.0405V75.1955H110.316V76.7555H111.616V77.6655H110.316V80.7205C110.316 81.3835 110.706 81.7605 111.291 81.7605C111.382 81.7605 111.46 81.7475 111.525 81.7345L111.616 81.6955V82.5405C111.577 82.5665 111.525 82.5925 111.473 82.6055C111.356 82.6445 111.213 82.6705 111.031 82.6705C110.134 82.6705 109.341 81.8905 109.341 80.7205ZM113.05 82.6055V76.7555H114.025V82.6055H113.05ZM112.92 75.1045C112.92 74.7405 113.18 74.4805 113.531 74.4805C113.895 74.4805 114.155 74.7405 114.155 75.1045C114.155 75.4555 113.895 75.7155 113.531 75.7155C113.18 75.7155 112.92 75.4555 112.92 75.1045ZM115.716 82.6055V76.7555H116.431L116.691 77.4055C116.808 77.2755 116.951 77.1585 117.12 77.0545C117.419 76.8595 117.822 76.6905 118.381 76.6905C119.616 76.6905 120.656 77.7305 120.656 79.2255V82.6055H119.681V79.2255C119.681 78.2505 119.018 77.6005 118.251 77.6005C117.328 77.6005 116.691 78.2375 116.691 79.2255V82.6055H115.716ZM122.215 83.0605H123.19C123.385 83.5155 123.775 83.9055 124.62 83.9055C125.608 83.9055 126.245 83.2555 126.245 82.4105V81.6305C126.128 81.7735 125.998 81.9035 125.842 82.0205C125.569 82.2155 125.14 82.4105 124.555 82.4105C123.06 82.4105 121.89 81.2535 121.89 79.5505C121.89 77.8475 123.06 76.6905 124.555 76.6905C125.14 76.6905 125.569 76.8595 125.842 77.0545C125.998 77.1585 126.128 77.2755 126.245 77.4055L126.505 76.7555H127.22V82.4105C127.22 83.7755 126.18 84.8155 124.62 84.8155C123.281 84.8155 122.462 84.0355 122.215 83.0605ZM124.62 81.5005C125.595 81.5005 126.375 80.7205 126.375 79.5505C126.375 78.3805 125.595 77.6005 124.62 77.6005C123.645 77.6005 122.865 78.3805 122.865 79.5505C122.865 80.7205 123.645 81.5005 124.62 81.5005Z" fill="white"/>
<rect x="69.4428" y="93.6596" width="31.2016" height="13.6899" rx="0.759695" stroke="#6281BC" stroke-width="0.651167"/>
<path d="M75.1779 103.505V99.1095H75.9104V103.505H75.1779ZM75.0802 97.869C75.0802 97.5955 75.2755 97.4002 75.5393 97.4002C75.8127 97.4002 76.0081 97.5955 76.0081 97.869C76.0081 98.1328 75.8127 98.3281 75.5393 98.3281C75.2755 98.3281 75.0802 98.1328 75.0802 97.869ZM77.181 103.505V99.1095H77.7182L77.9135 99.5979C78.0014 99.5002 78.1089 99.4123 78.2358 99.3342C78.4605 99.1876 78.7633 99.0607 79.1833 99.0607C80.1112 99.0607 80.8926 99.8421 80.8926 100.965V103.505H80.16V100.965C80.16 100.233 79.6619 99.7444 79.0856 99.7444C78.3921 99.7444 77.9135 100.223 77.9135 100.965V103.505H77.181ZM84.1636 102.87C84.8961 102.87 85.531 102.245 85.531 101.307C85.531 100.37 84.8961 99.7444 84.1636 99.7444C83.431 99.7444 82.7961 100.37 82.7961 101.307C82.7961 102.245 83.431 102.87 84.1636 102.87ZM82.1612 103.505V97.3514H82.8938V99.6467C82.9817 99.5393 83.0989 99.4416 83.2259 99.3537C83.4506 99.2072 83.7729 99.0607 84.2124 99.0607C85.3455 99.0607 86.2636 99.9886 86.2636 101.307C86.2636 102.626 85.3455 103.554 84.2124 103.554C83.7729 103.554 83.4506 103.437 83.2259 103.29C83.0989 103.212 82.9817 103.124 82.8938 103.017L82.6985 103.505H82.1612ZM89.0023 102.87C89.6763 102.87 90.3209 102.245 90.3209 101.307C90.3209 100.37 89.6763 99.7444 89.0023 99.7444C88.3186 99.7444 87.6837 100.37 87.6837 101.307C87.6837 102.245 88.3186 102.87 89.0023 102.87ZM89.0023 103.554C87.8693 103.554 86.9511 102.626 86.9511 101.307C86.9511 99.9886 87.8693 99.0607 89.0023 99.0607C90.1353 99.0607 91.0535 99.9886 91.0535 101.307C91.0535 102.626 90.1353 103.554 89.0023 103.554ZM91.3023 103.505L92.8651 101.258L91.3999 99.1095H92.2302L93.3046 100.721L94.379 99.1095H95.2093L93.7441 101.258L95.3069 103.505H94.4767L93.3046 101.796L92.1325 103.505H91.3023Z" fill="#6281BC"/>
<path d="M96.965 136.979V130.049H99.55C100.87 130.049 101.915 131.083 101.915 132.359C101.915 133.635 100.87 134.669 99.55 134.669H98.285V136.979H96.965ZM98.285 133.404H99.55C100.1 133.404 100.595 132.909 100.595 132.359C100.595 131.809 100.1 131.314 99.55 131.314H98.285V133.404ZM102.959 136.979V131.919H103.894L104.114 132.469C104.202 132.359 104.312 132.26 104.433 132.172C104.642 132.007 104.939 131.864 105.324 131.864C105.445 131.864 105.522 131.886 105.599 131.897L105.709 131.919V133.239L105.588 133.217C105.511 133.206 105.401 133.184 105.269 133.184C104.653 133.184 104.224 133.624 104.224 134.284V136.979H102.959ZM109.781 136.979L109.561 136.484C109.44 136.583 109.319 136.682 109.176 136.759C108.923 136.902 108.571 137.034 108.131 137.034C107.031 137.034 106.426 136.44 106.426 135.604C106.426 134.603 107.141 133.899 109.451 133.899C109.451 133.338 109.121 133.019 108.626 133.019C108.285 133.019 108.109 133.162 107.988 133.294C107.922 133.371 107.878 133.47 107.856 133.569H106.591C106.712 132.645 107.471 131.864 108.736 131.864C109.88 131.864 110.716 132.7 110.716 133.844V136.979H109.781ZM109.451 134.999V134.779C107.966 134.779 107.691 135.054 107.691 135.494C107.691 135.769 107.966 136.044 108.351 136.044C109.011 136.044 109.451 135.615 109.451 134.999ZM112.255 135.219V133.074H111.485V132.029H111.815C112.222 132.029 112.42 131.831 112.42 131.424V130.709H113.52V131.919H114.62V133.074H113.52V135.164C113.52 135.604 113.795 135.879 114.235 135.879C114.356 135.879 114.422 135.868 114.477 135.857L114.565 135.824V136.924C114.51 136.946 114.455 136.968 114.389 136.979C114.268 137.012 114.125 137.034 113.96 137.034C112.959 137.034 112.255 136.319 112.255 135.219ZM115.772 136.979V131.919H117.037V136.979H115.772ZM116.432 131.314C116.047 131.314 115.717 130.984 115.717 130.599C115.717 130.214 116.047 129.884 116.432 129.884C116.817 129.884 117.147 130.214 117.147 130.599C117.147 130.984 116.817 131.314 116.432 131.314ZM118.352 136.979V131.919H119.287L119.507 132.414C119.606 132.315 119.727 132.216 119.848 132.139C120.057 132.007 120.354 131.864 120.717 131.864C121.234 131.864 121.597 132.029 121.828 132.194C121.96 132.293 122.07 132.403 122.147 132.524C122.268 132.403 122.4 132.293 122.554 132.194C122.818 132.029 123.192 131.864 123.632 131.864C124.732 131.864 125.447 132.579 125.447 133.954V136.979H124.182V134.064C124.182 133.448 123.797 133.074 123.357 133.074C122.917 133.074 122.532 133.448 122.532 134.064V136.979H121.267V134.064C121.267 133.448 120.882 133.074 120.442 133.074C120.002 133.074 119.617 133.448 119.617 134.064V136.979H118.352ZM126.712 136.979V131.919H127.977V136.979H126.712ZM127.372 131.314C126.987 131.314 126.657 130.984 126.657 130.599C126.657 130.214 126.987 129.884 127.372 129.884C127.757 129.884 128.087 130.214 128.087 130.599C128.087 130.984 127.757 131.314 127.372 131.314Z" fill="white"/>
<path d="M95.1641 7.60156H184.789V11.9312C184.789 16.9129 180.751 20.9514 175.769 20.9514H104.184C99.2025 20.9514 95.1641 16.9129 95.1641 11.9312V7.60156Z" fill="#1F2D47"/>
<g filter="url(#filter1_d_2223_201348)">
<ellipse cx="80.3187" cy="132.752" rx="11.2015" ry="11.2015" fill="white"/>
<ellipse cx="80.3187" cy="132.752" rx="11.2015" ry="11.2015" stroke="#1F242B" stroke-width="0.365169"/>
</g>
<g clip-path="url(#clip2_2223_201348)">
<path d="M79.3672 131.508L82.0044 130.005C82.1013 129.947 82.0312 129.799 81.9244 129.836L78.9747 131.113L77.7951 129.935C77.6924 129.833 77.7543 129.657 77.8985 129.641L82.9589 129.085C83.1982 129.059 83.3671 129.314 83.2493 129.524L81.2945 133.006C81.2172 133.144 81.0294 133.17 80.9176 133.058L79.894 132.034C79.894 132.034 78.6014 132.755 78.1378 133.047C77.7755 133.275 77.3195 133.586 77.022 133.791C75.7423 134.671 75.0918 135.223 75.0918 136.659V138.75C75.0918 139.188 75.6302 139.397 75.9255 139.074L78.3698 136.401C78.6949 136.046 79.1546 135.843 79.6366 135.843H80.9787C82.0417 135.843 82.9718 135.645 83.7689 135.25C84.5663 134.855 85.1862 134.292 85.6291 133.56C86.0721 132.829 86.2933 131.964 86.2933 130.965C86.2933 129.965 86.0774 129.109 85.646 128.369C85.2146 127.628 84.6105 127.054 83.8338 126.645C83.0568 126.236 82.1505 126.031 81.1149 126.031H79.039C76.859 126.031 75.0918 127.798 75.0918 129.978V131.817C75.0918 132.404 75.4139 132.904 75.962 132.935C76.2438 132.952 76.5111 132.908 76.8175 132.787C77.4808 132.524 79.477 131.447 79.477 131.447" fill="url(#paint2_linear_2223_201348)"/>
<path opacity="0.5" d="M75.0918 137.339V138.75C75.0918 139.187 75.6302 139.396 75.9255 139.073L78.3698 136.401C78.6165 136.131 78.9406 135.95 79.2932 135.878C79.2477 135.877 79.202 135.876 79.1561 135.876C77.6117 135.876 76.1954 136.425 75.092 137.339L75.0918 137.339Z" fill="url(#paint3_linear_2223_201348)"/>
<path opacity="0.5" d="M85.646 128.367C85.2146 127.627 84.6105 127.052 83.8338 126.644C83.8241 126.639 83.8141 126.634 83.8044 126.629C83.8077 126.713 83.8099 126.798 83.8099 126.884C83.8099 127.786 83.6223 128.643 83.2848 129.421C83.2796 129.455 83.2682 129.49 83.2494 129.523L83.1905 129.628L82.7802 130.359L81.2945 133.005C81.2172 133.143 81.0294 133.169 80.9176 133.057L80.3935 132.533L79.8941 132.034C79.8941 132.034 78.6016 132.754 78.138 133.046C78.0386 133.109 77.932 133.178 77.8237 133.249C77.5374 133.437 77.238 133.642 77.0221 133.79C75.7423 134.67 75.0918 135.222 75.0918 136.658V137.338C76.1953 136.424 77.6115 135.875 79.156 135.875C79.2018 135.875 79.2474 135.876 79.293 135.877C79.4052 135.854 79.5201 135.842 79.6364 135.842H80.9786C82.0415 135.842 82.9717 135.644 83.7687 135.249C84.5661 134.854 85.186 134.291 85.629 133.559C86.0719 132.828 86.2931 131.963 86.2931 130.963C86.2931 129.964 86.0773 129.108 85.6459 128.367L85.646 128.367Z" fill="url(#paint4_linear_2223_201348)"/>
<path d="M76.8163 132.785C77.3995 132.555 79.013 131.695 79.3943 131.49L81.5413 130.267L82.0034 130.004C82.1002 129.946 82.0301 129.797 81.9234 129.835L81.2468 130.128L78.9737 131.112L77.7941 129.934C77.7211 129.862 77.7313 129.752 77.7951 129.688C76.7311 130.43 75.9037 131.488 75.4492 132.725C75.5854 132.846 75.7576 132.923 75.9608 132.934C76.2426 132.951 76.5099 132.907 76.8163 132.786V132.785Z" fill="url(#paint5_radial_2223_201348)"/>
<path opacity="0.5" d="M83.8044 126.63C83.0339 126.231 82.1376 126.031 81.1149 126.031H79.039C76.859 126.031 75.0918 127.798 75.0918 129.978V131.817C75.0918 132.187 75.2193 132.521 75.4504 132.726C75.9049 131.489 76.7323 130.431 77.7963 129.689C77.8102 129.676 77.8266 129.664 77.8452 129.656C77.8614 129.648 77.8793 129.643 77.8989 129.641L78.3271 129.594L82.9593 129.085C83.1606 129.063 83.3119 129.24 83.2849 129.422C83.3611 129.247 83.4293 129.067 83.4898 128.885C83.6974 128.255 83.8101 127.583 83.8101 126.885C83.8101 126.799 83.8079 126.714 83.8045 126.63H83.8044Z" fill="url(#paint6_radial_2223_201348)"/>
</g>
<rect x="69.1172" y="151.938" width="142.172" height="104.047" rx="4.07328" fill="#1F2D47"/>
<path d="M82.4156 173.092H83.2956C83.4166 173.752 83.9006 174.247 84.7806 174.247C85.6606 174.247 86.2106 173.697 86.2106 173.037C86.2106 172.377 85.6606 171.827 84.7806 171.827H84.2746V171.057H84.7256C85.5066 171.057 85.9906 170.562 85.9906 169.902C85.9906 169.242 85.5066 168.747 84.7256 168.747C83.9446 168.747 83.4606 169.242 83.4056 169.902H82.5256C82.6466 168.802 83.4496 167.977 84.7256 167.977C85.9906 167.977 86.8706 168.857 86.8706 169.902C86.8706 170.397 86.6286 170.76 86.3976 170.991C86.2656 171.123 86.1116 171.233 85.9356 171.332C86.1446 171.431 86.3426 171.552 86.5076 171.706C86.8046 171.97 87.0906 172.41 87.0906 173.037C87.0906 174.082 86.1556 175.017 84.7806 175.017C83.3946 175.017 82.5916 174.192 82.4156 173.092ZM91.3832 174.962L91.1632 174.412C91.0532 174.533 90.9322 174.632 90.7892 174.72C90.5362 174.885 90.1732 175.017 89.6782 175.017C88.6882 175.017 88.0282 174.357 88.0282 173.532C88.0282 172.597 88.6882 171.937 91.1632 171.937V171.662C91.1632 171.167 90.7342 170.727 90.1182 170.727C89.5022 170.727 89.2492 171.002 89.1282 171.442H88.2482C88.3692 170.617 89.0182 169.957 90.1182 169.957C91.2182 169.957 91.9882 170.738 91.9882 171.662V174.962H91.3832ZM91.1632 173.092V172.707C89.1832 172.707 88.8532 173.037 88.8532 173.587C88.8532 173.928 89.1832 174.247 89.6782 174.247C90.5582 174.247 91.1632 173.642 91.1632 173.092ZM95.7248 174.962V168.032H98.3098C99.6298 168.032 100.675 169.066 100.675 170.342C100.675 171.618 99.6298 172.652 98.3098 172.652H97.0448V174.962H95.7248ZM97.0448 171.387H98.3098C98.8598 171.387 99.3548 170.892 99.3548 170.342C99.3548 169.792 98.8598 169.297 98.3098 169.297H97.0448V171.387ZM101.719 174.962V168.032H104.469C105.789 168.032 106.779 169.022 106.779 170.177C106.779 170.958 106.416 171.453 106.031 171.772C105.811 171.959 105.569 172.113 105.294 172.212L106.944 174.962H105.459L104.029 172.432H103.039V174.962H101.719ZM103.039 171.167H104.469C105.03 171.167 105.459 170.727 105.459 170.232C105.459 169.737 105.03 169.297 104.469 169.297H103.039V171.167ZM110.844 169.242C109.744 169.242 108.809 170.177 108.809 171.497C108.809 172.817 109.744 173.752 110.844 173.752C111.944 173.752 112.879 172.817 112.879 171.497C112.879 170.177 111.944 169.242 110.844 169.242ZM110.844 167.977C112.659 167.977 114.199 169.517 114.199 171.497C114.199 173.477 112.659 175.017 110.844 175.017C109.029 175.017 107.489 173.477 107.489 171.497C107.489 169.517 109.029 167.977 110.844 167.977ZM116.563 173.697H117.443C118.543 173.697 119.533 172.696 119.533 171.497C119.533 170.298 118.543 169.297 117.443 169.297H116.563V173.697ZM115.243 174.962V168.032H117.443C119.258 168.032 120.853 169.627 120.853 171.497C120.853 173.367 119.258 174.962 117.443 174.962H115.243ZM123.604 174.962L126.189 168.032H127.399L129.984 174.962H128.609L128.114 173.532H125.474L124.979 174.962H123.604ZM125.914 172.322H127.674L126.794 169.792L125.914 172.322ZM133.893 173.092H135.158C134.927 174.093 134.003 175.017 132.793 175.017C131.429 175.017 130.263 173.862 130.263 172.432C130.263 171.002 131.429 169.847 132.793 169.847C134.003 169.847 134.927 170.771 135.158 171.772H133.893C133.838 171.64 133.75 171.519 133.651 171.42C133.475 171.244 133.2 171.057 132.793 171.057C132.078 171.057 131.528 171.596 131.528 172.432C131.528 173.268 132.078 173.807 132.793 173.807C133.2 173.807 133.475 173.631 133.651 173.455C133.75 173.356 133.838 173.235 133.893 173.092ZM139.393 173.092H140.658C140.427 174.093 139.503 175.017 138.293 175.017C136.929 175.017 135.763 173.862 135.763 172.432C135.763 171.002 136.929 169.847 138.293 169.847C139.503 169.847 140.427 170.771 140.658 171.772H139.393C139.338 171.64 139.25 171.519 139.151 171.42C138.975 171.244 138.7 171.057 138.293 171.057C137.578 171.057 137.028 171.596 137.028 172.432C137.028 173.268 137.578 173.807 138.293 173.807C138.7 173.807 138.975 173.631 139.151 173.455C139.25 173.356 139.338 173.235 139.393 173.092ZM143.793 171.057C143.078 171.057 142.528 171.596 142.528 172.432C142.528 173.268 143.078 173.807 143.793 173.807C144.508 173.807 145.058 173.268 145.058 172.432C145.058 171.596 144.508 171.057 143.793 171.057ZM143.793 169.847C145.157 169.847 146.323 171.002 146.323 172.432C146.323 173.862 145.157 175.017 143.793 175.017C142.429 175.017 141.263 173.862 141.263 172.432C141.263 171.002 142.429 169.847 143.793 169.847ZM147.252 172.872V169.902H148.517V172.707C148.517 173.367 148.946 173.807 149.562 173.807C150.178 173.807 150.607 173.367 150.607 172.707V169.902H151.872V174.962H150.937L150.717 174.467C150.596 174.566 150.453 174.665 150.31 174.742C150.057 174.885 149.694 175.017 149.287 175.017C148.088 175.017 147.252 174.192 147.252 172.872ZM153.085 174.962V169.902H154.02L154.24 170.397C154.361 170.298 154.504 170.199 154.647 170.122C154.9 169.99 155.241 169.847 155.67 169.847C156.869 169.847 157.705 170.672 157.705 171.992V174.962H156.44V172.157C156.44 171.497 156.011 171.057 155.395 171.057C154.779 171.057 154.35 171.497 154.35 172.157V174.962H153.085ZM159.25 173.202V171.057H158.48V170.012H158.81C159.217 170.012 159.415 169.814 159.415 169.407V168.692H160.515V169.902H161.615V171.057H160.515V173.147C160.515 173.587 160.79 173.862 161.23 173.862C161.351 173.862 161.417 173.851 161.472 173.84L161.56 173.807V174.907C161.505 174.929 161.45 174.951 161.384 174.962C161.263 174.995 161.12 175.017 160.955 175.017C159.954 175.017 159.25 174.302 159.25 173.202ZM162.657 174.962V169.902H163.922V174.962H162.657ZM163.317 169.297C162.932 169.297 162.602 168.967 162.602 168.582C162.602 168.197 162.932 167.867 163.317 167.867C163.702 167.867 164.032 168.197 164.032 168.582C164.032 168.967 163.702 169.297 163.317 169.297ZM165.127 174.962V169.902H166.062L166.282 170.397C166.403 170.298 166.546 170.199 166.689 170.122C166.942 169.99 167.283 169.847 167.712 169.847C168.911 169.847 169.747 170.672 169.747 171.992V174.962H168.482V172.157C168.482 171.497 168.053 171.057 167.437 171.057C166.821 171.057 166.392 171.497 166.392 172.157V174.962H165.127ZM170.852 175.182H172.117C172.172 175.281 172.238 175.358 172.326 175.435C172.491 175.556 172.722 175.677 173.107 175.677C173.822 175.677 174.262 175.248 174.262 174.632V174.247C174.163 174.346 174.042 174.445 173.91 174.522C173.679 174.665 173.349 174.797 172.942 174.797C171.666 174.797 170.632 173.752 170.632 172.322C170.632 170.892 171.666 169.847 172.942 169.847C173.382 169.847 173.734 169.99 173.987 170.122C174.13 170.199 174.251 170.298 174.372 170.397L174.592 169.902H175.527V174.632C175.527 175.952 174.647 176.832 173.107 176.832C172.172 176.832 171.622 176.436 171.281 176.007C171.094 175.765 170.951 175.49 170.852 175.182ZM173.107 173.587C173.756 173.587 174.317 173.026 174.317 172.322C174.317 171.618 173.756 171.057 173.107 171.057C172.436 171.057 171.897 171.618 171.897 172.322C171.897 173.026 172.436 173.587 173.107 173.587ZM82.8556 187.962V183.012H87.0356V187.962H86.2106V183.782H83.6806V187.962H82.8556ZM90.443 187.247C91.202 187.247 91.928 186.543 91.928 185.487C91.928 184.431 91.202 183.727 90.443 183.727C89.673 183.727 88.958 184.431 88.958 185.487C88.958 186.543 89.673 187.247 90.443 187.247ZM90.443 188.017C89.167 188.017 88.133 186.972 88.133 185.487C88.133 184.002 89.167 182.957 90.443 182.957C91.719 182.957 92.753 184.002 92.753 185.487C92.753 186.972 91.719 188.017 90.443 188.017ZM92.9782 187.962V187.247H93.0882C93.6272 187.247 93.9132 186.95 93.9682 186.367L94.2432 183.012H97.5982V187.962H96.7732V183.727H94.9582L94.7932 186.367C94.7162 187.423 94.1442 188.017 93.3082 188.017C93.2202 188.017 93.1542 188.006 93.0772 187.995L92.9782 187.962ZM99.2534 189.722V189.062C99.7484 189.062 99.9574 188.842 100.133 188.402L100.353 187.852L98.4284 183.012H99.3084L100.793 186.807L102.278 183.012H103.158L101.013 188.402C100.617 189.403 100.232 189.777 99.5834 189.777C99.4954 189.777 99.4294 189.766 99.3524 189.755L99.2534 189.722ZM107.011 187.962V186.147C106.89 186.213 106.769 186.268 106.626 186.312C106.373 186.4 106.021 186.477 105.581 186.477C104.58 186.477 103.876 185.762 103.876 184.662V183.012H104.701V184.662C104.701 185.278 105.141 185.707 105.801 185.707C106.142 185.707 106.428 185.619 106.648 185.52C106.78 185.465 106.901 185.399 107.011 185.322V183.012H107.836V187.962H107.011ZM109.271 187.962V183.012H110.096V186.697L112.626 183.012H113.451V187.962H112.626V184.277L110.096 187.962H109.271ZM114.163 187.962L115.923 185.432L114.273 183.012H115.208L116.418 184.827L117.628 183.012H118.563L116.913 185.432L118.673 187.962H117.738L116.418 186.037L115.098 187.962H114.163ZM120.38 187.962V183.782H118.84V183.012H122.745V183.782H121.205V187.962H120.38ZM126.76 186.642H127.64C127.31 187.357 126.65 188.017 125.55 188.017C124.23 188.017 123.185 186.972 123.185 185.487C123.185 184.002 124.296 182.957 125.495 182.957C126.705 182.957 127.75 183.936 127.75 185.432C127.75 185.575 127.728 185.674 127.717 185.751L127.695 185.872H124.065C124.12 186.587 124.769 187.247 125.55 187.247C126.199 187.247 126.595 186.873 126.76 186.642ZM124.065 185.157H126.925C126.804 184.332 126.21 183.727 125.495 183.727C124.78 183.727 124.186 184.332 124.065 185.157ZM134.792 184.167V186.807C134.869 186.906 134.957 186.983 135.056 187.06C135.232 187.181 135.474 187.302 135.782 187.302C136.497 187.302 137.047 186.752 137.047 185.487C137.047 184.222 136.497 183.672 135.782 183.672C135.474 183.672 135.232 183.804 135.056 183.925C134.957 184.002 134.869 184.079 134.792 184.167ZM133.967 189.722V187.632C133.879 187.709 133.78 187.775 133.67 187.83C133.483 187.929 133.219 188.017 132.922 188.017C131.822 188.017 130.887 187.082 130.887 185.487C130.887 183.892 131.822 182.957 132.922 182.957C133.219 182.957 133.483 183.056 133.67 183.155C133.78 183.21 133.879 183.276 133.967 183.342V181.032H134.792V183.342C134.88 183.276 134.979 183.21 135.089 183.155C135.276 183.056 135.529 182.957 135.837 182.957C136.937 182.957 137.872 183.892 137.872 185.487C137.872 187.082 136.937 188.017 135.837 188.017C135.529 188.017 135.276 187.929 135.089 187.83C134.979 187.775 134.88 187.709 134.792 187.632V189.722H133.967ZM133.967 186.807V184.167C133.89 184.079 133.802 184.002 133.703 183.925C133.527 183.804 133.274 183.672 132.977 183.672C132.262 183.672 131.712 184.222 131.712 185.487C131.712 186.752 132.262 187.302 132.977 187.302C133.274 187.302 133.527 187.181 133.703 187.06C133.802 186.983 133.89 186.906 133.967 186.807ZM142.108 187.962L141.888 187.412C141.778 187.533 141.657 187.632 141.514 187.72C141.261 187.885 140.898 188.017 140.403 188.017C139.413 188.017 138.753 187.357 138.753 186.532C138.753 185.597 139.413 184.937 141.888 184.937V184.662C141.888 184.167 141.459 183.727 140.843 183.727C140.227 183.727 139.974 184.002 139.853 184.442H138.973C139.094 183.617 139.743 182.957 140.843 182.957C141.943 182.957 142.713 183.738 142.713 184.662V187.962H142.108ZM141.888 186.092V185.707C139.908 185.707 139.578 186.037 139.578 186.587C139.578 186.928 139.908 187.247 140.403 187.247C141.283 187.247 141.888 186.642 141.888 186.092ZM144.086 187.962V183.012H144.911V186.697L147.441 183.012H148.266V187.962H147.441V184.277L144.911 187.962H144.086ZM144.856 181.032H145.516C145.571 181.417 145.835 181.692 146.176 181.692C146.517 181.692 146.781 181.417 146.836 181.032H147.496C147.375 181.692 146.891 182.242 146.176 182.242C145.461 182.242 144.977 181.692 144.856 181.032ZM148.924 187.962V187.247H149.034C149.573 187.247 149.859 186.95 149.914 186.367L150.189 183.012H153.544V187.962H152.719V183.727H150.904L150.739 186.367C150.662 187.423 150.09 188.017 149.254 188.017C149.166 188.017 149.1 188.006 149.023 187.995L148.924 187.962ZM160.972 187.962L160.752 187.467C160.631 187.566 160.51 187.665 160.367 187.742C160.114 187.885 159.762 188.017 159.322 188.017C158.057 188.017 156.957 186.928 156.957 185.432C156.957 183.936 158.057 182.847 159.322 182.847C159.729 182.847 160.059 182.979 160.29 183.1C160.422 183.177 160.543 183.254 160.642 183.342V181.032H161.907V187.962H160.972ZM159.487 186.807C160.202 186.807 160.752 186.268 160.752 185.432C160.752 184.596 160.202 184.057 159.487 184.057C158.772 184.057 158.222 184.596 158.222 185.432C158.222 186.268 158.772 186.807 159.487 186.807ZM165.374 184.057C164.659 184.057 164.109 184.596 164.109 185.432C164.109 186.268 164.659 186.807 165.374 186.807C166.089 186.807 166.639 186.268 166.639 185.432C166.639 184.596 166.089 184.057 165.374 184.057ZM165.374 182.847C166.738 182.847 167.904 184.002 167.904 185.432C167.904 186.862 166.738 188.017 165.374 188.017C164.01 188.017 162.844 186.862 162.844 185.432C162.844 184.002 164.01 182.847 165.374 182.847ZM172.189 186.092H173.454C173.223 187.093 172.299 188.017 171.089 188.017C169.725 188.017 168.559 186.862 168.559 185.432C168.559 184.002 169.725 182.847 171.089 182.847C172.299 182.847 173.223 183.771 173.454 184.772H172.189C172.134 184.64 172.046 184.519 171.947 184.42C171.771 184.244 171.496 184.057 171.089 184.057C170.374 184.057 169.824 184.596 169.824 185.432C169.824 186.268 170.374 186.807 171.089 186.807C171.496 186.807 171.771 186.631 171.947 186.455C172.046 186.356 172.134 186.235 172.189 186.092ZM174.114 187.302C174.114 186.917 174.444 186.587 174.829 186.587C175.214 186.587 175.544 186.917 175.544 187.302C175.544 187.687 175.214 188.017 174.829 188.017C174.444 188.017 174.114 187.687 174.114 187.302ZM175.491 189.667V188.567L175.568 188.6C175.645 188.611 175.722 188.622 175.821 188.622C176.261 188.622 176.536 188.347 176.536 187.907V182.902H177.801V187.962C177.801 189.062 177.097 189.777 176.096 189.777C175.931 189.777 175.788 189.755 175.667 189.722C175.601 189.711 175.546 189.689 175.491 189.667ZM177.196 182.297C176.811 182.297 176.481 181.967 176.481 181.582C176.481 181.197 176.811 180.867 177.196 180.867C177.581 180.867 177.911 181.197 177.911 181.582C177.911 181.967 177.581 182.297 177.196 182.297ZM179.006 189.722V182.902H179.941L180.161 183.397C180.271 183.298 180.403 183.199 180.546 183.122C180.799 182.99 181.151 182.847 181.591 182.847C182.856 182.847 183.956 183.936 183.956 185.432C183.956 186.928 182.856 188.017 181.591 188.017C181.162 188.017 180.854 187.896 180.623 187.775C180.491 187.698 180.37 187.621 180.271 187.522V189.722H179.006ZM181.426 186.807C182.141 186.807 182.691 186.268 182.691 185.432C182.691 184.596 182.141 184.057 181.426 184.057C180.711 184.057 180.161 184.596 180.161 185.432C180.161 186.268 180.711 186.807 181.426 186.807ZM184.838 188.182H186.103C186.158 188.281 186.224 188.358 186.312 188.435C186.477 188.556 186.708 188.677 187.093 188.677C187.808 188.677 188.248 188.248 188.248 187.632V187.247C188.149 187.346 188.028 187.445 187.896 187.522C187.665 187.665 187.335 187.797 186.928 187.797C185.652 187.797 184.618 186.752 184.618 185.322C184.618 183.892 185.652 182.847 186.928 182.847C187.368 182.847 187.72 182.99 187.973 183.122C188.116 183.199 188.237 183.298 188.358 183.397L188.578 182.902H189.513V187.632C189.513 188.952 188.633 189.832 187.093 189.832C186.158 189.832 185.608 189.436 185.267 189.007C185.08 188.765 184.937 188.49 184.838 188.182ZM187.093 186.587C187.742 186.587 188.303 186.026 188.303 185.322C188.303 184.618 187.742 184.057 187.093 184.057C186.422 184.057 185.883 184.618 185.883 185.322C185.883 186.026 186.422 186.587 187.093 186.587ZM190.726 189.007L190.616 188.842C190.693 188.765 190.759 188.688 190.814 188.611C190.913 188.468 191.023 188.27 191.056 188.017C190.715 188.017 190.506 187.808 190.506 187.467C190.506 187.126 190.715 186.917 191.056 186.917C191.397 186.917 191.606 187.126 191.606 187.467C191.606 187.995 191.386 188.38 191.166 188.633C191.034 188.776 190.891 188.908 190.726 189.007ZM82.8556 200.962V196.012H83.6806V199.697L86.2106 196.012H87.0356V200.962H86.2106V197.277L83.6806 200.962H82.8556ZM88.023 199.477H88.848C88.903 199.917 89.222 200.247 89.838 200.247C90.399 200.247 90.718 199.917 90.718 199.532C90.718 199.147 90.377 198.817 89.838 198.817H89.398V198.047H89.838C90.278 198.047 90.608 197.772 90.608 197.387C90.608 197.002 90.278 196.727 89.838 196.727C89.222 196.727 88.958 197.057 88.903 197.442H88.078C88.133 196.562 88.738 195.957 89.838 195.957C90.773 195.957 91.433 196.628 91.433 197.387C91.433 197.75 91.29 198.003 91.125 198.179C91.037 198.278 90.938 198.366 90.828 198.432C90.96 198.509 91.081 198.597 91.18 198.696C91.356 198.872 91.543 199.147 91.543 199.532C91.543 200.357 90.883 201.017 89.838 201.017C88.738 201.017 88.078 200.357 88.023 199.477ZM92.6955 200.962V196.012H96.8755V200.962H96.0505V196.782H93.5205V200.962H92.6955ZM100.558 200.247C101.383 200.247 102.098 199.543 102.098 198.487C102.098 197.431 101.383 196.727 100.558 196.727C99.7329 196.727 99.0179 197.431 99.0179 198.487C99.0179 199.543 99.7329 200.247 100.558 200.247ZM98.3029 202.722V196.012H98.9079L99.1279 196.562C99.2269 196.452 99.3589 196.353 99.5019 196.265C99.7549 196.1 100.118 195.957 100.613 195.957C101.889 195.957 102.923 197.002 102.923 198.487C102.923 199.972 101.889 201.017 100.613 201.017C100.118 201.017 99.7549 200.852 99.5019 200.687C99.3589 200.588 99.2269 200.478 99.1279 200.357V202.722H98.3029ZM107.153 200.962L106.933 200.412C106.823 200.533 106.702 200.632 106.559 200.72C106.306 200.885 105.943 201.017 105.448 201.017C104.458 201.017 103.798 200.357 103.798 199.532C103.798 198.597 104.458 197.937 106.933 197.937V197.662C106.933 197.167 106.504 196.727 105.888 196.727C105.272 196.727 105.019 197.002 104.898 197.442H104.018C104.139 196.617 104.788 195.957 105.888 195.957C106.988 195.957 107.758 196.738 107.758 197.662V200.962H107.153ZM106.933 199.092V198.707C104.953 198.707 104.623 199.037 104.623 199.587C104.623 199.928 104.953 200.247 105.448 200.247C106.328 200.247 106.933 199.642 106.933 199.092ZM110.014 200.962V196.782H108.474V196.012H112.379V196.782H110.839V200.962H110.014ZM116.394 199.642H117.274C116.944 200.357 116.284 201.017 115.184 201.017C113.864 201.017 112.819 199.972 112.819 198.487C112.819 197.002 113.93 195.957 115.129 195.957C116.339 195.957 117.384 196.936 117.384 198.432C117.384 198.575 117.362 198.674 117.351 198.751L117.329 198.872H113.699C113.754 199.587 114.403 200.247 115.184 200.247C115.833 200.247 116.229 199.873 116.394 199.642ZM113.699 198.157H116.559C116.438 197.332 115.844 196.727 115.129 196.727C114.414 196.727 113.82 197.332 113.699 198.157ZM118.487 200.962V196.012H119.312V198.047H121.842V196.012H122.667V200.962H121.842V198.817H119.312V200.962H118.487ZM128.438 200.247C129.197 200.247 129.923 199.543 129.923 198.487C129.923 197.431 129.197 196.727 128.438 196.727C127.668 196.727 126.953 197.431 126.953 198.487C126.953 199.543 127.668 200.247 128.438 200.247ZM128.438 201.017C127.162 201.017 126.128 199.972 126.128 198.487C126.128 197.002 127.162 195.957 128.438 195.957C129.714 195.957 130.748 197.002 130.748 198.487C130.748 199.972 129.714 201.017 128.438 201.017ZM132.733 200.962V196.782H131.193V196.012H135.098V196.782H133.558V200.962H132.733ZM137.624 202.282V199.697H138.009C138.13 199.642 138.251 199.554 138.35 199.455C138.526 199.279 138.724 198.982 138.779 198.542L139.329 194.032H143.674V199.697H144.444V202.282H143.124V200.962H138.944V202.282H137.624ZM139.494 199.697H142.354V195.297H140.429L140.044 198.542C139.989 198.982 139.846 199.279 139.725 199.455C139.648 199.554 139.571 199.642 139.494 199.697ZM147.466 197.057C146.751 197.057 146.201 197.596 146.201 198.432C146.201 199.268 146.751 199.807 147.466 199.807C148.181 199.807 148.731 199.268 148.731 198.432C148.731 197.596 148.181 197.057 147.466 197.057ZM147.466 195.847C148.83 195.847 149.996 197.002 149.996 198.432C149.996 199.862 148.83 201.017 147.466 201.017C146.102 201.017 144.936 199.862 144.936 198.432C144.936 197.002 146.102 195.847 147.466 195.847ZM155.051 193.812V195.022C152.719 195.077 152.147 195.682 151.971 196.837C152.07 196.716 152.202 196.606 152.345 196.507C152.598 196.342 152.961 196.177 153.456 196.177C154.721 196.177 155.711 197.112 155.711 198.597C155.711 199.961 154.666 201.017 153.236 201.017C151.795 201.017 150.706 199.917 150.706 197.937C150.706 195.077 151.861 193.933 155.051 193.812ZM153.236 199.807C153.885 199.807 154.446 199.268 154.446 198.597C154.446 197.948 153.885 197.387 153.236 197.387C152.565 197.387 152.026 197.948 152.026 198.597C152.026 199.268 152.565 199.807 153.236 199.807ZM156.641 202.722V195.902H157.576L157.796 196.397C157.906 196.298 158.038 196.199 158.181 196.122C158.434 195.99 158.786 195.847 159.226 195.847C160.491 195.847 161.591 196.936 161.591 198.432C161.591 199.928 160.491 201.017 159.226 201.017C158.797 201.017 158.489 200.896 158.258 200.775C158.126 200.698 158.005 200.621 157.906 200.522V202.722H156.641ZM159.061 199.807C159.776 199.807 160.326 199.268 160.326 198.432C160.326 197.596 159.776 197.057 159.061 197.057C158.346 197.057 157.796 197.596 157.796 198.432C157.796 199.268 158.346 199.807 159.061 199.807ZM164.783 197.057C164.068 197.057 163.518 197.596 163.518 198.432C163.518 199.268 164.068 199.807 164.783 199.807C165.498 199.807 166.048 199.268 166.048 198.432C166.048 197.596 165.498 197.057 164.783 197.057ZM164.783 195.847C166.147 195.847 167.313 197.002 167.313 198.432C167.313 199.862 166.147 201.017 164.783 201.017C163.419 201.017 162.253 199.862 162.253 198.432C162.253 197.002 163.419 195.847 164.783 195.847ZM168.243 200.962V195.902H169.453L171.048 199.312L172.643 195.902H173.853V200.962H172.588V198.377L171.378 200.962H170.718L169.508 198.377V200.962H168.243ZM175.064 200.962V195.902H176.329V199.092L178.474 195.902H179.684V200.962H178.419V197.772L176.274 200.962H175.064ZM180.897 202.722V195.902H181.832L182.052 196.397C182.162 196.298 182.294 196.199 182.437 196.122C182.69 195.99 183.042 195.847 183.482 195.847C184.747 195.847 185.847 196.936 185.847 198.432C185.847 199.928 184.747 201.017 183.482 201.017C183.053 201.017 182.745 200.896 182.514 200.775C182.382 200.698 182.261 200.621 182.162 200.522V202.722H180.897ZM183.317 199.807C184.032 199.807 184.582 199.268 184.582 198.432C184.582 197.596 184.032 197.057 183.317 197.057C182.602 197.057 182.052 197.596 182.052 198.432C182.052 199.268 182.602 199.807 183.317 199.807ZM85.8806 213.962V212.147C85.7596 212.213 85.6386 212.268 85.4956 212.312C85.2426 212.4 84.8906 212.477 84.4506 212.477C83.4496 212.477 82.7456 211.762 82.7456 210.662V209.012H83.5706V210.662C83.5706 211.278 84.0106 211.707 84.6706 211.707C85.0116 211.707 85.2976 211.619 85.5176 211.52C85.6496 211.465 85.7706 211.399 85.8806 211.322V209.012H86.7056V213.962H85.8806ZM90.3958 213.247C91.2208 213.247 91.9358 212.543 91.9358 211.487C91.9358 210.431 91.2208 209.727 90.3958 209.727C89.5708 209.727 88.8558 210.431 88.8558 211.487C88.8558 212.543 89.5708 213.247 90.3958 213.247ZM88.1408 215.722V209.012H88.7458L88.9658 209.562C89.0648 209.452 89.1968 209.353 89.3398 209.265C89.5928 209.1 89.9558 208.957 90.4508 208.957C91.7268 208.957 92.7608 210.002 92.7608 211.487C92.7608 212.972 91.7268 214.017 90.4508 214.017C89.9558 214.017 89.5928 213.852 89.3398 213.687C89.1968 213.588 89.0648 213.478 88.9658 213.357V215.722H88.1408ZM97.1006 212.642H97.9806C97.6506 213.357 96.9906 214.017 95.8906 214.017C94.5706 214.017 93.5256 212.972 93.5256 211.487C93.5256 210.002 94.6366 208.957 95.8356 208.957C97.0456 208.957 98.0906 209.936 98.0906 211.432C98.0906 211.575 98.0686 211.674 98.0576 211.751L98.0356 211.872H94.4056C94.4606 212.587 95.1096 213.247 95.8906 213.247C96.5396 213.247 96.9356 212.873 97.1006 212.642ZM94.4056 211.157H97.2656C97.1446 210.332 96.5506 209.727 95.8356 209.727C95.1206 209.727 94.5266 210.332 94.4056 211.157ZM98.7545 212.477H99.5795C99.6345 212.917 99.9535 213.247 100.569 213.247C101.13 213.247 101.449 212.917 101.449 212.532C101.449 212.147 101.108 211.817 100.569 211.817H100.129V211.047H100.569C101.009 211.047 101.339 210.772 101.339 210.387C101.339 210.002 101.009 209.727 100.569 209.727C99.9535 209.727 99.6895 210.057 99.6345 210.442H98.8095C98.8645 209.562 99.4695 208.957 100.569 208.957C101.504 208.957 102.164 209.628 102.164 210.387C102.164 210.75 102.021 211.003 101.856 211.179C101.768 211.278 101.669 211.366 101.559 211.432C101.691 211.509 101.812 211.597 101.911 211.696C102.087 211.872 102.274 212.147 102.274 212.532C102.274 213.357 101.614 214.017 100.569 214.017C99.4695 214.017 98.8095 213.357 98.7545 212.477ZM107.715 213.962L105.185 207.032H106.12L108.155 212.697L110.19 207.032H111.125L108.595 213.962H107.715ZM111.945 213.962V209.012H112.77V213.962H111.945ZM111.835 207.615C111.835 207.307 112.055 207.087 112.352 207.087C112.66 207.087 112.88 207.307 112.88 207.615C112.88 207.912 112.66 208.132 112.352 208.132C112.055 208.132 111.835 207.912 111.835 207.615ZM116.511 213.247C117.336 213.247 118.051 212.543 118.051 211.487C118.051 210.431 117.336 209.727 116.511 209.727C115.686 209.727 114.971 210.431 114.971 211.487C114.971 212.543 115.686 213.247 116.511 213.247ZM114.256 213.962V207.032H115.081V209.617C115.18 209.496 115.312 209.386 115.455 209.287C115.708 209.122 116.071 208.957 116.566 208.957C117.842 208.957 118.876 210.002 118.876 211.487C118.876 212.972 117.842 214.017 116.566 214.017C116.071 214.017 115.708 213.885 115.455 213.72C115.312 213.632 115.18 213.533 115.081 213.412L114.861 213.962H114.256ZM123.226 212.642H124.106C123.776 213.357 123.116 214.017 122.016 214.017C120.696 214.017 119.651 212.972 119.651 211.487C119.651 210.002 120.762 208.957 121.961 208.957C123.171 208.957 124.216 209.936 124.216 211.432C124.216 211.575 124.194 211.674 124.183 211.751L124.161 211.872H120.531C120.586 212.587 121.235 213.247 122.016 213.247C122.665 213.247 123.061 212.873 123.226 212.642ZM120.531 211.157H123.391C123.27 210.332 122.676 209.727 121.961 209.727C121.246 209.727 120.652 210.332 120.531 211.157ZM125.319 213.962V209.012H125.924L126.144 209.562C126.243 209.452 126.364 209.353 126.507 209.265C126.76 209.1 127.101 208.957 127.574 208.957H127.684V209.782H127.464C126.683 209.782 126.144 210.321 126.144 211.157V213.962H125.319ZM130.541 212.477H131.366C131.421 212.917 131.74 213.247 132.356 213.247C132.917 213.247 133.236 212.917 133.236 212.532C133.236 212.147 132.895 211.817 132.356 211.817H131.916V211.047H132.356C132.796 211.047 133.126 210.772 133.126 210.387C133.126 210.002 132.796 209.727 132.356 209.727C131.74 209.727 131.476 210.057 131.421 210.442H130.596C130.651 209.562 131.256 208.957 132.356 208.957C133.291 208.957 133.951 209.628 133.951 210.387C133.951 210.75 133.808 211.003 133.643 211.179C133.555 211.278 133.456 211.366 133.346 211.432C133.478 211.509 133.599 211.597 133.698 211.696C133.874 211.872 134.061 212.147 134.061 212.532C134.061 213.357 133.401 214.017 132.356 214.017C131.256 214.017 130.596 213.357 130.541 212.477ZM138.348 213.962L138.128 213.412C138.018 213.533 137.897 213.632 137.754 213.72C137.501 213.885 137.138 214.017 136.643 214.017C135.653 214.017 134.993 213.357 134.993 212.532C134.993 211.597 135.653 210.937 138.128 210.937V210.662C138.128 210.167 137.699 209.727 137.083 209.727C136.467 209.727 136.214 210.002 136.093 210.442H135.213C135.334 209.617 135.983 208.957 137.083 208.957C138.183 208.957 138.953 209.738 138.953 210.662V213.962H138.348ZM138.128 212.092V211.707C136.148 211.707 135.818 212.037 135.818 212.587C135.818 212.928 136.148 213.247 136.643 213.247C137.523 213.247 138.128 212.642 138.128 212.092ZM142.69 213.962V209.012H143.515V211.377L145.385 209.012H146.32L144.45 211.322L146.595 213.962H145.605L143.515 211.377V213.962H142.69ZM146.485 213.962V213.247H146.595C147.134 213.247 147.42 212.95 147.475 212.367L147.75 209.012H151.105V213.962H150.28V209.727H148.465L148.3 212.367C148.223 213.423 147.651 214.017 146.815 214.017C146.727 214.017 146.661 214.006 146.584 213.995L146.485 213.962ZM152.54 213.962V209.012H153.365V212.697L155.895 209.012H156.72V213.962H155.895V210.277L153.365 213.962H152.54ZM161.393 212.642H162.273C161.943 213.357 161.283 214.017 160.183 214.017C158.863 214.017 157.818 212.972 157.818 211.487C157.818 210.002 158.929 208.957 160.128 208.957C161.338 208.957 162.383 209.936 162.383 211.432C162.383 211.575 162.361 211.674 162.35 211.751L162.328 211.872H158.698C158.753 212.587 159.402 213.247 160.183 213.247C160.832 213.247 161.228 212.873 161.393 212.642ZM158.698 211.157H161.558C161.437 210.332 160.843 209.727 160.128 209.727C159.413 209.727 158.819 210.332 158.698 211.157ZM163.486 213.962V209.012H164.311V211.047H166.841V209.012H167.666V213.962H166.841V211.817H164.311V213.962H163.486ZM170.084 213.962V209.782H168.544V209.012H172.449V209.782H170.909V213.962H170.084ZM82.8556 226.962V220.032H85.4406C86.7606 220.032 87.8056 221.066 87.8056 222.342C87.8056 223.618 86.7606 224.652 85.4406 224.652H84.1756V226.962H82.8556ZM84.1756 223.387H85.4406C85.9906 223.387 86.4856 222.892 86.4856 222.342C86.4856 221.792 85.9906 221.297 85.4406 221.297H84.1756V223.387ZM88.8498 226.962V220.032H91.5998C92.9198 220.032 93.9098 221.022 93.9098 222.177C93.9098 222.958 93.5468 223.453 93.1618 223.772C92.9418 223.959 92.6998 224.113 92.4248 224.212L94.0748 226.962H92.5898L91.1598 224.432H90.1698V226.962H88.8498ZM90.1698 223.167H91.5998C92.1608 223.167 92.5898 222.727 92.5898 222.232C92.5898 221.737 92.1608 221.297 91.5998 221.297H90.1698V223.167ZM97.975 221.242C96.875 221.242 95.94 222.177 95.94 223.497C95.94 224.817 96.875 225.752 97.975 225.752C99.075 225.752 100.01 224.817 100.01 223.497C100.01 222.177 99.075 221.242 97.975 221.242ZM97.975 219.977C99.79 219.977 101.33 221.517 101.33 223.497C101.33 225.477 99.79 227.017 97.975 227.017C96.16 227.017 94.62 225.477 94.62 223.497C94.62 221.517 96.16 219.977 97.975 219.977ZM103.694 225.697H104.574C105.674 225.697 106.664 224.696 106.664 223.497C106.664 222.298 105.674 221.297 104.574 221.297H103.694V225.697ZM102.374 226.962V220.032H104.574C106.389 220.032 107.984 221.627 107.984 223.497C107.984 225.367 106.389 226.962 104.574 226.962H102.374ZM111.505 226.962V220.032H112.825V223.112L115.135 220.032H116.675L114.09 223.442L116.84 226.962H115.3L112.825 223.827V226.962H111.505ZM117.335 226.962V220.032H118.6V226.962H117.335ZM119.806 226.962V221.902H121.071V226.962H119.806ZM120.466 221.297C120.081 221.297 119.751 220.967 119.751 220.582C119.751 220.197 120.081 219.867 120.466 219.867C120.851 219.867 121.181 220.197 121.181 220.582C121.181 220.967 120.851 221.297 120.466 221.297ZM125.467 225.422H126.787C126.523 226.181 125.676 227.017 124.532 227.017C123.168 227.017 122.002 225.862 122.002 224.432C122.002 223.002 123.168 221.847 124.532 221.847C125.852 221.847 126.952 222.892 126.952 224.432C126.952 224.553 126.93 224.663 126.919 224.762L126.897 224.927H123.377C123.498 225.422 123.872 225.807 124.532 225.807C124.873 225.807 125.082 225.719 125.247 225.62C125.335 225.565 125.412 225.499 125.467 225.422ZM123.322 224.047H125.742C125.621 223.486 125.192 223.057 124.532 223.057C123.872 223.057 123.443 223.486 123.322 224.047ZM127.884 226.962V221.902H128.819L129.039 222.397C129.16 222.298 129.303 222.199 129.446 222.122C129.699 221.99 130.04 221.847 130.469 221.847C131.668 221.847 132.504 222.672 132.504 223.992V226.962H131.239V224.157C131.239 223.497 130.81 223.057 130.194 223.057C129.578 223.057 129.149 223.497 129.149 224.157V226.962H127.884ZM134.049 225.202V223.057H133.279V222.012H133.609C134.016 222.012 134.214 221.814 134.214 221.407V220.692H135.314V221.902H136.414V223.057H135.314V225.147C135.314 225.587 135.589 225.862 136.029 225.862C136.15 225.862 136.216 225.851 136.271 225.84L136.359 225.807V226.907C136.304 226.929 136.249 226.951 136.183 226.962C136.062 226.995 135.919 227.017 135.754 227.017C134.753 227.017 134.049 226.302 134.049 225.202ZM139.929 226.962V222.012H142.129C142.954 222.012 143.559 222.617 143.559 223.387C143.559 223.75 143.416 223.981 143.251 224.146C143.163 224.234 143.064 224.311 142.954 224.377C143.097 224.443 143.218 224.531 143.339 224.63C143.526 224.806 143.724 225.092 143.724 225.532C143.724 226.368 143.13 226.962 142.294 226.962H139.929ZM140.754 224.047H142.019C142.459 224.047 142.734 223.783 142.734 223.442C142.734 223.057 142.459 222.782 142.019 222.782H140.754V224.047ZM140.754 226.192H142.184C142.569 226.192 142.899 225.862 142.899 225.477C142.899 225.147 142.58 224.817 142.184 224.817H140.754V226.192ZM147.191 226.962V222.012H148.016V224.377L149.886 222.012H150.821L148.951 224.322L151.096 226.962H150.106L148.016 224.377V226.962H147.191ZM154.891 226.962L154.671 226.412C154.561 226.533 154.44 226.632 154.297 226.72C154.044 226.885 153.681 227.017 153.186 227.017C152.196 227.017 151.536 226.357 151.536 225.532C151.536 224.597 152.196 223.937 154.671 223.937V223.662C154.671 223.167 154.242 222.727 153.626 222.727C153.01 222.727 152.757 223.002 152.636 223.442H151.756C151.877 222.617 152.526 221.957 153.626 221.957C154.726 221.957 155.496 222.738 155.496 223.662V226.962H154.891ZM154.671 225.092V224.707C152.691 224.707 152.361 225.037 152.361 225.587C152.361 225.928 152.691 226.247 153.186 226.247C154.066 226.247 154.671 225.642 154.671 225.092ZM157.752 226.962V222.782H156.212V222.012H160.117V222.782H158.577V226.962H157.752ZM164.132 225.642H165.012C164.682 226.357 164.022 227.017 162.922 227.017C161.602 227.017 160.557 225.972 160.557 224.487C160.557 223.002 161.668 221.957 162.867 221.957C164.077 221.957 165.122 222.936 165.122 224.432C165.122 224.575 165.1 224.674 165.089 224.751L165.067 224.872H161.437C161.492 225.587 162.141 226.247 162.922 226.247C163.571 226.247 163.967 225.873 164.132 225.642ZM161.437 224.157H164.297C164.176 223.332 163.582 222.727 162.867 222.727C162.152 222.727 161.558 223.332 161.437 224.157ZM166.226 226.962V222.012H169.471V222.782H167.051V226.962H166.226ZM172.17 226.247C172.929 226.247 173.655 225.543 173.655 224.487C173.655 223.431 172.929 222.727 172.17 222.727C171.4 222.727 170.685 223.431 170.685 224.487C170.685 225.543 171.4 226.247 172.17 226.247ZM172.17 227.017C170.894 227.017 169.86 225.972 169.86 224.487C169.86 223.002 170.894 221.957 172.17 221.957C173.446 221.957 174.48 223.002 174.48 224.487C174.48 225.972 173.446 227.017 172.17 227.017ZM177.837 226.247C178.662 226.247 179.377 225.543 179.377 224.487C179.377 223.431 178.662 222.727 177.837 222.727C177.012 222.727 176.297 223.431 176.297 224.487C176.297 225.543 177.012 226.247 177.837 226.247ZM175.582 228.722V222.012H176.187L176.407 222.562C176.506 222.452 176.638 222.353 176.781 222.265C177.034 222.1 177.397 221.957 177.892 221.957C179.168 221.957 180.202 223.002 180.202 224.487C180.202 225.972 179.168 227.017 177.892 227.017C177.397 227.017 177.034 226.852 176.781 226.687C176.638 226.588 176.506 226.478 176.407 226.357V228.722H175.582ZM181.297 226.962V222.012H182.122V225.697L184.652 222.012H185.477V226.962H184.652V223.277L182.122 226.962H181.297ZM186.574 226.962L187.729 225.092C187.542 225.037 187.377 224.938 187.234 224.806C186.981 224.586 186.739 224.223 186.739 223.607C186.739 222.672 187.388 222.012 188.444 222.012H190.534V226.962H189.709V225.202H188.609L187.509 226.962H186.574ZM188.444 224.432H189.709V222.782H188.444C187.949 222.782 187.564 223.167 187.564 223.607C187.564 224.047 187.949 224.432 188.444 224.432ZM82.8556 239.962V235.012H87.0356V239.962H86.2106V235.782H83.6806V239.962H82.8556ZM90.718 239.247C91.543 239.247 92.258 238.543 92.258 237.487C92.258 236.431 91.543 235.727 90.718 235.727C89.893 235.727 89.178 236.431 89.178 237.487C89.178 238.543 89.893 239.247 90.718 239.247ZM88.463 241.722V235.012H89.068L89.288 235.562C89.387 235.452 89.519 235.353 89.662 235.265C89.915 235.1 90.278 234.957 90.773 234.957C92.049 234.957 93.083 236.002 93.083 237.487C93.083 238.972 92.049 240.017 90.773 240.017C90.278 240.017 89.915 239.852 89.662 239.687C89.519 239.588 89.387 239.478 89.288 239.357V241.722H88.463ZM94.1779 239.962V235.012H95.0029V238.697L97.5329 235.012H98.3579V239.962H97.5329V236.277L95.0029 239.962H94.1779ZM99.0703 239.962L100.83 237.432L99.1803 235.012H100.115L101.325 236.827L102.535 235.012H103.47L101.82 237.432L103.58 239.962H102.645L101.325 238.037L100.005 239.962H99.0703ZM106.17 239.247C106.929 239.247 107.655 238.543 107.655 237.487C107.655 236.431 106.929 235.727 106.17 235.727C105.4 235.727 104.685 236.431 104.685 237.487C104.685 238.543 105.4 239.247 106.17 239.247ZM106.17 240.017C104.894 240.017 103.86 238.972 103.86 237.487C103.86 236.002 104.894 234.957 106.17 234.957C107.446 234.957 108.48 236.002 108.48 237.487C108.48 238.972 107.446 240.017 106.17 240.017ZM108.867 241.172V239.192H109.142C109.252 239.115 109.351 239.016 109.439 238.906C109.604 238.719 109.758 238.455 109.802 238.092L110.132 235.012H113.377V239.192H114.037V241.172H113.267V239.962H109.637V241.172H108.867ZM110.132 239.192H112.552V235.782H110.869L110.627 238.092C110.594 238.455 110.473 238.719 110.352 238.906C110.275 239.016 110.209 239.115 110.132 239.192ZM114.975 239.962V235.012H115.8V238.697L118.33 235.012H119.155V239.962H118.33V236.277L115.8 239.962H114.975ZM120.252 239.467C120.252 239.126 120.461 238.917 120.802 238.917C121.143 238.917 121.352 239.126 121.352 239.467C121.352 239.808 121.143 240.017 120.802 240.017C120.461 240.017 120.252 239.808 120.252 239.467Z" fill="white"/>
<rect x="48" y="201" width="195" height="120" fill="url(#paint7_linear_2223_201348)"/>
</g>
<g filter="url(#filter2_d_2223_201348)">
<path d="M220.891 99.9999C222.226 100.465 222.857 102.017 222.225 103.282L207.943 131.841C207.056 133.613 204.511 133.485 203.757 131.63L187.884 92.5709C187.129 90.7154 188.864 88.8478 190.736 89.4997L220.891 99.9999Z" fill="url(#paint8_linear_2223_201348)"/>
</g>
<g filter="url(#filter3_d_2223_201348)">
<path d="M231.914 95.5292C231.284 96.789 231.911 98.3324 233.241 98.7958L263.4 109.303C265.271 109.954 267.01 108.089 266.258 106.238L250.379 67.1652C249.627 65.3141 247.08 65.191 246.194 66.963L231.914 95.5292Z" fill="url(#paint9_linear_2223_201348)"/>
</g>
<g filter="url(#filter4_d_2223_201348)">
<path d="M224.513 96.8864C225.066 96.0062 226.136 95.5711 227.146 95.8162L264.687 104.927C266.886 105.461 267.052 108.439 264.93 109.301L206.847 132.905C204.725 133.767 202.766 131.518 203.97 129.601L224.513 96.8864Z" fill="url(#paint10_linear_2223_201348)"/>
</g>
<g filter="url(#filter5_d_2223_201348)">
<path d="M227.018 102.984C228.012 103.225 229.061 102.799 229.606 101.932L250.171 69.2064C251.37 67.2981 249.42 65.033 247.315 65.8886L189.186 89.5115C187.08 90.3671 187.263 93.3504 189.454 93.8812L227.018 102.984Z" fill="url(#paint11_linear_2223_201348)"/>
</g>
<defs>
<filter id="filter0_d_2223_201348" x="0.150626" y="159.799" width="120.64" height="121.459" filterUnits="userSpaceOnUse" color-interpolation-filters="sRGB">
<feFlood flood-opacity="0" result="BackgroundImageFix"/>
<feColorMatrix in="SourceAlpha" type="matrix" values="0 0 0 0 0 0 0 0 0 0 0 0 0 0 0 0 0 0 127 0" result="hardAlpha"/>
<feOffset dx="11.7186" dy="5.8593"/>
<feGaussianBlur stdDeviation="14.6482"/>
<feComposite in2="hardAlpha" operator="out"/>
<feColorMatrix type="matrix" values="0 0 0 0 0.0666667 0 0 0 0 0.0980392 0 0 0 0 0.156863 0 0 0 0.32 0"/>
<feBlend mode="normal" in2="BackgroundImageFix" result="effect1_dropShadow_2223_201348"/>
<feBlend mode="normal" in="SourceGraphic" in2="effect1_dropShadow_2223_201348" result="shape"/>
</filter>
<filter id="filter1_d_2223_201348" x="66.3794" y="119.725" width="27.8799" height="27.8809" filterUnits="userSpaceOnUse" color-interpolation-filters="sRGB">
<feFlood flood-opacity="0" result="BackgroundImageFix"/>
<feColorMatrix in="SourceAlpha" type="matrix" values="0 0 0 0 0 0 0 0 0 0 0 0 0 0 0 0 0 0 127 0" result="hardAlpha"/>
<feOffset dy="0.912921"/>
<feGaussianBlur stdDeviation="1.27809"/>
<feComposite in2="hardAlpha" operator="out"/>
<feColorMatrix type="matrix" values="0 0 0 0 0.161625 0 0 0 0 0.18275 0 0 0 0 0.225 0 0 0 0.14 0"/>
<feBlend mode="normal" in2="BackgroundImageFix" result="effect1_dropShadow_2223_201348"/>
<feBlend mode="normal" in="SourceGraphic" in2="effect1_dropShadow_2223_201348" result="shape"/>
</filter>
<filter id="filter2_d_2223_201348" x="170.125" y="65.93" width="93.3625" height="102.324" filterUnits="userSpaceOnUse" color-interpolation-filters="sRGB">
<feFlood flood-opacity="0" result="BackgroundImageFix"/>
<feColorMatrix in="SourceAlpha" type="matrix" values="0 0 0 0 0 0 0 0 0 0 0 0 0 0 0 0 0 0 127 0" result="hardAlpha"/>
<feOffset dx="11.7186" dy="5.8593"/>
<feGaussianBlur stdDeviation="14.6482"/>
<feComposite in2="hardAlpha" operator="out"/>
<feColorMatrix type="matrix" values="0 0 0 0 0.0666667 0 0 0 0 0.0980392 0 0 0 0 0.156863 0 0 0 0.32 0"/>
<feBlend mode="normal" in2="BackgroundImageFix" result="effect1_dropShadow_2223_201348"/>
<feBlend mode="normal" in="SourceGraphic" in2="effect1_dropShadow_2223_201348" result="shape"/>
</filter>
<filter id="filter3_d_2223_201348" x="214.09" y="42.2659" width="93.3625" height="102.325" filterUnits="userSpaceOnUse" color-interpolation-filters="sRGB">
<feFlood flood-opacity="0" result="BackgroundImageFix"/>
<feColorMatrix in="SourceAlpha" type="matrix" values="0 0 0 0 0 0 0 0 0 0 0 0 0 0 0 0 0 0 127 0" result="hardAlpha"/>
<feOffset dx="11.7186" dy="5.8593"/>
<feGaussianBlur stdDeviation="14.6482"/>
<feComposite in2="hardAlpha" operator="out"/>
<feColorMatrix type="matrix" values="0 0 0 0 0.0666667 0 0 0 0 0.0980392 0 0 0 0 0.156863 0 0 0 0.32 0"/>
<feBlend mode="normal" in2="BackgroundImageFix" result="effect1_dropShadow_2223_201348"/>
<feBlend mode="normal" in="SourceGraphic" in2="effect1_dropShadow_2223_201348" result="shape"/>
</filter>
<filter id="filter4_d_2223_201348" x="186.024" y="72.3109" width="121.423" height="95.9396" filterUnits="userSpaceOnUse" color-interpolation-filters="sRGB">
<feFlood flood-opacity="0" result="BackgroundImageFix"/>
<feColorMatrix in="SourceAlpha" type="matrix" values="0 0 0 0 0 0 0 0 0 0 0 0 0 0 0 0 0 0 127 0" result="hardAlpha"/>
<feOffset dx="11.7186" dy="5.8593"/>
<feGaussianBlur stdDeviation="14.6482"/>
<feComposite in2="hardAlpha" operator="out"/>
<feColorMatrix type="matrix" values="0 0 0 0 0.0666667 0 0 0 0 0.0980392 0 0 0 0 0.156863 0 0 0 0.32 0"/>
<feBlend mode="normal" in2="BackgroundImageFix" result="effect1_dropShadow_2223_201348"/>
<feBlend mode="normal" in="SourceGraphic" in2="effect1_dropShadow_2223_201348" result="shape"/>
</filter>
<filter id="filter5_d_2223_201348" x="170.127" y="42.265" width="121.425" height="95.9416" filterUnits="userSpaceOnUse" color-interpolation-filters="sRGB">
<feFlood flood-opacity="0" result="BackgroundImageFix"/>
<feColorMatrix in="SourceAlpha" type="matrix" values="0 0 0 0 0 0 0 0 0 0 0 0 0 0 0 0 0 0 127 0" result="hardAlpha"/>
<feOffset dx="11.7186" dy="5.8593"/>
<feGaussianBlur stdDeviation="14.6482"/>
<feComposite in2="hardAlpha" operator="out"/>
<feColorMatrix type="matrix" values="0 0 0 0 0.0666667 0 0 0 0 0.0980392 0 0 0 0 0.156863 0 0 0 0.32 0"/>
<feBlend mode="normal" in2="BackgroundImageFix" result="effect1_dropShadow_2223_201348"/>
<feBlend mode="normal" in="SourceGraphic" in2="effect1_dropShadow_2223_201348" result="shape"/>
</filter>
<linearGradient id="paint0_linear_2223_201348" x1="43.2638" y1="185.732" x2="64.0987" y2="265.971" gradientUnits="userSpaceOnUse">
<stop stop-color="#344F81"/>
<stop offset="1" stop-color="#1F2D47"/>
</linearGradient>
<linearGradient id="paint1_linear_2223_201348" x1="43.2638" y1="185.732" x2="64.0987" y2="265.971" gradientUnits="userSpaceOnUse">
<stop stop-color="#344F81"/>
<stop offset="1" stop-color="#1F2D47"/>
</linearGradient>
<linearGradient id="paint2_linear_2223_201348" x1="75.0918" y1="132.631" x2="86.2933" y2="132.631" gradientUnits="userSpaceOnUse">
<stop stop-color="#6094FF"/>
<stop offset="0.25" stop-color="#4C85FD"/>
<stop offset="0.77" stop-color="#185FF9"/>
<stop offset="1" stop-color="#004DF7"/>
</linearGradient>
<linearGradient id="paint3_linear_2223_201348" x1="75.387" y1="138.285" x2="78.8315" y2="135.88" gradientUnits="userSpaceOnUse">
<stop offset="0.07" stop-color="#5E93FF" stop-opacity="0.5"/>
<stop offset="0.3" stop-color="#517BE8" stop-opacity="0.59"/>
<stop offset="0.69" stop-color="#2E3CAD" stop-opacity="0.85"/>
<stop offset="0.89" stop-color="#191589"/>
</linearGradient>
<linearGradient id="paint4_linear_2223_201348" x1="76.9405" y1="138.688" x2="86.6317" y2="127.146" gradientUnits="userSpaceOnUse">
<stop offset="0.07" stop-color="#5E93FF" stop-opacity="0.5"/>
<stop offset="0.27" stop-color="#3B54C4" stop-opacity="0.7"/>
<stop offset="0.48" stop-color="#222598" stop-opacity="0.85"/>
<stop offset="0.61" stop-color="#191589" stop-opacity="0.9"/>
<stop offset="0.67" stop-color="#18188D" stop-opacity="0.86"/>
<stop offset="0.75" stop-color="#15219A" stop-opacity="0.76"/>
<stop offset="0.82" stop-color="#1030AF" stop-opacity="0.59"/>
<stop offset="0.9" stop-color="#0945CD" stop-opacity="0.36"/>
<stop offset="0.99" stop-color="#0161F3" stop-opacity="0.05"/>
<stop offset="1" stop-color="#0066FA" stop-opacity="0"/>
</linearGradient>
<radialGradient id="paint5_radial_2223_201348" cx="0" cy="0" r="1" gradientUnits="userSpaceOnUse" gradientTransform="translate(77.6933 129.221) scale(2.93911)">
<stop stop-color="#191589" stop-opacity="0.9"/>
<stop offset="0.17" stop-color="#161E95" stop-opacity="0.8"/>
<stop offset="0.48" stop-color="#0E36B7" stop-opacity="0.53"/>
<stop offset="0.91" stop-color="#025DEE" stop-opacity="0.09"/>
<stop offset="1" stop-color="#0066FA" stop-opacity="0"/>
</radialGradient>
<radialGradient id="paint6_radial_2223_201348" cx="0" cy="0" r="1" gradientUnits="userSpaceOnUse" gradientTransform="translate(83.642 129.517) scale(3.88629 3.88629)">
<stop offset="0.18" stop-color="#191589"/>
<stop offset="0.19" stop-color="#18168A" stop-opacity="0.99"/>
<stop offset="0.47" stop-color="#0E38BA" stop-opacity="0.57"/>
<stop offset="0.7" stop-color="#0651DC" stop-opacity="0.26"/>
<stop offset="0.89" stop-color="#0160F2" stop-opacity="0.07"/>
<stop offset="1" stop-color="#0066FA" stop-opacity="0"/>
</radialGradient>
<linearGradient id="paint7_linear_2223_201348" x1="145.5" y1="201" x2="145.5" y2="284.306" gradientUnits="userSpaceOnUse">
<stop stop-color="#111928" stop-opacity="0"/>
<stop offset="1" stop-color="#111928"/>
</linearGradient>
<linearGradient id="paint8_linear_2223_201348" x1="223.425" y1="100.882" x2="186.618" y2="115.84" gradientUnits="userSpaceOnUse">
<stop stop-color="#314872"/>
<stop offset="1" stop-color="#1F2D47"/>
</linearGradient>
<linearGradient id="paint9_linear_2223_201348" x1="230.72" y1="97.9174" x2="267.518" y2="82.9632" gradientUnits="userSpaceOnUse">
<stop stop-color="#314872"/>
<stop offset="1" stop-color="#1F2D47"/>
</linearGradient>
<linearGradient id="paint10_linear_2223_201348" x1="225.444" y1="95.4031" x2="239.37" y2="129.67" gradientUnits="userSpaceOnUse">
<stop stop-color="#314872"/>
<stop offset="1" stop-color="#1F2D47"/>
</linearGradient>
<linearGradient id="paint11_linear_2223_201348" x1="228.69" y1="103.39" x2="214.77" y2="69.1369" gradientUnits="userSpaceOnUse">
<stop stop-color="#344F81"/>
<stop offset="1" stop-color="#1F2D47"/>
</linearGradient>
<clipPath id="clip0_2223_201348">
<rect width="176.408" height="300" fill="white" transform="translate(52)"/>
</clipPath>
<clipPath id="clip1_2223_201348">
<rect width="12" height="12" fill="white" transform="translate(181.705 31)"/>
</clipPath>
<clipPath id="clip2_2223_201348">
<rect width="11.2015" height="13.1995" fill="white" transform="translate(75.0898 126.031)"/>
</clipPath>
</defs>
</svg>
