<svg width="28" height="33" viewBox="0 0 28 33" fill="none" xmlns="http://www.w3.org/2000/svg">
<g clip-path="url(#clip0_2121_1537)">
<path d="M10.3669 13.7763L16.7604 10.1347C16.9953 9.99269 16.8253 9.63324 16.5665 9.72452L9.41553 12.8192L6.55572 9.9651C6.30661 9.716 6.45672 9.29001 6.80644 9.25147L19.0746 7.90372C19.6547 7.84002 20.0641 8.45913 19.7785 8.96788L15.0394 17.409C14.852 17.7433 14.3968 17.8058 14.1258 17.5348L11.6441 15.0531C11.6441 15.0531 8.5104 16.7996 7.3866 17.508C6.50825 18.0614 5.4027 18.8156 4.68136 19.3113C1.57893 21.4453 0.00195312 22.785 0.00195312 26.2647V31.3348C0.00195312 32.3961 1.30711 32.9029 2.02318 32.1199L7.94891 25.6403C8.73719 24.7782 9.85166 24.2873 11.0201 24.2873H14.2739C16.8509 24.2873 19.1058 23.8078 21.0382 22.8499C22.9714 21.8916 24.4741 20.5268 25.548 18.7531C26.6219 16.9802 27.1582 14.8831 27.1582 12.4602C27.1582 10.0373 26.6349 7.96133 25.589 6.16648C24.5431 4.37164 23.0785 2.97845 21.1956 1.98772C19.3119 0.995366 17.1146 0.5 14.6041 0.5H9.57132C4.2862 0.5 0.00195312 4.78425 0.00195312 10.069V14.5277C0.00195312 15.9501 0.782936 17.1611 2.11162 17.2378C2.79483 17.2771 3.44274 17.1708 4.18559 16.8771C5.7938 16.2418 10.6331 13.6306 10.6331 13.6306" fill="url(#paint0_linear_2121_1537)"/>
<path opacity="0.5" d="M0.00195312 27.9139V31.3348C0.00195312 32.3961 1.30711 32.9029 2.02318 32.1199L7.94891 25.6403C8.54692 24.9863 9.33277 24.5466 10.1876 24.3721C10.0772 24.3697 9.96648 24.368 9.85532 24.368C6.11106 24.368 2.67758 25.6992 0.00235883 27.9143L0.00195312 27.9139Z" fill="url(#paint1_linear_2121_1537)"/>
<path opacity="0.5" d="M25.589 6.16607C24.5431 4.37123 23.0785 2.97804 21.1956 1.98731C21.1721 1.97473 21.1477 1.96337 21.1242 1.9512C21.1323 2.15608 21.1376 2.36218 21.1376 2.56909C21.1376 4.75544 20.6828 6.83508 19.8645 8.71999C19.8519 8.80316 19.8243 8.88714 19.7789 8.96828L19.6361 9.22266L18.6413 10.9944L15.0394 17.4098C14.852 17.7441 14.3968 17.8066 14.1258 17.5356L12.8551 16.2649L11.6445 15.0543C11.6445 15.0543 8.51081 16.8008 7.38701 17.5092C7.14602 17.6609 6.88758 17.8281 6.62509 18.0009C5.93093 18.4573 5.20512 18.9531 4.68176 19.313C1.57893 21.4453 0.00195312 22.785 0.00195312 26.2647V27.9135C2.67717 25.6988 6.11066 24.3672 9.85491 24.3672C9.96607 24.3672 10.0764 24.3693 10.1872 24.3713C10.459 24.3157 10.7377 24.2865 11.0197 24.2865H14.2734C16.8505 24.2865 19.1054 23.8069 21.0378 22.8491C22.971 21.8908 24.4737 20.526 25.5476 18.7523C26.6215 16.9793 27.1578 14.8822 27.1578 12.4594C27.1578 10.0365 26.6345 7.96051 25.5886 6.16567L25.589 6.16607Z" fill="url(#paint2_linear_2121_1537)"/>
<path d="M4.18561 16.8771C5.59949 16.3185 9.5113 14.2327 10.4355 13.7369L15.6407 10.7725L16.7608 10.1347C16.9957 9.99269 16.8258 9.63324 16.5669 9.72452L14.9267 10.4345L9.41596 12.8196L6.55614 9.96551C6.37925 9.78862 6.404 9.52208 6.55857 9.36913C3.9791 11.1672 1.97329 13.7313 0.871399 16.7319C1.20164 17.0252 1.61911 17.2098 2.11164 17.2382C2.79485 17.2775 3.44276 17.1712 4.18561 16.8775V16.8771Z" fill="url(#paint3_radial_2121_1537)"/>
<path opacity="0.5" d="M21.1242 1.95121C19.2563 0.984006 17.0834 0.5 14.6041 0.5H9.57132C4.2862 0.5 0.00195312 4.78425 0.00195312 10.069V14.5277C0.00195312 15.4227 0.311101 16.2337 0.871379 16.7315C1.97327 13.7309 3.97908 11.1668 6.55856 9.36872C6.59223 9.33545 6.63199 9.30746 6.67702 9.28717C6.71637 9.26932 6.75979 9.25674 6.80725 9.25147L7.84545 9.13746L19.0754 7.90372C19.5634 7.85016 19.9302 8.2794 19.8649 8.71999C20.0495 8.29522 20.215 7.86071 20.3615 7.41727C20.8649 5.89223 21.138 4.26292 21.138 2.5691C21.138 2.36219 21.1327 2.15609 21.1246 1.95121H21.1242Z" fill="url(#paint4_radial_2121_1537)"/>
</g>
<defs>
<linearGradient id="paint0_linear_2121_1537" x1="0.00195312" y1="16.5002" x2="27.1582" y2="16.5002" gradientUnits="userSpaceOnUse">
<stop stop-color="#6094FF"/>
<stop offset="0.25" stop-color="#4C85FD"/>
<stop offset="0.77" stop-color="#185FF9"/>
<stop offset="1" stop-color="#004DF7"/>
</linearGradient>
<linearGradient id="paint1_linear_2121_1537" x1="0.717617" y1="30.2094" x2="9.06825" y2="24.3778" gradientUnits="userSpaceOnUse">
<stop offset="0.07" stop-color="#5E93FF" stop-opacity="0.5"/>
<stop offset="0.3" stop-color="#517BE8" stop-opacity="0.59"/>
<stop offset="0.69" stop-color="#2E3CAD" stop-opacity="0.85"/>
<stop offset="0.89" stop-color="#191589"/>
</linearGradient>
<linearGradient id="paint2_linear_2121_1537" x1="4.48378" y1="31.1859" x2="27.9786" y2="3.20483" gradientUnits="userSpaceOnUse">
<stop offset="0.07" stop-color="#5E93FF" stop-opacity="0.5"/>
<stop offset="0.27" stop-color="#3B54C4" stop-opacity="0.7"/>
<stop offset="0.48" stop-color="#222598" stop-opacity="0.85"/>
<stop offset="0.61" stop-color="#191589" stop-opacity="0.9"/>
<stop offset="0.67" stop-color="#18188D" stop-opacity="0.86"/>
<stop offset="0.75" stop-color="#15219A" stop-opacity="0.76"/>
<stop offset="0.82" stop-color="#1030AF" stop-opacity="0.59"/>
<stop offset="0.9" stop-color="#0945CD" stop-opacity="0.36"/>
<stop offset="0.99" stop-color="#0161F3" stop-opacity="0.05"/>
<stop offset="1" stop-color="#0066FA" stop-opacity="0"/>
</linearGradient>
<radialGradient id="paint3_radial_2121_1537" cx="0" cy="0" r="1" gradientUnits="userSpaceOnUse" gradientTransform="translate(6.31191 8.23558) scale(7.1254)">
<stop stop-color="#191589" stop-opacity="0.9"/>
<stop offset="0.17" stop-color="#161E95" stop-opacity="0.8"/>
<stop offset="0.48" stop-color="#0E36B7" stop-opacity="0.53"/>
<stop offset="0.91" stop-color="#025DEE" stop-opacity="0.09"/>
<stop offset="1" stop-color="#0066FA" stop-opacity="0"/>
</radialGradient>
<radialGradient id="paint4_radial_2121_1537" cx="0" cy="0" r="1" gradientUnits="userSpaceOnUse" gradientTransform="translate(20.7306 8.95043) scale(9.42169)">
<stop offset="0.18" stop-color="#191589"/>
<stop offset="0.19" stop-color="#18168A" stop-opacity="0.99"/>
<stop offset="0.47" stop-color="#0E38BA" stop-opacity="0.57"/>
<stop offset="0.7" stop-color="#0651DC" stop-opacity="0.26"/>
<stop offset="0.89" stop-color="#0160F2" stop-opacity="0.07"/>
<stop offset="1" stop-color="#0066FA" stop-opacity="0"/>
</radialGradient>
<clipPath id="clip0_2121_1537">
<rect width="27.1563" height="32" fill="white" transform="translate(0.00195312 0.5)"/>
</clipPath>
</defs>
</svg>
