<svg width="539" height="334" viewBox="0 0 539 334" fill="none" xmlns="http://www.w3.org/2000/svg">
<g clip-path="url(#clip0_2143_2476)">
<path opacity="0.4" d="M104.875 136.78C175.161 192.599 276.853 201.654 321.194 184.223C373.876 163.513 419.191 129.377 468.019 101.958C472.761 99.5515 470.01 94.822 465.267 97.2289C438.022 109.811 407.629 124.53 386.138 133.993L352.613 102.28C349.683 99.4981 351.269 94.4292 355.372 93.8671L495.125 74.9808C501.737 74.126 506.605 81.087 503.553 86.9934L451.723 184.886C449.647 188.71 444.521 189.527 441.47 186.519L412.28 158.81C399.764 165.872 386.808 173.632 373.418 182.317C358.115 192.193 310.39 230.168 305.451 233.837C178.872 343.152 307.015 543.193 505.843 671.368C-169.405 804.788 -1055.23 -32.7332 -65.6593 -211.628C-4.96259 -51.4378 -55.5155 9.40125 104.875 136.78Z" fill="url(#paint0_linear_2143_2476)"/>
</g>
<defs>
<linearGradient id="paint0_linear_2143_2476" x1="502.859" y1="74.9351" x2="-231.638" y2="370.953" gradientUnits="userSpaceOnUse">
<stop offset="0.0001" stop-color="#111928"/>
<stop offset="1" stop-color="#111928" stop-opacity="0"/>
</linearGradient>
<clipPath id="clip0_2143_2476">
<rect width="539" height="334" fill="white"/>
</clipPath>
</defs>
</svg>
