<svg width="65" height="65" viewBox="0 0 65 65" fill="none" xmlns="http://www.w3.org/2000/svg">
<g id="recycle-bin-2--remove-delete-empty-bin-trash-garbage">
<g id="recycle-bin-2--remove-delete-empty-bin-trash-garbage_2">
<path id="Vector" d="M7.33334 17.5546H58" stroke="#C6D1E7" stroke-width="2.66667" stroke-linecap="round" stroke-linejoin="round"/>
<path id="Vector_2" d="M13.6667 17.5546H51.6668V55.5546C51.6668 56.6743 51.2217 57.7485 50.4301 58.5401C49.6384 59.3318 48.5643 59.7768 47.4445 59.7768H17.889C16.7691 59.7768 15.6952 59.3318 14.9034 58.5401C14.1116 57.7485 13.6667 56.6743 13.6667 55.5546V17.5546Z" stroke="#C6D1E7" stroke-width="2.66667" stroke-linecap="round" stroke-linejoin="round"/>
<path id="Vector_3" d="M22.1113 17.5544V15.4433C22.1113 12.6438 23.2234 9.95888 25.2029 7.97934C27.1825 5.9998 29.8673 4.8877 32.6668 4.8877C35.4663 4.8877 38.1512 5.9998 40.1308 7.97934C42.1103 9.95888 43.2224 12.6438 43.2224 15.4433V17.5544" stroke="#C6D1E7" stroke-width="2.66667" stroke-linecap="round" stroke-linejoin="round"/>
<path id="Vector_4" d="M26.3332 30.2275V47.1229" stroke="#C6D1E7" stroke-width="2.66667" stroke-linecap="round" stroke-linejoin="round"/>
<path id="Vector_5" d="M39 30.2275V47.1229" stroke="#C6D1E7" stroke-width="2.66667" stroke-linecap="round" stroke-linejoin="round"/>
</g>
</g>
</svg>
