<svg width="65" height="65" viewBox="0 0 65 65" fill="none" xmlns="http://www.w3.org/2000/svg">
<g id="shield-tick">
<path id="Icon" d="M24.667 30.9997L30.0003 36.333L42.0003 24.333M54.0003 32.333C54.0003 45.4222 39.7231 54.942 34.5283 57.9727C33.9379 58.3171 33.6428 58.4893 33.2262 58.5786C32.9029 58.648 32.4312 58.648 32.1079 58.5786C31.6913 58.4893 31.3961 58.3171 30.8057 57.9727C25.6109 54.9421 11.3337 45.4222 11.3337 32.333V19.5799C11.3337 17.4479 11.3337 16.3819 11.6824 15.4655C11.9904 14.656 12.491 13.9337 13.1408 13.3611C13.8763 12.7128 14.8745 12.3385 16.8708 11.5899L31.1689 6.22812C31.7233 6.02022 32.0005 5.91628 32.2856 5.87507C32.5386 5.83852 32.7955 5.83852 33.0484 5.87507C33.3336 5.91628 33.6108 6.02022 34.1651 6.22812L48.4633 11.5899C50.4596 12.3385 51.4577 12.7128 52.1933 13.3611C52.8431 13.9337 53.3436 14.656 53.6517 15.4655C54.0003 16.3819 54.0003 17.4479 54.0003 19.5799V32.333Z" stroke="#C6D1E7" stroke-width="2.66667" stroke-linecap="round" stroke-linejoin="round"/>
</g>
</svg>
