<svg width="511" height="627" viewBox="0 0 511 627" fill="none" xmlns="http://www.w3.org/2000/svg">
<g opacity="0.4" filter="url(#filter0_d_2121_1487)">
<mask id="mask0_2121_1487" style="mask-type:alpha" maskUnits="userSpaceOnUse" x="1" y="-39" width="641" height="686">
<rect x="3.43561" y="-38.1941" width="637.678" height="682.987" transform="rotate(0.154156 3.43561 -38.1941)" fill="url(#paint0_linear_2121_1487)"/>
</mask>
<g mask="url(#mask0_2121_1487)">
<path fill-rule="evenodd" clip-rule="evenodd" d="M338.78 633.973L370.083 621.988C449.37 591.457 517.545 538.018 565.752 468.622C613.959 399.222 639.962 317.072 640.381 232.848L640.761 93.1331C640.77 89.8027 637.934 87.1637 634.609 87.3401C498.779 94.5442 393.189 51.3302 327.751 -38.5325C325.44 -41.7057 320.693 -41.8154 318.252 -38.7409C282.496 6.29689 235.599 41.5016 182.045 63.4254C128.061 85.5259 69.2385 93.3428 11.349 86.165C7.87558 85.7343 4.77129 88.4129 4.76178 91.9129L4.38337 231.154C4.34687 315.378 29.9025 397.666 77.7298 467.322C125.557 536.974 193.443 590.775 272.563 621.729L303.8 633.88C315.066 638.097 327.492 638.13 338.78 633.973ZM369.662 254.993L313.475 286.606C313.475 286.606 273.15 308.099 259.024 313.603C252.498 316.147 246.811 317.059 240.817 316.7C229.16 316 222.335 305.419 222.369 293.013L222.475 254.125C222.6 208.031 260.295 170.764 306.67 170.888L350.832 171.005C372.861 171.064 392.13 175.436 408.635 184.135C425.133 192.821 437.952 205.006 447.087 220.685C456.222 236.364 460.765 254.483 460.708 275.615C460.65 296.748 455.894 315.026 446.429 330.464C436.964 345.91 423.745 357.778 406.759 366.091C389.781 374.401 369.983 378.531 347.37 378.47L318.819 378.394C308.566 378.367 298.776 382.623 291.838 390.124L239.688 446.499C233.386 453.312 221.946 448.862 221.971 439.605L222.091 395.384C222.173 365.033 236.043 353.386 263.316 334.846C269.658 330.538 279.376 323.986 287.097 319.18C296.975 313.028 324.513 297.868 324.513 297.868L346.231 319.571C348.602 321.941 352.598 321.407 354.251 318.496L396.035 244.983C398.553 240.552 394.976 235.143 389.883 235.685L282.202 247.153C279.132 247.481 277.805 251.193 279.985 253.372L305.011 278.332L367.833 251.507C370.106 250.717 371.727 253.76 369.662 254.993Z" fill="#111928"/>
</g>
</g>
<defs>
<filter id="filter0_d_2121_1487" x="0.383331" y="-38.1941" width="644.378" height="683.261" filterUnits="userSpaceOnUse" color-interpolation-filters="sRGB">
<feFlood flood-opacity="0" result="BackgroundImageFix"/>
<feColorMatrix in="SourceAlpha" type="matrix" values="0 0 0 0 0 0 0 0 0 0 0 0 0 0 0 0 0 0 127 0" result="hardAlpha"/>
<feOffset dy="4"/>
<feGaussianBlur stdDeviation="2"/>
<feComposite in2="hardAlpha" operator="out"/>
<feColorMatrix type="matrix" values="0 0 0 0 0 0 0 0 0 0 0 0 0 0 0 0 0 0 0.25 0"/>
<feBlend mode="normal" in2="BackgroundImageFix" result="effect1_dropShadow_2121_1487"/>
<feBlend mode="normal" in="SourceGraphic" in2="effect1_dropShadow_2121_1487" result="shape"/>
</filter>
<linearGradient id="paint0_linear_2121_1487" x1="623.174" y1="-38.194" x2="117.694" y2="777.747" gradientUnits="userSpaceOnUse">
<stop stop-color="white"/>
<stop offset="1" stop-color="white" stop-opacity="0"/>
</linearGradient>
</defs>
</svg>
